<svg xmlns="http://www.w3.org/2000/svg" viewBox="-195.6 -195.6 391.2 391.2" width="512" height="512">
  <title>askOdin Icon</title>
  <path d="M0 175.59L0 175.59Q-44.26 175.59-77.82 155.65Q-111.39 135.71-129.63 96.55Q-147.87 57.40-147.87 0L-147.87 0Q-147.87-57.40-129.63-96.55Q-111.39-135.71-77.82-155.65Q-44.26-175.59 0-175.59L0-175.59Q44.75-175.59 78.07-155.65Q111.39-135.71 129.63-96.55Q147.87-57.40 147.87 0L147.87 0Q147.87 57.40 129.63 96.55Q111.39 135.71 78.07 155.65Q44.75 175.59 0 175.59ZM0 118.68L0 118.68Q24.81 118.68 42.56 107.49Q60.31 96.31 70.04 75.64Q79.77 54.96 79.77 26.27L79.77 26.27L79.77-26.27Q79.77-55.45 70.04-75.88Q60.31-96.31 42.56-107.49Q24.81-118.68 0-118.68L0-118.68Q-23.83-118.68-41.83-107.49Q-59.83-96.31-69.80-75.88Q-79.77-55.45-79.77-26.27L-79.77-26.27L-79.77 26.27Q-79.77 54.96-69.80 75.64Q-59.83 96.31-41.83 107.49Q-23.83 118.68 0 118.68Z" fill="#147B58"/>
  <path d="M 0 -43.029887999999985 L 43.029888 1.4210854715202004e-14 L 0 43.029888000000014 L -43.029888 1.4210854715202004e-14 Z" fill="#DB4A2B"/>
</svg>