<svg xmlns="http://www.w3.org/2000/svg" viewBox="0 0 1200 630" width="1200" height="630">
  <title>askOdin - Judgment Infrastructure for Capital Allocation</title>
  <rect width="1200" height="630" fill="#111119"/>
  <!-- Top accent bar -->
  <rect width="1200" height="6" fill="#DB4A2B"/>
  <!-- Logo -->
  <path d="M435.78 344.76L435.78 357L427.26 357Q423.78 357 421.08 355.38Q418.38 353.76 416.88 350.64Q415.38 347.52 415.38 343.32L415.38 343.32L415.38 342L419.22 346.20L414.90 346.20Q413.34 352.20 408.48 355.32Q403.62 358.44 396.66 358.44L396.66 358.44Q387.06 358.44 381.90 353.34Q376.74 348.24 376.74 339.96L376.74 339.96Q376.74 333.48 379.92 329.28Q383.10 325.08 389.10 322.92Q395.10 320.76 403.50 320.76L403.50 320.76L414.18 320.76L414.18 316.20Q414.18 311.04 411.42 308.10Q408.66 305.16 402.54 305.16L402.54 305.16Q397.14 305.16 393.84 307.50Q390.54 309.84 388.26 313.08L388.26 313.08L379.14 304.92Q382.62 299.52 388.38 296.22Q394.14 292.92 403.62 292.92L403.62 292.92Q416.22 292.92 422.88 298.74Q429.54 304.56 429.54 315.24L429.54 315.24L429.54 344.76L435.78 344.76ZM414.18 338.28L414.18 330L404.34 330Q398.34 330 395.34 331.98Q392.34 333.96 392.34 337.68L392.34 337.68L392.34 339.72Q392.34 343.44 394.86 345.36Q397.38 347.28 401.82 347.28L401.82 347.28Q405.30 347.28 408.06 346.26Q410.82 345.24 412.50 343.20Q414.18 341.16 414.18 338.28L414.18 338.28ZM468.78 358.44L468.78 358.44Q459.78 358.44 453.66 355.38Q447.54 352.32 442.86 346.92L442.86 346.92L452.22 337.80Q455.70 341.76 459.84 344.04Q463.98 346.32 469.38 346.32L469.38 346.32Q474.90 346.32 477.36 344.40Q479.82 342.48 479.82 339.12L479.82 339.12Q479.82 336.36 478.08 334.74Q476.34 333.12 472.14 332.52L472.14 332.52L465.90 331.68Q459.18 330.84 454.50 328.56Q449.82 326.28 447.42 322.32Q445.02 318.36 445.02 312.72L445.02 312.72Q445.02 303.60 451.56 298.26Q458.10 292.92 468.78 292.92L468.78 292.92Q474.90 292.92 479.28 294.06Q483.66 295.20 487.02 297.42Q490.38 299.64 493.26 302.76L493.26 302.76L484.26 311.76Q481.50 308.88 477.66 306.96Q473.82 305.04 469.26 305.04L469.26 305.04Q464.46 305.04 462.12 306.78Q459.78 308.52 459.78 311.52L459.78 311.52Q459.78 314.64 461.64 316.26Q463.50 317.88 467.94 318.60L467.94 318.60L474.30 319.44Q484.62 320.88 489.60 325.50Q494.58 330.12 494.58 337.92L494.58 337.92Q494.58 343.92 491.40 348.60Q488.22 353.28 482.40 355.86Q476.58 358.44 468.78 358.44ZM523.50 357L508.14 357L508.14 268.20L523.50 268.20L523.50 309L523.50 321.72L524.10 321.72L532.38 310.44L546.42 294.36L563.82 294.36L542.22 318.60L566.10 357L547.86 357L531.78 328.92L523.50 337.92L523.50 357Z" fill="#DB4A2B"/>
  <path d="M609.42 358.44L609.42 358.44Q598.50 358.44 590.22 353.52Q581.94 348.60 577.44 338.94Q572.94 329.28 572.94 315.12L572.94 315.12Q572.94 300.96 577.44 291.30Q581.94 281.64 590.22 276.72Q598.50 271.80 609.42 271.80L609.42 271.80Q620.46 271.80 628.68 276.72Q636.90 281.64 641.40 291.30Q645.90 300.96 645.90 315.12L645.90 315.12Q645.90 329.28 641.40 338.94Q636.90 348.60 628.68 353.52Q620.46 358.44 609.42 358.44ZM609.42 344.40L609.42 344.40Q615.54 344.40 619.92 341.64Q624.30 338.88 626.70 333.78Q629.10 328.68 629.10 321.60L629.10 321.60L629.10 308.64Q629.10 301.44 626.70 296.40Q624.30 291.36 619.92 288.60Q615.54 285.84 609.42 285.84L609.42 285.84Q603.54 285.84 599.10 288.60Q594.66 291.36 592.20 296.40Q589.74 301.44 589.74 308.64L589.74 308.64L589.74 321.60Q589.74 328.68 592.20 333.78Q594.66 338.88 599.10 341.64Q603.54 344.40 609.42 344.40ZM715.26 357L699.90 357L699.90 346.56L699.30 346.56Q697.62 351.96 692.94 355.20Q688.26 358.44 682.02 358.44L682.02 358.44Q674.22 358.44 668.76 354.60Q663.30 350.76 660.42 343.38Q657.54 336 657.54 325.56L657.54 325.56Q657.54 315.12 660.42 307.86Q663.30 300.60 668.76 296.76Q674.22 292.92 682.02 292.92L682.02 292.92Q688.26 292.92 693.00 296.10Q697.74 299.28 699.30 304.68L699.30 304.68L699.90 304.68L699.90 268.20L715.26 268.20L715.26 357ZM686.94 345.72L686.94 345.72Q690.66 345.72 693.60 344.52Q696.54 343.32 698.22 341.04Q699.90 338.76 699.90 335.52L699.90 335.52L699.90 315.60Q699.90 312.60 698.22 310.32Q696.54 308.04 693.60 306.78Q690.66 305.52 686.94 305.52L686.94 305.52Q681.06 305.52 677.34 309.54Q673.62 313.56 673.62 320.28L673.62 320.28L673.62 331.08Q673.62 337.68 677.34 341.70Q681.06 345.72 686.94 345.72ZM740.70 285.24L740.70 285.24Q736.02 285.24 733.86 283.02Q731.70 280.80 731.70 277.56L731.70 277.56L731.70 275.16Q731.70 271.80 733.86 269.64Q736.02 267.48 740.70 267.48L740.70 267.48Q745.38 267.48 747.54 269.64Q749.70 271.80 749.70 275.16L749.70 275.16L749.70 277.56Q749.70 280.80 747.54 283.02Q745.38 285.24 740.70 285.24ZM748.38 357L733.02 357L733.02 294.36L748.38 294.36L748.38 357ZM781.38 315.60L781.38 357L766.02 357L766.02 294.36L781.38 294.36L781.38 304.80L781.98 304.80Q783.90 299.76 788.04 296.34Q792.18 292.92 799.50 292.92L799.50 292.92Q809.10 292.92 814.32 299.34Q819.54 305.76 819.54 317.40L819.54 317.40L819.54 357L804.18 357L804.18 318.96Q804.18 312.36 801.78 308.94Q799.38 305.52 793.86 305.52L793.86 305.52Q790.74 305.52 787.86 306.66Q784.98 307.80 783.18 310.02Q781.38 312.24 781.38 315.60L781.38 315.60Z" fill="#147B58"/>
  <!-- Tagline -->
  <path d="M344.44 402.84L344.44 400.25L352.88 400.25L352.88 412.30Q352.88 413.81 352.24 414.92Q351.59 416.04 350.40 416.65Q349.21 417.26 347.58 417.26L347.58 417.26Q345.25 417.26 343.96 416.04Q342.66 414.82 342.30 412.82L342.30 412.82L345.23 412.22Q345.44 413.28 346.02 413.88Q346.60 414.48 347.56 414.48L347.56 414.48Q348.49 414.48 349.10 413.89Q349.72 413.30 349.72 412.08L349.72 412.08L349.72 402.84L344.44 402.84ZM367.09 417L364.02 417L364.02 414.91L363.90 414.91Q363.59 415.85 362.77 416.57Q361.96 417.29 360.40 417.29L360.40 417.29Q358.48 417.29 357.43 416.00Q356.39 414.72 356.39 412.39L356.39 412.39L356.39 404.47L359.46 404.47L359.46 412.08Q359.46 413.38 359.96 414.06Q360.47 414.74 361.57 414.74L361.57 414.74Q362.17 414.74 362.74 414.53Q363.30 414.31 363.66 413.87Q364.02 413.42 364.02 412.75L364.02 412.75L364.02 404.47L367.09 404.47L367.09 417ZM381.49 417L378.42 417L378.42 414.91L378.30 414.91Q377.96 415.99 377.03 416.64Q376.09 417.29 374.84 417.29L374.84 417.29Q373.28 417.29 372.19 416.52Q371.10 415.75 370.52 414.28Q369.95 412.80 369.95 410.71L369.95 410.71Q369.95 408.62 370.52 407.17Q371.10 405.72 372.19 404.95Q373.28 404.18 374.84 404.18L374.84 404.18Q376.09 404.18 377.04 404.82Q377.99 405.46 378.30 406.54L378.30 406.54L378.42 406.54L378.42 399.24L381.49 399.24L381.49 417ZM375.83 414.74L375.83 414.74Q376.57 414.74 377.16 414.50Q377.75 414.26 378.08 413.81Q378.42 413.35 378.42 412.70L378.42 412.70L378.42 408.72Q378.42 408.12 378.08 407.66Q377.75 407.21 377.16 406.96Q376.57 406.70 375.83 406.70L375.83 406.70Q374.65 406.70 373.91 407.51Q373.16 408.31 373.16 409.66L373.16 409.66L373.16 411.82Q373.16 413.14 373.91 413.94Q374.65 414.74 375.83 414.74ZM396.35 418.06L396.35 418.06Q396.35 419.35 395.70 420.25Q395.05 421.15 393.61 421.62Q392.17 422.09 389.77 422.09L389.77 422.09Q387.66 422.09 386.38 421.74Q385.09 421.39 384.52 420.72Q383.94 420.05 383.94 419.14L383.94 419.14Q383.94 418.08 384.54 417.49Q385.14 416.90 386.17 416.74L386.17 416.74L386.17 416.47Q385.40 416.26 384.98 415.70Q384.56 415.15 384.56 414.38L384.56 414.38Q384.56 413.42 385.26 412.90Q385.96 412.37 386.87 412.18L386.87 412.18L386.87 412.08Q385.74 411.55 385.16 410.62Q384.59 409.68 384.59 408.43L384.59 408.43Q384.59 407.16 385.18 406.20Q385.76 405.24 386.93 404.71Q388.09 404.18 389.77 404.18L389.77 404.18Q390.40 404.18 390.95 404.26Q391.50 404.33 391.96 404.50L391.96 404.50L391.96 404.09Q391.96 403.18 392.41 402.72Q392.87 402.26 393.73 402.26L393.73 402.26L395.68 402.26L395.68 404.62L393.01 404.62L393.01 404.95Q394.00 405.50 394.48 406.40Q394.96 407.30 394.96 408.43L394.96 408.43Q394.96 409.68 394.37 410.64Q393.78 411.60 392.63 412.12Q391.48 412.63 389.77 412.63L389.77 412.63Q389.24 412.63 388.75 412.57Q388.26 412.51 387.85 412.42L387.85 412.42Q387.49 412.58 387.23 412.86Q386.96 413.14 386.96 413.54L386.96 413.54Q386.96 414.02 387.37 414.25Q387.78 414.48 388.60 414.48L388.60 414.48L391.96 414.48Q394.26 414.48 395.30 415.42Q396.35 416.35 396.35 418.06ZM393.47 418.42L393.47 418.42Q393.47 417.82 392.99 417.48Q392.51 417.14 391.33 417.14L391.33 417.14L387.06 417.14Q386.72 417.41 386.57 417.74Q386.41 418.08 386.41 418.44L386.41 418.44Q386.41 419.16 387.01 419.57Q387.61 419.98 389.05 419.98L389.05 419.98L390.59 419.98Q392.08 419.98 392.77 419.59Q393.47 419.21 393.47 418.42ZM389.77 410.54L389.77 410.54Q390.88 410.54 391.45 410.05Q392.03 409.56 392.03 408.62L392.03 408.62L392.03 408.22Q392.03 407.26 391.45 406.78Q390.88 406.30 389.77 406.30L389.77 406.30Q388.69 406.30 388.10 406.78Q387.52 407.26 387.52 408.22L387.52 408.22L387.52 408.62Q387.52 409.56 388.10 410.05Q388.69 410.54 389.77 410.54ZM401.20 408.72L401.20 417L398.12 417L398.12 404.47L401.20 404.47L401.20 406.56L401.32 406.56Q401.68 405.58 402.48 404.88Q403.28 404.18 404.68 404.18L404.68 404.18Q405.97 404.18 406.92 404.81Q407.87 405.43 408.30 406.70L408.30 406.70L408.35 406.70Q408.68 405.67 409.69 404.93Q410.70 404.18 412.19 404.18L412.19 404.18Q414.01 404.18 415.02 405.47Q416.03 406.75 416.03 409.08L416.03 409.08L416.03 417L412.96 417L412.96 409.39Q412.96 408.05 412.46 407.38Q411.97 406.70 410.94 406.70L410.94 406.70Q410.34 406.70 409.80 406.93Q409.26 407.16 408.94 407.60Q408.61 408.05 408.61 408.72L408.61 408.72L408.61 417L405.54 417L405.54 409.39Q405.54 408.05 405.04 407.38Q404.53 406.70 403.52 406.70L403.52 406.70Q402.95 406.70 402.41 406.93Q401.87 407.16 401.53 407.60Q401.20 408.05 401.20 408.72L401.20 408.72ZM424.50 417.29L424.50 417.29Q422.65 417.29 421.33 416.48Q420.01 415.68 419.30 414.20Q418.60 412.73 418.60 410.71L418.60 410.71Q418.60 408.74 419.29 407.27Q419.99 405.79 421.28 404.99Q422.58 404.18 424.40 404.18L424.40 404.18Q426.37 404.18 427.63 405.05Q428.89 405.91 429.50 407.34Q430.12 408.77 430.12 410.50L430.12 410.50L430.12 411.50L421.79 411.50L421.79 411.82Q421.79 413.16 422.56 414Q423.32 414.84 424.84 414.84L424.84 414.84Q425.96 414.84 426.71 414.35Q427.45 413.86 428.03 413.14L428.03 413.14L429.68 414.98Q428.92 416.02 427.58 416.65Q426.25 417.29 424.50 417.29ZM424.45 406.49L424.45 406.49Q423.64 406.49 423.04 406.86Q422.44 407.23 422.11 407.89Q421.79 408.55 421.79 409.42L421.79 409.42L421.79 409.61L426.92 409.61L426.92 409.39Q426.92 408.50 426.64 407.87Q426.35 407.23 425.80 406.86Q425.24 406.49 424.45 406.49ZM435.90 408.72L435.90 417L432.83 417L432.83 404.47L435.90 404.47L435.90 406.56L436.02 406.56Q436.40 405.55 437.23 404.87Q438.06 404.18 439.52 404.18L439.52 404.18Q441.44 404.18 442.49 405.47Q443.53 406.75 443.53 409.08L443.53 409.08L443.53 417L440.46 417L440.46 409.39Q440.46 408.07 439.98 407.39Q439.50 406.70 438.40 406.70L438.40 406.70Q437.77 406.70 437.20 406.93Q436.62 407.16 436.26 407.60Q435.90 408.05 435.90 408.72L435.90 408.72ZM453.06 414.55L453.06 417L450.85 417Q449.27 417 448.44 416.17Q447.61 415.34 447.61 413.81L447.61 413.81L447.61 406.90L445.76 406.90L445.76 404.47L446.72 404.47Q447.42 404.47 447.67 404.15Q447.92 403.82 447.92 403.18L447.92 403.18L447.92 401.04L450.68 401.04L450.68 404.47L453.25 404.47L453.25 406.90L450.68 406.90L450.68 414.55L453.06 414.55ZM468.68 414.46L468.68 417L461.08 417L461.08 414.46L463.28 414.46L463.28 402.79L461.08 402.79L461.08 400.25L468.68 400.25L468.68 402.79L466.45 402.79L466.45 414.46L468.68 414.46ZM474.80 408.72L474.80 417L471.73 417L471.73 404.47L474.80 404.47L474.80 406.56L474.92 406.56Q475.31 405.55 476.14 404.87Q476.96 404.18 478.43 404.18L478.43 404.18Q480.35 404.18 481.39 405.47Q482.44 406.75 482.44 409.08L482.44 409.08L482.44 417L479.36 417L479.36 409.39Q479.36 408.07 478.88 407.39Q478.40 406.70 477.30 406.70L477.30 406.70Q476.68 406.70 476.10 406.93Q475.52 407.16 475.16 407.60Q474.80 408.05 474.80 408.72L474.80 408.72ZM489.54 417L486.47 417L486.47 406.90L484.62 406.90L484.62 404.47L486.47 404.47L486.47 402.67Q486.47 401.02 487.36 400.13Q488.24 399.24 489.92 399.24L489.92 399.24L492.11 399.24L492.11 401.69L489.54 401.69L489.54 404.47L492.11 404.47L492.11 406.90L489.54 406.90L489.54 417ZM497.32 409.32L497.32 417L494.24 417L494.24 404.47L497.32 404.47L497.32 407.06L497.44 407.06Q497.60 406.39 498.00 405.80Q498.40 405.22 499.08 404.84Q499.76 404.47 500.75 404.47L500.75 404.47L501.42 404.47L501.42 407.38L500.46 407.38Q499.43 407.38 498.72 407.58Q498.01 407.78 497.66 408.20Q497.32 408.62 497.32 409.32L497.32 409.32ZM514.60 414.55L514.60 417L512.89 417Q512.20 417 511.66 416.68Q511.12 416.35 510.82 415.73Q510.52 415.10 510.52 414.26L510.52 414.26L510.52 414L511.28 414.84L510.42 414.84Q510.11 416.04 509.14 416.66Q508.16 417.29 506.77 417.29L506.77 417.29Q504.85 417.29 503.82 416.27Q502.79 415.25 502.79 413.59L502.79 413.59Q502.79 412.30 503.42 411.46Q504.06 410.62 505.26 410.18Q506.46 409.75 508.14 409.75L508.14 409.75L510.28 409.75L510.28 408.84Q510.28 407.81 509.72 407.22Q509.17 406.63 507.95 406.63L507.95 406.63Q506.87 406.63 506.21 407.10Q505.55 407.57 505.09 408.22L505.09 408.22L503.27 406.58Q503.96 405.50 505.12 404.84Q506.27 404.18 508.16 404.18L508.16 404.18Q510.68 404.18 512.02 405.35Q513.35 406.51 513.35 408.65L513.35 408.65L513.35 414.55L514.60 414.55ZM510.28 413.26L510.28 411.60L508.31 411.60Q507.11 411.60 506.51 412.00Q505.91 412.39 505.91 413.14L505.91 413.14L505.91 413.54Q505.91 414.29 506.41 414.67Q506.92 415.06 507.80 415.06L507.80 415.06Q508.50 415.06 509.05 414.85Q509.60 414.65 509.94 414.24Q510.28 413.83 510.28 413.26L510.28 413.26ZM521.20 417.29L521.20 417.29Q519.40 417.29 518.17 416.68Q516.95 416.06 516.01 414.98L516.01 414.98L517.88 413.16Q518.58 413.95 519.41 414.41Q520.24 414.86 521.32 414.86L521.32 414.86Q522.42 414.86 522.91 414.48Q523.40 414.10 523.40 413.42L523.40 413.42Q523.40 412.87 523.06 412.55Q522.71 412.22 521.87 412.10L521.87 412.10L520.62 411.94Q519.28 411.77 518.34 411.31Q517.40 410.86 516.92 410.06Q516.44 409.27 516.44 408.14L516.44 408.14Q516.44 406.32 517.75 405.25Q519.06 404.18 521.20 404.18L521.20 404.18Q522.42 404.18 523.30 404.41Q524.17 404.64 524.84 405.08Q525.52 405.53 526.09 406.15L526.09 406.15L524.29 407.95Q523.74 407.38 522.97 406.99Q522.20 406.61 521.29 406.61L521.29 406.61Q520.33 406.61 519.86 406.96Q519.40 407.30 519.40 407.90L519.40 407.90Q519.40 408.53 519.77 408.85Q520.14 409.18 521.03 409.32L521.03 409.32L522.30 409.49Q524.36 409.78 525.36 410.70Q526.36 411.62 526.36 413.18L526.36 413.18Q526.36 414.38 525.72 415.32Q525.08 416.26 523.92 416.77Q522.76 417.29 521.20 417.29ZM535.19 414.55L535.19 417L532.98 417Q531.40 417 530.57 416.17Q529.74 415.34 529.74 413.81L529.74 413.81L529.74 406.90L527.89 406.90L527.89 404.47L528.85 404.47Q529.55 404.47 529.80 404.15Q530.05 403.82 530.05 403.18L530.05 403.18L530.05 401.04L532.81 401.04L532.81 404.47L535.38 404.47L535.38 406.90L532.81 406.90L532.81 414.55L535.19 414.55ZM541.12 409.32L541.12 417L538.04 417L538.04 404.47L541.12 404.47L541.12 407.06L541.24 407.06Q541.40 406.39 541.80 405.80Q542.20 405.22 542.88 404.84Q543.56 404.47 544.55 404.47L544.55 404.47L545.22 404.47L545.22 407.38L544.26 407.38Q543.23 407.38 542.52 407.58Q541.81 407.78 541.46 408.20Q541.12 408.62 541.12 409.32L541.12 409.32ZM558.04 417L554.96 417L554.96 414.91L554.84 414.91Q554.53 415.85 553.72 416.57Q552.90 417.29 551.34 417.29L551.34 417.29Q549.42 417.29 548.38 416.00Q547.33 414.72 547.33 412.39L547.33 412.39L547.33 404.47L550.40 404.47L550.40 412.08Q550.40 413.38 550.91 414.06Q551.41 414.74 552.52 414.74L552.52 414.74Q553.12 414.74 553.68 414.53Q554.24 414.31 554.60 413.87Q554.96 413.42 554.96 412.75L554.96 412.75L554.96 404.47L558.04 404.47L558.04 417ZM566.53 417.29L566.53 417.29Q563.75 417.29 562.25 415.51Q560.75 413.74 560.75 410.71L560.75 410.71Q560.75 407.71 562.25 405.95Q563.75 404.18 566.53 404.18L566.53 404.18Q568.43 404.18 569.66 405.02Q570.90 405.86 571.45 407.35L571.45 407.35L568.93 408.48Q568.72 407.69 568.12 407.17Q567.52 406.66 566.53 406.66L566.53 406.66Q565.26 406.66 564.61 407.46Q563.96 408.26 563.96 409.61L563.96 409.61L563.96 411.89Q563.96 413.18 564.61 414Q565.26 414.82 566.53 414.82L566.53 414.82Q567.61 414.82 568.22 414.25Q568.84 413.69 569.17 412.85L569.17 412.85L571.52 413.98Q570.92 415.63 569.64 416.46Q568.36 417.29 566.53 417.29ZM580.02 414.55L580.02 417L577.81 417Q576.23 417 575.40 416.17Q574.57 415.34 574.57 413.81L574.57 413.81L574.57 406.90L572.72 406.90L572.72 404.47L573.68 404.47Q574.38 404.47 574.63 404.15Q574.88 403.82 574.88 403.18L574.88 403.18L574.88 401.04L577.64 401.04L577.64 404.47L580.21 404.47L580.21 406.90L577.64 406.90L577.64 414.55L580.02 414.55ZM593.44 417L590.36 417L590.36 414.91L590.24 414.91Q589.93 415.85 589.12 416.57Q588.30 417.29 586.74 417.29L586.74 417.29Q584.82 417.29 583.78 416.00Q582.73 414.72 582.73 412.39L582.73 412.39L582.73 404.47L585.80 404.47L585.80 412.08Q585.80 413.38 586.31 414.06Q586.81 414.74 587.92 414.74L587.92 414.74Q588.52 414.74 589.08 414.53Q589.64 414.31 590.00 413.87Q590.36 413.42 590.36 412.75L590.36 412.75L590.36 404.47L593.44 404.47L593.44 417ZM600.06 409.32L600.06 417L596.99 417L596.99 404.47L600.06 404.47L600.06 407.06L600.18 407.06Q600.35 406.39 600.74 405.80Q601.14 405.22 601.82 404.84Q602.51 404.47 603.49 404.47L603.49 404.47L604.16 404.47L604.16 407.38L603.20 407.38Q602.17 407.38 601.46 407.58Q600.76 407.78 600.41 408.20Q600.06 408.62 600.06 409.32L600.06 409.32ZM611.48 417.29L611.48 417.29Q609.64 417.29 608.32 416.48Q607.00 415.68 606.29 414.20Q605.58 412.73 605.58 410.71L605.58 410.71Q605.58 408.74 606.28 407.27Q606.97 405.79 608.27 404.99Q609.56 404.18 611.39 404.18L611.39 404.18Q613.36 404.18 614.62 405.05Q615.88 405.91 616.49 407.34Q617.10 408.77 617.10 410.50L617.10 410.50L617.10 411.50L608.77 411.50L608.77 411.82Q608.77 413.16 609.54 414Q610.31 414.84 611.82 414.84L611.82 414.84Q612.95 414.84 613.69 414.35Q614.44 413.86 615.01 413.14L615.01 413.14L616.67 414.98Q615.90 416.02 614.57 416.65Q613.24 417.29 611.48 417.29ZM611.44 406.49L611.44 406.49Q610.62 406.49 610.02 406.86Q609.42 407.23 609.10 407.89Q608.77 408.55 608.77 409.42L608.77 409.42L608.77 409.61L613.91 409.61L613.91 409.39Q613.91 408.50 613.62 407.87Q613.33 407.23 612.78 406.86Q612.23 406.49 611.44 406.49ZM629.17 417L626.10 417L626.10 406.90L624.25 406.90L624.25 404.47L626.10 404.47L626.10 402.67Q626.10 401.02 626.99 400.13Q627.88 399.24 629.56 399.24L629.56 399.24L631.74 399.24L631.74 401.69L629.17 401.69L629.17 404.47L631.74 404.47L631.74 406.90L629.17 406.90L629.17 417ZM638.84 417.29L638.84 417.29Q637.07 417.29 635.76 416.48Q634.45 415.68 633.74 414.20Q633.04 412.73 633.04 410.71L633.04 410.71Q633.04 408.70 633.74 407.24Q634.45 405.79 635.76 404.99Q637.07 404.18 638.84 404.18L638.84 404.18Q640.64 404.18 641.95 404.99Q643.26 405.79 643.97 407.24Q644.68 408.70 644.68 410.71L644.68 410.71Q644.68 412.73 643.97 414.20Q643.26 415.68 641.95 416.48Q640.64 417.29 638.84 417.29ZM638.84 414.82L638.84 414.82Q640.07 414.82 640.76 414.06Q641.46 413.30 641.46 411.89L641.46 411.89L641.46 409.56Q641.46 408.14 640.76 407.40Q640.07 406.66 638.84 406.66L638.84 406.66Q637.67 406.66 636.96 407.40Q636.25 408.14 636.25 409.56L636.25 409.56L636.25 411.89Q636.25 413.30 636.96 414.06Q637.67 414.82 638.84 414.82ZM650.46 409.32L650.46 417L647.39 417L647.39 404.47L650.46 404.47L650.46 407.06L650.58 407.06Q650.75 406.39 651.14 405.80Q651.54 405.22 652.22 404.84Q652.91 404.47 653.89 404.47L653.89 404.47L654.56 404.47L654.56 407.38L653.60 407.38Q652.57 407.38 651.86 407.58Q651.16 407.78 650.81 408.20Q650.46 408.62 650.46 409.32L650.46 409.32ZM669.18 417.29L669.18 417.29Q666.97 417.29 665.35 416.33Q663.73 415.37 662.84 413.46Q661.96 411.55 661.96 408.74L661.96 408.74Q661.96 405.91 662.84 403.96Q663.73 402 665.35 400.98Q666.97 399.96 669.18 399.96L669.18 399.96Q671.41 399.96 672.91 400.92Q674.41 401.88 675.30 403.82L675.30 403.82L672.59 405.26Q672.23 404.14 671.41 403.45Q670.60 402.77 669.18 402.77L669.18 402.77Q667.40 402.77 666.36 403.97Q665.32 405.17 665.32 407.33L665.32 407.33L665.32 409.97Q665.32 412.10 666.36 413.29Q667.40 414.48 669.18 414.48L669.18 414.48Q670.60 414.48 671.48 413.71Q672.37 412.94 672.80 411.82L672.80 411.82L675.37 413.33Q674.48 415.20 672.95 416.24Q671.41 417.29 669.18 417.29ZM688.81 414.55L688.81 417L687.11 417Q686.41 417 685.87 416.68Q685.33 416.35 685.03 415.73Q684.73 415.10 684.73 414.26L684.73 414.26L684.73 414L685.50 414.84L684.64 414.84Q684.32 416.04 683.35 416.66Q682.38 417.29 680.99 417.29L680.99 417.29Q679.07 417.29 678.04 416.27Q677.00 415.25 677.00 413.59L677.00 413.59Q677.00 412.30 677.64 411.46Q678.28 410.62 679.48 410.18Q680.68 409.75 682.36 409.75L682.36 409.75L684.49 409.75L684.49 408.84Q684.49 407.81 683.94 407.22Q683.39 406.63 682.16 406.63L682.16 406.63Q681.08 406.63 680.42 407.10Q679.76 407.57 679.31 408.22L679.31 408.22L677.48 406.58Q678.18 405.50 679.33 404.84Q680.48 404.18 682.38 404.18L682.38 404.18Q684.90 404.18 686.23 405.35Q687.56 406.51 687.56 408.65L687.56 408.65L687.56 414.55L688.81 414.55ZM684.49 413.26L684.49 411.60L682.52 411.60Q681.32 411.60 680.72 412.00Q680.12 412.39 680.12 413.14L680.12 413.14L680.12 413.54Q680.12 414.29 680.63 414.67Q681.13 415.06 682.02 415.06L682.02 415.06Q682.72 415.06 683.27 414.85Q683.82 414.65 684.16 414.24Q684.49 413.83 684.49 413.26L684.49 413.26ZM694.38 421.80L691.31 421.80L691.31 404.47L694.38 404.47L694.38 406.54L694.48 406.54Q694.81 405.46 695.76 404.82Q696.71 404.18 697.93 404.18L697.93 404.18Q699.54 404.18 700.62 404.95Q701.70 405.72 702.28 407.17Q702.85 408.62 702.85 410.71L702.85 410.71Q702.85 412.80 702.28 414.28Q701.70 415.75 700.62 416.52Q699.54 417.29 697.93 417.29L697.93 417.29Q696.71 417.29 695.77 416.64Q694.84 415.99 694.48 414.91L694.48 414.91L694.38 414.91L694.38 421.80ZM696.95 414.74L696.95 414.74Q698.15 414.74 698.89 413.94Q699.64 413.14 699.64 411.82L699.64 411.82L699.64 409.66Q699.64 408.31 698.89 407.51Q698.15 406.70 696.95 406.70L696.95 406.70Q696.23 406.70 695.64 406.96Q695.05 407.21 694.72 407.66Q694.38 408.12 694.38 408.72L694.38 408.72L694.38 412.70Q694.38 413.35 694.72 413.81Q695.05 414.26 695.64 414.50Q696.23 414.74 696.95 414.74ZM707.24 402.65L707.24 402.65Q706.31 402.65 705.88 402.20Q705.44 401.76 705.44 401.11L705.44 401.11L705.44 400.63Q705.44 399.96 705.88 399.53Q706.31 399.10 707.24 399.10L707.24 399.10Q708.18 399.10 708.61 399.53Q709.04 399.96 709.04 400.63L709.04 400.63L709.04 401.11Q709.04 401.76 708.61 402.20Q708.18 402.65 707.24 402.65ZM708.78 417L705.71 417L705.71 404.47L708.78 404.47L708.78 417ZM718.43 414.55L718.43 417L716.22 417Q714.64 417 713.81 416.17Q712.98 415.34 712.98 413.81L712.98 413.81L712.98 406.90L711.13 406.90L711.13 404.47L712.09 404.47Q712.79 404.47 713.04 404.15Q713.29 403.82 713.29 403.18L713.29 403.18L713.29 401.04L716.05 401.04L716.05 404.47L718.62 404.47L718.62 406.90L716.05 406.90L716.05 414.55L718.43 414.55ZM732.20 414.55L732.20 417L730.50 417Q729.80 417 729.26 416.68Q728.72 416.35 728.42 415.73Q728.12 415.10 728.12 414.26L728.12 414.26L728.12 414L728.89 414.84L728.03 414.84Q727.72 416.04 726.74 416.66Q725.77 417.29 724.38 417.29L724.38 417.29Q722.46 417.29 721.43 416.27Q720.40 415.25 720.40 413.59L720.40 413.59Q720.40 412.30 721.03 411.46Q721.67 410.62 722.87 410.18Q724.07 409.75 725.75 409.75L725.75 409.75L727.88 409.75L727.88 408.84Q727.88 407.81 727.33 407.22Q726.78 406.63 725.56 406.63L725.56 406.63Q724.48 406.63 723.82 407.10Q723.16 407.57 722.70 408.22L722.70 408.22L720.88 406.58Q721.57 405.50 722.72 404.84Q723.88 404.18 725.77 404.18L725.77 404.18Q728.29 404.18 729.62 405.35Q730.96 406.51 730.96 408.65L730.96 408.65L730.96 414.55L732.20 414.55ZM727.88 413.26L727.88 411.60L725.92 411.60Q724.72 411.60 724.12 412.00Q723.52 412.39 723.52 413.14L723.52 413.14L723.52 413.54Q723.52 414.29 724.02 414.67Q724.52 415.06 725.41 415.06L725.41 415.06Q726.11 415.06 726.66 414.85Q727.21 414.65 727.55 414.24Q727.88 413.83 727.88 413.26L727.88 413.26ZM739.43 414.55L739.43 417L737.77 417Q736.21 417 735.46 416.21Q734.70 415.42 734.70 413.98L734.70 413.98L734.70 399.24L737.77 399.24L737.77 414.55L739.43 414.55ZM755.70 400.25L761.27 417L757.98 417L756.64 412.73L750.68 412.73L749.36 417L746.15 417L751.76 400.25L755.70 400.25ZM751.45 410.02L755.87 410.02L754.50 405.79L753.71 403.13L753.59 403.13L752.80 405.79L751.45 410.02ZM768.28 414.55L768.28 417L766.62 417Q765.06 417 764.30 416.21Q763.55 415.42 763.55 413.98L763.55 413.98L763.55 399.24L766.62 399.24L766.62 414.55L768.28 414.55ZM775.33 414.55L775.33 417L773.68 417Q772.12 417 771.36 416.21Q770.60 415.42 770.60 413.98L770.60 413.98L770.60 399.24L773.68 399.24L773.68 414.55L775.33 414.55ZM782.63 417.29L782.63 417.29Q780.85 417.29 779.54 416.48Q778.24 415.68 777.53 414.20Q776.82 412.73 776.82 410.71L776.82 410.71Q776.82 408.70 777.53 407.24Q778.24 405.79 779.54 404.99Q780.85 404.18 782.63 404.18L782.63 404.18Q784.43 404.18 785.74 404.99Q787.04 405.79 787.75 407.24Q788.46 408.70 788.46 410.71L788.46 410.71Q788.46 412.73 787.75 414.20Q787.04 415.68 785.74 416.48Q784.43 417.29 782.63 417.29ZM782.63 414.82L782.63 414.82Q783.85 414.82 784.55 414.06Q785.24 413.30 785.24 411.89L785.24 411.89L785.24 409.56Q785.24 408.14 784.55 407.40Q783.85 406.66 782.63 406.66L782.63 406.66Q781.45 406.66 780.74 407.40Q780.04 408.14 780.04 409.56L780.04 409.56L780.04 411.89Q780.04 413.30 780.74 414.06Q781.45 414.82 782.63 414.82ZM796.12 417.29L796.12 417.29Q793.33 417.29 791.83 415.51Q790.33 413.74 790.33 410.71L790.33 410.71Q790.33 407.71 791.83 405.95Q793.33 404.18 796.12 404.18L796.12 404.18Q798.01 404.18 799.25 405.02Q800.48 405.86 801.04 407.35L801.04 407.35L798.52 408.48Q798.30 407.69 797.70 407.17Q797.10 406.66 796.12 406.66L796.12 406.66Q794.84 406.66 794.20 407.46Q793.55 408.26 793.55 409.61L793.55 409.61L793.55 411.89Q793.55 413.18 794.20 414Q794.84 414.82 796.12 414.82L796.12 414.82Q797.20 414.82 797.81 414.25Q798.42 413.69 798.76 412.85L798.76 412.85L801.11 413.98Q800.51 415.63 799.22 416.46Q797.94 417.29 796.12 417.29ZM814.40 414.55L814.40 417L812.70 417Q812.00 417 811.46 416.68Q810.92 416.35 810.62 415.73Q810.32 415.10 810.32 414.26L810.32 414.26L810.32 414L811.09 414.84L810.23 414.84Q809.92 416.04 808.94 416.66Q807.97 417.29 806.58 417.29L806.58 417.29Q804.66 417.29 803.63 416.27Q802.60 415.25 802.60 413.59L802.60 413.59Q802.60 412.30 803.23 411.46Q803.87 410.62 805.07 410.18Q806.27 409.75 807.95 409.75L807.95 409.75L810.08 409.75L810.08 408.84Q810.08 407.81 809.53 407.22Q808.98 406.63 807.76 406.63L807.76 406.63Q806.68 406.63 806.02 407.10Q805.36 407.57 804.90 408.22L804.90 408.22L803.08 406.58Q803.77 405.50 804.92 404.84Q806.08 404.18 807.97 404.18L807.97 404.18Q810.49 404.18 811.82 405.35Q813.16 406.51 813.16 408.65L813.16 408.65L813.16 414.55L814.40 414.55ZM810.08 413.26L810.08 411.60L808.12 411.60Q806.92 411.60 806.32 412.00Q805.72 412.39 805.72 413.14L805.72 413.14L805.72 413.54Q805.72 414.29 806.22 414.67Q806.72 415.06 807.61 415.06L807.61 415.06Q808.31 415.06 808.86 414.85Q809.41 414.65 809.75 414.24Q810.08 413.83 810.08 413.26L810.08 413.26ZM823.02 414.55L823.02 417L820.81 417Q819.23 417 818.40 416.17Q817.57 415.34 817.57 413.81L817.57 413.81L817.57 406.90L815.72 406.90L815.72 404.47L816.68 404.47Q817.38 404.47 817.63 404.15Q817.88 403.82 817.88 403.18L817.88 403.18L817.88 401.04L820.64 401.04L820.64 404.47L823.21 404.47L823.21 406.90L820.64 406.90L820.64 414.55L823.02 414.55ZM827.41 402.65L827.41 402.65Q826.48 402.65 826.04 402.20Q825.61 401.76 825.61 401.11L825.61 401.11L825.61 400.63Q825.61 399.96 826.04 399.53Q826.48 399.10 827.41 399.10L827.41 399.10Q828.35 399.10 828.78 399.53Q829.21 399.96 829.21 400.63L829.21 400.63L829.21 401.11Q829.21 401.76 828.78 402.20Q828.35 402.65 827.41 402.65ZM828.95 417L825.88 417L825.88 404.47L828.95 404.47L828.95 417ZM837.44 417.29L837.44 417.29Q835.67 417.29 834.36 416.48Q833.05 415.68 832.34 414.20Q831.64 412.73 831.64 410.71L831.64 410.71Q831.64 408.70 832.34 407.24Q833.05 405.79 834.36 404.99Q835.67 404.18 837.44 404.18L837.44 404.18Q839.24 404.18 840.55 404.99Q841.86 405.79 842.57 407.24Q843.28 408.70 843.28 410.71L843.28 410.71Q843.28 412.73 842.57 414.20Q841.86 415.68 840.55 416.48Q839.24 417.29 837.44 417.29ZM837.44 414.82L837.44 414.82Q838.67 414.82 839.36 414.06Q840.06 413.30 840.06 411.89L840.06 411.89L840.06 409.56Q840.06 408.14 839.36 407.40Q838.67 406.66 837.44 406.66L837.44 406.66Q836.27 406.66 835.56 407.40Q834.85 408.14 834.85 409.56L834.85 409.56L834.85 411.89Q834.85 413.30 835.56 414.06Q836.27 414.82 837.44 414.82ZM849.06 408.72L849.06 417L845.99 417L845.99 404.47L849.06 404.47L849.06 406.56L849.18 406.56Q849.56 405.55 850.39 404.87Q851.22 404.18 852.68 404.18L852.68 404.18Q854.60 404.18 855.65 405.47Q856.69 406.75 856.69 409.08L856.69 409.08L856.69 417L853.62 417L853.62 409.39Q853.62 408.07 853.14 407.39Q852.66 406.70 851.56 406.70L851.56 406.70Q850.93 406.70 850.36 406.93Q849.78 407.16 849.42 407.60Q849.06 408.05 849.06 408.72L849.06 408.72Z" fill="#888899"/>
</svg>