<?xml version="1.0" encoding="UTF-8"?>
<svg xmlns="http://www.w3.org/2000/svg" viewBox="0 0 1584 396" width="1584" height="396">
  <title>askOdin LinkedIn Banner</title>
  <rect width="1584" height="396" fill="#111119"/>
  <rect width="1584" height="4" fill="#DB4A2B"/>
  <path d="M144.08 122.16L144.08 122.16Q127.70 122.16 115.28 114.78Q102.86 107.40 96.11 92.91Q89.36 78.42 89.36 57.18L89.36 57.18Q89.36 35.94 96.11 21.45Q102.86 6.96 115.28-0.42Q127.70-7.80 144.08-7.80L144.08-7.80Q160.64-7.80 172.97-0.42Q185.30 6.96 192.05 21.45Q198.80 35.94 198.80 57.18L198.80 57.18Q198.80 78.42 192.05 92.91Q185.30 107.40 172.97 114.78Q160.64 122.16 144.08 122.16ZM144.08 101.10L144.08 101.10Q153.26 101.10 159.83 96.96Q166.40 92.82 170 85.17Q173.60 77.52 173.60 66.90L173.60 66.90L173.60 47.46Q173.60 36.66 170 29.10Q166.40 21.54 159.83 17.40Q153.26 13.26 144.08 13.26L144.08 13.26Q135.26 13.26 128.60 17.40Q121.94 21.54 118.25 29.10Q114.56 36.66 114.56 47.46L114.56 47.46L114.56 66.90Q114.56 77.52 118.25 85.17Q121.94 92.82 128.60 96.96Q135.26 101.10 144.08 101.10Z" fill="#147B58" opacity="0.02"/>
  <path d="M392.72 251.44L392.72 251.44Q381.80 251.44 373.52 246.52Q365.24 241.60 360.74 231.94Q356.24 222.28 356.24 208.12L356.24 208.12Q356.24 193.96 360.74 184.30Q365.24 174.64 373.52 169.72Q381.80 164.80 392.72 164.80L392.72 164.80Q403.76 164.80 411.98 169.72Q420.20 174.64 424.70 184.30Q429.20 193.96 429.20 208.12L429.20 208.12Q429.20 222.28 424.70 231.94Q420.20 241.60 411.98 246.52Q403.76 251.44 392.72 251.44ZM392.72 237.40L392.72 237.40Q398.84 237.40 403.22 234.64Q407.60 231.88 410 226.78Q412.40 221.68 412.40 214.60L412.40 214.60L412.40 201.64Q412.40 194.44 410 189.40Q407.60 184.36 403.22 181.60Q398.84 178.84 392.72 178.84L392.72 178.84Q386.84 178.84 382.40 181.60Q377.96 184.36 375.50 189.40Q373.04 194.44 373.04 201.64L373.04 201.64L373.04 214.60Q373.04 221.68 375.50 226.78Q377.96 231.88 382.40 234.64Q386.84 237.40 392.72 237.40Z" fill="#147B58" opacity="0.015"/>
  <path d="M621.20 82.40L621.20 82.40Q603 82.40 589.20 74.20Q575.40 66 567.90 49.90Q560.40 33.80 560.40 10.20L560.40 10.20Q560.40-13.40 567.90-29.50Q575.40-45.60 589.20-53.80Q603-62 621.20-62L621.20-62Q639.60-62 653.30-53.80Q667-45.60 674.50-29.50Q682-13.40 682 10.20L682 10.20Q682 33.80 674.50 49.90Q667 66 653.30 74.20Q639.60 82.40 621.20 82.40ZM621.20 59L621.20 59Q631.40 59 638.70 54.40Q646 49.80 650 41.30Q654 32.80 654 21L654 21L654-0.60Q654-12.60 650-21Q646-29.40 638.70-34Q631.40-38.60 621.20-38.60L621.20-38.60Q611.40-38.60 604-34Q596.60-29.40 592.50-21Q588.40-12.60 588.40-0.60L588.40-0.60L588.40 21Q588.40 32.80 592.50 41.30Q596.60 49.80 604 54.40Q611.40 59 621.20 59Z" fill="#147B58" opacity="0.02"/>
  <path d="M785.60 301.20L785.60 301.20Q776.50 301.20 769.60 297.10Q762.70 293 758.95 284.95Q755.20 276.90 755.20 265.10L755.20 265.10Q755.20 253.30 758.95 245.25Q762.70 237.20 769.60 233.10Q776.50 229 785.60 229L785.60 229Q794.80 229 801.65 233.10Q808.50 237.20 812.25 245.25Q816 253.30 816 265.10L816 265.10Q816 276.90 812.25 284.95Q808.50 293 801.65 297.10Q794.80 301.20 785.60 301.20ZM785.60 289.50L785.60 289.50Q790.70 289.50 794.35 287.20Q798 284.90 800 280.65Q802 276.40 802 270.50L802 270.50L802 259.70Q802 253.70 800 249.50Q798 245.30 794.35 243Q790.70 240.70 785.60 240.70L785.60 240.70Q780.70 240.70 777 243Q773.30 245.30 771.25 249.50Q769.20 253.70 769.20 259.70L769.20 259.70L769.20 270.50Q769.20 276.40 771.25 280.65Q773.30 284.90 777 287.20Q780.70 289.50 785.60 289.50Z" fill="#147B58" opacity="0.015"/>
  <path d="M212.04 321.08L212.04 321.08Q203.85 321.08 197.64 317.39Q191.43 313.70 188.06 306.45Q184.68 299.21 184.68 288.59L184.68 288.59Q184.68 277.97 188.06 270.73Q191.43 263.48 197.64 259.79Q203.85 256.10 212.04 256.10L212.04 256.10Q220.32 256.10 226.49 259.79Q232.65 263.48 236.03 270.73Q239.40 277.97 239.40 288.59L239.40 288.59Q239.40 299.21 236.03 306.45Q232.65 313.70 226.49 317.39Q220.32 321.08 212.04 321.08ZM212.04 310.55L212.04 310.55Q216.63 310.55 219.91 308.48Q223.20 306.41 225 302.58Q226.80 298.76 226.80 293.45L226.80 293.45L226.80 283.73Q226.80 278.33 225 274.55Q223.20 270.77 219.91 268.70Q216.63 266.63 212.04 266.63L212.04 266.63Q207.63 266.63 204.30 268.70Q200.97 270.77 199.13 274.55Q197.28 278.33 197.28 283.73L197.28 283.73L197.28 293.45Q197.28 298.76 199.13 302.58Q200.97 306.41 204.30 308.48Q207.63 310.55 212.04 310.55Z" fill="#147B58" opacity="0.012"/>
  <line x1="460" y1="20" x2="460" y2="376" stroke="#FFFFFF" stroke-width="0.3" opacity="0.02"/>
  <line x1="540" y1="20" x2="540" y2="376" stroke="#FFFFFF" stroke-width="0.3" opacity="0.02"/>
  <line x1="620" y1="20" x2="620" y2="376" stroke="#FFFFFF" stroke-width="0.3" opacity="0.02"/>
  <line x1="700" y1="20" x2="700" y2="376" stroke="#FFFFFF" stroke-width="0.3" opacity="0.02"/>
  <line x1="780" y1="20" x2="780" y2="376" stroke="#FFFFFF" stroke-width="0.3" opacity="0.02"/>
  <line x1="860" y1="20" x2="860" y2="376" stroke="#FFFFFF" stroke-width="0.3" opacity="0.02"/>
  <line x1="940" y1="20" x2="940" y2="376" stroke="#FFFFFF" stroke-width="0.3" opacity="0.02"/>
  <line x1="1020" y1="20" x2="1020" y2="376" stroke="#FFFFFF" stroke-width="0.3" opacity="0.02"/>
  <line x1="1100" y1="20" x2="1100" y2="376" stroke="#FFFFFF" stroke-width="0.3" opacity="0.02"/>
  <line x1="1180" y1="20" x2="1180" y2="376" stroke="#FFFFFF" stroke-width="0.3" opacity="0.02"/>
  <line x1="1260" y1="20" x2="1260" y2="376" stroke="#FFFFFF" stroke-width="0.3" opacity="0.02"/>
  <line x1="1340" y1="20" x2="1340" y2="376" stroke="#FFFFFF" stroke-width="0.3" opacity="0.02"/>
  <line x1="1420" y1="20" x2="1420" y2="376" stroke="#FFFFFF" stroke-width="0.3" opacity="0.02"/>
  <line x1="1500" y1="20" x2="1500" y2="376" stroke="#FFFFFF" stroke-width="0.3" opacity="0.02"/>
  <line x1="460" y1="40" x2="1544" y2="40" stroke="#FFFFFF" stroke-width="0.3" opacity="0.02"/>
  <line x1="460" y1="100" x2="1544" y2="100" stroke="#FFFFFF" stroke-width="0.3" opacity="0.02"/>
  <line x1="460" y1="160" x2="1544" y2="160" stroke="#FFFFFF" stroke-width="0.3" opacity="0.02"/>
  <line x1="460" y1="220" x2="1544" y2="220" stroke="#FFFFFF" stroke-width="0.3" opacity="0.02"/>
  <line x1="460" y1="280" x2="1544" y2="280" stroke="#FFFFFF" stroke-width="0.3" opacity="0.02"/>
  <line x1="460" y1="340" x2="1544" y2="340" stroke="#FFFFFF" stroke-width="0.3" opacity="0.02"/>
  <path d="M1301.51 98.68L1301.51 105L1297.11 105Q1295.31 105 1293.91 104.16Q1292.52 103.33 1291.74 101.71Q1290.97 100.10 1290.97 97.93L1290.97 97.93L1290.97 97.25L1292.95 99.42L1290.72 99.42Q1289.91 102.52 1287.40 104.13Q1284.89 105.74 1281.30 105.74L1281.30 105.74Q1276.34 105.74 1273.67 103.11Q1271.00 100.47 1271.00 96.20L1271.00 96.20Q1271.00 92.85 1272.65 90.68Q1274.29 88.51 1277.39 87.39Q1280.49 86.28 1284.83 86.28L1284.83 86.28L1290.35 86.28L1290.35 83.92Q1290.35 81.25 1288.92 79.73Q1287.50 78.22 1284.33 78.22L1284.33 78.22Q1281.54 78.22 1279.84 79.42Q1278.13 80.63 1276.96 82.31L1276.96 82.31L1272.24 78.09Q1274.04 75.30 1277.02 73.60Q1279.99 71.89 1284.89 71.89L1284.89 71.89Q1291.40 71.89 1294.84 74.90Q1298.28 77.91 1298.28 83.42L1298.28 83.42L1298.28 98.68L1301.51 98.68ZM1290.35 95.33L1290.35 91.05L1285.26 91.05Q1282.16 91.05 1280.61 92.07Q1279.06 93.10 1279.06 95.02L1279.06 95.02L1279.06 96.07Q1279.06 97.99 1280.37 98.99Q1281.67 99.98 1283.96 99.98L1283.96 99.98Q1285.76 99.98 1287.19 99.45Q1288.61 98.92 1289.48 97.87Q1290.35 96.82 1290.35 95.33L1290.35 95.33ZM1318.56 105.74L1318.56 105.74Q1313.91 105.74 1310.75 104.16Q1307.58 102.58 1305.17 99.79L1305.17 99.79L1310.00 95.08Q1311.80 97.13 1313.94 98.30Q1316.08 99.48 1318.87 99.48L1318.87 99.48Q1321.72 99.48 1322.99 98.49Q1324.26 97.50 1324.26 95.76L1324.26 95.76Q1324.26 94.34 1323.36 93.50Q1322.46 92.66 1320.29 92.35L1320.29 92.35L1317.07 91.92Q1313.60 91.48 1311.18 90.31Q1308.76 89.13 1307.52 87.08Q1306.28 85.04 1306.28 82.12L1306.28 82.12Q1306.28 77.41 1309.66 74.65Q1313.04 71.89 1318.56 71.89L1318.56 71.89Q1321.72 71.89 1323.98 72.48Q1326.25 73.07 1327.98 74.22Q1329.72 75.36 1331.21 76.98L1331.21 76.98L1326.56 81.63Q1325.13 80.14 1323.15 79.15Q1321.16 78.15 1318.81 78.15L1318.81 78.15Q1316.33 78.15 1315.12 79.05Q1313.91 79.95 1313.91 81.50L1313.91 81.50Q1313.91 83.11 1314.87 83.95Q1315.83 84.79 1318.12 85.16L1318.12 85.16L1321.41 85.59Q1326.74 86.34 1329.31 88.72Q1331.89 91.11 1331.89 95.14L1331.89 95.14Q1331.89 98.24 1330.24 100.66Q1328.60 103.08 1325.60 104.41Q1322.59 105.74 1318.56 105.74ZM1346.83 105L1338.89 105L1338.89 59.12L1346.83 59.12L1346.83 80.20L1346.83 86.77L1347.14 86.77L1351.42 80.94L1358.67 72.64L1367.66 72.64L1356.50 85.16L1368.84 105L1359.42 105L1351.11 90.49L1346.83 95.14L1346.83 105Z" fill="#DB4A2B"/>
  <path d="M1391.22 105.74L1391.22 105.74Q1385.58 105.74 1381.30 103.20Q1377.02 100.66 1374.70 95.67Q1372.37 90.68 1372.37 83.36L1372.37 83.36Q1372.37 76.05 1374.70 71.06Q1377.02 66.06 1381.30 63.52Q1385.58 60.98 1391.22 60.98L1391.22 60.98Q1396.93 60.98 1401.17 63.52Q1405.42 66.06 1407.75 71.06Q1410.07 76.05 1410.07 83.36L1410.07 83.36Q1410.07 90.68 1407.75 95.67Q1405.42 100.66 1401.17 103.20Q1396.93 105.74 1391.22 105.74ZM1391.22 98.49L1391.22 98.49Q1394.38 98.49 1396.65 97.06Q1398.91 95.64 1400.15 93.00Q1401.39 90.37 1401.39 86.71L1401.39 86.71L1401.39 80.01Q1401.39 76.29 1400.15 73.69Q1398.91 71.09 1396.65 69.66Q1394.38 68.23 1391.22 68.23L1391.22 68.23Q1388.18 68.23 1385.89 69.66Q1383.60 71.09 1382.33 73.69Q1381.05 76.29 1381.05 80.01L1381.05 80.01L1381.05 86.71Q1381.05 90.37 1382.33 93.00Q1383.60 95.64 1385.89 97.06Q1388.18 98.49 1391.22 98.49ZM1445.91 105L1437.97 105L1437.97 99.61L1437.66 99.61Q1436.79 102.40 1434.37 104.07Q1431.96 105.74 1428.73 105.74L1428.73 105.74Q1424.70 105.74 1421.88 103.76Q1419.06 101.78 1417.57 97.96Q1416.08 94.15 1416.08 88.76L1416.08 88.76Q1416.08 83.36 1417.57 79.61Q1419.06 75.86 1421.88 73.88Q1424.70 71.89 1428.73 71.89L1428.73 71.89Q1431.96 71.89 1434.41 73.53Q1436.85 75.18 1437.66 77.97L1437.66 77.97L1437.97 77.97L1437.97 59.12L1445.91 59.12L1445.91 105ZM1431.27 99.17L1431.27 99.17Q1433.20 99.17 1434.72 98.55Q1436.23 97.93 1437.10 96.75Q1437.97 95.58 1437.97 93.90L1437.97 93.90L1437.97 83.61Q1437.97 82.06 1437.10 80.88Q1436.23 79.70 1434.72 79.05Q1433.20 78.40 1431.27 78.40L1431.27 78.40Q1428.24 78.40 1426.31 80.48Q1424.39 82.56 1424.39 86.03L1424.39 86.03L1424.39 91.61Q1424.39 95.02 1426.31 97.09Q1428.24 99.17 1431.27 99.17ZM1459.05 67.92L1459.05 67.92Q1456.63 67.92 1455.52 66.78Q1454.40 65.63 1454.40 63.96L1454.40 63.96L1454.40 62.72Q1454.40 60.98 1455.52 59.86Q1456.63 58.75 1459.05 58.75L1459.05 58.75Q1461.47 58.75 1462.58 59.86Q1463.70 60.98 1463.70 62.72L1463.70 62.72L1463.70 63.96Q1463.70 65.63 1462.58 66.78Q1461.47 67.92 1459.05 67.92ZM1463.02 105L1455.08 105L1455.08 72.64L1463.02 72.64L1463.02 105ZM1480.07 83.61L1480.07 105L1472.13 105L1472.13 72.64L1480.07 72.64L1480.07 78.03L1480.38 78.03Q1481.37 75.43 1483.51 73.66Q1485.65 71.89 1489.43 71.89L1489.43 71.89Q1494.39 71.89 1497.09 75.21Q1499.78 78.53 1499.78 84.54L1499.78 84.54L1499.78 105L1491.85 105L1491.85 85.35Q1491.85 81.94 1490.61 80.17Q1489.37 78.40 1486.52 78.40L1486.52 78.40Q1484.90 78.40 1483.42 78.99Q1481.93 79.58 1481.00 80.73Q1480.07 81.87 1480.07 83.61L1480.07 83.61Z" fill="#147B58"/>
  <path d="M1014.15 137.64L1014.15 138.81L1009.02 138.81L1009.02 153L1007.70 153L1007.70 138.81L1002.55 138.81L1002.55 137.64L1014.15 137.64ZM1017.89 153L1016.63 153L1016.63 136.72L1017.89 136.72L1017.89 143.52L1017.95 143.52Q1018.33 142.64 1019.12 142.06Q1019.91 141.47 1021.28 141.47L1021.28 141.47Q1023.08 141.47 1024.08 142.58Q1025.08 143.69 1025.08 145.76L1025.08 145.76L1025.08 153L1023.83 153L1023.83 145.98Q1023.83 144.27 1023.09 143.43Q1022.35 142.59 1020.95 142.59L1020.95 142.59Q1020.15 142.59 1019.45 142.87Q1018.75 143.14 1018.32 143.69Q1017.89 144.24 1017.89 145.08L1017.89 145.08L1017.89 153ZM1033.05 153.26L1033.05 153.26Q1031.55 153.26 1030.44 152.56Q1029.33 151.86 1028.72 150.54Q1028.12 149.22 1028.12 147.37L1028.12 147.37Q1028.12 145.52 1028.72 144.20Q1029.33 142.88 1030.43 142.18Q1031.53 141.47 1033.02 141.47L1033.02 141.47Q1034.48 141.47 1035.53 142.16Q1036.59 142.86 1037.18 144.11Q1037.78 145.37 1037.78 147.02L1037.78 147.02L1037.78 147.61L1029.44 147.61L1029.44 148.16Q1029.44 149.94 1030.41 151.05Q1031.37 152.16 1033.11 152.16L1033.11 152.16Q1034.32 152.16 1035.19 151.58Q1036.06 151.00 1036.52 149.90L1036.52 149.90L1037.45 150.51Q1036.92 151.75 1035.79 152.50Q1034.65 153.26 1033.05 153.26ZM1033.02 142.53L1033.02 142.53Q1031.92 142.53 1031.12 143.03Q1030.32 143.54 1029.88 144.44Q1029.44 145.34 1029.44 146.53L1029.44 146.53L1029.44 146.64L1036.41 146.64L1036.41 146.47Q1036.41 145.28 1035.99 144.40Q1035.58 143.52 1034.81 143.02Q1034.04 142.53 1033.02 142.53ZM1054.39 151.83L1054.39 153L1046.29 153L1046.29 137.64L1047.61 137.64L1047.61 151.83L1054.39 151.83ZM1065.98 151.90L1065.98 153L1064.70 153Q1064.20 153 1063.87 152.79Q1063.54 152.58 1063.39 152.21Q1063.25 151.83 1063.25 151.33L1063.25 151.33L1063.25 150.73L1063.76 151.22L1063.16 151.22Q1062.79 152.14 1061.93 152.70Q1061.07 153.26 1059.75 153.26L1059.75 153.26Q1057.97 153.26 1057.00 152.38Q1056.04 151.50 1056.04 149.94L1056.04 149.94Q1056.04 148.93 1056.51 148.20Q1056.98 147.48 1057.98 147.08Q1058.98 146.69 1060.61 146.69L1060.61 146.69L1063.21 146.69L1063.21 145.37Q1063.21 143.96 1062.48 143.25Q1061.76 142.55 1060.33 142.55L1060.33 142.55Q1059.23 142.55 1058.47 143.03Q1057.71 143.52 1057.25 144.40L1057.25 144.40L1056.45 143.74Q1056.92 142.77 1057.87 142.12Q1058.83 141.47 1060.37 141.47L1060.37 141.47Q1062.33 141.47 1063.39 142.46Q1064.46 143.45 1064.46 145.23L1064.46 145.23L1064.46 151.90L1065.98 151.90ZM1063.21 149.72L1063.21 147.63L1060.57 147.63Q1058.90 147.63 1058.13 148.17Q1057.36 148.71 1057.36 149.66L1057.36 149.66L1057.36 150.18Q1057.36 151.15 1058.07 151.67Q1058.79 152.19 1059.93 152.19L1059.93 152.19Q1060.85 152.19 1061.59 151.89Q1062.33 151.59 1062.77 151.03Q1063.21 150.47 1063.21 149.72L1063.21 149.72ZM1071.77 153.26L1071.77 153.26Q1070.29 153.26 1069.25 152.70Q1068.20 152.14 1067.43 151.11L1067.43 151.11L1068.36 150.38Q1069.06 151.28 1069.90 151.74Q1070.73 152.19 1071.85 152.19L1071.85 152.19Q1073.15 152.19 1073.86 151.63Q1074.56 151.06 1074.56 150.05L1074.56 150.05Q1074.56 149.17 1074.02 148.64Q1073.48 148.12 1072.25 147.94L1072.25 147.94L1071.33 147.79Q1070.31 147.63 1069.52 147.28Q1068.73 146.93 1068.30 146.28Q1067.87 145.63 1067.87 144.62L1067.87 144.62Q1067.87 143.03 1068.97 142.25Q1070.07 141.47 1071.70 141.47L1071.70 141.47Q1072.65 141.47 1073.35 141.69Q1074.05 141.91 1074.59 142.31Q1075.13 142.70 1075.55 143.21L1075.55 143.21L1074.71 143.98Q1074.27 143.43 1073.55 142.99Q1072.82 142.55 1071.63 142.55L1071.63 142.55Q1070.42 142.55 1069.75 143.08Q1069.08 143.61 1069.08 144.55L1069.08 144.55Q1069.08 145.54 1069.69 145.99Q1070.29 146.44 1071.50 146.64L1071.50 146.64L1072.40 146.77Q1074.12 147.04 1074.94 147.80Q1075.77 148.56 1075.77 149.92L1075.77 149.92Q1075.77 150.98 1075.29 151.72Q1074.80 152.47 1073.91 152.87Q1073.02 153.26 1071.77 153.26ZM1083.25 151.90L1083.25 153L1081.01 153Q1080.35 153 1079.98 152.62Q1079.62 152.23 1079.62 151.61L1079.62 151.61L1079.62 142.84L1077.66 142.84L1077.66 141.74L1078.94 141.74Q1079.40 141.74 1079.56 141.54Q1079.73 141.34 1079.73 140.88L1079.73 140.88L1079.73 138.59L1080.87 138.59L1080.87 141.74L1083.43 141.74L1083.43 142.84L1080.87 142.84L1080.87 151.90L1083.25 151.90ZM1093.04 153L1091.76 153L1091.76 137.64L1093.55 137.64L1096.67 143.19L1098.43 146.29L1098.52 146.29L1100.28 143.19L1103.40 137.64L1105.14 137.64L1105.14 153L1103.86 153L1103.86 142.35L1103.86 139.34L1103.75 139.34L1102.08 142.35L1098.45 148.73L1094.80 142.35L1093.13 139.34L1093.04 139.34L1093.04 142.35L1093.04 153ZM1109.98 138.68L1109.98 138.68Q1109.54 138.68 1109.33 138.46Q1109.12 138.24 1109.12 137.89L1109.12 137.89L1109.12 137.67Q1109.12 137.31 1109.33 137.09Q1109.54 136.87 1109.98 136.87L1109.98 136.87Q1110.44 136.87 1110.64 137.09Q1110.84 137.31 1110.84 137.67L1110.84 137.67L1110.84 137.89Q1110.84 138.24 1110.64 138.46Q1110.44 138.68 1109.98 138.68ZM1110.62 153L1109.36 153L1109.36 141.74L1110.62 141.74L1110.62 153ZM1117.70 151.90L1117.70 153L1116.10 153Q1115.41 153 1115.06 152.63Q1114.71 152.25 1114.71 151.64L1114.71 151.64L1114.71 136.72L1115.96 136.72L1115.96 151.90L1117.70 151.90ZM1124.54 153.26L1124.54 153.26Q1123.05 153.26 1121.94 152.56Q1120.83 151.86 1120.22 150.54Q1119.62 149.22 1119.62 147.37L1119.62 147.37Q1119.62 145.52 1120.22 144.20Q1120.83 142.88 1121.93 142.18Q1123.03 141.47 1124.52 141.47L1124.52 141.47Q1125.97 141.47 1127.03 142.16Q1128.09 142.86 1128.68 144.11Q1129.27 145.37 1129.27 147.02L1129.27 147.02L1129.27 147.61L1120.94 147.61L1120.94 148.16Q1120.94 149.94 1121.90 151.05Q1122.87 152.16 1124.61 152.16L1124.61 152.16Q1125.82 152.16 1126.69 151.58Q1127.56 151.00 1128.02 149.90L1128.02 149.90L1128.94 150.51Q1128.42 151.75 1127.28 152.50Q1126.15 153.26 1124.54 153.26ZM1124.52 142.53L1124.52 142.53Q1123.42 142.53 1122.62 143.03Q1121.82 143.54 1121.38 144.44Q1120.94 145.34 1120.94 146.53L1120.94 146.53L1120.94 146.64L1127.91 146.64L1127.91 146.47Q1127.91 145.28 1127.49 144.40Q1127.07 143.52 1126.30 143.02Q1125.53 142.53 1124.52 142.53ZM1141.68 153.26L1141.68 153.26Q1140.19 153.26 1139.09 152.56Q1137.99 151.86 1137.37 150.54Q1136.75 149.22 1136.75 147.37L1136.75 147.37Q1136.75 145.52 1137.37 144.20Q1137.99 142.88 1139.09 142.18Q1140.19 141.47 1141.68 141.47L1141.68 141.47Q1143.18 141.47 1144.29 142.18Q1145.40 142.88 1146.00 144.20Q1146.61 145.52 1146.61 147.37L1146.61 147.37Q1146.61 149.22 1146.00 150.54Q1145.40 151.86 1144.29 152.56Q1143.18 153.26 1141.68 153.26ZM1141.68 152.14L1141.68 152.14Q1143.33 152.14 1144.30 151.10Q1145.27 150.05 1145.27 148.07L1145.27 148.07L1145.27 146.66Q1145.27 144.68 1144.30 143.64Q1143.33 142.59 1141.68 142.59L1141.68 142.59Q1140.05 142.59 1139.09 143.64Q1138.12 144.68 1138.12 146.66L1138.12 146.66L1138.12 148.07Q1138.12 150.05 1139.09 151.10Q1140.05 152.14 1141.68 152.14ZM1151.58 153L1150.33 153L1150.33 142.84L1148.39 142.84L1148.39 141.74L1150.33 141.74L1150.33 138.59Q1150.33 137.73 1150.77 137.23Q1151.21 136.72 1152.09 136.72L1152.09 136.72L1154.07 136.72L1154.07 137.82L1151.58 137.82L1151.58 141.74L1154.07 141.74L1154.07 142.84L1151.58 142.84L1151.58 153ZM1167.47 137.64L1172.92 153L1171.54 153L1169.86 148.23L1163.33 148.23L1161.66 153L1160.34 153L1165.77 137.64L1167.47 137.64ZM1163.66 147.08L1169.51 147.08L1167.51 141.36L1166.63 138.90L1166.54 138.90L1165.68 141.36L1163.66 147.08ZM1180.67 151.90L1180.67 153L1174.88 153L1174.88 151.90L1177.12 151.90L1177.12 138.74L1174.88 138.74L1174.88 137.64L1180.67 137.64L1180.67 138.74L1178.42 138.74L1178.42 151.90L1180.67 151.90ZM1194.42 151.90L1194.42 153L1188.63 153L1188.63 151.90L1190.87 151.90L1190.87 138.74L1188.63 138.74L1188.63 137.64L1194.42 137.64L1194.42 138.74L1192.17 138.74L1192.17 151.90L1194.42 151.90ZM1201.04 153.26L1201.04 153.26Q1199.56 153.26 1198.52 152.70Q1197.47 152.14 1196.70 151.11L1196.70 151.11L1197.63 150.38Q1198.33 151.28 1199.17 151.74Q1200.00 152.19 1201.13 152.19L1201.13 152.19Q1202.42 152.19 1203.13 151.63Q1203.83 151.06 1203.83 150.05L1203.83 150.05Q1203.83 149.17 1203.29 148.64Q1202.75 148.12 1201.52 147.94L1201.52 147.94L1200.60 147.79Q1199.59 147.63 1198.79 147.28Q1198.00 146.93 1197.57 146.28Q1197.14 145.63 1197.14 144.62L1197.14 144.62Q1197.14 143.03 1198.24 142.25Q1199.34 141.47 1200.97 141.47L1200.97 141.47Q1201.92 141.47 1202.62 141.69Q1203.33 141.91 1203.86 142.31Q1204.40 142.70 1204.82 143.21L1204.82 143.21L1203.99 143.98Q1203.55 143.43 1202.82 142.99Q1202.09 142.55 1200.91 142.55L1200.91 142.55Q1199.70 142.55 1199.02 143.08Q1198.35 143.61 1198.35 144.55L1198.35 144.55Q1198.35 145.54 1198.96 145.99Q1199.56 146.44 1200.77 146.64L1200.77 146.64L1201.68 146.77Q1203.39 147.04 1204.22 147.80Q1205.04 148.56 1205.04 149.92L1205.04 149.92Q1205.04 150.98 1204.56 151.72Q1204.07 152.47 1203.18 152.87Q1202.29 153.26 1201.04 153.26ZM1209.60 145.08L1209.60 153L1208.34 153L1208.34 141.74L1209.60 141.74L1209.60 143.52L1209.66 143.52Q1210.04 142.64 1210.83 142.06Q1211.62 141.47 1212.98 141.47L1212.98 141.47Q1214.79 141.47 1215.79 142.58Q1216.79 143.69 1216.79 145.76L1216.79 145.76L1216.79 153L1215.54 153L1215.54 145.98Q1215.54 144.27 1214.80 143.43Q1214.06 142.59 1212.65 142.59L1212.65 142.59Q1211.86 142.59 1211.16 142.87Q1210.45 143.14 1210.02 143.69Q1209.60 144.24 1209.60 145.08L1209.60 145.08ZM1221.83 136.72L1221.83 142.62L1220.68 142.62L1220.68 136.72L1221.83 136.72ZM1230.03 151.90L1230.03 153L1227.79 153Q1227.13 153 1226.77 152.62Q1226.40 152.23 1226.40 151.61L1226.40 151.61L1226.40 142.84L1224.45 142.84L1224.45 141.74L1225.72 141.74Q1226.18 141.74 1226.35 141.54Q1226.51 141.34 1226.51 140.88L1226.51 140.88L1226.51 138.59L1227.66 138.59L1227.66 141.74L1230.21 141.74L1230.21 142.84L1227.66 142.84L1227.66 151.90L1230.03 151.90ZM1243.54 151.90L1243.54 153L1237.76 153L1237.76 151.90L1240.00 151.90L1240.00 138.74L1237.76 138.74L1237.76 137.64L1243.54 137.64L1243.54 138.74L1241.30 138.74L1241.30 151.90L1243.54 151.90ZM1248.23 145.08L1248.23 153L1246.97 153L1246.97 141.74L1248.23 141.74L1248.23 143.52L1248.29 143.52Q1248.67 142.64 1249.46 142.06Q1250.25 141.47 1251.62 141.47L1251.62 141.47Q1253.42 141.47 1254.42 142.58Q1255.42 143.69 1255.42 145.76L1255.42 145.76L1255.42 153L1254.17 153L1254.17 145.98Q1254.17 144.27 1253.43 143.43Q1252.69 142.59 1251.29 142.59L1251.29 142.59Q1250.49 142.59 1249.79 142.87Q1249.09 143.14 1248.66 143.69Q1248.23 144.24 1248.23 145.08L1248.23 145.08ZM1261.14 153L1259.89 153L1259.89 142.84L1257.95 142.84L1257.95 141.74L1259.89 141.74L1259.89 138.59Q1259.89 137.73 1260.33 137.23Q1260.77 136.72 1261.65 136.72L1261.65 136.72L1263.63 136.72L1263.63 137.82L1261.14 137.82L1261.14 141.74L1263.63 141.74L1263.63 142.84L1261.14 142.84L1261.14 153ZM1270.18 153.26L1270.18 153.26Q1268.69 153.26 1267.59 152.56Q1266.49 151.86 1265.87 150.54Q1265.26 149.22 1265.26 147.37L1265.26 147.37Q1265.26 145.52 1265.87 144.20Q1266.49 142.88 1267.59 142.18Q1268.69 141.47 1270.18 141.47L1270.18 141.47Q1271.68 141.47 1272.79 142.18Q1273.90 142.88 1274.51 144.20Q1275.11 145.52 1275.11 147.37L1275.11 147.37Q1275.11 149.22 1274.51 150.54Q1273.90 151.86 1272.79 152.56Q1271.68 153.26 1270.18 153.26ZM1270.18 152.14L1270.18 152.14Q1271.83 152.14 1272.80 151.10Q1273.77 150.05 1273.77 148.07L1273.77 148.07L1273.77 146.66Q1273.77 144.68 1272.80 143.64Q1271.83 142.59 1270.18 142.59L1270.18 142.59Q1268.56 142.59 1267.59 143.64Q1266.62 144.68 1266.62 146.66L1266.62 146.66L1266.62 148.07Q1266.62 150.05 1267.59 151.10Q1268.56 152.14 1270.18 152.14ZM1279.56 145.30L1279.56 153L1278.30 153L1278.30 141.74L1279.56 141.74L1279.56 143.76L1279.64 143.76Q1279.86 143.21 1280.28 142.76Q1280.70 142.31 1281.37 142.02Q1282.04 141.74 1283.01 141.74L1283.01 141.74L1283.76 141.74L1283.76 142.97L1282.77 142.97Q1281.82 142.97 1281.10 143.25Q1280.37 143.54 1279.96 144.06Q1279.56 144.57 1279.56 145.30L1279.56 145.30ZM1287.41 145.08L1287.41 153L1286.16 153L1286.16 141.74L1287.41 141.74L1287.41 143.52L1287.48 143.52Q1287.83 142.68 1288.55 142.08Q1289.28 141.47 1290.67 141.47L1290.67 141.47Q1291.88 141.47 1292.81 142.04Q1293.75 142.62 1294.14 143.85L1294.14 143.85L1294.21 143.85Q1294.52 142.86 1295.38 142.16Q1296.25 141.47 1297.75 141.47L1297.75 141.47Q1299.53 141.47 1300.50 142.58Q1301.47 143.69 1301.47 145.76L1301.47 145.76L1301.47 153L1300.21 153L1300.21 145.98Q1300.21 144.29 1299.52 143.44Q1298.83 142.59 1297.40 142.59L1297.40 142.59Q1296.63 142.59 1295.95 142.87Q1295.26 143.14 1294.86 143.71Q1294.45 144.27 1294.45 145.10L1294.45 145.10L1294.45 153L1293.20 153L1293.20 145.98Q1293.20 144.27 1292.49 143.43Q1291.79 142.59 1290.38 142.59L1290.38 142.59Q1289.61 142.59 1288.93 142.87Q1288.25 143.14 1287.83 143.69Q1287.41 144.24 1287.41 145.08L1287.41 145.08ZM1314.43 151.90L1314.43 153L1313.15 153Q1312.64 153 1312.31 152.79Q1311.98 152.58 1311.84 152.21Q1311.70 151.83 1311.70 151.33L1311.70 151.33L1311.70 150.73L1312.20 151.22L1311.61 151.22Q1311.24 152.14 1310.38 152.70Q1309.52 153.26 1308.20 153.26L1308.20 153.26Q1306.42 153.26 1305.45 152.38Q1304.48 151.50 1304.48 149.94L1304.48 149.94Q1304.48 148.93 1304.95 148.20Q1305.43 147.48 1306.43 147.08Q1307.43 146.69 1309.06 146.69L1309.06 146.69L1311.65 146.69L1311.65 145.37Q1311.65 143.96 1310.93 143.25Q1310.20 142.55 1308.77 142.55L1308.77 142.55Q1307.67 142.55 1306.91 143.03Q1306.15 143.52 1305.69 144.40L1305.69 144.40L1304.90 143.74Q1305.36 142.77 1306.32 142.12Q1307.28 141.47 1308.82 141.47L1308.82 141.47Q1310.77 141.47 1311.84 142.46Q1312.91 143.45 1312.91 145.23L1312.91 145.23L1312.91 151.90L1314.43 151.90ZM1311.65 149.72L1311.65 147.63L1309.01 147.63Q1307.34 147.63 1306.57 148.17Q1305.80 148.71 1305.80 149.66L1305.80 149.66L1305.80 150.18Q1305.80 151.15 1306.52 151.67Q1307.23 152.19 1308.38 152.19L1308.38 152.19Q1309.30 152.19 1310.04 151.89Q1310.77 151.59 1311.21 151.03Q1311.65 150.47 1311.65 149.72L1311.65 149.72ZM1321.20 151.90L1321.20 153L1318.96 153Q1318.30 153 1317.93 152.62Q1317.57 152.23 1317.57 151.61L1317.57 151.61L1317.57 142.84L1315.61 142.84L1315.61 141.74L1316.89 141.74Q1317.35 141.74 1317.52 141.54Q1317.68 141.34 1317.68 140.88L1317.68 140.88L1317.68 138.59L1318.83 138.59L1318.83 141.74L1321.38 141.74L1321.38 142.84L1318.83 142.84L1318.83 151.90L1321.20 151.90ZM1325.01 138.68L1325.01 138.68Q1324.57 138.68 1324.36 138.46Q1324.15 138.24 1324.15 137.89L1324.15 137.89L1324.15 137.67Q1324.15 137.31 1324.36 137.09Q1324.57 136.87 1325.01 136.87L1325.01 136.87Q1325.47 136.87 1325.67 137.09Q1325.87 137.31 1325.87 137.67L1325.87 137.67L1325.87 137.89Q1325.87 138.24 1325.67 138.46Q1325.47 138.68 1325.01 138.68ZM1325.65 153L1324.39 153L1324.39 141.74L1325.65 141.74L1325.65 153ZM1333.76 153.26L1333.76 153.26Q1332.27 153.26 1331.17 152.56Q1330.07 151.86 1329.45 150.54Q1328.84 149.22 1328.84 147.37L1328.84 147.37Q1328.84 145.52 1329.45 144.20Q1330.07 142.88 1331.17 142.18Q1332.27 141.47 1333.76 141.47L1333.76 141.47Q1335.26 141.47 1336.37 142.18Q1337.48 142.88 1338.09 144.20Q1338.69 145.52 1338.69 147.37L1338.69 147.37Q1338.69 149.22 1338.09 150.54Q1337.48 151.86 1336.37 152.56Q1335.26 153.26 1333.76 153.26ZM1333.76 152.14L1333.76 152.14Q1335.41 152.14 1336.38 151.10Q1337.35 150.05 1337.35 148.07L1337.35 148.07L1337.35 146.66Q1337.35 144.68 1336.38 143.64Q1335.41 142.59 1333.76 142.59L1333.76 142.59Q1332.14 142.59 1331.17 143.64Q1330.20 144.68 1330.20 146.66L1330.20 146.66L1330.20 148.07Q1330.20 150.05 1331.17 151.10Q1332.14 152.14 1333.76 152.14ZM1343.14 145.08L1343.14 153L1341.88 153L1341.88 141.74L1343.14 141.74L1343.14 143.52L1343.20 143.52Q1343.58 142.64 1344.37 142.06Q1345.16 141.47 1346.52 141.47L1346.52 141.47Q1348.33 141.47 1349.33 142.58Q1350.33 143.69 1350.33 145.76L1350.33 145.76L1350.33 153L1349.08 153L1349.08 145.98Q1349.08 144.27 1348.34 143.43Q1347.60 142.59 1346.19 142.59L1346.19 142.59Q1345.40 142.59 1344.70 142.87Q1343.99 143.14 1343.56 143.69Q1343.14 144.24 1343.14 145.08L1343.14 145.08ZM1355.08 153.20L1355.08 153.20Q1354.55 153.20 1354.29 152.92Q1354.03 152.65 1354.03 152.21L1354.03 152.21L1354.03 151.97Q1354.03 151.53 1354.29 151.25Q1354.55 150.98 1355.08 150.98L1355.08 150.98Q1355.63 150.98 1355.88 151.25Q1356.14 151.53 1356.14 151.97L1356.14 151.97L1356.14 152.21Q1356.14 152.65 1355.88 152.92Q1355.63 153.20 1355.08 153.20ZM1370.31 151.90L1370.31 153L1364.52 153L1364.52 151.90L1366.76 151.90L1366.76 138.74L1364.52 138.74L1364.52 137.64L1370.31 137.64L1370.31 138.74L1368.06 138.74L1368.06 151.90L1370.31 151.90ZM1377.92 151.90L1377.92 153L1375.67 153Q1375.01 153 1374.65 152.62Q1374.29 152.23 1374.29 151.61L1374.29 151.61L1374.29 142.84L1372.33 142.84L1372.33 141.74L1373.61 141.74Q1374.07 141.74 1374.23 141.54Q1374.40 141.34 1374.40 140.88L1374.40 140.88L1374.40 138.59L1375.54 138.59L1375.54 141.74L1378.09 141.74L1378.09 142.84L1375.54 142.84L1375.54 151.90L1377.92 151.90ZM1382.21 136.72L1382.21 142.62L1381.06 142.62L1381.06 136.72L1382.21 136.72ZM1389.42 153.26L1389.42 153.26Q1387.95 153.26 1386.90 152.70Q1385.86 152.14 1385.09 151.11L1385.09 151.11L1386.01 150.38Q1386.72 151.28 1387.55 151.74Q1388.39 152.19 1389.51 152.19L1389.51 152.19Q1390.81 152.19 1391.51 151.63Q1392.22 151.06 1392.22 150.05L1392.22 150.05Q1392.22 149.17 1391.68 148.64Q1391.14 148.12 1389.91 147.94L1389.91 147.94L1388.98 147.79Q1387.97 147.63 1387.18 147.28Q1386.39 146.93 1385.96 146.28Q1385.53 145.63 1385.53 144.62L1385.53 144.62Q1385.53 143.03 1386.63 142.25Q1387.73 141.47 1389.36 141.47L1389.36 141.47Q1390.30 141.47 1391.01 141.69Q1391.71 141.91 1392.25 142.31Q1392.79 142.70 1393.21 143.21L1393.21 143.21L1392.37 143.98Q1391.93 143.43 1391.21 142.99Q1390.48 142.55 1389.29 142.55L1389.29 142.55Q1388.08 142.55 1387.41 143.08Q1386.74 143.61 1386.74 144.55L1386.74 144.55Q1386.74 145.54 1387.34 145.99Q1387.95 146.44 1389.16 146.64L1389.16 146.64L1390.06 146.77Q1391.78 147.04 1392.60 147.80Q1393.43 148.56 1393.43 149.92L1393.43 149.92Q1393.43 150.98 1392.94 151.72Q1392.46 152.47 1391.57 152.87Q1390.68 153.26 1389.42 153.26ZM1402.01 138.81L1402.01 137.64L1408.65 137.64L1408.65 149.00Q1408.65 150.34 1408.13 151.29Q1407.62 152.25 1406.68 152.76Q1405.75 153.26 1404.49 153.26L1404.49 153.26Q1402.89 153.26 1401.82 152.37Q1400.75 151.48 1400.45 150.05L1400.45 150.05L1401.61 149.77Q1401.88 150.78 1402.60 151.43Q1403.33 152.08 1404.54 152.08L1404.54 152.08Q1405.90 152.08 1406.63 151.25Q1407.35 150.43 1407.35 148.80L1407.35 148.80L1407.35 138.81L1402.01 138.81ZM1421.06 153L1419.81 153L1419.81 151.22L1419.72 151.22Q1419.41 152.01 1418.64 152.64Q1417.87 153.26 1416.42 153.26L1416.42 153.26Q1414.64 153.26 1413.61 152.15Q1412.59 151.04 1412.59 148.97L1412.59 148.97L1412.59 141.74L1413.84 141.74L1413.84 148.73Q1413.84 150.45 1414.59 151.29Q1415.34 152.14 1416.75 152.14L1416.75 152.14Q1417.54 152.14 1418.23 151.87Q1418.93 151.59 1419.37 151.04Q1419.81 150.49 1419.81 149.63L1419.81 149.63L1419.81 141.74L1421.06 141.74L1421.06 153ZM1433.67 153L1432.41 153L1432.41 151.20L1432.35 151.20Q1431.88 152.12 1431.04 152.69Q1430.19 153.26 1428.91 153.26L1428.91 153.26Q1427.48 153.26 1426.44 152.57Q1425.39 151.88 1424.83 150.55Q1424.27 149.22 1424.27 147.37L1424.27 147.37Q1424.27 145.50 1424.83 144.18Q1425.39 142.86 1426.44 142.16Q1427.48 141.47 1428.91 141.47L1428.91 141.47Q1430.19 141.47 1431.06 142.03Q1431.93 142.59 1432.35 143.54L1432.35 143.54L1432.41 143.54L1432.41 136.72L1433.67 136.72L1433.67 153ZM1429.20 152.14L1429.20 152.14Q1430.08 152.14 1430.81 151.82Q1431.53 151.50 1431.97 150.92Q1432.41 150.34 1432.41 149.57L1432.41 149.57L1432.41 145.10Q1432.41 144.35 1431.97 143.79Q1431.53 143.23 1430.81 142.91Q1430.08 142.59 1429.20 142.59L1429.20 142.59Q1427.53 142.59 1426.57 143.67Q1425.61 144.75 1425.61 146.58L1425.61 146.58L1425.61 148.16Q1425.61 149.96 1426.57 151.05Q1427.53 152.14 1429.20 152.14ZM1447.00 154.32L1447.00 154.32Q1447.00 155.46 1446.38 156.21Q1445.77 156.96 1444.56 157.31Q1443.35 157.66 1441.59 157.66L1441.59 157.66Q1439.87 157.66 1438.79 157.32Q1437.71 156.98 1437.22 156.34Q1436.72 155.71 1436.72 154.85L1436.72 154.85Q1436.72 153.90 1437.24 153.32Q1437.76 152.74 1438.66 152.47L1438.66 152.47L1438.66 152.30Q1438.13 152.08 1437.87 151.69Q1437.60 151.31 1437.60 150.76L1437.60 150.76Q1437.60 149.94 1438.15 149.49Q1438.70 149.04 1439.52 148.82L1439.52 148.82L1439.52 148.73Q1438.53 148.27 1437.98 147.40Q1437.43 146.53 1437.43 145.30L1437.43 145.30Q1437.43 144.16 1437.93 143.30Q1438.44 142.44 1439.36 141.96Q1440.29 141.47 1441.52 141.47L1441.52 141.47Q1442.20 141.47 1442.76 141.62Q1443.32 141.76 1443.79 142.02L1443.79 142.02L1443.79 141.47Q1443.79 140.97 1444.03 140.65Q1444.27 140.33 1444.82 140.33L1444.82 140.33L1446.76 140.33L1446.76 141.43L1444.47 141.43L1444.47 142.51Q1445.04 143.01 1445.34 143.73Q1445.63 144.44 1445.63 145.30L1445.63 145.30Q1445.63 146.44 1445.13 147.31Q1444.62 148.18 1443.70 148.67Q1442.77 149.15 1441.54 149.15L1441.54 149.15Q1441.23 149.15 1440.95 149.11Q1440.66 149.06 1440.38 149.02L1440.38 149.02Q1439.67 149.22 1439.19 149.56Q1438.70 149.90 1438.70 150.47L1438.70 150.47Q1438.70 150.95 1439.14 151.22Q1439.58 151.48 1440.51 151.48L1440.51 151.48L1443.13 151.48Q1445.15 151.48 1446.07 152.24Q1447.00 153 1447.00 154.32ZM1445.79 154.41L1445.79 154.41Q1445.79 153.59 1445.20 153.12Q1444.62 152.65 1443.13 152.65L1443.13 152.65L1439.47 152.65Q1438.75 152.89 1438.33 153.37Q1437.91 153.86 1437.91 154.58L1437.91 154.58Q1437.91 155.46 1438.64 156.05Q1439.36 156.63 1440.84 156.63L1440.84 156.63L1442.25 156.63Q1443.87 156.63 1444.83 156.09Q1445.79 155.55 1445.79 154.41ZM1441.54 148.12L1441.54 148.12Q1442.84 148.12 1443.58 147.47Q1444.31 146.82 1444.31 145.65L1444.31 145.65L1444.31 144.95Q1444.31 143.78 1443.58 143.13Q1442.84 142.48 1441.54 142.48L1441.54 142.48Q1440.24 142.48 1439.51 143.13Q1438.77 143.78 1438.77 144.95L1438.77 144.95L1438.77 145.65Q1438.77 146.82 1439.51 147.47Q1440.24 148.12 1441.54 148.12ZM1450.63 145.08L1450.63 153L1449.37 153L1449.37 141.74L1450.63 141.74L1450.63 143.52L1450.69 143.52Q1451.05 142.68 1451.77 142.08Q1452.50 141.47 1453.88 141.47L1453.88 141.47Q1455.09 141.47 1456.03 142.04Q1456.96 142.62 1457.36 143.85L1457.36 143.85L1457.43 143.85Q1457.73 142.86 1458.60 142.16Q1459.47 141.47 1460.97 141.47L1460.97 141.47Q1462.75 141.47 1463.72 142.58Q1464.69 143.69 1464.69 145.76L1464.69 145.76L1464.69 153L1463.43 153L1463.43 145.98Q1463.43 144.29 1462.74 143.44Q1462.05 142.59 1460.62 142.59L1460.62 142.59Q1459.85 142.59 1459.16 142.87Q1458.48 143.14 1458.07 143.71Q1457.67 144.27 1457.67 145.10L1457.67 145.10L1457.67 153L1456.41 153L1456.41 145.98Q1456.41 144.27 1455.71 143.43Q1455.01 142.59 1453.60 142.59L1453.60 142.59Q1452.83 142.59 1452.15 142.87Q1451.46 143.14 1451.05 143.69Q1450.63 144.24 1450.63 145.08L1450.63 145.08ZM1472.65 153.26L1472.65 153.26Q1471.15 153.26 1470.04 152.56Q1468.93 151.86 1468.33 150.54Q1467.72 149.22 1467.72 147.37L1467.72 147.37Q1467.72 145.52 1468.33 144.20Q1468.93 142.88 1470.03 142.18Q1471.13 141.47 1472.63 141.47L1472.63 141.47Q1474.08 141.47 1475.14 142.16Q1476.19 142.86 1476.79 144.11Q1477.38 145.37 1477.38 147.02L1477.38 147.02L1477.38 147.61L1469.04 147.61L1469.04 148.16Q1469.04 149.94 1470.01 151.05Q1470.98 152.16 1472.72 152.16L1472.72 152.16Q1473.93 152.16 1474.79 151.58Q1475.66 151.00 1476.13 149.90L1476.13 149.90L1477.05 150.51Q1476.52 151.75 1475.39 152.50Q1474.26 153.26 1472.65 153.26ZM1472.63 142.53L1472.63 142.53Q1471.53 142.53 1470.72 143.03Q1469.92 143.54 1469.48 144.44Q1469.04 145.34 1469.04 146.53L1469.04 146.53L1469.04 146.64L1476.02 146.64L1476.02 146.47Q1476.02 145.28 1475.60 144.40Q1475.18 143.52 1474.41 143.02Q1473.64 142.53 1472.63 142.53ZM1481.82 145.08L1481.82 153L1480.57 153L1480.57 141.74L1481.82 141.74L1481.82 143.52L1481.89 143.52Q1482.26 142.64 1483.06 142.06Q1483.85 141.47 1485.21 141.47L1485.21 141.47Q1487.02 141.47 1488.02 142.58Q1489.02 143.69 1489.02 145.76L1489.02 145.76L1489.02 153L1487.76 153L1487.76 145.98Q1487.76 144.27 1487.03 143.43Q1486.29 142.59 1484.88 142.59L1484.88 142.59Q1484.09 142.59 1483.39 142.87Q1482.68 143.14 1482.25 143.69Q1481.82 144.24 1481.82 145.08L1481.82 145.08ZM1497.14 151.90L1497.14 153L1494.89 153Q1494.23 153 1493.87 152.62Q1493.51 152.23 1493.51 151.61L1493.51 151.61L1493.51 142.84L1491.55 142.84L1491.55 141.74L1492.82 141.74Q1493.29 141.74 1493.45 141.54Q1493.62 141.34 1493.62 140.88L1493.62 140.88L1493.62 138.59L1494.76 138.59L1494.76 141.74L1497.31 141.74L1497.31 142.84L1494.76 142.84L1494.76 151.90L1497.14 151.90ZM1501.14 153.20L1501.14 153.20Q1500.61 153.20 1500.35 152.92Q1500.08 152.65 1500.08 152.21L1500.08 152.21L1500.08 151.97Q1500.08 151.53 1500.35 151.25Q1500.61 150.98 1501.14 150.98L1501.14 150.98Q1501.69 150.98 1501.94 151.25Q1502.20 151.53 1502.20 151.97L1502.20 151.97L1502.20 152.21Q1502.20 152.65 1501.94 152.92Q1501.69 153.20 1501.14 153.20Z" fill="#FFFFFF"/>
  <line x1="1434" y1="183" x2="1504" y2="183" stroke="#DB4A2B" stroke-width="2.5"/>
  <path d="M1246.08 201.83L1247.42 201.83L1247.42 208.54Q1247.42 209.35 1247.47 209.99Q1247.52 210.63 1247.73 211.09Q1247.94 211.54 1248.38 211.78Q1248.82 212.02 1249.60 212.02L1249.60 212.02Q1250.38 212.02 1250.82 211.78Q1251.26 211.54 1251.47 211.09Q1251.68 210.63 1251.73 209.99Q1251.78 209.35 1251.78 208.54L1251.78 208.54L1251.78 201.83L1253.12 201.83L1253.12 208.22Q1253.12 209.46 1253 210.39Q1252.88 211.32 1252.50 211.94Q1252.13 212.57 1251.43 212.88Q1250.74 213.19 1249.60 213.19L1249.60 213.19Q1248.46 213.19 1247.77 212.88Q1247.07 212.57 1246.70 211.94Q1246.32 211.32 1246.20 210.39Q1246.08 209.46 1246.08 208.22L1246.08 208.22L1246.08 201.83ZM1259.20 213.14L1259.20 213.14Q1258.54 213.14 1258.28 212.87Q1258.02 212.60 1258.02 212.18L1258.02 212.18L1258.02 211.90Q1258.02 211.48 1258.28 211.21Q1258.54 210.94 1259.20 210.94L1259.20 210.94Q1259.86 210.94 1260.12 211.21Q1260.38 211.48 1260.38 211.90L1260.38 211.90L1260.38 212.18Q1260.38 212.60 1260.12 212.87Q1259.86 213.14 1259.20 213.14ZM1268.77 213.19L1268.77 213.19Q1267.26 213.19 1266.30 212.64Q1265.34 212.09 1264.72 211.22L1264.72 211.22L1265.70 210.42Q1266.35 211.24 1267.08 211.64Q1267.81 212.04 1268.82 212.04L1268.82 212.04Q1270.03 212.04 1270.67 211.48Q1271.31 210.92 1271.31 209.91L1271.31 209.91Q1271.31 209.10 1270.85 208.64Q1270.38 208.18 1269.23 207.99L1269.23 207.99L1267.98 207.78Q1267.17 207.64 1266.62 207.35Q1266.06 207.06 1265.73 206.66Q1265.39 206.25 1265.25 205.76Q1265.10 205.27 1265.10 204.74L1265.10 204.74Q1265.10 203.21 1266.11 202.42Q1267.12 201.64 1268.83 201.64L1268.83 201.64Q1270.18 201.64 1271.10 202.09Q1272.02 202.54 1272.58 203.35L1272.58 203.35L1271.63 204.17Q1271.17 203.56 1270.51 203.18Q1269.86 202.79 1268.82 202.79L1268.82 202.79Q1267.68 202.79 1267.07 203.27Q1266.46 203.75 1266.46 204.71L1266.46 204.71Q1266.46 205.46 1266.92 205.94Q1267.38 206.41 1268.56 206.62L1268.56 206.62L1269.76 206.82Q1270.58 206.97 1271.14 207.26Q1271.70 207.54 1272.04 207.94Q1272.38 208.34 1272.53 208.84Q1272.67 209.34 1272.67 209.88L1272.67 209.88Q1272.67 211.43 1271.66 212.31Q1270.64 213.19 1268.77 213.19ZM1278.40 213.14L1278.40 213.14Q1277.74 213.14 1277.48 212.87Q1277.22 212.60 1277.22 212.18L1277.22 212.18L1277.22 211.90Q1277.22 211.48 1277.48 211.21Q1277.74 210.94 1278.40 210.94L1278.40 210.94Q1279.06 210.94 1279.32 211.21Q1279.58 211.48 1279.58 211.90L1279.58 211.90L1279.58 212.18Q1279.58 212.60 1279.32 212.87Q1279.06 213.14 1278.40 213.14ZM1295.58 213L1294.24 213L1294.24 201.83L1298.30 201.83Q1299.86 201.83 1300.67 202.68Q1301.49 203.53 1301.49 205.05L1301.49 205.05Q1301.49 206.57 1300.67 207.42Q1299.86 208.26 1298.30 208.26L1298.30 208.26L1295.58 208.26L1295.58 213ZM1295.58 203L1295.58 207.10L1298.27 207.10Q1299.12 207.10 1299.59 206.67Q1300.06 206.25 1300.06 205.46L1300.06 205.46L1300.06 204.63Q1300.06 203.85 1299.59 203.42Q1299.12 203 1298.27 203L1298.27 203L1295.58 203ZM1311.20 213L1310.32 213Q1309.57 213 1309.25 212.62Q1308.93 212.23 1308.85 211.66L1308.85 211.66L1308.77 211.66Q1308.50 212.38 1307.90 212.78Q1307.30 213.19 1306.29 213.19L1306.29 213.19Q1304.99 213.19 1304.22 212.52Q1303.46 211.85 1303.46 210.68L1303.46 210.68Q1303.46 209.53 1304.30 208.90Q1305.14 208.28 1307.01 208.28L1307.01 208.28L1308.77 208.28L1308.77 207.46Q1308.77 206.55 1308.26 206.10Q1307.74 205.64 1306.80 205.64L1306.80 205.64Q1305.97 205.64 1305.44 205.97Q1304.91 206.30 1304.59 206.86L1304.59 206.86L1303.73 206.22Q1303.89 205.90 1304.16 205.59Q1304.43 205.29 1304.83 205.06Q1305.23 204.82 1305.74 204.69Q1306.26 204.55 1306.88 204.55L1306.88 204.55Q1308.34 204.55 1309.19 205.29Q1310.05 206.02 1310.05 207.34L1310.05 207.34L1310.05 211.88L1311.20 211.88L1311.20 213ZM1306.51 212.12L1306.51 212.12Q1307.01 212.12 1307.42 212Q1307.82 211.88 1308.13 211.68Q1308.43 211.48 1308.60 211.20Q1308.77 210.92 1308.77 210.60L1308.77 210.60L1308.77 209.24L1307.01 209.24Q1305.86 209.24 1305.33 209.56Q1304.80 209.88 1304.80 210.49L1304.80 210.49L1304.80 210.82Q1304.80 211.46 1305.26 211.79Q1305.71 212.12 1306.51 212.12ZM1320.42 213L1317.20 213Q1316.26 213 1315.82 212.47Q1315.38 211.94 1315.38 211.11L1315.38 211.11L1315.38 205.83L1312.62 205.83L1312.62 204.74L1314.67 204.74Q1315.09 204.74 1315.26 204.58Q1315.42 204.41 1315.42 203.99L1315.42 203.99L1315.42 201.83L1316.66 201.83L1316.66 204.74L1320.42 204.74L1320.42 205.83L1316.66 205.83L1316.66 211.91L1320.42 211.91L1320.42 213ZM1326.54 213.19L1326.54 213.19Q1325.65 213.19 1324.94 212.89Q1324.22 212.58 1323.72 212.02Q1323.22 211.45 1322.94 210.66Q1322.67 209.86 1322.67 208.89L1322.67 208.89Q1322.67 207.90 1322.95 207.10Q1323.23 206.30 1323.73 205.73Q1324.22 205.16 1324.92 204.86Q1325.62 204.55 1326.46 204.55L1326.46 204.55Q1327.30 204.55 1327.98 204.86Q1328.66 205.16 1329.14 205.70Q1329.62 206.23 1329.87 206.97Q1330.13 207.70 1330.13 208.58L1330.13 208.58L1330.13 209.19L1324.02 209.19L1324.02 209.58Q1324.02 210.12 1324.19 210.58Q1324.37 211.05 1324.70 211.38Q1325.02 211.72 1325.50 211.90Q1325.97 212.09 1326.54 212.09L1326.54 212.09Q1327.38 212.09 1327.98 211.70Q1328.59 211.32 1328.91 210.65L1328.91 210.65L1329.86 211.29Q1329.49 212.12 1328.63 212.66Q1327.78 213.19 1326.54 213.19ZM1326.46 205.61L1326.46 205.61Q1325.94 205.61 1325.49 205.80Q1325.04 205.99 1324.71 206.33Q1324.38 206.66 1324.20 207.12Q1324.02 207.58 1324.02 208.12L1324.02 208.12L1324.02 208.23L1328.75 208.23L1328.75 208.06Q1328.75 207.51 1328.58 207.06Q1328.42 206.62 1328.12 206.29Q1327.82 205.96 1327.40 205.78Q1326.98 205.61 1326.46 205.61ZM1334.05 213L1332.77 213L1332.77 204.74L1334.05 204.74L1334.05 206.09L1334.11 206.09Q1334.24 205.78 1334.43 205.50Q1334.62 205.22 1334.90 205.02Q1335.18 204.81 1335.57 204.68Q1335.95 204.55 1336.46 204.55L1336.46 204.55Q1337.76 204.55 1338.54 205.38Q1339.33 206.20 1339.33 207.70L1339.33 207.70L1339.33 213L1338.05 213L1338.05 207.93Q1338.05 206.79 1337.55 206.24Q1337.06 205.69 1336.10 205.69L1336.10 205.69Q1335.71 205.69 1335.34 205.78Q1334.98 205.88 1334.69 206.07Q1334.40 206.26 1334.22 206.57Q1334.05 206.87 1334.05 207.27L1334.05 207.27L1334.05 213ZM1349.22 213L1346.00 213Q1345.06 213 1344.62 212.47Q1344.18 211.94 1344.18 211.11L1344.18 211.11L1344.18 205.83L1341.42 205.83L1341.42 204.74L1343.47 204.74Q1343.89 204.74 1344.06 204.58Q1344.22 204.41 1344.22 203.99L1344.22 203.99L1344.22 201.83L1345.46 201.83L1345.46 204.74L1349.22 204.74L1349.22 205.83L1345.46 205.83L1345.46 211.91L1349.22 211.91L1349.22 213ZM1369.12 213L1367.70 213L1366.75 209.82L1362.83 209.82L1361.89 213L1360.50 213L1363.92 201.83L1365.70 201.83L1369.12 213ZM1366.43 208.65L1364.86 203.26L1364.72 203.26L1363.15 208.65L1366.43 208.65ZM1371.12 216.20L1371.12 204.74L1372.40 204.74L1372.40 206.09L1372.46 206.09Q1373.26 204.55 1375.01 204.55L1375.01 204.55Q1376.53 204.55 1377.38 205.69Q1378.24 206.82 1378.24 208.87L1378.24 208.87Q1378.24 210.92 1377.38 212.06Q1376.53 213.19 1375.01 213.19L1375.01 213.19Q1373.26 213.19 1372.46 211.66L1372.46 211.66L1372.40 211.66L1372.40 216.20L1371.12 216.20ZM1374.51 212.06L1374.51 212.06Q1375.63 212.06 1376.25 211.38Q1376.86 210.70 1376.86 209.58L1376.86 209.58L1376.86 208.17Q1376.86 207.05 1376.25 206.37Q1375.63 205.69 1374.51 205.69L1374.51 205.69Q1374.08 205.69 1373.70 205.80Q1373.31 205.91 1373.02 206.13Q1372.74 206.34 1372.57 206.66Q1372.40 206.97 1372.40 207.38L1372.40 207.38L1372.40 210.36Q1372.40 210.78 1372.57 211.09Q1372.74 211.40 1373.02 211.62Q1373.31 211.83 1373.70 211.94Q1374.08 212.06 1374.51 212.06ZM1380.72 216.20L1380.72 204.74L1382.00 204.74L1382.00 206.09L1382.06 206.09Q1382.86 204.55 1384.61 204.55L1384.61 204.55Q1386.13 204.55 1386.98 205.69Q1387.84 206.82 1387.84 208.87L1387.84 208.87Q1387.84 210.92 1386.98 212.06Q1386.13 213.19 1384.61 213.19L1384.61 213.19Q1382.86 213.19 1382.06 211.66L1382.06 211.66L1382.00 211.66L1382.00 216.20L1380.72 216.20ZM1384.11 212.06L1384.11 212.06Q1385.23 212.06 1385.85 211.38Q1386.46 210.70 1386.46 209.58L1386.46 209.58L1386.46 208.17Q1386.46 207.05 1385.85 206.37Q1385.23 205.69 1384.11 205.69L1384.11 205.69Q1383.68 205.69 1383.30 205.80Q1382.91 205.91 1382.62 206.13Q1382.34 206.34 1382.17 206.66Q1382.00 206.97 1382.00 207.38L1382.00 207.38L1382.00 210.36Q1382.00 210.78 1382.17 211.09Q1382.34 211.40 1382.62 211.62Q1382.91 211.83 1383.30 211.94Q1383.68 212.06 1384.11 212.06ZM1393.60 213.14L1393.60 213.14Q1392.94 213.14 1392.68 212.87Q1392.42 212.60 1392.42 212.18L1392.42 212.18L1392.42 211.90Q1392.42 211.48 1392.68 211.21Q1392.94 210.94 1393.60 210.94L1393.60 210.94Q1394.26 210.94 1394.52 211.21Q1394.78 211.48 1394.78 211.90L1394.78 211.90L1394.78 212.18Q1394.78 212.60 1394.52 212.87Q1394.26 213.14 1393.60 213.14ZM1412.82 213.19L1412.82 213.19Q1411.94 213.19 1411.23 212.90Q1410.53 212.60 1410.04 212.05Q1409.55 211.50 1409.29 210.70Q1409.02 209.90 1409.02 208.90L1409.02 208.90Q1409.02 207.66 1409.40 206.56Q1409.78 205.46 1410.36 204.56Q1410.94 203.66 1411.66 202.96Q1412.38 202.26 1413.07 201.83L1413.07 201.83L1414.80 201.83Q1413.89 202.49 1413.18 203.11Q1412.46 203.74 1411.92 204.42Q1411.38 205.10 1411.01 205.87Q1410.64 206.65 1410.40 207.62L1410.40 207.62L1410.48 207.66Q1410.88 206.97 1411.54 206.51Q1412.19 206.06 1413.23 206.06L1413.23 206.06Q1413.97 206.06 1414.58 206.30Q1415.18 206.54 1415.63 206.98Q1416.08 207.43 1416.33 208.07Q1416.58 208.71 1416.58 209.50L1416.58 209.50Q1416.58 210.31 1416.30 210.99Q1416.03 211.67 1415.54 212.16Q1415.06 212.65 1414.36 212.92Q1413.66 213.19 1412.82 213.19ZM1412.80 212.06L1412.80 212.06Q1413.95 212.06 1414.58 211.43Q1415.22 210.81 1415.22 209.67L1415.22 209.67L1415.22 209.54Q1415.22 208.41 1414.58 207.78Q1413.95 207.16 1412.80 207.16L1412.80 207.16Q1411.65 207.16 1411.02 207.78Q1410.38 208.41 1410.38 209.54L1410.38 209.54L1410.38 209.67Q1410.38 210.81 1411.02 211.43Q1411.65 212.06 1412.80 212.06ZM1420.69 206.57L1421.92 206.57Q1423.09 206.57 1423.67 206.05Q1424.26 205.53 1424.26 204.71L1424.26 204.71L1424.26 204.60Q1424.26 203.70 1423.69 203.26Q1423.12 202.81 1422.21 202.81L1422.21 202.81Q1421.31 202.81 1420.76 203.20Q1420.21 203.59 1419.86 204.23L1419.86 204.23L1418.85 203.46Q1419.06 203.13 1419.36 202.80Q1419.66 202.47 1420.07 202.22Q1420.48 201.96 1421.02 201.80Q1421.55 201.64 1422.24 201.64L1422.24 201.64Q1422.96 201.64 1423.58 201.82Q1424.21 202.01 1424.67 202.37Q1425.14 202.73 1425.40 203.26Q1425.66 203.78 1425.66 204.46L1425.66 204.46Q1425.66 205 1425.50 205.43Q1425.33 205.86 1425.03 206.18Q1424.74 206.50 1424.34 206.73Q1423.94 206.95 1423.49 207.06L1423.49 207.06L1423.49 207.13Q1423.95 207.22 1424.38 207.44Q1424.82 207.66 1425.15 208Q1425.49 208.34 1425.69 208.83Q1425.89 209.32 1425.89 209.94L1425.89 209.94Q1425.89 210.66 1425.61 211.26Q1425.33 211.86 1424.82 212.29Q1424.32 212.71 1423.61 212.95Q1422.90 213.19 1422.03 213.19L1422.03 213.19Q1421.30 213.19 1420.73 213.03Q1420.16 212.87 1419.72 212.60Q1419.28 212.33 1418.95 211.99Q1418.62 211.66 1418.37 211.29L1418.37 211.29L1419.38 210.52Q1419.60 210.86 1419.84 211.13Q1420.08 211.40 1420.39 211.60Q1420.70 211.80 1421.10 211.91Q1421.50 212.02 1422.03 212.02L1422.03 212.02Q1423.22 212.02 1423.85 211.48Q1424.48 210.94 1424.48 209.93L1424.48 209.93L1424.48 209.80Q1424.48 208.81 1423.86 208.26Q1423.25 207.72 1422.02 207.72L1422.02 207.72L1420.69 207.72L1420.69 206.57ZM1429.79 215.21L1428.64 215.21L1434.21 200.84L1435.36 200.84L1429.79 215.21ZM1445.38 205.93L1445.38 205.93Q1445.38 207.18 1445.00 208.27Q1444.62 209.37 1444.03 210.27Q1443.44 211.18 1442.73 211.87Q1442.02 212.57 1441.33 213L1441.33 213L1439.60 213Q1440.51 212.34 1441.22 211.72Q1441.94 211.10 1442.48 210.42Q1443.02 209.74 1443.39 208.96Q1443.76 208.18 1444.00 207.21L1444.00 207.21L1443.92 207.18Q1443.50 207.86 1442.86 208.32Q1442.21 208.78 1441.17 208.78L1441.17 208.78Q1440.43 208.78 1439.82 208.54Q1439.20 208.30 1438.76 207.85Q1438.32 207.40 1438.07 206.77Q1437.82 206.14 1437.82 205.34L1437.82 205.34Q1437.82 204.52 1438.09 203.84Q1438.35 203.16 1438.85 202.67Q1439.34 202.18 1440.04 201.91Q1440.74 201.64 1441.58 201.64L1441.58 201.64Q1442.46 201.64 1443.17 201.94Q1443.87 202.23 1444.36 202.78Q1444.85 203.34 1445.11 204.14Q1445.38 204.94 1445.38 205.93ZM1441.60 207.67L1441.60 207.67Q1442.75 207.67 1443.38 207.05Q1444.02 206.42 1444.02 205.29L1444.02 205.29L1444.02 205.16Q1444.02 204.02 1443.38 203.40Q1442.75 202.78 1441.60 202.78L1441.60 202.78Q1440.45 202.78 1439.82 203.40Q1439.18 204.02 1439.18 205.16L1439.18 205.16L1439.18 205.29Q1439.18 206.42 1439.82 207.05Q1440.45 207.67 1441.60 207.67ZM1453.73 213L1452.45 213L1452.45 210.81L1446.94 210.81L1446.94 209.62L1451.78 201.83L1453.73 201.83L1453.73 209.70L1455.39 209.70L1455.39 210.81L1453.73 210.81L1453.73 213ZM1452.38 202.87L1448.14 209.70L1452.45 209.70L1452.45 202.87L1452.38 202.87ZM1460.80 213.19L1460.80 213.19Q1459.82 213.19 1459.09 212.94Q1458.35 212.70 1457.86 212.26Q1457.38 211.83 1457.13 211.24Q1456.88 210.65 1456.88 209.96L1456.88 209.96Q1456.88 208.81 1457.50 208.14Q1458.13 207.46 1459.15 207.19L1459.15 207.19L1459.15 207.06Q1458.26 206.76 1457.74 206.08Q1457.22 205.40 1457.22 204.44L1457.22 204.44Q1457.22 203.16 1458.16 202.40Q1459.10 201.64 1460.80 201.64L1460.80 201.64Q1462.50 201.64 1463.44 202.40Q1464.38 203.16 1464.38 204.44L1464.38 204.44Q1464.38 205.40 1463.86 206.08Q1463.34 206.76 1462.45 207.06L1462.45 207.06L1462.45 207.19Q1463.47 207.46 1464.10 208.14Q1464.72 208.81 1464.72 209.96L1464.72 209.96Q1464.72 210.65 1464.47 211.24Q1464.22 211.83 1463.73 212.26Q1463.23 212.70 1462.50 212.94Q1461.78 213.19 1460.80 213.19ZM1460.80 212.06L1460.80 212.06Q1461.98 212.06 1462.66 211.53Q1463.33 211 1463.33 210.04L1463.33 210.04L1463.33 209.69Q1463.33 208.73 1462.66 208.20Q1462.00 207.67 1460.80 207.67L1460.80 207.67Q1459.60 207.67 1458.94 208.20Q1458.27 208.73 1458.27 209.69L1458.27 209.69L1458.27 210.04Q1458.27 211 1458.94 211.53Q1459.62 212.06 1460.80 212.06ZM1460.80 206.58L1460.80 206.58Q1461.89 206.58 1462.46 206.12Q1463.02 205.66 1463.02 204.79L1463.02 204.79L1463.02 204.57Q1463.02 203.70 1462.44 203.24Q1461.86 202.78 1460.80 202.78L1460.80 202.78Q1459.74 202.78 1459.16 203.24Q1458.58 203.70 1458.58 204.57L1458.58 204.57L1458.58 204.79Q1458.58 205.66 1459.14 206.12Q1459.71 206.58 1460.80 206.58ZM1468.86 215.26L1469.71 210.82L1471.78 210.82L1469.94 215.26L1468.86 215.26ZM1483.22 201.83L1483.22 203L1478.22 203L1477.90 207.27L1478.02 207.27Q1478.43 206.71 1478.94 206.38Q1479.46 206.06 1480.35 206.06L1480.35 206.06Q1481.09 206.06 1481.70 206.29Q1482.32 206.52 1482.77 206.97Q1483.22 207.42 1483.47 208.05Q1483.73 208.68 1483.73 209.50L1483.73 209.50Q1483.73 210.31 1483.47 210.99Q1483.22 211.67 1482.72 212.16Q1482.22 212.65 1481.52 212.92Q1480.82 213.19 1479.92 213.19L1479.92 213.19Q1479.22 213.19 1478.66 213.03Q1478.11 212.87 1477.69 212.60Q1477.26 212.33 1476.94 211.99Q1476.62 211.66 1476.37 211.29L1476.37 211.29L1477.38 210.52Q1477.60 210.86 1477.83 211.13Q1478.06 211.40 1478.37 211.60Q1478.67 211.80 1479.06 211.91Q1479.44 212.02 1479.95 212.02L1479.95 212.02Q1481.10 212.02 1481.72 211.40Q1482.34 210.78 1482.34 209.67L1482.34 209.67L1482.34 209.54Q1482.34 208.44 1481.71 207.82Q1481.09 207.19 1479.92 207.19L1479.92 207.19Q1479.12 207.19 1478.68 207.46Q1478.24 207.74 1477.87 208.14L1477.87 208.14L1476.74 207.98L1477.14 201.83L1483.22 201.83ZM1492.82 201.83L1492.82 203L1487.82 203L1487.50 207.27L1487.62 207.27Q1488.03 206.71 1488.54 206.38Q1489.06 206.06 1489.95 206.06L1489.95 206.06Q1490.69 206.06 1491.30 206.29Q1491.92 206.52 1492.37 206.97Q1492.82 207.42 1493.07 208.05Q1493.33 208.68 1493.33 209.50L1493.33 209.50Q1493.33 210.31 1493.07 210.99Q1492.82 211.67 1492.32 212.16Q1491.82 212.65 1491.12 212.92Q1490.42 213.19 1489.52 213.19L1489.52 213.19Q1488.82 213.19 1488.26 213.03Q1487.71 212.87 1487.29 212.60Q1486.86 212.33 1486.54 211.99Q1486.22 211.66 1485.97 211.29L1485.97 211.29L1486.98 210.52Q1487.20 210.86 1487.43 211.13Q1487.66 211.40 1487.97 211.60Q1488.27 211.80 1488.66 211.91Q1489.04 212.02 1489.55 212.02L1489.55 212.02Q1490.70 212.02 1491.32 211.40Q1491.94 210.78 1491.94 209.67L1491.94 209.67L1491.94 209.54Q1491.94 208.44 1491.31 207.82Q1490.69 207.19 1489.52 207.19L1489.52 207.19Q1488.72 207.19 1488.28 207.46Q1487.84 207.74 1487.47 208.14L1487.47 208.14L1486.34 207.98L1486.74 201.83L1492.82 201.83ZM1502.98 205.93L1502.98 205.93Q1502.98 207.18 1502.60 208.27Q1502.22 209.37 1501.63 210.27Q1501.04 211.18 1500.33 211.87Q1499.62 212.57 1498.93 213L1498.93 213L1497.20 213Q1498.11 212.34 1498.82 211.72Q1499.54 211.10 1500.08 210.42Q1500.62 209.74 1500.99 208.96Q1501.36 208.18 1501.60 207.21L1501.60 207.21L1501.52 207.18Q1501.10 207.86 1500.46 208.32Q1499.81 208.78 1498.77 208.78L1498.77 208.78Q1498.03 208.78 1497.42 208.54Q1496.80 208.30 1496.36 207.85Q1495.92 207.40 1495.67 206.77Q1495.42 206.14 1495.42 205.34L1495.42 205.34Q1495.42 204.52 1495.69 203.84Q1495.95 203.16 1496.45 202.67Q1496.94 202.18 1497.64 201.91Q1498.34 201.64 1499.18 201.64L1499.18 201.64Q1500.06 201.64 1500.77 201.94Q1501.47 202.23 1501.96 202.78Q1502.45 203.34 1502.71 204.14Q1502.98 204.94 1502.98 205.93ZM1499.20 207.67L1499.20 207.67Q1500.35 207.67 1500.98 207.05Q1501.62 206.42 1501.62 205.29L1501.62 205.29L1501.62 205.16Q1501.62 204.02 1500.98 203.40Q1500.35 202.78 1499.20 202.78L1499.20 202.78Q1498.05 202.78 1497.42 203.40Q1496.78 204.02 1496.78 205.16L1496.78 205.16L1496.78 205.29Q1496.78 206.42 1497.42 207.05Q1498.05 207.67 1499.20 207.67Z" fill="#FFFFFF" opacity="0.7"/>
  <rect x="1385.002" y="322.608" width="136.998" height="40.99200000000002" rx="5" fill="#147B58"/>
  <path d="M1412.36 346.40L1412.36 348L1411.26 348Q1410.72 348 1410.34 347.76Q1409.95 347.51 1409.75 347.06Q1409.55 346.61 1409.55 346.00L1409.55 346.00L1409.55 345.84L1410.11 346.43L1409.48 346.43Q1409.21 347.30 1408.49 347.76Q1407.77 348.22 1406.75 348.22L1406.75 348.22Q1405.31 348.22 1404.51 347.46Q1403.72 346.70 1403.72 345.43L1403.72 345.43Q1403.72 344.49 1404.18 343.87Q1404.64 343.25 1405.52 342.93Q1406.40 342.62 1407.72 342.62L1407.72 342.62L1409.41 342.62L1409.41 341.83Q1409.41 340.98 1408.94 340.50Q1408.47 340.03 1407.48 340.03L1407.48 340.03Q1406.67 340.03 1406.14 340.39Q1405.61 340.76 1405.25 341.30L1405.25 341.30L1404.08 340.24Q1404.55 339.45 1405.40 338.94Q1406.26 338.42 1407.61 338.42L1407.61 338.42Q1409.41 338.42 1410.39 339.28Q1411.37 340.13 1411.37 341.70L1411.37 341.70L1411.37 346.40L1412.36 346.40ZM1409.41 345.23L1409.41 343.88L1407.75 343.88Q1406.73 343.88 1406.22 344.20Q1405.72 344.53 1405.72 345.14L1405.72 345.14L1405.72 345.46Q1405.72 346.07 1406.15 346.40Q1406.58 346.72 1407.30 346.72L1407.30 346.72Q1407.92 346.72 1408.38 346.54Q1408.85 346.36 1409.13 346.02Q1409.41 345.68 1409.41 345.23L1409.41 345.23ZM1417.26 348.22L1417.26 348.22Q1415.94 348.22 1415.04 347.75Q1414.13 347.28 1413.46 346.45L1413.46 346.45L1414.72 345.30Q1415.24 345.91 1415.88 346.27Q1416.52 346.63 1417.37 346.63L1417.37 346.63Q1418.23 346.63 1418.65 346.30Q1419.08 345.97 1419.08 345.37L1419.08 345.37Q1419.08 344.92 1418.78 344.62Q1418.48 344.31 1417.74 344.20L1417.74 344.20L1416.88 344.09Q1415.94 343.95 1415.24 343.63Q1414.54 343.30 1414.17 342.74Q1413.80 342.17 1413.80 341.30L1413.80 341.30Q1413.80 339.94 1414.77 339.18Q1415.73 338.42 1417.28 338.42L1417.28 338.42Q1418.12 338.42 1418.75 338.60Q1419.38 338.78 1419.87 339.12Q1420.35 339.45 1420.77 339.92L1420.77 339.92L1419.56 341.07Q1419.20 340.64 1418.62 340.32Q1418.03 340.01 1417.28 340.01L1417.28 340.01Q1416.48 340.01 1416.09 340.32Q1415.69 340.64 1415.69 341.18L1415.69 341.18Q1415.69 341.72 1416.04 341.99Q1416.39 342.26 1417.13 342.38L1417.13 342.38L1418.00 342.49Q1419.54 342.73 1420.26 343.40Q1420.97 344.08 1420.97 345.21L1420.97 345.21Q1420.97 346.11 1420.51 346.79Q1420.05 347.46 1419.22 347.84Q1418.39 348.22 1417.26 348.22ZM1425.14 348L1423.18 348L1423.18 334.68L1425.14 334.68L1425.14 341.07L1425.14 342.87L1425.23 342.87L1426.55 341.21L1428.87 338.64L1431.12 338.64L1427.81 342.29L1431.48 348L1429.12 348L1426.46 343.59L1425.14 344.96L1425.14 348ZM1436.70 348.22L1436.70 348.22Q1435.38 348.22 1434.42 347.61Q1433.46 347.01 1432.93 345.91Q1432.40 344.81 1432.40 343.32L1432.40 343.32Q1432.40 341.83 1432.93 340.73Q1433.46 339.63 1434.42 339.03Q1435.38 338.42 1436.70 338.42L1436.70 338.42Q1437.99 338.42 1438.96 339.03Q1439.92 339.63 1440.45 340.73Q1440.98 341.83 1440.98 343.32L1440.98 343.32Q1440.98 344.81 1440.45 345.91Q1439.92 347.01 1438.96 347.61Q1437.99 348.22 1436.70 348.22ZM1436.70 346.58L1436.70 346.58Q1437.71 346.58 1438.31 345.96Q1438.91 345.34 1438.91 344.11L1438.91 344.11L1438.91 342.53Q1438.91 341.30 1438.31 340.68Q1437.71 340.06 1436.70 340.06L1436.70 340.06Q1435.71 340.06 1435.09 340.68Q1434.47 341.30 1434.47 342.53L1434.47 342.53L1434.47 344.11Q1434.47 345.34 1435.09 345.96Q1435.71 346.58 1436.70 346.58ZM1451.01 348L1449.05 348L1449.05 346.45L1448.96 346.45Q1448.63 347.28 1447.95 347.75Q1447.26 348.22 1446.33 348.22L1446.33 348.22Q1445.16 348.22 1444.32 347.63Q1443.48 347.05 1443.04 345.95Q1442.60 344.85 1442.60 343.32L1442.60 343.32Q1442.60 341.77 1443.04 340.68Q1443.48 339.59 1444.32 339.01Q1445.16 338.42 1446.33 338.42L1446.33 338.42Q1447.26 338.42 1447.97 338.88Q1448.67 339.34 1448.96 340.19L1448.96 340.19L1449.05 340.19L1449.05 334.68L1451.01 334.68L1451.01 348ZM1446.92 346.56L1446.92 346.56Q1447.52 346.56 1447.99 346.35Q1448.47 346.15 1448.76 345.78Q1449.05 345.41 1449.05 344.87L1449.05 344.87L1449.05 341.70Q1449.05 341.21 1448.76 340.85Q1448.47 340.49 1447.99 340.30Q1447.52 340.10 1446.92 340.10L1446.92 340.10Q1445.91 340.10 1445.29 340.76Q1444.67 341.43 1444.67 342.51L1444.67 342.51L1444.67 344.13Q1444.67 345.21 1445.29 345.88Q1445.91 346.56 1446.92 346.56ZM1454.81 336.97L1454.81 336.97Q1454.19 336.97 1453.91 336.68Q1453.64 336.39 1453.64 335.94L1453.64 335.94L1453.64 335.63Q1453.64 335.18 1453.91 334.90Q1454.19 334.61 1454.81 334.61L1454.81 334.61Q1455.42 334.61 1455.69 334.90Q1455.96 335.18 1455.96 335.63L1455.96 335.63L1455.96 335.94Q1455.96 336.39 1455.69 336.68Q1455.42 336.97 1454.81 336.97ZM1455.78 348L1453.82 348L1453.82 338.64L1455.78 338.64L1455.78 348ZM1460.55 341.70L1460.55 348L1458.59 348L1458.59 338.64L1460.55 338.64L1460.55 340.19L1460.64 340.19Q1460.94 339.43 1461.57 338.93Q1462.19 338.42 1463.27 338.42L1463.27 338.42Q1464.71 338.42 1465.51 339.38Q1466.31 340.33 1466.31 342.06L1466.31 342.06L1466.31 348L1464.35 348L1464.35 342.29Q1464.35 341.20 1463.92 340.65Q1463.50 340.10 1462.58 340.10L1462.58 340.10Q1462.06 340.10 1461.60 340.27Q1461.14 340.44 1460.85 340.80Q1460.55 341.16 1460.55 341.70L1460.55 341.70ZM1470.21 348.22L1470.21 348.22Q1469.55 348.22 1469.23 347.87Q1468.92 347.51 1468.92 346.99L1468.92 346.99L1468.92 346.70Q1468.92 346.16 1469.23 345.83Q1469.55 345.50 1470.21 345.50L1470.21 345.50Q1470.90 345.50 1471.21 345.83Q1471.53 346.16 1471.53 346.70L1471.53 346.70L1471.53 346.99Q1471.53 347.51 1471.21 347.87Q1470.90 348.22 1470.21 348.22ZM1482.17 346.40L1482.17 348L1481.07 348Q1480.53 348 1480.14 347.76Q1479.75 347.51 1479.56 347.06Q1479.36 346.61 1479.36 346.00L1479.36 346.00L1479.36 345.84L1479.92 346.43L1479.29 346.43Q1479.02 347.30 1478.30 347.76Q1477.58 348.22 1476.55 348.22L1476.55 348.22Q1475.11 348.22 1474.32 347.46Q1473.53 346.70 1473.53 345.43L1473.53 345.43Q1473.53 344.49 1473.99 343.87Q1474.44 343.25 1475.33 342.93Q1476.21 342.62 1477.52 342.62L1477.52 342.62L1479.21 342.62L1479.21 341.83Q1479.21 340.98 1478.75 340.50Q1478.28 340.03 1477.29 340.03L1477.29 340.03Q1476.48 340.03 1475.95 340.39Q1475.42 340.76 1475.06 341.30L1475.06 341.30L1473.89 340.24Q1474.35 339.45 1475.21 338.94Q1476.06 338.42 1477.41 338.42L1477.41 338.42Q1479.21 338.42 1480.19 339.28Q1481.18 340.13 1481.18 341.70L1481.18 341.70L1481.18 346.40L1482.17 346.40ZM1479.21 345.23L1479.21 343.88L1477.56 343.88Q1476.53 343.88 1476.03 344.20Q1475.52 344.53 1475.52 345.14L1475.52 345.14L1475.52 345.46Q1475.52 346.07 1475.96 346.40Q1476.39 346.72 1477.11 346.72L1477.11 346.72Q1477.72 346.72 1478.19 346.54Q1478.66 346.36 1478.93 346.02Q1479.21 345.68 1479.21 345.23L1479.21 345.23ZM1486.05 351.60L1484.09 351.60L1484.09 338.64L1486.05 338.64L1486.05 340.19L1486.14 340.19Q1486.43 339.34 1487.13 338.88Q1487.84 338.42 1488.77 338.42L1488.77 338.42Q1489.96 338.42 1490.79 339.01Q1491.62 339.59 1492.06 340.68Q1492.50 341.77 1492.50 343.32L1492.50 343.32Q1492.50 344.85 1492.06 345.95Q1491.62 347.05 1490.79 347.63Q1489.96 348.22 1488.77 348.22L1488.77 348.22Q1487.84 348.22 1487.15 347.75Q1486.47 347.28 1486.14 346.45L1486.14 346.45L1486.05 346.45L1486.05 351.60ZM1488.18 346.56L1488.18 346.56Q1489.20 346.56 1489.82 345.88Q1490.43 345.21 1490.43 344.13L1490.43 344.13L1490.43 342.51Q1490.43 341.43 1489.82 340.76Q1489.20 340.10 1488.18 340.10L1488.18 340.10Q1487.58 340.10 1487.11 340.30Q1486.63 340.49 1486.34 340.85Q1486.05 341.21 1486.05 341.70L1486.05 341.70L1486.05 344.87Q1486.05 345.41 1486.34 345.78Q1486.63 346.15 1487.11 346.35Q1487.58 346.56 1488.18 346.56ZM1496.71 351.60L1494.75 351.60L1494.75 338.64L1496.71 338.64L1496.71 340.19L1496.80 340.19Q1497.09 339.34 1497.79 338.88Q1498.49 338.42 1499.43 338.42L1499.43 338.42Q1500.62 338.42 1501.44 339.01Q1502.27 339.59 1502.71 340.68Q1503.15 341.77 1503.15 343.32L1503.15 343.32Q1503.15 344.85 1502.71 345.95Q1502.27 347.05 1501.44 347.63Q1500.62 348.22 1499.43 348.22L1499.43 348.22Q1498.49 348.22 1497.81 347.75Q1497.12 347.28 1496.80 346.45L1496.80 346.45L1496.71 346.45L1496.71 351.60ZM1498.83 346.56L1498.83 346.56Q1499.86 346.56 1500.47 345.88Q1501.08 345.21 1501.08 344.13L1501.08 344.13L1501.08 342.51Q1501.08 341.43 1500.47 340.76Q1499.86 340.10 1498.83 340.10L1498.83 340.10Q1498.24 340.10 1497.76 340.30Q1497.29 340.49 1497.00 340.85Q1496.71 341.21 1496.71 341.70L1496.71 341.70L1496.71 344.87Q1496.71 345.41 1497.00 345.78Q1497.29 346.15 1497.76 346.35Q1498.24 346.56 1498.83 346.56Z" fill="#FFFFFF"/>
  <path d="M1295.85 346.13L1295.85 348L1289.34 348L1289.34 336.83L1291.45 336.83L1291.45 346.13L1295.85 346.13ZM1300.92 348.19L1300.92 348.19Q1299.69 348.19 1298.81 347.66Q1297.93 347.12 1297.46 346.14Q1296.99 345.15 1296.99 343.81L1296.99 343.81Q1296.99 342.50 1297.45 341.51Q1297.91 340.53 1298.78 339.99Q1299.64 339.46 1300.86 339.46L1300.86 339.46Q1302.17 339.46 1303.01 340.03Q1303.85 340.61 1304.26 341.56Q1304.67 342.51 1304.67 343.66L1304.67 343.66L1304.67 344.34L1299.11 344.34L1299.11 344.54Q1299.11 345.44 1299.63 346Q1300.14 346.56 1301.15 346.56L1301.15 346.56Q1301.90 346.56 1302.39 346.23Q1302.89 345.90 1303.27 345.42L1303.27 345.42L1304.38 346.66Q1303.87 347.34 1302.98 347.77Q1302.09 348.19 1300.92 348.19ZM1300.89 340.99L1300.89 340.99Q1300.35 340.99 1299.95 341.24Q1299.55 341.49 1299.33 341.93Q1299.11 342.37 1299.11 342.94L1299.11 342.94L1299.11 343.07L1302.54 343.07L1302.54 342.93Q1302.54 342.34 1302.35 341.91Q1302.15 341.49 1301.79 341.24Q1301.42 340.99 1300.89 340.99ZM1313.75 346.37L1313.75 348L1312.62 348Q1312.15 348 1311.79 347.78Q1311.43 347.57 1311.23 347.15Q1311.03 346.74 1311.03 346.18L1311.03 346.18L1311.03 346L1311.55 346.56L1310.97 346.56Q1310.76 347.36 1310.11 347.78Q1309.47 348.19 1308.54 348.19L1308.54 348.19Q1307.26 348.19 1306.57 347.51Q1305.88 346.83 1305.88 345.73L1305.88 345.73Q1305.88 344.86 1306.31 344.30Q1306.73 343.74 1307.53 343.46Q1308.33 343.17 1309.45 343.17L1309.45 343.17L1310.87 343.17L1310.87 342.56Q1310.87 341.87 1310.51 341.48Q1310.14 341.09 1309.32 341.09L1309.32 341.09Q1308.60 341.09 1308.16 341.40Q1307.72 341.71 1307.42 342.14L1307.42 342.14L1306.20 341.06Q1306.67 340.34 1307.43 339.90Q1308.20 339.46 1309.47 339.46L1309.47 339.46Q1311.15 339.46 1312.03 340.23Q1312.92 341.01 1312.92 342.43L1312.92 342.43L1312.92 346.37L1313.75 346.37ZM1310.87 345.50L1310.87 344.40L1309.56 344.40Q1308.76 344.40 1308.36 344.66Q1307.96 344.93 1307.96 345.42L1307.96 345.42L1307.96 345.70Q1307.96 346.19 1308.30 346.45Q1308.63 346.70 1309.23 346.70L1309.23 346.70Q1309.69 346.70 1310.06 346.57Q1310.43 346.43 1310.65 346.16Q1310.87 345.89 1310.87 345.50L1310.87 345.50ZM1317.47 342.88L1317.47 348L1315.42 348L1315.42 339.65L1317.47 339.65L1317.47 341.38L1317.55 341.38Q1317.66 340.93 1317.92 340.54Q1318.19 340.14 1318.64 339.90Q1319.10 339.65 1319.75 339.65L1319.75 339.65L1320.20 339.65L1320.20 341.58L1319.56 341.58Q1318.87 341.58 1318.40 341.72Q1317.93 341.86 1317.70 342.14Q1317.47 342.42 1317.47 342.88L1317.47 342.88ZM1323.75 342.48L1323.75 348L1321.71 348L1321.71 339.65L1323.75 339.65L1323.75 341.04L1323.83 341.04Q1324.09 340.37 1324.64 339.91Q1325.19 339.46 1326.17 339.46L1326.17 339.46Q1327.45 339.46 1328.15 340.31Q1328.84 341.17 1328.84 342.72L1328.84 342.72L1328.84 348L1326.79 348L1326.79 342.93Q1326.79 342.05 1326.47 341.59Q1326.15 341.14 1325.42 341.14L1325.42 341.14Q1325.00 341.14 1324.62 341.29Q1324.23 341.44 1323.99 341.74Q1323.75 342.03 1323.75 342.48L1323.75 342.48ZM1337.02 348L1335.02 348L1335.02 336.83L1337.35 336.83L1339.03 340L1340.23 342.29L1340.28 342.29L1341.47 340L1343.13 336.83L1345.47 336.83L1345.47 348L1343.47 348L1343.47 341.82L1343.47 340.06L1343.42 340.06L1342.55 341.76L1340.23 345.98L1337.95 341.78L1337.07 339.98L1337.02 339.98L1337.02 341.82L1337.02 348ZM1351.27 348.19L1351.27 348.19Q1350.09 348.19 1349.22 347.66Q1348.35 347.12 1347.87 346.14Q1347.40 345.15 1347.40 343.81L1347.40 343.81Q1347.40 342.46 1347.87 341.50Q1348.35 340.53 1349.22 339.99Q1350.09 339.46 1351.27 339.46L1351.27 339.46Q1352.47 339.46 1353.35 339.99Q1354.22 340.53 1354.69 341.50Q1355.16 342.46 1355.16 343.81L1355.16 343.81Q1355.16 345.15 1354.69 346.14Q1354.22 347.12 1353.35 347.66Q1352.47 348.19 1351.27 348.19ZM1351.27 346.54L1351.27 346.54Q1352.09 346.54 1352.55 346.04Q1353.02 345.54 1353.02 344.59L1353.02 344.59L1353.02 343.04Q1353.02 342.10 1352.55 341.60Q1352.09 341.10 1351.27 341.10L1351.27 341.10Q1350.49 341.10 1350.02 341.60Q1349.55 342.10 1349.55 343.04L1349.55 343.04L1349.55 344.59Q1349.55 345.54 1350.02 346.04Q1350.49 346.54 1351.27 346.54ZM1359.02 342.88L1359.02 348L1356.97 348L1356.97 339.65L1359.02 339.65L1359.02 341.38L1359.10 341.38Q1359.21 340.93 1359.47 340.54Q1359.74 340.14 1360.19 339.90Q1360.65 339.65 1361.31 339.65L1361.31 339.65L1361.75 339.65L1361.75 341.58L1361.11 341.58Q1360.43 341.58 1359.95 341.72Q1359.48 341.86 1359.25 342.14Q1359.02 342.42 1359.02 342.88L1359.02 342.88ZM1366.63 348.19L1366.63 348.19Q1365.40 348.19 1364.52 347.66Q1363.64 347.12 1363.17 346.14Q1362.70 345.15 1362.70 343.81L1362.70 343.81Q1362.70 342.50 1363.16 341.51Q1363.63 340.53 1364.49 339.99Q1365.35 339.46 1366.57 339.46L1366.57 339.46Q1367.88 339.46 1368.72 340.03Q1369.56 340.61 1369.97 341.56Q1370.38 342.51 1370.38 343.66L1370.38 343.66L1370.38 344.34L1364.83 344.34L1364.83 344.54Q1364.83 345.44 1365.34 346Q1365.85 346.56 1366.86 346.56L1366.86 346.56Q1367.61 346.56 1368.11 346.23Q1368.60 345.90 1368.99 345.42L1368.99 345.42L1370.09 346.66Q1369.58 347.34 1368.69 347.77Q1367.80 348.19 1366.63 348.19ZM1366.60 340.99L1366.60 340.99Q1366.06 340.99 1365.66 341.24Q1365.26 341.49 1365.04 341.93Q1364.83 342.37 1364.83 342.94L1364.83 342.94L1364.83 343.07L1368.25 343.07L1368.25 342.93Q1368.25 342.34 1368.06 341.91Q1367.87 341.49 1367.50 341.24Q1367.13 340.99 1366.60 340.99Z" fill="#DB4A2B" opacity="0.8"/>
  <path d="M 1377.002 343 l 6 0 l -2 -2 M 1383.002 343 l -2 2" stroke="#DB4A2B" stroke-width="1.5" fill="none" opacity="0.6"/>
</svg>