<?xml version="1.0" encoding="UTF-8"?>
<svg xmlns="http://www.w3.org/2000/svg" viewBox="0 0 1500 500" width="1500" height="500">
  <title>askOdin Twitter Cover</title>
  <rect width="1500" height="500" fill="#111119"/>
  <rect width="1500" height="4" fill="#DB4A2B"/>
  <path d="M171.20 152.40L171.20 152.40Q153 152.40 139.20 144.20Q125.40 136 117.90 119.90Q110.40 103.80 110.40 80.20L110.40 80.20Q110.40 56.60 117.90 40.50Q125.40 24.40 139.20 16.20Q153 8 171.20 8L171.20 8Q189.60 8 203.30 16.20Q217 24.40 224.50 40.50Q232 56.60 232 80.20L232 80.20Q232 103.80 224.50 119.90Q217 136 203.30 144.20Q189.60 152.40 171.20 152.40ZM171.20 129L171.20 129Q181.40 129 188.70 124.40Q196 119.80 200 111.30Q204 102.80 204 91L204 91L204 69.40Q204 57.40 200 49Q196 40.60 188.70 36Q181.40 31.40 171.20 31.40L171.20 31.40Q161.40 31.40 154 36Q146.60 40.60 142.50 49Q138.40 57.40 138.40 69.40L138.40 69.40L138.40 91Q138.40 102.80 142.50 111.30Q146.60 119.80 154 124.40Q161.40 129 171.20 129Z" fill="#147B58" opacity="0.02"/>
  <path d="M429.84 321.68L429.84 321.68Q417.10 321.68 407.44 315.94Q397.78 310.20 392.53 298.93Q387.28 287.66 387.28 271.14L387.28 271.14Q387.28 254.62 392.53 243.35Q397.78 232.08 407.44 226.34Q417.10 220.60 429.84 220.60L429.84 220.60Q442.72 220.60 452.31 226.34Q461.90 232.08 467.15 243.35Q472.40 254.62 472.40 271.14L472.40 271.14Q472.40 287.66 467.15 298.93Q461.90 310.20 452.31 315.94Q442.72 321.68 429.84 321.68ZM429.84 305.30L429.84 305.30Q436.98 305.30 442.09 302.08Q447.20 298.86 450 292.91Q452.80 286.96 452.80 278.70L452.80 278.70L452.80 263.58Q452.80 255.18 450 249.30Q447.20 243.42 442.09 240.20Q436.98 236.98 429.84 236.98L429.84 236.98Q422.98 236.98 417.80 240.20Q412.62 243.42 409.75 249.30Q406.88 255.18 406.88 263.58L406.88 263.58L406.88 278.70Q406.88 286.96 409.75 292.91Q412.62 298.86 417.80 302.08Q422.98 305.30 429.84 305.30Z" fill="#147B58" opacity="0.015"/>
  <path d="M678.32 102.64L678.32 102.64Q658.30 102.64 643.12 93.62Q627.94 84.60 619.69 66.89Q611.44 49.18 611.44 23.22L611.44 23.22Q611.44-2.74 619.69-20.45Q627.94-38.16 643.12-47.18Q658.30-56.20 678.32-56.20L678.32-56.20Q698.56-56.20 713.63-47.18Q728.70-38.16 736.95-20.45Q745.20-2.74 745.20 23.22L745.20 23.22Q745.20 49.18 736.95 66.89Q728.70 84.60 713.63 93.62Q698.56 102.64 678.32 102.64ZM678.32 76.90L678.32 76.90Q689.54 76.90 697.57 71.84Q705.60 66.78 710 57.43Q714.40 48.08 714.40 35.10L714.40 35.10L714.40 11.34Q714.40-1.86 710-11.10Q705.60-20.34 697.57-25.40Q689.54-30.46 678.32-30.46L678.32-30.46Q667.54-30.46 659.40-25.40Q651.26-20.34 646.75-11.10Q642.24-1.86 642.24 11.34L642.24 11.34L642.24 35.10Q642.24 48.08 646.75 57.43Q651.26 66.78 659.40 71.84Q667.54 76.90 678.32 76.90Z" fill="#147B58" opacity="0.02"/>
  <path d="M839.16 381.32L839.16 381.32Q829.15 381.32 821.56 376.81Q813.97 372.30 809.85 363.44Q805.72 354.59 805.72 341.61L805.72 341.61Q805.72 328.63 809.85 319.77Q813.97 310.92 821.56 306.41Q829.15 301.90 839.16 301.90L839.16 301.90Q849.28 301.90 856.82 306.41Q864.35 310.92 868.48 319.77Q872.60 328.63 872.60 341.61L872.60 341.61Q872.60 354.59 868.48 363.44Q864.35 372.30 856.82 376.81Q849.28 381.32 839.16 381.32ZM839.16 368.45L839.16 368.45Q844.77 368.45 848.78 365.92Q852.80 363.39 855 358.71Q857.20 354.04 857.20 347.55L857.20 347.55L857.20 335.67Q857.20 329.07 855 324.45Q852.80 319.83 848.78 317.30Q844.77 314.77 839.16 314.77L839.16 314.77Q833.77 314.77 829.70 317.30Q825.63 319.83 823.38 324.45Q821.12 329.07 821.12 335.67L821.12 335.67L821.12 347.55Q821.12 354.04 823.38 358.71Q825.63 363.39 829.70 365.92Q833.77 368.45 839.16 368.45Z" fill="#147B58" opacity="0.015"/>
  <path d="M235.60 421.20L235.60 421.20Q226.50 421.20 219.60 417.10Q212.70 413 208.95 404.95Q205.20 396.90 205.20 385.10L205.20 385.10Q205.20 373.30 208.95 365.25Q212.70 357.20 219.60 353.10Q226.50 349 235.60 349L235.60 349Q244.80 349 251.65 353.10Q258.50 357.20 262.25 365.25Q266 373.30 266 385.10L266 385.10Q266 396.90 262.25 404.95Q258.50 413 251.65 417.10Q244.80 421.20 235.60 421.20ZM235.60 409.50L235.60 409.50Q240.70 409.50 244.35 407.20Q248 404.90 250 400.65Q252 396.40 252 390.50L252 390.50L252 379.70Q252 373.70 250 369.50Q248 365.30 244.35 363Q240.70 360.70 235.60 360.70L235.60 360.70Q230.70 360.70 227 363Q223.30 365.30 221.25 369.50Q219.20 373.70 219.20 379.70L219.20 379.70L219.20 390.50Q219.20 396.40 221.25 400.65Q223.30 404.90 227 407.20Q230.70 409.50 235.60 409.50Z" fill="#147B58" opacity="0.012"/>
  <line x1="460" y1="20" x2="460" y2="480" stroke="#FFFFFF" stroke-width="0.3" opacity="0.02"/>
  <line x1="540" y1="20" x2="540" y2="480" stroke="#FFFFFF" stroke-width="0.3" opacity="0.02"/>
  <line x1="620" y1="20" x2="620" y2="480" stroke="#FFFFFF" stroke-width="0.3" opacity="0.02"/>
  <line x1="700" y1="20" x2="700" y2="480" stroke="#FFFFFF" stroke-width="0.3" opacity="0.02"/>
  <line x1="780" y1="20" x2="780" y2="480" stroke="#FFFFFF" stroke-width="0.3" opacity="0.02"/>
  <line x1="860" y1="20" x2="860" y2="480" stroke="#FFFFFF" stroke-width="0.3" opacity="0.02"/>
  <line x1="940" y1="20" x2="940" y2="480" stroke="#FFFFFF" stroke-width="0.3" opacity="0.02"/>
  <line x1="1020" y1="20" x2="1020" y2="480" stroke="#FFFFFF" stroke-width="0.3" opacity="0.02"/>
  <line x1="1100" y1="20" x2="1100" y2="480" stroke="#FFFFFF" stroke-width="0.3" opacity="0.02"/>
  <line x1="1180" y1="20" x2="1180" y2="480" stroke="#FFFFFF" stroke-width="0.3" opacity="0.02"/>
  <line x1="1260" y1="20" x2="1260" y2="480" stroke="#FFFFFF" stroke-width="0.3" opacity="0.02"/>
  <line x1="1340" y1="20" x2="1340" y2="480" stroke="#FFFFFF" stroke-width="0.3" opacity="0.02"/>
  <line x1="1420" y1="20" x2="1420" y2="480" stroke="#FFFFFF" stroke-width="0.3" opacity="0.02"/>
  <line x1="460" y1="40" x2="1460" y2="40" stroke="#FFFFFF" stroke-width="0.3" opacity="0.02"/>
  <line x1="460" y1="100" x2="1460" y2="100" stroke="#FFFFFF" stroke-width="0.3" opacity="0.02"/>
  <line x1="460" y1="160" x2="1460" y2="160" stroke="#FFFFFF" stroke-width="0.3" opacity="0.02"/>
  <line x1="460" y1="220" x2="1460" y2="220" stroke="#FFFFFF" stroke-width="0.3" opacity="0.02"/>
  <line x1="460" y1="280" x2="1460" y2="280" stroke="#FFFFFF" stroke-width="0.3" opacity="0.02"/>
  <line x1="460" y1="340" x2="1460" y2="340" stroke="#FFFFFF" stroke-width="0.3" opacity="0.02"/>
  <line x1="460" y1="400" x2="1460" y2="400" stroke="#FFFFFF" stroke-width="0.3" opacity="0.02"/>
  <line x1="460" y1="460" x2="1460" y2="460" stroke="#FFFFFF" stroke-width="0.3" opacity="0.02"/>
  <path d="M1217.51 138.68L1217.51 145L1213.11 145Q1211.31 145 1209.91 144.16Q1208.52 143.33 1207.74 141.71Q1206.97 140.10 1206.97 137.93L1206.97 137.93L1206.97 137.25L1208.95 139.42L1206.72 139.42Q1205.91 142.52 1203.40 144.13Q1200.89 145.74 1197.30 145.74L1197.30 145.74Q1192.34 145.74 1189.67 143.11Q1187.00 140.47 1187.00 136.20L1187.00 136.20Q1187.00 132.85 1188.65 130.68Q1190.29 128.51 1193.39 127.39Q1196.49 126.28 1200.83 126.28L1200.83 126.28L1206.35 126.28L1206.35 123.92Q1206.35 121.25 1204.92 119.73Q1203.50 118.22 1200.33 118.22L1200.33 118.22Q1197.54 118.22 1195.84 119.42Q1194.13 120.63 1192.96 122.31L1192.96 122.31L1188.24 118.09Q1190.04 115.30 1193.02 113.60Q1195.99 111.89 1200.89 111.89L1200.89 111.89Q1207.40 111.89 1210.84 114.90Q1214.28 117.91 1214.28 123.42L1214.28 123.42L1214.28 138.68L1217.51 138.68ZM1206.35 135.33L1206.35 131.05L1201.26 131.05Q1198.16 131.05 1196.61 132.07Q1195.06 133.10 1195.06 135.02L1195.06 135.02L1195.06 136.07Q1195.06 137.99 1196.37 138.99Q1197.67 139.98 1199.96 139.98L1199.96 139.98Q1201.76 139.98 1203.19 139.45Q1204.61 138.92 1205.48 137.87Q1206.35 136.82 1206.35 135.33L1206.35 135.33ZM1234.56 145.74L1234.56 145.74Q1229.91 145.74 1226.75 144.16Q1223.58 142.58 1221.17 139.79L1221.17 139.79L1226.00 135.08Q1227.80 137.13 1229.94 138.30Q1232.08 139.48 1234.87 139.48L1234.87 139.48Q1237.72 139.48 1238.99 138.49Q1240.26 137.50 1240.26 135.76L1240.26 135.76Q1240.26 134.34 1239.36 133.50Q1238.46 132.66 1236.29 132.35L1236.29 132.35L1233.07 131.92Q1229.60 131.48 1227.18 130.31Q1224.76 129.13 1223.52 127.08Q1222.28 125.04 1222.28 122.12L1222.28 122.12Q1222.28 117.41 1225.66 114.65Q1229.04 111.89 1234.56 111.89L1234.56 111.89Q1237.72 111.89 1239.98 112.48Q1242.25 113.07 1243.98 114.22Q1245.72 115.36 1247.21 116.98L1247.21 116.98L1242.56 121.63Q1241.13 120.14 1239.15 119.15Q1237.16 118.15 1234.81 118.15L1234.81 118.15Q1232.33 118.15 1231.12 119.05Q1229.91 119.95 1229.91 121.50L1229.91 121.50Q1229.91 123.11 1230.87 123.95Q1231.83 124.79 1234.12 125.16L1234.12 125.16L1237.41 125.59Q1242.74 126.34 1245.31 128.72Q1247.89 131.11 1247.89 135.14L1247.89 135.14Q1247.89 138.24 1246.24 140.66Q1244.60 143.08 1241.60 144.41Q1238.59 145.74 1234.56 145.74ZM1262.83 145L1254.89 145L1254.89 99.12L1262.83 99.12L1262.83 120.20L1262.83 126.77L1263.14 126.77L1267.42 120.94L1274.67 112.64L1283.66 112.64L1272.50 125.16L1284.84 145L1275.42 145L1267.11 130.49L1262.83 135.14L1262.83 145Z" fill="#DB4A2B"/>
  <path d="M1307.22 145.74L1307.22 145.74Q1301.58 145.74 1297.30 143.20Q1293.02 140.66 1290.70 135.67Q1288.37 130.68 1288.37 123.36L1288.37 123.36Q1288.37 116.05 1290.70 111.06Q1293.02 106.06 1297.30 103.52Q1301.58 100.98 1307.22 100.98L1307.22 100.98Q1312.93 100.98 1317.17 103.52Q1321.42 106.06 1323.75 111.06Q1326.07 116.05 1326.07 123.36L1326.07 123.36Q1326.07 130.68 1323.75 135.67Q1321.42 140.66 1317.17 143.20Q1312.93 145.74 1307.22 145.74ZM1307.22 138.49L1307.22 138.49Q1310.38 138.49 1312.65 137.06Q1314.91 135.64 1316.15 133.00Q1317.39 130.37 1317.39 126.71L1317.39 126.71L1317.39 120.01Q1317.39 116.29 1316.15 113.69Q1314.91 111.09 1312.65 109.66Q1310.38 108.23 1307.22 108.23L1307.22 108.23Q1304.18 108.23 1301.89 109.66Q1299.60 111.09 1298.33 113.69Q1297.05 116.29 1297.05 120.01L1297.05 120.01L1297.05 126.71Q1297.05 130.37 1298.33 133.00Q1299.60 135.64 1301.89 137.06Q1304.18 138.49 1307.22 138.49ZM1361.91 145L1353.97 145L1353.97 139.61L1353.66 139.61Q1352.79 142.40 1350.37 144.07Q1347.96 145.74 1344.73 145.74L1344.73 145.74Q1340.70 145.74 1337.88 143.76Q1335.06 141.78 1333.57 137.96Q1332.08 134.15 1332.08 128.76L1332.08 128.76Q1332.08 123.36 1333.57 119.61Q1335.06 115.86 1337.88 113.88Q1340.70 111.89 1344.73 111.89L1344.73 111.89Q1347.96 111.89 1350.41 113.53Q1352.85 115.18 1353.66 117.97L1353.66 117.97L1353.97 117.97L1353.97 99.12L1361.91 99.12L1361.91 145ZM1347.27 139.17L1347.27 139.17Q1349.20 139.17 1350.72 138.55Q1352.23 137.93 1353.10 136.75Q1353.97 135.58 1353.97 133.90L1353.97 133.90L1353.97 123.61Q1353.97 122.06 1353.10 120.88Q1352.23 119.70 1350.72 119.05Q1349.20 118.40 1347.27 118.40L1347.27 118.40Q1344.24 118.40 1342.31 120.48Q1340.39 122.56 1340.39 126.03L1340.39 126.03L1340.39 131.61Q1340.39 135.02 1342.31 137.09Q1344.24 139.17 1347.27 139.17ZM1375.05 107.92L1375.05 107.92Q1372.63 107.92 1371.52 106.78Q1370.40 105.63 1370.40 103.96L1370.40 103.96L1370.40 102.72Q1370.40 100.98 1371.52 99.86Q1372.63 98.75 1375.05 98.75L1375.05 98.75Q1377.47 98.75 1378.58 99.86Q1379.70 100.98 1379.70 102.72L1379.70 102.72L1379.70 103.96Q1379.70 105.63 1378.58 106.78Q1377.47 107.92 1375.05 107.92ZM1379.02 145L1371.08 145L1371.08 112.64L1379.02 112.64L1379.02 145ZM1396.07 123.61L1396.07 145L1388.13 145L1388.13 112.64L1396.07 112.64L1396.07 118.03L1396.38 118.03Q1397.37 115.43 1399.51 113.66Q1401.65 111.89 1405.43 111.89L1405.43 111.89Q1410.39 111.89 1413.09 115.21Q1415.78 118.53 1415.78 124.54L1415.78 124.54L1415.78 145L1407.85 145L1407.85 125.35Q1407.85 121.94 1406.61 120.17Q1405.37 118.40 1402.52 118.40L1402.52 118.40Q1400.90 118.40 1399.42 118.99Q1397.93 119.58 1397.00 120.73Q1396.07 121.87 1396.07 123.61L1396.07 123.61Z" fill="#147B58"/>
  <path d="M930.15 184.64L930.15 185.81L925.02 185.81L925.02 200L923.70 200L923.70 185.81L918.55 185.81L918.55 184.64L930.15 184.64ZM933.89 200L932.63 200L932.63 183.72L933.89 183.72L933.89 190.52L933.95 190.52Q934.33 189.64 935.12 189.06Q935.91 188.47 937.28 188.47L937.28 188.47Q939.08 188.47 940.08 189.58Q941.08 190.69 941.08 192.76L941.08 192.76L941.08 200L939.83 200L939.83 192.98Q939.83 191.27 939.09 190.43Q938.35 189.59 936.95 189.59L936.95 189.59Q936.15 189.59 935.45 189.87Q934.75 190.14 934.32 190.69Q933.89 191.24 933.89 192.08L933.89 192.08L933.89 200ZM949.05 200.26L949.05 200.26Q947.55 200.26 946.44 199.56Q945.33 198.86 944.72 197.54Q944.12 196.22 944.12 194.37L944.12 194.37Q944.12 192.52 944.72 191.20Q945.33 189.88 946.43 189.18Q947.53 188.47 949.02 188.47L949.02 188.47Q950.48 188.47 951.53 189.16Q952.59 189.86 953.18 191.11Q953.78 192.37 953.78 194.02L953.78 194.02L953.78 194.61L945.44 194.61L945.44 195.16Q945.44 196.94 946.41 198.05Q947.37 199.16 949.11 199.16L949.11 199.16Q950.32 199.16 951.19 198.58Q952.06 198.00 952.52 196.90L952.52 196.90L953.45 197.51Q952.92 198.75 951.79 199.50Q950.65 200.26 949.05 200.26ZM949.02 189.53L949.02 189.53Q947.92 189.53 947.12 190.03Q946.32 190.54 945.88 191.44Q945.44 192.34 945.44 193.53L945.44 193.53L945.44 193.64L952.41 193.64L952.41 193.47Q952.41 192.28 951.99 191.40Q951.58 190.52 950.81 190.02Q950.04 189.53 949.02 189.53ZM970.39 198.83L970.39 200L962.29 200L962.29 184.64L963.61 184.64L963.61 198.83L970.39 198.83ZM981.98 198.90L981.98 200L980.70 200Q980.20 200 979.87 199.79Q979.54 199.58 979.40 199.21Q979.25 198.83 979.25 198.33L979.25 198.33L979.25 197.73L979.76 198.22L979.16 198.22Q978.79 199.14 977.93 199.70Q977.07 200.26 975.75 200.26L975.75 200.26Q973.97 200.26 973.00 199.38Q972.04 198.50 972.04 196.94L972.04 196.94Q972.04 195.93 972.51 195.20Q972.98 194.48 973.98 194.08Q974.98 193.69 976.61 193.69L976.61 193.69L979.21 193.69L979.21 192.37Q979.21 190.96 978.48 190.25Q977.76 189.55 976.33 189.55L976.33 189.55Q975.23 189.55 974.47 190.03Q973.71 190.52 973.25 191.40L973.25 191.40L972.45 190.74Q972.92 189.77 973.87 189.12Q974.83 188.47 976.37 188.47L976.37 188.47Q978.33 188.47 979.40 189.46Q980.46 190.45 980.46 192.23L980.46 192.23L980.46 198.90L981.98 198.90ZM979.21 196.72L979.21 194.63L976.57 194.63Q974.90 194.63 974.13 195.17Q973.36 195.71 973.36 196.66L973.36 196.66L973.36 197.18Q973.36 198.15 974.07 198.67Q974.79 199.19 975.93 199.19L975.93 199.19Q976.85 199.19 977.59 198.89Q978.33 198.59 978.77 198.03Q979.21 197.47 979.21 196.72L979.21 196.72ZM987.77 200.26L987.77 200.26Q986.29 200.26 985.25 199.70Q984.20 199.14 983.43 198.11L983.43 198.11L984.36 197.38Q985.06 198.28 985.90 198.74Q986.73 199.19 987.85 199.19L987.85 199.19Q989.15 199.19 989.86 198.63Q990.56 198.06 990.56 197.05L990.56 197.05Q990.56 196.17 990.02 195.64Q989.48 195.12 988.25 194.94L988.25 194.94L987.33 194.79Q986.31 194.63 985.52 194.28Q984.73 193.93 984.30 193.28Q983.87 192.63 983.87 191.62L983.87 191.62Q983.87 190.03 984.97 189.25Q986.07 188.47 987.70 188.47L987.70 188.47Q988.65 188.47 989.35 188.69Q990.05 188.91 990.59 189.31Q991.13 189.70 991.55 190.21L991.55 190.21L990.71 190.98Q990.27 190.43 989.55 189.99Q988.82 189.55 987.63 189.55L987.63 189.55Q986.42 189.55 985.75 190.08Q985.08 190.61 985.08 191.55L985.08 191.55Q985.08 192.54 985.69 192.99Q986.29 193.44 987.50 193.64L987.50 193.64L988.40 193.77Q990.12 194.04 990.95 194.80Q991.77 195.56 991.77 196.92L991.77 196.92Q991.77 197.98 991.29 198.72Q990.80 199.47 989.91 199.87Q989.02 200.26 987.77 200.26ZM999.25 198.90L999.25 200L997.01 200Q996.35 200 995.98 199.62Q995.62 199.23 995.62 198.61L995.62 198.61L995.62 189.84L993.66 189.84L993.66 188.74L994.94 188.74Q995.40 188.74 995.57 188.54Q995.73 188.34 995.73 187.88L995.73 187.88L995.73 185.59L996.87 185.59L996.87 188.74L999.43 188.74L999.43 189.84L996.87 189.84L996.87 198.90L999.25 198.90ZM1009.04 200L1007.76 200L1007.76 184.64L1009.55 184.64L1012.67 190.19L1014.43 193.29L1014.52 193.29L1016.28 190.19L1019.40 184.64L1021.14 184.64L1021.14 200L1019.86 200L1019.86 189.35L1019.86 186.34L1019.75 186.34L1018.08 189.35L1014.45 195.73L1010.80 189.35L1009.13 186.34L1009.04 186.34L1009.04 189.35L1009.04 200ZM1025.98 185.68L1025.98 185.68Q1025.54 185.68 1025.33 185.46Q1025.12 185.24 1025.12 184.89L1025.12 184.89L1025.12 184.67Q1025.12 184.31 1025.33 184.09Q1025.54 183.87 1025.98 183.87L1025.98 183.87Q1026.44 183.87 1026.64 184.09Q1026.84 184.31 1026.84 184.67L1026.84 184.67L1026.84 184.89Q1026.84 185.24 1026.64 185.46Q1026.44 185.68 1025.98 185.68ZM1026.62 200L1025.36 200L1025.36 188.74L1026.62 188.74L1026.62 200ZM1033.70 198.90L1033.70 200L1032.10 200Q1031.41 200 1031.06 199.63Q1030.71 199.25 1030.71 198.64L1030.71 198.64L1030.71 183.72L1031.96 183.72L1031.96 198.90L1033.70 198.90ZM1040.54 200.26L1040.54 200.26Q1039.05 200.26 1037.94 199.56Q1036.83 198.86 1036.22 197.54Q1035.62 196.22 1035.62 194.37L1035.62 194.37Q1035.62 192.52 1036.22 191.20Q1036.83 189.88 1037.93 189.18Q1039.03 188.47 1040.52 188.47L1040.52 188.47Q1041.97 188.47 1043.03 189.16Q1044.09 189.86 1044.68 191.11Q1045.27 192.37 1045.27 194.02L1045.27 194.02L1045.27 194.61L1036.94 194.61L1036.94 195.16Q1036.94 196.94 1037.90 198.05Q1038.87 199.16 1040.61 199.16L1040.61 199.16Q1041.82 199.16 1042.69 198.58Q1043.56 198.00 1044.02 196.90L1044.02 196.90L1044.94 197.51Q1044.42 198.75 1043.28 199.50Q1042.15 200.26 1040.54 200.26ZM1040.52 189.53L1040.52 189.53Q1039.42 189.53 1038.62 190.03Q1037.82 190.54 1037.38 191.44Q1036.94 192.34 1036.94 193.53L1036.94 193.53L1036.94 193.64L1043.91 193.64L1043.91 193.47Q1043.91 192.28 1043.49 191.40Q1043.07 190.52 1042.30 190.02Q1041.53 189.53 1040.52 189.53ZM1057.68 200.26L1057.68 200.26Q1056.19 200.26 1055.09 199.56Q1053.99 198.86 1053.37 197.54Q1052.75 196.22 1052.75 194.37L1052.75 194.37Q1052.75 192.52 1053.37 191.20Q1053.99 189.88 1055.09 189.18Q1056.19 188.47 1057.68 188.47L1057.68 188.47Q1059.18 188.47 1060.29 189.18Q1061.40 189.88 1062.00 191.20Q1062.61 192.52 1062.61 194.37L1062.61 194.37Q1062.61 196.22 1062.00 197.54Q1061.40 198.86 1060.29 199.56Q1059.18 200.26 1057.68 200.26ZM1057.68 199.14L1057.68 199.14Q1059.33 199.14 1060.30 198.10Q1061.27 197.05 1061.27 195.07L1061.27 195.07L1061.27 193.66Q1061.27 191.68 1060.30 190.64Q1059.33 189.59 1057.68 189.59L1057.68 189.59Q1056.05 189.59 1055.09 190.64Q1054.12 191.68 1054.12 193.66L1054.12 193.66L1054.12 195.07Q1054.12 197.05 1055.09 198.10Q1056.05 199.14 1057.68 199.14ZM1067.58 200L1066.33 200L1066.33 189.84L1064.39 189.84L1064.39 188.74L1066.33 188.74L1066.33 185.59Q1066.33 184.73 1066.77 184.23Q1067.21 183.72 1068.09 183.72L1068.09 183.72L1070.07 183.72L1070.07 184.82L1067.58 184.82L1067.58 188.74L1070.07 188.74L1070.07 189.84L1067.58 189.84L1067.58 200ZM1083.47 184.64L1088.92 200L1087.54 200L1085.86 195.23L1079.33 195.23L1077.66 200L1076.34 200L1081.77 184.64L1083.47 184.64ZM1079.66 194.08L1085.51 194.08L1083.51 188.36L1082.63 185.90L1082.54 185.90L1081.68 188.36L1079.66 194.08ZM1096.67 198.90L1096.67 200L1090.88 200L1090.88 198.90L1093.12 198.90L1093.12 185.74L1090.88 185.74L1090.88 184.64L1096.67 184.64L1096.67 185.74L1094.42 185.74L1094.42 198.90L1096.67 198.90ZM1110.42 198.90L1110.42 200L1104.63 200L1104.63 198.90L1106.87 198.90L1106.87 185.74L1104.63 185.74L1104.63 184.64L1110.42 184.64L1110.42 185.74L1108.17 185.74L1108.17 198.90L1110.42 198.90ZM1117.04 200.26L1117.04 200.26Q1115.56 200.26 1114.52 199.70Q1113.47 199.14 1112.70 198.11L1112.70 198.11L1113.63 197.38Q1114.33 198.28 1115.17 198.74Q1116.00 199.19 1117.13 199.19L1117.13 199.19Q1118.42 199.19 1119.13 198.63Q1119.83 198.06 1119.83 197.05L1119.83 197.05Q1119.83 196.17 1119.29 195.64Q1118.75 195.12 1117.52 194.94L1117.52 194.94L1116.60 194.79Q1115.59 194.63 1114.79 194.28Q1114.00 193.93 1113.57 193.28Q1113.14 192.63 1113.14 191.62L1113.14 191.62Q1113.14 190.03 1114.24 189.25Q1115.34 188.47 1116.97 188.47L1116.97 188.47Q1117.92 188.47 1118.62 188.69Q1119.33 188.91 1119.87 189.31Q1120.40 189.70 1120.82 190.21L1120.82 190.21L1119.99 190.98Q1119.55 190.43 1118.82 189.99Q1118.09 189.55 1116.91 189.55L1116.91 189.55Q1115.70 189.55 1115.02 190.08Q1114.35 190.61 1114.35 191.55L1114.35 191.55Q1114.35 192.54 1114.96 192.99Q1115.56 193.44 1116.77 193.64L1116.77 193.64L1117.68 193.77Q1119.39 194.04 1120.22 194.80Q1121.04 195.56 1121.04 196.92L1121.04 196.92Q1121.04 197.98 1120.56 198.72Q1120.07 199.47 1119.18 199.87Q1118.29 200.26 1117.04 200.26ZM1125.60 192.08L1125.60 200L1124.34 200L1124.34 188.74L1125.60 188.74L1125.60 190.52L1125.66 190.52Q1126.04 189.64 1126.83 189.06Q1127.62 188.47 1128.98 188.47L1128.98 188.47Q1130.79 188.47 1131.79 189.58Q1132.79 190.69 1132.79 192.76L1132.79 192.76L1132.79 200L1131.54 200L1131.54 192.98Q1131.54 191.27 1130.80 190.43Q1130.06 189.59 1128.65 189.59L1128.65 189.59Q1127.86 189.59 1127.16 189.87Q1126.45 190.14 1126.02 190.69Q1125.60 191.24 1125.60 192.08L1125.60 192.08ZM1137.83 183.72L1137.83 189.62L1136.68 189.62L1136.68 183.72L1137.83 183.72ZM1146.03 198.90L1146.03 200L1143.79 200Q1143.13 200 1142.77 199.62Q1142.40 199.23 1142.40 198.61L1142.40 198.61L1142.40 189.84L1140.45 189.84L1140.45 188.74L1141.72 188.74Q1142.18 188.74 1142.35 188.54Q1142.51 188.34 1142.51 187.88L1142.51 187.88L1142.51 185.59L1143.66 185.59L1143.66 188.74L1146.21 188.74L1146.21 189.84L1143.66 189.84L1143.66 198.90L1146.03 198.90ZM1159.54 198.90L1159.54 200L1153.76 200L1153.76 198.90L1156.00 198.90L1156.00 185.74L1153.76 185.74L1153.76 184.64L1159.54 184.64L1159.54 185.74L1157.30 185.74L1157.30 198.90L1159.54 198.90ZM1164.23 192.08L1164.23 200L1162.97 200L1162.97 188.74L1164.23 188.74L1164.23 190.52L1164.29 190.52Q1164.67 189.64 1165.46 189.06Q1166.25 188.47 1167.62 188.47L1167.62 188.47Q1169.42 188.47 1170.42 189.58Q1171.42 190.69 1171.42 192.76L1171.42 192.76L1171.42 200L1170.17 200L1170.17 192.98Q1170.17 191.27 1169.43 190.43Q1168.69 189.59 1167.29 189.59L1167.29 189.59Q1166.49 189.59 1165.79 189.87Q1165.09 190.14 1164.66 190.69Q1164.23 191.24 1164.23 192.08L1164.23 192.08ZM1177.14 200L1175.89 200L1175.89 189.84L1173.95 189.84L1173.95 188.74L1175.89 188.74L1175.89 185.59Q1175.89 184.73 1176.33 184.23Q1176.77 183.72 1177.65 183.72L1177.65 183.72L1179.63 183.72L1179.63 184.82L1177.14 184.82L1177.14 188.74L1179.63 188.74L1179.63 189.84L1177.14 189.84L1177.14 200ZM1186.18 200.26L1186.18 200.26Q1184.69 200.26 1183.59 199.56Q1182.49 198.86 1181.87 197.54Q1181.26 196.22 1181.26 194.37L1181.26 194.37Q1181.26 192.52 1181.87 191.20Q1182.49 189.88 1183.59 189.18Q1184.69 188.47 1186.18 188.47L1186.18 188.47Q1187.68 188.47 1188.79 189.18Q1189.90 189.88 1190.51 191.20Q1191.11 192.52 1191.11 194.37L1191.11 194.37Q1191.11 196.22 1190.51 197.54Q1189.90 198.86 1188.79 199.56Q1187.68 200.26 1186.18 200.26ZM1186.18 199.14L1186.18 199.14Q1187.83 199.14 1188.80 198.10Q1189.77 197.05 1189.77 195.07L1189.77 195.07L1189.77 193.66Q1189.77 191.68 1188.80 190.64Q1187.83 189.59 1186.18 189.59L1186.18 189.59Q1184.56 189.59 1183.59 190.64Q1182.62 191.68 1182.62 193.66L1182.62 193.66L1182.62 195.07Q1182.62 197.05 1183.59 198.10Q1184.56 199.14 1186.18 199.14ZM1195.56 192.30L1195.56 200L1194.30 200L1194.30 188.74L1195.56 188.74L1195.56 190.76L1195.64 190.76Q1195.86 190.21 1196.28 189.76Q1196.70 189.31 1197.37 189.02Q1198.04 188.74 1199.01 188.74L1199.01 188.74L1199.76 188.74L1199.76 189.97L1198.77 189.97Q1197.82 189.97 1197.10 190.25Q1196.37 190.54 1195.96 191.06Q1195.56 191.57 1195.56 192.30L1195.56 192.30ZM1203.41 192.08L1203.41 200L1202.16 200L1202.16 188.74L1203.41 188.74L1203.41 190.52L1203.48 190.52Q1203.83 189.68 1204.55 189.08Q1205.28 188.47 1206.67 188.47L1206.67 188.47Q1207.88 188.47 1208.81 189.04Q1209.75 189.62 1210.14 190.85L1210.14 190.85L1210.21 190.85Q1210.52 189.86 1211.38 189.16Q1212.25 188.47 1213.75 188.47L1213.75 188.47Q1215.53 188.47 1216.50 189.58Q1217.47 190.69 1217.47 192.76L1217.47 192.76L1217.47 200L1216.21 200L1216.21 192.98Q1216.21 191.29 1215.52 190.44Q1214.83 189.59 1213.40 189.59L1213.40 189.59Q1212.63 189.59 1211.95 189.87Q1211.26 190.14 1210.86 190.71Q1210.45 191.27 1210.45 192.10L1210.45 192.10L1210.45 200L1209.20 200L1209.20 192.98Q1209.20 191.27 1208.49 190.43Q1207.79 189.59 1206.38 189.59L1206.38 189.59Q1205.61 189.59 1204.93 189.87Q1204.25 190.14 1203.83 190.69Q1203.41 191.24 1203.41 192.08L1203.41 192.08ZM1230.43 198.90L1230.43 200L1229.15 200Q1228.64 200 1228.31 199.79Q1227.98 199.58 1227.84 199.21Q1227.70 198.83 1227.70 198.33L1227.70 198.33L1227.70 197.73L1228.20 198.22L1227.61 198.22Q1227.24 199.14 1226.38 199.70Q1225.52 200.26 1224.20 200.26L1224.20 200.26Q1222.42 200.26 1221.45 199.38Q1220.48 198.50 1220.48 196.94L1220.48 196.94Q1220.48 195.93 1220.95 195.20Q1221.43 194.48 1222.43 194.08Q1223.43 193.69 1225.06 193.69L1225.06 193.69L1227.65 193.69L1227.65 192.37Q1227.65 190.96 1226.93 190.25Q1226.20 189.55 1224.77 189.55L1224.77 189.55Q1223.67 189.55 1222.91 190.03Q1222.15 190.52 1221.69 191.40L1221.69 191.40L1220.90 190.74Q1221.36 189.77 1222.32 189.12Q1223.28 188.47 1224.82 188.47L1224.82 188.47Q1226.77 188.47 1227.84 189.46Q1228.91 190.45 1228.91 192.23L1228.91 192.23L1228.91 198.90L1230.43 198.90ZM1227.65 196.72L1227.65 194.63L1225.01 194.63Q1223.34 194.63 1222.57 195.17Q1221.80 195.71 1221.80 196.66L1221.80 196.66L1221.80 197.18Q1221.80 198.15 1222.52 198.67Q1223.23 199.19 1224.38 199.19L1224.38 199.19Q1225.30 199.19 1226.04 198.89Q1226.77 198.59 1227.21 198.03Q1227.65 197.47 1227.65 196.72L1227.65 196.72ZM1237.20 198.90L1237.20 200L1234.96 200Q1234.30 200 1233.93 199.62Q1233.57 199.23 1233.57 198.61L1233.57 198.61L1233.57 189.84L1231.61 189.84L1231.61 188.74L1232.89 188.74Q1233.35 188.74 1233.52 188.54Q1233.68 188.34 1233.68 187.88L1233.68 187.88L1233.68 185.59L1234.83 185.59L1234.83 188.74L1237.38 188.74L1237.38 189.84L1234.83 189.84L1234.83 198.90L1237.20 198.90ZM1241.01 185.68L1241.01 185.68Q1240.57 185.68 1240.36 185.46Q1240.15 185.24 1240.15 184.89L1240.15 184.89L1240.15 184.67Q1240.15 184.31 1240.36 184.09Q1240.57 183.87 1241.01 183.87L1241.01 183.87Q1241.47 183.87 1241.67 184.09Q1241.87 184.31 1241.87 184.67L1241.87 184.67L1241.87 184.89Q1241.87 185.24 1241.67 185.46Q1241.47 185.68 1241.01 185.68ZM1241.65 200L1240.39 200L1240.39 188.74L1241.65 188.74L1241.65 200ZM1249.76 200.26L1249.76 200.26Q1248.27 200.26 1247.17 199.56Q1246.07 198.86 1245.45 197.54Q1244.84 196.22 1244.84 194.37L1244.84 194.37Q1244.84 192.52 1245.45 191.20Q1246.07 189.88 1247.17 189.18Q1248.27 188.47 1249.76 188.47L1249.76 188.47Q1251.26 188.47 1252.37 189.18Q1253.48 189.88 1254.09 191.20Q1254.69 192.52 1254.69 194.37L1254.69 194.37Q1254.69 196.22 1254.09 197.54Q1253.48 198.86 1252.37 199.56Q1251.26 200.26 1249.76 200.26ZM1249.76 199.14L1249.76 199.14Q1251.41 199.14 1252.38 198.10Q1253.35 197.05 1253.35 195.07L1253.35 195.07L1253.35 193.66Q1253.35 191.68 1252.38 190.64Q1251.41 189.59 1249.76 189.59L1249.76 189.59Q1248.14 189.59 1247.17 190.64Q1246.20 191.68 1246.20 193.66L1246.20 193.66L1246.20 195.07Q1246.20 197.05 1247.17 198.10Q1248.14 199.14 1249.76 199.14ZM1259.14 192.08L1259.14 200L1257.88 200L1257.88 188.74L1259.14 188.74L1259.14 190.52L1259.20 190.52Q1259.58 189.64 1260.37 189.06Q1261.16 188.47 1262.52 188.47L1262.52 188.47Q1264.33 188.47 1265.33 189.58Q1266.33 190.69 1266.33 192.76L1266.33 192.76L1266.33 200L1265.08 200L1265.08 192.98Q1265.08 191.27 1264.34 190.43Q1263.60 189.59 1262.19 189.59L1262.19 189.59Q1261.40 189.59 1260.70 189.87Q1259.99 190.14 1259.56 190.69Q1259.14 191.24 1259.14 192.08L1259.14 192.08ZM1271.08 200.20L1271.08 200.20Q1270.55 200.20 1270.29 199.92Q1270.03 199.65 1270.03 199.21L1270.03 199.21L1270.03 198.97Q1270.03 198.53 1270.29 198.25Q1270.55 197.98 1271.08 197.98L1271.08 197.98Q1271.63 197.98 1271.88 198.25Q1272.14 198.53 1272.14 198.97L1272.14 198.97L1272.14 199.21Q1272.14 199.65 1271.88 199.92Q1271.63 200.20 1271.08 200.20ZM1286.31 198.90L1286.31 200L1280.52 200L1280.52 198.90L1282.76 198.90L1282.76 185.74L1280.52 185.74L1280.52 184.64L1286.31 184.64L1286.31 185.74L1284.06 185.74L1284.06 198.90L1286.31 198.90ZM1293.92 198.90L1293.92 200L1291.67 200Q1291.01 200 1290.65 199.62Q1290.29 199.23 1290.29 198.61L1290.29 198.61L1290.29 189.84L1288.33 189.84L1288.33 188.74L1289.61 188.74Q1290.07 188.74 1290.23 188.54Q1290.40 188.34 1290.40 187.88L1290.40 187.88L1290.40 185.59L1291.54 185.59L1291.54 188.74L1294.09 188.74L1294.09 189.84L1291.54 189.84L1291.54 198.90L1293.92 198.90ZM1298.21 183.72L1298.21 189.62L1297.06 189.62L1297.06 183.72L1298.21 183.72ZM1305.42 200.26L1305.42 200.26Q1303.95 200.26 1302.90 199.70Q1301.86 199.14 1301.09 198.11L1301.09 198.11L1302.01 197.38Q1302.72 198.28 1303.55 198.74Q1304.39 199.19 1305.51 199.19L1305.51 199.19Q1306.81 199.19 1307.51 198.63Q1308.22 198.06 1308.22 197.05L1308.22 197.05Q1308.22 196.17 1307.68 195.64Q1307.14 195.12 1305.91 194.94L1305.91 194.94L1304.98 194.79Q1303.97 194.63 1303.18 194.28Q1302.39 193.93 1301.96 193.28Q1301.53 192.63 1301.53 191.62L1301.53 191.62Q1301.53 190.03 1302.63 189.25Q1303.73 188.47 1305.36 188.47L1305.36 188.47Q1306.30 188.47 1307.01 188.69Q1307.71 188.91 1308.25 189.31Q1308.79 189.70 1309.21 190.21L1309.21 190.21L1308.37 190.98Q1307.93 190.43 1307.21 189.99Q1306.48 189.55 1305.29 189.55L1305.29 189.55Q1304.08 189.55 1303.41 190.08Q1302.74 190.61 1302.74 191.55L1302.74 191.55Q1302.74 192.54 1303.34 192.99Q1303.95 193.44 1305.16 193.64L1305.16 193.64L1306.06 193.77Q1307.78 194.04 1308.60 194.80Q1309.43 195.56 1309.43 196.92L1309.43 196.92Q1309.43 197.98 1308.94 198.72Q1308.46 199.47 1307.57 199.87Q1306.68 200.26 1305.42 200.26ZM1318.01 185.81L1318.01 184.64L1324.65 184.64L1324.65 196.00Q1324.65 197.34 1324.13 198.29Q1323.62 199.25 1322.68 199.76Q1321.75 200.26 1320.49 200.26L1320.49 200.26Q1318.89 200.26 1317.82 199.37Q1316.75 198.48 1316.45 197.05L1316.45 197.05L1317.61 196.77Q1317.88 197.78 1318.60 198.43Q1319.33 199.08 1320.54 199.08L1320.54 199.08Q1321.90 199.08 1322.63 198.25Q1323.35 197.43 1323.35 195.80L1323.35 195.80L1323.35 185.81L1318.01 185.81ZM1337.06 200L1335.81 200L1335.81 198.22L1335.72 198.22Q1335.41 199.01 1334.64 199.64Q1333.87 200.26 1332.42 200.26L1332.42 200.26Q1330.64 200.26 1329.61 199.15Q1328.59 198.04 1328.59 195.97L1328.59 195.97L1328.59 188.74L1329.84 188.74L1329.84 195.73Q1329.84 197.45 1330.59 198.29Q1331.34 199.14 1332.75 199.14L1332.75 199.14Q1333.54 199.14 1334.23 198.87Q1334.93 198.59 1335.37 198.04Q1335.81 197.49 1335.81 196.63L1335.81 196.63L1335.81 188.74L1337.06 188.74L1337.06 200ZM1349.67 200L1348.41 200L1348.41 198.20L1348.35 198.20Q1347.88 199.12 1347.04 199.69Q1346.19 200.26 1344.91 200.26L1344.91 200.26Q1343.48 200.26 1342.44 199.57Q1341.39 198.88 1340.83 197.55Q1340.27 196.22 1340.27 194.37L1340.27 194.37Q1340.27 192.50 1340.83 191.18Q1341.39 189.86 1342.44 189.16Q1343.48 188.47 1344.91 188.47L1344.91 188.47Q1346.19 188.47 1347.06 189.03Q1347.93 189.59 1348.35 190.54L1348.35 190.54L1348.41 190.54L1348.41 183.72L1349.67 183.72L1349.67 200ZM1345.20 199.14L1345.20 199.14Q1346.08 199.14 1346.81 198.82Q1347.53 198.50 1347.97 197.92Q1348.41 197.34 1348.41 196.57L1348.41 196.57L1348.41 192.10Q1348.41 191.35 1347.97 190.79Q1347.53 190.23 1346.81 189.91Q1346.08 189.59 1345.20 189.59L1345.20 189.59Q1343.53 189.59 1342.57 190.67Q1341.61 191.75 1341.61 193.58L1341.61 193.58L1341.61 195.16Q1341.61 196.96 1342.57 198.05Q1343.53 199.14 1345.20 199.14ZM1363.00 201.32L1363.00 201.32Q1363.00 202.46 1362.38 203.21Q1361.77 203.96 1360.56 204.31Q1359.35 204.66 1357.59 204.66L1357.59 204.66Q1355.87 204.66 1354.79 204.32Q1353.71 203.98 1353.22 203.34Q1352.72 202.71 1352.72 201.85L1352.72 201.85Q1352.72 200.90 1353.24 200.32Q1353.76 199.74 1354.66 199.47L1354.66 199.47L1354.66 199.30Q1354.13 199.08 1353.87 198.69Q1353.60 198.31 1353.60 197.76L1353.60 197.76Q1353.60 196.94 1354.15 196.49Q1354.70 196.04 1355.52 195.82L1355.52 195.82L1355.52 195.73Q1354.53 195.27 1353.98 194.40Q1353.43 193.53 1353.43 192.30L1353.43 192.30Q1353.43 191.16 1353.93 190.30Q1354.44 189.44 1355.36 188.96Q1356.29 188.47 1357.52 188.47L1357.52 188.47Q1358.20 188.47 1358.76 188.62Q1359.32 188.76 1359.79 189.02L1359.79 189.02L1359.79 188.47Q1359.79 187.97 1360.03 187.65Q1360.27 187.33 1360.82 187.33L1360.82 187.33L1362.76 187.33L1362.76 188.43L1360.47 188.43L1360.47 189.51Q1361.04 190.01 1361.34 190.73Q1361.63 191.44 1361.63 192.30L1361.63 192.30Q1361.63 193.44 1361.13 194.31Q1360.62 195.18 1359.70 195.67Q1358.77 196.15 1357.54 196.15L1357.54 196.15Q1357.23 196.15 1356.95 196.11Q1356.66 196.06 1356.38 196.02L1356.38 196.02Q1355.67 196.22 1355.19 196.56Q1354.70 196.90 1354.70 197.47L1354.70 197.47Q1354.70 197.95 1355.14 198.22Q1355.58 198.48 1356.51 198.48L1356.51 198.48L1359.13 198.48Q1361.15 198.48 1362.07 199.24Q1363.00 200 1363.00 201.32ZM1361.79 201.41L1361.79 201.41Q1361.79 200.59 1361.20 200.12Q1360.62 199.65 1359.13 199.65L1359.13 199.65L1355.47 199.65Q1354.75 199.89 1354.33 200.37Q1353.91 200.86 1353.91 201.58L1353.91 201.58Q1353.91 202.46 1354.64 203.05Q1355.36 203.63 1356.84 203.63L1356.84 203.63L1358.25 203.63Q1359.87 203.63 1360.83 203.09Q1361.79 202.55 1361.79 201.41ZM1357.54 195.12L1357.54 195.12Q1358.84 195.12 1359.58 194.47Q1360.31 193.82 1360.31 192.65L1360.31 192.65L1360.31 191.95Q1360.31 190.78 1359.58 190.13Q1358.84 189.48 1357.54 189.48L1357.54 189.48Q1356.24 189.48 1355.51 190.13Q1354.77 190.78 1354.77 191.95L1354.77 191.95L1354.77 192.65Q1354.77 193.82 1355.51 194.47Q1356.24 195.12 1357.54 195.12ZM1366.63 192.08L1366.63 200L1365.37 200L1365.37 188.74L1366.63 188.74L1366.63 190.52L1366.69 190.52Q1367.05 189.68 1367.77 189.08Q1368.50 188.47 1369.88 188.47L1369.88 188.47Q1371.09 188.47 1372.03 189.04Q1372.96 189.62 1373.36 190.85L1373.36 190.85L1373.43 190.85Q1373.73 189.86 1374.60 189.16Q1375.47 188.47 1376.97 188.47L1376.97 188.47Q1378.75 188.47 1379.72 189.58Q1380.69 190.69 1380.69 192.76L1380.69 192.76L1380.69 200L1379.43 200L1379.43 192.98Q1379.43 191.29 1378.74 190.44Q1378.05 189.59 1376.62 189.59L1376.62 189.59Q1375.85 189.59 1375.16 189.87Q1374.48 190.14 1374.07 190.71Q1373.67 191.27 1373.67 192.10L1373.67 192.10L1373.67 200L1372.41 200L1372.41 192.98Q1372.41 191.27 1371.71 190.43Q1371.01 189.59 1369.60 189.59L1369.60 189.59Q1368.83 189.59 1368.15 189.87Q1367.46 190.14 1367.05 190.69Q1366.63 191.24 1366.63 192.08L1366.63 192.08ZM1388.65 200.26L1388.65 200.26Q1387.15 200.26 1386.04 199.56Q1384.93 198.86 1384.33 197.54Q1383.72 196.22 1383.72 194.37L1383.72 194.37Q1383.72 192.52 1384.33 191.20Q1384.93 189.88 1386.03 189.18Q1387.13 188.47 1388.63 188.47L1388.63 188.47Q1390.08 188.47 1391.14 189.16Q1392.19 189.86 1392.79 191.11Q1393.38 192.37 1393.38 194.02L1393.38 194.02L1393.38 194.61L1385.04 194.61L1385.04 195.16Q1385.04 196.94 1386.01 198.05Q1386.98 199.16 1388.72 199.16L1388.72 199.16Q1389.93 199.16 1390.79 198.58Q1391.66 198.00 1392.13 196.90L1392.13 196.90L1393.05 197.51Q1392.52 198.75 1391.39 199.50Q1390.26 200.26 1388.65 200.26ZM1388.63 189.53L1388.63 189.53Q1387.53 189.53 1386.72 190.03Q1385.92 190.54 1385.48 191.44Q1385.04 192.34 1385.04 193.53L1385.04 193.53L1385.04 193.64L1392.02 193.64L1392.02 193.47Q1392.02 192.28 1391.60 191.40Q1391.18 190.52 1390.41 190.02Q1389.64 189.53 1388.63 189.53ZM1397.82 192.08L1397.82 200L1396.57 200L1396.57 188.74L1397.82 188.74L1397.82 190.52L1397.89 190.52Q1398.26 189.64 1399.06 189.06Q1399.85 188.47 1401.21 188.47L1401.21 188.47Q1403.02 188.47 1404.02 189.58Q1405.02 190.69 1405.02 192.76L1405.02 192.76L1405.02 200L1403.76 200L1403.76 192.98Q1403.76 191.27 1403.03 190.43Q1402.29 189.59 1400.88 189.59L1400.88 189.59Q1400.09 189.59 1399.39 189.87Q1398.68 190.14 1398.25 190.69Q1397.82 191.24 1397.82 192.08L1397.82 192.08ZM1413.14 198.90L1413.14 200L1410.89 200Q1410.23 200 1409.87 199.62Q1409.51 199.23 1409.51 198.61L1409.51 198.61L1409.51 189.84L1407.55 189.84L1407.55 188.74L1408.82 188.74Q1409.29 188.74 1409.45 188.54Q1409.62 188.34 1409.62 187.88L1409.62 187.88L1409.62 185.59L1410.76 185.59L1410.76 188.74L1413.31 188.74L1413.31 189.84L1410.76 189.84L1410.76 198.90L1413.14 198.90ZM1417.14 200.20L1417.14 200.20Q1416.61 200.20 1416.35 199.92Q1416.08 199.65 1416.08 199.21L1416.08 199.21L1416.08 198.97Q1416.08 198.53 1416.35 198.25Q1416.61 197.98 1417.14 197.98L1417.14 197.98Q1417.69 197.98 1417.94 198.25Q1418.20 198.53 1418.20 198.97L1418.20 198.97L1418.20 199.21Q1418.20 199.65 1417.94 199.92Q1417.69 200.20 1417.14 200.20Z" fill="#FFFFFF"/>
  <line x1="1350" y1="235" x2="1420" y2="235" stroke="#DB4A2B" stroke-width="2.5"/>
  <path d="M1162.08 258.83L1163.42 258.83L1163.42 265.54Q1163.42 266.35 1163.47 266.99Q1163.52 267.63 1163.73 268.09Q1163.94 268.54 1164.38 268.78Q1164.82 269.02 1165.60 269.02L1165.60 269.02Q1166.38 269.02 1166.82 268.78Q1167.26 268.54 1167.47 268.09Q1167.68 267.63 1167.73 266.99Q1167.78 266.35 1167.78 265.54L1167.78 265.54L1167.78 258.83L1169.12 258.83L1169.12 265.22Q1169.12 266.46 1169 267.39Q1168.88 268.32 1168.50 268.94Q1168.13 269.57 1167.43 269.88Q1166.74 270.19 1165.60 270.19L1165.60 270.19Q1164.46 270.19 1163.77 269.88Q1163.07 269.57 1162.70 268.94Q1162.32 268.32 1162.20 267.39Q1162.08 266.46 1162.08 265.22L1162.08 265.22L1162.08 258.83ZM1175.20 270.14L1175.20 270.14Q1174.54 270.14 1174.28 269.87Q1174.02 269.60 1174.02 269.18L1174.02 269.18L1174.02 268.90Q1174.02 268.48 1174.28 268.21Q1174.54 267.94 1175.20 267.94L1175.20 267.94Q1175.86 267.94 1176.12 268.21Q1176.38 268.48 1176.38 268.90L1176.38 268.90L1176.38 269.18Q1176.38 269.60 1176.12 269.87Q1175.86 270.14 1175.20 270.14ZM1184.77 270.19L1184.77 270.19Q1183.26 270.19 1182.30 269.64Q1181.34 269.09 1180.72 268.22L1180.72 268.22L1181.70 267.42Q1182.35 268.24 1183.08 268.64Q1183.81 269.04 1184.82 269.04L1184.82 269.04Q1186.03 269.04 1186.67 268.48Q1187.31 267.92 1187.31 266.91L1187.31 266.91Q1187.31 266.10 1186.85 265.64Q1186.38 265.18 1185.23 264.99L1185.23 264.99L1183.98 264.78Q1183.17 264.64 1182.62 264.35Q1182.06 264.06 1181.73 263.66Q1181.39 263.25 1181.25 262.76Q1181.10 262.27 1181.10 261.74L1181.10 261.74Q1181.10 260.21 1182.11 259.42Q1183.12 258.64 1184.83 258.64L1184.83 258.64Q1186.18 258.64 1187.10 259.09Q1188.02 259.54 1188.58 260.35L1188.58 260.35L1187.63 261.17Q1187.17 260.56 1186.51 260.18Q1185.86 259.79 1184.82 259.79L1184.82 259.79Q1183.68 259.79 1183.07 260.27Q1182.46 260.75 1182.46 261.71L1182.46 261.71Q1182.46 262.46 1182.92 262.94Q1183.38 263.41 1184.56 263.62L1184.56 263.62L1185.76 263.82Q1186.58 263.97 1187.14 264.26Q1187.70 264.54 1188.04 264.94Q1188.38 265.34 1188.53 265.84Q1188.67 266.34 1188.67 266.88L1188.67 266.88Q1188.67 268.43 1187.66 269.31Q1186.64 270.19 1184.77 270.19ZM1194.40 270.14L1194.40 270.14Q1193.74 270.14 1193.48 269.87Q1193.22 269.60 1193.22 269.18L1193.22 269.18L1193.22 268.90Q1193.22 268.48 1193.48 268.21Q1193.74 267.94 1194.40 267.94L1194.40 267.94Q1195.06 267.94 1195.32 268.21Q1195.58 268.48 1195.58 268.90L1195.58 268.90L1195.58 269.18Q1195.58 269.60 1195.32 269.87Q1195.06 270.14 1194.40 270.14ZM1211.58 270L1210.24 270L1210.24 258.83L1214.30 258.83Q1215.86 258.83 1216.67 259.68Q1217.49 260.53 1217.49 262.05L1217.49 262.05Q1217.49 263.57 1216.67 264.42Q1215.86 265.26 1214.30 265.26L1214.30 265.26L1211.58 265.26L1211.58 270ZM1211.58 260L1211.58 264.10L1214.27 264.10Q1215.12 264.10 1215.59 263.67Q1216.06 263.25 1216.06 262.46L1216.06 262.46L1216.06 261.63Q1216.06 260.85 1215.59 260.42Q1215.12 260 1214.27 260L1214.27 260L1211.58 260ZM1227.20 270L1226.32 270Q1225.57 270 1225.25 269.62Q1224.93 269.23 1224.85 268.66L1224.85 268.66L1224.77 268.66Q1224.50 269.38 1223.90 269.78Q1223.30 270.19 1222.29 270.19L1222.29 270.19Q1220.99 270.19 1220.22 269.52Q1219.46 268.85 1219.46 267.68L1219.46 267.68Q1219.46 266.53 1220.30 265.90Q1221.14 265.28 1223.01 265.28L1223.01 265.28L1224.77 265.28L1224.77 264.46Q1224.77 263.55 1224.26 263.10Q1223.74 262.64 1222.80 262.64L1222.80 262.64Q1221.97 262.64 1221.44 262.97Q1220.91 263.30 1220.59 263.86L1220.59 263.86L1219.73 263.22Q1219.89 262.90 1220.16 262.59Q1220.43 262.29 1220.83 262.06Q1221.23 261.82 1221.74 261.69Q1222.26 261.55 1222.88 261.55L1222.88 261.55Q1224.34 261.55 1225.19 262.29Q1226.05 263.02 1226.05 264.34L1226.05 264.34L1226.05 268.88L1227.20 268.88L1227.20 270ZM1222.51 269.12L1222.51 269.12Q1223.01 269.12 1223.42 269Q1223.82 268.88 1224.13 268.68Q1224.43 268.48 1224.60 268.20Q1224.77 267.92 1224.77 267.60L1224.77 267.60L1224.77 266.24L1223.01 266.24Q1221.86 266.24 1221.33 266.56Q1220.80 266.88 1220.80 267.49L1220.80 267.49L1220.80 267.82Q1220.80 268.46 1221.26 268.79Q1221.71 269.12 1222.51 269.12ZM1236.42 270L1233.20 270Q1232.26 270 1231.82 269.47Q1231.38 268.94 1231.38 268.11L1231.38 268.11L1231.38 262.83L1228.62 262.83L1228.62 261.74L1230.67 261.74Q1231.09 261.74 1231.26 261.58Q1231.42 261.41 1231.42 260.99L1231.42 260.99L1231.42 258.83L1232.66 258.83L1232.66 261.74L1236.42 261.74L1236.42 262.83L1232.66 262.83L1232.66 268.91L1236.42 268.91L1236.42 270ZM1242.54 270.19L1242.54 270.19Q1241.65 270.19 1240.94 269.89Q1240.22 269.58 1239.72 269.02Q1239.22 268.45 1238.94 267.66Q1238.67 266.86 1238.67 265.89L1238.67 265.89Q1238.67 264.90 1238.95 264.10Q1239.23 263.30 1239.73 262.73Q1240.22 262.16 1240.92 261.86Q1241.62 261.55 1242.46 261.55L1242.46 261.55Q1243.30 261.55 1243.98 261.86Q1244.66 262.16 1245.14 262.70Q1245.62 263.23 1245.87 263.97Q1246.13 264.70 1246.13 265.58L1246.13 265.58L1246.13 266.19L1240.02 266.19L1240.02 266.58Q1240.02 267.12 1240.19 267.58Q1240.37 268.05 1240.70 268.38Q1241.02 268.72 1241.50 268.90Q1241.97 269.09 1242.54 269.09L1242.54 269.09Q1243.38 269.09 1243.98 268.70Q1244.59 268.32 1244.91 267.65L1244.91 267.65L1245.86 268.29Q1245.49 269.12 1244.63 269.66Q1243.78 270.19 1242.54 270.19ZM1242.46 262.61L1242.46 262.61Q1241.94 262.61 1241.49 262.80Q1241.04 262.99 1240.71 263.33Q1240.38 263.66 1240.20 264.12Q1240.02 264.58 1240.02 265.12L1240.02 265.12L1240.02 265.23L1244.75 265.23L1244.75 265.06Q1244.75 264.51 1244.58 264.06Q1244.42 263.62 1244.12 263.29Q1243.82 262.96 1243.40 262.78Q1242.98 262.61 1242.46 262.61ZM1250.05 270L1248.77 270L1248.77 261.74L1250.05 261.74L1250.05 263.09L1250.11 263.09Q1250.24 262.78 1250.43 262.50Q1250.62 262.22 1250.90 262.02Q1251.18 261.81 1251.57 261.68Q1251.95 261.55 1252.46 261.55L1252.46 261.55Q1253.76 261.55 1254.54 262.38Q1255.33 263.20 1255.33 264.70L1255.33 264.70L1255.33 270L1254.05 270L1254.05 264.93Q1254.05 263.79 1253.55 263.24Q1253.06 262.69 1252.10 262.69L1252.10 262.69Q1251.71 262.69 1251.34 262.78Q1250.98 262.88 1250.69 263.07Q1250.40 263.26 1250.22 263.57Q1250.05 263.87 1250.05 264.27L1250.05 264.27L1250.05 270ZM1265.22 270L1262.00 270Q1261.06 270 1260.62 269.47Q1260.18 268.94 1260.18 268.11L1260.18 268.11L1260.18 262.83L1257.42 262.83L1257.42 261.74L1259.47 261.74Q1259.89 261.74 1260.06 261.58Q1260.22 261.41 1260.22 260.99L1260.22 260.99L1260.22 258.83L1261.46 258.83L1261.46 261.74L1265.22 261.74L1265.22 262.83L1261.46 262.83L1261.46 268.91L1265.22 268.91L1265.22 270ZM1285.12 270L1283.70 270L1282.75 266.82L1278.83 266.82L1277.89 270L1276.50 270L1279.92 258.83L1281.70 258.83L1285.12 270ZM1282.43 265.65L1280.86 260.26L1280.72 260.26L1279.15 265.65L1282.43 265.65ZM1287.12 273.20L1287.12 261.74L1288.40 261.74L1288.40 263.09L1288.46 263.09Q1289.26 261.55 1291.01 261.55L1291.01 261.55Q1292.53 261.55 1293.38 262.69Q1294.24 263.82 1294.24 265.87L1294.24 265.87Q1294.24 267.92 1293.38 269.06Q1292.53 270.19 1291.01 270.19L1291.01 270.19Q1289.26 270.19 1288.46 268.66L1288.46 268.66L1288.40 268.66L1288.40 273.20L1287.12 273.20ZM1290.51 269.06L1290.51 269.06Q1291.63 269.06 1292.25 268.38Q1292.86 267.70 1292.86 266.58L1292.86 266.58L1292.86 265.17Q1292.86 264.05 1292.25 263.37Q1291.63 262.69 1290.51 262.69L1290.51 262.69Q1290.08 262.69 1289.70 262.80Q1289.31 262.91 1289.02 263.13Q1288.74 263.34 1288.57 263.66Q1288.40 263.97 1288.40 264.38L1288.40 264.38L1288.40 267.36Q1288.40 267.78 1288.57 268.09Q1288.74 268.40 1289.02 268.62Q1289.31 268.83 1289.70 268.94Q1290.08 269.06 1290.51 269.06ZM1296.72 273.20L1296.72 261.74L1298.00 261.74L1298.00 263.09L1298.06 263.09Q1298.86 261.55 1300.61 261.55L1300.61 261.55Q1302.13 261.55 1302.98 262.69Q1303.84 263.82 1303.84 265.87L1303.84 265.87Q1303.84 267.92 1302.98 269.06Q1302.13 270.19 1300.61 270.19L1300.61 270.19Q1298.86 270.19 1298.06 268.66L1298.06 268.66L1298.00 268.66L1298.00 273.20L1296.72 273.20ZM1300.11 269.06L1300.11 269.06Q1301.23 269.06 1301.85 268.38Q1302.46 267.70 1302.46 266.58L1302.46 266.58L1302.46 265.17Q1302.46 264.05 1301.85 263.37Q1301.23 262.69 1300.11 262.69L1300.11 262.69Q1299.68 262.69 1299.30 262.80Q1298.91 262.91 1298.62 263.13Q1298.34 263.34 1298.17 263.66Q1298.00 263.97 1298.00 264.38L1298.00 264.38L1298.00 267.36Q1298.00 267.78 1298.17 268.09Q1298.34 268.40 1298.62 268.62Q1298.91 268.83 1299.30 268.94Q1299.68 269.06 1300.11 269.06ZM1309.60 270.14L1309.60 270.14Q1308.94 270.14 1308.68 269.87Q1308.42 269.60 1308.42 269.18L1308.42 269.18L1308.42 268.90Q1308.42 268.48 1308.68 268.21Q1308.94 267.94 1309.60 267.94L1309.60 267.94Q1310.26 267.94 1310.52 268.21Q1310.78 268.48 1310.78 268.90L1310.78 268.90L1310.78 269.18Q1310.78 269.60 1310.52 269.87Q1310.26 270.14 1309.60 270.14ZM1328.82 270.19L1328.82 270.19Q1327.94 270.19 1327.23 269.90Q1326.53 269.60 1326.04 269.05Q1325.55 268.50 1325.29 267.70Q1325.02 266.90 1325.02 265.90L1325.02 265.90Q1325.02 264.66 1325.40 263.56Q1325.78 262.46 1326.36 261.56Q1326.94 260.66 1327.66 259.96Q1328.38 259.26 1329.07 258.83L1329.07 258.83L1330.80 258.83Q1329.89 259.49 1329.18 260.11Q1328.46 260.74 1327.92 261.42Q1327.38 262.10 1327.01 262.87Q1326.64 263.65 1326.40 264.62L1326.40 264.62L1326.48 264.66Q1326.88 263.97 1327.54 263.51Q1328.19 263.06 1329.23 263.06L1329.23 263.06Q1329.97 263.06 1330.58 263.30Q1331.18 263.54 1331.63 263.98Q1332.08 264.43 1332.33 265.07Q1332.58 265.71 1332.58 266.50L1332.58 266.50Q1332.58 267.31 1332.30 267.99Q1332.03 268.67 1331.54 269.16Q1331.06 269.65 1330.36 269.92Q1329.66 270.19 1328.82 270.19ZM1328.80 269.06L1328.80 269.06Q1329.95 269.06 1330.58 268.43Q1331.22 267.81 1331.22 266.67L1331.22 266.67L1331.22 266.54Q1331.22 265.41 1330.58 264.78Q1329.95 264.16 1328.80 264.16L1328.80 264.16Q1327.65 264.16 1327.02 264.78Q1326.38 265.41 1326.38 266.54L1326.38 266.54L1326.38 266.67Q1326.38 267.81 1327.02 268.43Q1327.65 269.06 1328.80 269.06ZM1336.69 263.57L1337.92 263.57Q1339.09 263.57 1339.67 263.05Q1340.26 262.53 1340.26 261.71L1340.26 261.71L1340.26 261.60Q1340.26 260.70 1339.69 260.26Q1339.12 259.81 1338.21 259.81L1338.21 259.81Q1337.31 259.81 1336.76 260.20Q1336.21 260.59 1335.86 261.23L1335.86 261.23L1334.85 260.46Q1335.06 260.13 1335.36 259.80Q1335.66 259.47 1336.07 259.22Q1336.48 258.96 1337.02 258.80Q1337.55 258.64 1338.24 258.64L1338.24 258.64Q1338.96 258.64 1339.58 258.82Q1340.21 259.01 1340.67 259.37Q1341.14 259.73 1341.40 260.26Q1341.66 260.78 1341.66 261.46L1341.66 261.46Q1341.66 262 1341.50 262.43Q1341.33 262.86 1341.03 263.18Q1340.74 263.50 1340.34 263.73Q1339.94 263.95 1339.49 264.06L1339.49 264.06L1339.49 264.13Q1339.95 264.22 1340.38 264.44Q1340.82 264.66 1341.15 265Q1341.49 265.34 1341.69 265.83Q1341.89 266.32 1341.89 266.94L1341.89 266.94Q1341.89 267.66 1341.61 268.26Q1341.33 268.86 1340.82 269.29Q1340.32 269.71 1339.61 269.95Q1338.90 270.19 1338.03 270.19L1338.03 270.19Q1337.30 270.19 1336.73 270.03Q1336.16 269.87 1335.72 269.60Q1335.28 269.33 1334.95 268.99Q1334.62 268.66 1334.37 268.29L1334.37 268.29L1335.38 267.52Q1335.60 267.86 1335.84 268.13Q1336.08 268.40 1336.39 268.60Q1336.70 268.80 1337.10 268.91Q1337.50 269.02 1338.03 269.02L1338.03 269.02Q1339.22 269.02 1339.85 268.48Q1340.48 267.94 1340.48 266.93L1340.48 266.93L1340.48 266.80Q1340.48 265.81 1339.86 265.26Q1339.25 264.72 1338.02 264.72L1338.02 264.72L1336.69 264.72L1336.69 263.57ZM1345.79 272.21L1344.64 272.21L1350.21 257.84L1351.36 257.84L1345.79 272.21ZM1361.38 262.93L1361.38 262.93Q1361.38 264.18 1361.00 265.27Q1360.62 266.37 1360.03 267.27Q1359.44 268.18 1358.73 268.87Q1358.02 269.57 1357.33 270L1357.33 270L1355.60 270Q1356.51 269.34 1357.22 268.72Q1357.94 268.10 1358.48 267.42Q1359.02 266.74 1359.39 265.96Q1359.76 265.18 1360.00 264.21L1360.00 264.21L1359.92 264.18Q1359.50 264.86 1358.86 265.32Q1358.21 265.78 1357.17 265.78L1357.17 265.78Q1356.43 265.78 1355.82 265.54Q1355.20 265.30 1354.76 264.85Q1354.32 264.40 1354.07 263.77Q1353.82 263.14 1353.82 262.34L1353.82 262.34Q1353.82 261.52 1354.09 260.84Q1354.35 260.16 1354.85 259.67Q1355.34 259.18 1356.04 258.91Q1356.74 258.64 1357.58 258.64L1357.58 258.64Q1358.46 258.64 1359.17 258.94Q1359.87 259.23 1360.36 259.78Q1360.85 260.34 1361.11 261.14Q1361.38 261.94 1361.38 262.93ZM1357.60 264.67L1357.60 264.67Q1358.75 264.67 1359.38 264.05Q1360.02 263.42 1360.02 262.29L1360.02 262.29L1360.02 262.16Q1360.02 261.02 1359.38 260.40Q1358.75 259.78 1357.60 259.78L1357.60 259.78Q1356.45 259.78 1355.82 260.40Q1355.18 261.02 1355.18 262.16L1355.18 262.16L1355.18 262.29Q1355.18 263.42 1355.82 264.05Q1356.45 264.67 1357.60 264.67ZM1369.73 270L1368.45 270L1368.45 267.81L1362.94 267.81L1362.94 266.62L1367.78 258.83L1369.73 258.83L1369.73 266.70L1371.39 266.70L1371.39 267.81L1369.73 267.81L1369.73 270ZM1368.38 259.87L1364.14 266.70L1368.45 266.70L1368.45 259.87L1368.38 259.87ZM1376.80 270.19L1376.80 270.19Q1375.82 270.19 1375.09 269.94Q1374.35 269.70 1373.86 269.26Q1373.38 268.83 1373.13 268.24Q1372.88 267.65 1372.88 266.96L1372.88 266.96Q1372.88 265.81 1373.50 265.14Q1374.13 264.46 1375.15 264.19L1375.15 264.19L1375.15 264.06Q1374.26 263.76 1373.74 263.08Q1373.22 262.40 1373.22 261.44L1373.22 261.44Q1373.22 260.16 1374.16 259.40Q1375.10 258.64 1376.80 258.64L1376.80 258.64Q1378.50 258.64 1379.44 259.40Q1380.38 260.16 1380.38 261.44L1380.38 261.44Q1380.38 262.40 1379.86 263.08Q1379.34 263.76 1378.45 264.06L1378.45 264.06L1378.45 264.19Q1379.47 264.46 1380.10 265.14Q1380.72 265.81 1380.72 266.96L1380.72 266.96Q1380.72 267.65 1380.47 268.24Q1380.22 268.83 1379.73 269.26Q1379.23 269.70 1378.50 269.94Q1377.78 270.19 1376.80 270.19ZM1376.80 269.06L1376.80 269.06Q1377.98 269.06 1378.66 268.53Q1379.33 268 1379.33 267.04L1379.33 267.04L1379.33 266.69Q1379.33 265.73 1378.66 265.20Q1378.00 264.67 1376.80 264.67L1376.80 264.67Q1375.60 264.67 1374.94 265.20Q1374.27 265.73 1374.27 266.69L1374.27 266.69L1374.27 267.04Q1374.27 268 1374.94 268.53Q1375.62 269.06 1376.80 269.06ZM1376.80 263.58L1376.80 263.58Q1377.89 263.58 1378.46 263.12Q1379.02 262.66 1379.02 261.79L1379.02 261.79L1379.02 261.57Q1379.02 260.70 1378.44 260.24Q1377.86 259.78 1376.80 259.78L1376.80 259.78Q1375.74 259.78 1375.16 260.24Q1374.58 260.70 1374.58 261.57L1374.58 261.57L1374.58 261.79Q1374.58 262.66 1375.14 263.12Q1375.71 263.58 1376.80 263.58ZM1384.86 272.26L1385.71 267.82L1387.78 267.82L1385.94 272.26L1384.86 272.26ZM1399.22 258.83L1399.22 260L1394.22 260L1393.90 264.27L1394.02 264.27Q1394.43 263.71 1394.94 263.38Q1395.46 263.06 1396.35 263.06L1396.35 263.06Q1397.09 263.06 1397.70 263.29Q1398.32 263.52 1398.77 263.97Q1399.22 264.42 1399.47 265.05Q1399.73 265.68 1399.73 266.50L1399.73 266.50Q1399.73 267.31 1399.47 267.99Q1399.22 268.67 1398.72 269.16Q1398.22 269.65 1397.52 269.92Q1396.82 270.19 1395.92 270.19L1395.92 270.19Q1395.22 270.19 1394.66 270.03Q1394.11 269.87 1393.69 269.60Q1393.26 269.33 1392.94 268.99Q1392.62 268.66 1392.37 268.29L1392.37 268.29L1393.38 267.52Q1393.60 267.86 1393.83 268.13Q1394.06 268.40 1394.37 268.60Q1394.67 268.80 1395.06 268.91Q1395.44 269.02 1395.95 269.02L1395.95 269.02Q1397.10 269.02 1397.72 268.40Q1398.34 267.78 1398.34 266.67L1398.34 266.67L1398.34 266.54Q1398.34 265.44 1397.71 264.82Q1397.09 264.19 1395.92 264.19L1395.92 264.19Q1395.12 264.19 1394.68 264.46Q1394.24 264.74 1393.87 265.14L1393.87 265.14L1392.74 264.98L1393.14 258.83L1399.22 258.83ZM1408.82 258.83L1408.82 260L1403.82 260L1403.50 264.27L1403.62 264.27Q1404.03 263.71 1404.54 263.38Q1405.06 263.06 1405.95 263.06L1405.95 263.06Q1406.69 263.06 1407.30 263.29Q1407.92 263.52 1408.37 263.97Q1408.82 264.42 1409.07 265.05Q1409.33 265.68 1409.33 266.50L1409.33 266.50Q1409.33 267.31 1409.07 267.99Q1408.82 268.67 1408.32 269.16Q1407.82 269.65 1407.12 269.92Q1406.42 270.19 1405.52 270.19L1405.52 270.19Q1404.82 270.19 1404.26 270.03Q1403.71 269.87 1403.29 269.60Q1402.86 269.33 1402.54 268.99Q1402.22 268.66 1401.97 268.29L1401.97 268.29L1402.98 267.52Q1403.20 267.86 1403.43 268.13Q1403.66 268.40 1403.97 268.60Q1404.27 268.80 1404.66 268.91Q1405.04 269.02 1405.55 269.02L1405.55 269.02Q1406.70 269.02 1407.32 268.40Q1407.94 267.78 1407.94 266.67L1407.94 266.67L1407.94 266.54Q1407.94 265.44 1407.31 264.82Q1406.69 264.19 1405.52 264.19L1405.52 264.19Q1404.72 264.19 1404.28 264.46Q1403.84 264.74 1403.47 265.14L1403.47 265.14L1402.34 264.98L1402.74 258.83L1408.82 258.83ZM1418.98 262.93L1418.98 262.93Q1418.98 264.18 1418.60 265.27Q1418.22 266.37 1417.63 267.27Q1417.04 268.18 1416.33 268.87Q1415.62 269.57 1414.93 270L1414.93 270L1413.20 270Q1414.11 269.34 1414.82 268.72Q1415.54 268.10 1416.08 267.42Q1416.62 266.74 1416.99 265.96Q1417.36 265.18 1417.60 264.21L1417.60 264.21L1417.52 264.18Q1417.10 264.86 1416.46 265.32Q1415.81 265.78 1414.77 265.78L1414.77 265.78Q1414.03 265.78 1413.42 265.54Q1412.80 265.30 1412.36 264.85Q1411.92 264.40 1411.67 263.77Q1411.42 263.14 1411.42 262.34L1411.42 262.34Q1411.42 261.52 1411.69 260.84Q1411.95 260.16 1412.45 259.67Q1412.94 259.18 1413.64 258.91Q1414.34 258.64 1415.18 258.64L1415.18 258.64Q1416.06 258.64 1416.77 258.94Q1417.47 259.23 1417.96 259.78Q1418.45 260.34 1418.71 261.14Q1418.98 261.94 1418.98 262.93ZM1415.20 264.67L1415.20 264.67Q1416.35 264.67 1416.98 264.05Q1417.62 263.42 1417.62 262.29L1417.62 262.29L1417.62 262.16Q1417.62 261.02 1416.98 260.40Q1416.35 259.78 1415.20 259.78L1415.20 259.78Q1414.05 259.78 1413.42 260.40Q1412.78 261.02 1412.78 262.16L1412.78 262.16L1412.78 262.29Q1412.78 263.42 1413.42 264.05Q1414.05 264.67 1415.20 264.67Z" fill="#FFFFFF" opacity="0.7"/>
  <rect x="1301.002" y="419.608" width="136.998" height="40.99200000000002" rx="5" fill="#147B58"/>
  <path d="M1328.36 443.40L1328.36 445L1327.26 445Q1326.72 445 1326.34 444.76Q1325.95 444.51 1325.75 444.06Q1325.55 443.61 1325.55 443.00L1325.55 443.00L1325.55 442.84L1326.11 443.43L1325.48 443.43Q1325.21 444.30 1324.49 444.76Q1323.77 445.22 1322.75 445.22L1322.75 445.22Q1321.31 445.22 1320.51 444.46Q1319.72 443.70 1319.72 442.43L1319.72 442.43Q1319.72 441.49 1320.18 440.87Q1320.64 440.25 1321.52 439.93Q1322.40 439.62 1323.72 439.62L1323.72 439.62L1325.41 439.62L1325.41 438.83Q1325.41 437.98 1324.94 437.50Q1324.47 437.03 1323.48 437.03L1323.48 437.03Q1322.67 437.03 1322.14 437.39Q1321.61 437.76 1321.25 438.30L1321.25 438.30L1320.08 437.24Q1320.55 436.45 1321.40 435.94Q1322.26 435.42 1323.61 435.42L1323.61 435.42Q1325.41 435.42 1326.39 436.28Q1327.37 437.13 1327.37 438.70L1327.37 438.70L1327.37 443.40L1328.36 443.40ZM1325.41 442.23L1325.41 440.88L1323.75 440.88Q1322.73 440.88 1322.22 441.20Q1321.72 441.53 1321.72 442.14L1321.72 442.14L1321.72 442.46Q1321.72 443.07 1322.15 443.40Q1322.58 443.72 1323.30 443.72L1323.30 443.72Q1323.92 443.72 1324.38 443.54Q1324.85 443.36 1325.13 443.02Q1325.41 442.68 1325.41 442.23L1325.41 442.23ZM1333.26 445.22L1333.26 445.22Q1331.94 445.22 1331.04 444.75Q1330.13 444.28 1329.46 443.45L1329.46 443.45L1330.72 442.30Q1331.24 442.91 1331.88 443.27Q1332.52 443.63 1333.37 443.63L1333.37 443.63Q1334.23 443.63 1334.65 443.30Q1335.08 442.97 1335.08 442.37L1335.08 442.37Q1335.08 441.92 1334.78 441.62Q1334.48 441.31 1333.74 441.20L1333.74 441.20L1332.88 441.09Q1331.94 440.95 1331.24 440.63Q1330.54 440.30 1330.17 439.74Q1329.80 439.17 1329.80 438.30L1329.80 438.30Q1329.80 436.94 1330.77 436.18Q1331.73 435.42 1333.28 435.42L1333.28 435.42Q1334.12 435.42 1334.75 435.60Q1335.38 435.78 1335.87 436.12Q1336.35 436.45 1336.77 436.92L1336.77 436.92L1335.56 438.07Q1335.20 437.64 1334.62 437.32Q1334.03 437.01 1333.28 437.01L1333.28 437.01Q1332.48 437.01 1332.09 437.32Q1331.69 437.64 1331.69 438.18L1331.69 438.18Q1331.69 438.72 1332.04 438.99Q1332.39 439.26 1333.13 439.38L1333.13 439.38L1334.00 439.49Q1335.54 439.73 1336.26 440.40Q1336.97 441.08 1336.97 442.21L1336.97 442.21Q1336.97 443.11 1336.51 443.79Q1336.05 444.46 1335.22 444.84Q1334.39 445.22 1333.26 445.22ZM1341.14 445L1339.18 445L1339.18 431.68L1341.14 431.68L1341.14 438.07L1341.14 439.87L1341.23 439.87L1342.55 438.21L1344.87 435.64L1347.12 435.64L1343.81 439.29L1347.48 445L1345.12 445L1342.46 440.59L1341.14 441.96L1341.14 445ZM1352.70 445.22L1352.70 445.22Q1351.38 445.22 1350.42 444.61Q1349.46 444.01 1348.93 442.91Q1348.40 441.81 1348.40 440.32L1348.40 440.32Q1348.40 438.83 1348.93 437.73Q1349.46 436.63 1350.42 436.03Q1351.38 435.42 1352.70 435.42L1352.70 435.42Q1353.99 435.42 1354.96 436.03Q1355.92 436.63 1356.45 437.73Q1356.98 438.83 1356.98 440.32L1356.98 440.32Q1356.98 441.81 1356.45 442.91Q1355.92 444.01 1354.96 444.61Q1353.99 445.22 1352.70 445.22ZM1352.70 443.58L1352.70 443.58Q1353.71 443.58 1354.31 442.96Q1354.91 442.34 1354.91 441.11L1354.91 441.11L1354.91 439.53Q1354.91 438.30 1354.31 437.68Q1353.71 437.06 1352.70 437.06L1352.70 437.06Q1351.71 437.06 1351.09 437.68Q1350.47 438.30 1350.47 439.53L1350.47 439.53L1350.47 441.11Q1350.47 442.34 1351.09 442.96Q1351.71 443.58 1352.70 443.58ZM1367.01 445L1365.05 445L1365.05 443.45L1364.96 443.45Q1364.63 444.28 1363.95 444.75Q1363.26 445.22 1362.33 445.22L1362.33 445.22Q1361.16 445.22 1360.32 444.63Q1359.48 444.05 1359.04 442.95Q1358.60 441.85 1358.60 440.32L1358.60 440.32Q1358.60 438.77 1359.04 437.68Q1359.48 436.59 1360.32 436.01Q1361.16 435.42 1362.33 435.42L1362.33 435.42Q1363.26 435.42 1363.97 435.88Q1364.67 436.34 1364.96 437.19L1364.96 437.19L1365.05 437.19L1365.05 431.68L1367.01 431.68L1367.01 445ZM1362.92 443.56L1362.92 443.56Q1363.52 443.56 1363.99 443.35Q1364.47 443.15 1364.76 442.78Q1365.05 442.41 1365.05 441.87L1365.05 441.87L1365.05 438.70Q1365.05 438.21 1364.76 437.85Q1364.47 437.49 1363.99 437.30Q1363.52 437.10 1362.92 437.10L1362.92 437.10Q1361.91 437.10 1361.29 437.76Q1360.67 438.43 1360.67 439.51L1360.67 439.51L1360.67 441.13Q1360.67 442.21 1361.29 442.88Q1361.91 443.56 1362.92 443.56ZM1370.81 433.97L1370.81 433.97Q1370.19 433.97 1369.91 433.68Q1369.64 433.39 1369.64 432.94L1369.64 432.94L1369.64 432.63Q1369.64 432.18 1369.91 431.90Q1370.19 431.61 1370.81 431.61L1370.81 431.61Q1371.42 431.61 1371.69 431.90Q1371.96 432.18 1371.96 432.63L1371.96 432.63L1371.96 432.94Q1371.96 433.39 1371.69 433.68Q1371.42 433.97 1370.81 433.97ZM1371.78 445L1369.82 445L1369.82 435.64L1371.78 435.64L1371.78 445ZM1376.55 438.70L1376.55 445L1374.59 445L1374.59 435.64L1376.55 435.64L1376.55 437.19L1376.64 437.19Q1376.94 436.43 1377.57 435.93Q1378.19 435.42 1379.27 435.42L1379.27 435.42Q1380.71 435.42 1381.51 436.38Q1382.31 437.33 1382.31 439.06L1382.31 439.06L1382.31 445L1380.35 445L1380.35 439.29Q1380.35 438.20 1379.92 437.65Q1379.50 437.10 1378.58 437.10L1378.58 437.10Q1378.06 437.10 1377.60 437.27Q1377.14 437.44 1376.85 437.80Q1376.55 438.16 1376.55 438.70L1376.55 438.70ZM1386.21 445.22L1386.21 445.22Q1385.55 445.22 1385.23 444.87Q1384.92 444.51 1384.92 443.99L1384.92 443.99L1384.92 443.70Q1384.92 443.16 1385.23 442.83Q1385.55 442.50 1386.21 442.50L1386.21 442.50Q1386.90 442.50 1387.21 442.83Q1387.53 443.16 1387.53 443.70L1387.53 443.70L1387.53 443.99Q1387.53 444.51 1387.21 444.87Q1386.90 445.22 1386.21 445.22ZM1398.17 443.40L1398.17 445L1397.07 445Q1396.53 445 1396.14 444.76Q1395.75 444.51 1395.56 444.06Q1395.36 443.61 1395.36 443.00L1395.36 443.00L1395.36 442.84L1395.92 443.43L1395.29 443.43Q1395.02 444.30 1394.30 444.76Q1393.58 445.22 1392.55 445.22L1392.55 445.22Q1391.11 445.22 1390.32 444.46Q1389.53 443.70 1389.53 442.43L1389.53 442.43Q1389.53 441.49 1389.99 440.87Q1390.44 440.25 1391.33 439.93Q1392.21 439.62 1393.52 439.62L1393.52 439.62L1395.21 439.62L1395.21 438.83Q1395.21 437.98 1394.75 437.50Q1394.28 437.03 1393.29 437.03L1393.29 437.03Q1392.48 437.03 1391.95 437.39Q1391.42 437.76 1391.06 438.30L1391.06 438.30L1389.89 437.24Q1390.35 436.45 1391.21 435.94Q1392.06 435.42 1393.41 435.42L1393.41 435.42Q1395.21 435.42 1396.19 436.28Q1397.18 437.13 1397.18 438.70L1397.18 438.70L1397.18 443.40L1398.17 443.40ZM1395.21 442.23L1395.21 440.88L1393.56 440.88Q1392.53 440.88 1392.03 441.20Q1391.52 441.53 1391.52 442.14L1391.52 442.14L1391.52 442.46Q1391.52 443.07 1391.96 443.40Q1392.39 443.72 1393.11 443.72L1393.11 443.72Q1393.72 443.72 1394.19 443.54Q1394.66 443.36 1394.93 443.02Q1395.21 442.68 1395.21 442.23L1395.21 442.23ZM1402.05 448.60L1400.09 448.60L1400.09 435.64L1402.05 435.64L1402.05 437.19L1402.14 437.19Q1402.43 436.34 1403.13 435.88Q1403.84 435.42 1404.77 435.42L1404.77 435.42Q1405.96 435.42 1406.79 436.01Q1407.62 436.59 1408.06 437.68Q1408.50 438.77 1408.50 440.32L1408.50 440.32Q1408.50 441.85 1408.06 442.95Q1407.62 444.05 1406.79 444.63Q1405.96 445.22 1404.77 445.22L1404.77 445.22Q1403.84 445.22 1403.15 444.75Q1402.47 444.28 1402.14 443.45L1402.14 443.45L1402.05 443.45L1402.05 448.60ZM1404.18 443.56L1404.18 443.56Q1405.20 443.56 1405.82 442.88Q1406.43 442.21 1406.43 441.13L1406.43 441.13L1406.43 439.51Q1406.43 438.43 1405.82 437.76Q1405.20 437.10 1404.18 437.10L1404.18 437.10Q1403.58 437.10 1403.11 437.30Q1402.63 437.49 1402.34 437.85Q1402.05 438.21 1402.05 438.70L1402.05 438.70L1402.05 441.87Q1402.05 442.41 1402.34 442.78Q1402.63 443.15 1403.11 443.35Q1403.58 443.56 1404.18 443.56ZM1412.71 448.60L1410.75 448.60L1410.75 435.64L1412.71 435.64L1412.71 437.19L1412.80 437.19Q1413.09 436.34 1413.79 435.88Q1414.49 435.42 1415.43 435.42L1415.43 435.42Q1416.62 435.42 1417.44 436.01Q1418.27 436.59 1418.71 437.68Q1419.15 438.77 1419.15 440.32L1419.15 440.32Q1419.15 441.85 1418.71 442.95Q1418.27 444.05 1417.44 444.63Q1416.62 445.22 1415.43 445.22L1415.43 445.22Q1414.49 445.22 1413.81 444.75Q1413.12 444.28 1412.80 443.45L1412.80 443.45L1412.71 443.45L1412.71 448.60ZM1414.83 443.56L1414.83 443.56Q1415.86 443.56 1416.47 442.88Q1417.08 442.21 1417.08 441.13L1417.08 441.13L1417.08 439.51Q1417.08 438.43 1416.47 437.76Q1415.86 437.10 1414.83 437.10L1414.83 437.10Q1414.24 437.10 1413.76 437.30Q1413.29 437.49 1413.00 437.85Q1412.71 438.21 1412.71 438.70L1412.71 438.70L1412.71 441.87Q1412.71 442.41 1413.00 442.78Q1413.29 443.15 1413.76 443.35Q1414.24 443.56 1414.83 443.56Z" fill="#FFFFFF"/>
  <path d="M1211.85 443.13L1211.85 445L1205.34 445L1205.34 433.83L1207.45 433.83L1207.45 443.13L1211.85 443.13ZM1216.92 445.19L1216.92 445.19Q1215.69 445.19 1214.81 444.66Q1213.93 444.12 1213.46 443.14Q1212.99 442.15 1212.99 440.81L1212.99 440.81Q1212.99 439.50 1213.45 438.51Q1213.91 437.53 1214.78 436.99Q1215.64 436.46 1216.86 436.46L1216.86 436.46Q1218.17 436.46 1219.01 437.03Q1219.85 437.61 1220.26 438.56Q1220.67 439.51 1220.67 440.66L1220.67 440.66L1220.67 441.34L1215.11 441.34L1215.11 441.54Q1215.11 442.44 1215.63 443Q1216.14 443.56 1217.15 443.56L1217.15 443.56Q1217.90 443.56 1218.39 443.23Q1218.89 442.90 1219.27 442.42L1219.27 442.42L1220.38 443.66Q1219.87 444.34 1218.98 444.77Q1218.09 445.19 1216.92 445.19ZM1216.89 437.99L1216.89 437.99Q1216.35 437.99 1215.95 438.24Q1215.55 438.49 1215.33 438.93Q1215.11 439.37 1215.11 439.94L1215.11 439.94L1215.11 440.07L1218.54 440.07L1218.54 439.93Q1218.54 439.34 1218.35 438.91Q1218.15 438.49 1217.79 438.24Q1217.42 437.99 1216.89 437.99ZM1229.75 443.37L1229.75 445L1228.62 445Q1228.15 445 1227.79 444.78Q1227.43 444.57 1227.23 444.15Q1227.03 443.74 1227.03 443.18L1227.03 443.18L1227.03 443L1227.55 443.56L1226.97 443.56Q1226.76 444.36 1226.11 444.78Q1225.47 445.19 1224.54 445.19L1224.54 445.19Q1223.26 445.19 1222.57 444.51Q1221.88 443.83 1221.88 442.73L1221.88 442.73Q1221.88 441.86 1222.31 441.30Q1222.73 440.74 1223.53 440.46Q1224.33 440.17 1225.45 440.17L1225.45 440.17L1226.87 440.17L1226.87 439.56Q1226.87 438.87 1226.51 438.48Q1226.14 438.09 1225.32 438.09L1225.32 438.09Q1224.60 438.09 1224.16 438.40Q1223.72 438.71 1223.42 439.14L1223.42 439.14L1222.20 438.06Q1222.67 437.34 1223.43 436.90Q1224.20 436.46 1225.47 436.46L1225.47 436.46Q1227.15 436.46 1228.03 437.23Q1228.92 438.01 1228.92 439.43L1228.92 439.43L1228.92 443.37L1229.75 443.37ZM1226.87 442.50L1226.87 441.40L1225.56 441.40Q1224.76 441.40 1224.36 441.66Q1223.96 441.93 1223.96 442.42L1223.96 442.42L1223.96 442.70Q1223.96 443.19 1224.30 443.45Q1224.63 443.70 1225.23 443.70L1225.23 443.70Q1225.69 443.70 1226.06 443.57Q1226.43 443.43 1226.65 443.16Q1226.87 442.89 1226.87 442.50L1226.87 442.50ZM1233.47 439.88L1233.47 445L1231.42 445L1231.42 436.65L1233.47 436.65L1233.47 438.38L1233.55 438.38Q1233.66 437.93 1233.92 437.54Q1234.19 437.14 1234.64 436.90Q1235.10 436.65 1235.75 436.65L1235.75 436.65L1236.20 436.65L1236.20 438.58L1235.56 438.58Q1234.87 438.58 1234.40 438.72Q1233.93 438.86 1233.70 439.14Q1233.47 439.42 1233.47 439.88L1233.47 439.88ZM1239.75 439.48L1239.75 445L1237.71 445L1237.71 436.65L1239.75 436.65L1239.75 438.04L1239.83 438.04Q1240.09 437.37 1240.64 436.91Q1241.19 436.46 1242.17 436.46L1242.17 436.46Q1243.45 436.46 1244.15 437.31Q1244.84 438.17 1244.84 439.72L1244.84 439.72L1244.84 445L1242.79 445L1242.79 439.93Q1242.79 439.05 1242.47 438.59Q1242.15 438.14 1241.42 438.14L1241.42 438.14Q1241.00 438.14 1240.62 438.29Q1240.23 438.44 1239.99 438.74Q1239.75 439.03 1239.75 439.48L1239.75 439.48ZM1253.02 445L1251.02 445L1251.02 433.83L1253.35 433.83L1255.03 437L1256.23 439.29L1256.28 439.29L1257.47 437L1259.13 433.83L1261.47 433.83L1261.47 445L1259.47 445L1259.47 438.82L1259.47 437.06L1259.42 437.06L1258.55 438.76L1256.23 442.98L1253.95 438.78L1253.07 436.98L1253.02 436.98L1253.02 438.82L1253.02 445ZM1267.27 445.19L1267.27 445.19Q1266.09 445.19 1265.22 444.66Q1264.35 444.12 1263.87 443.14Q1263.40 442.15 1263.40 440.81L1263.40 440.81Q1263.40 439.46 1263.87 438.50Q1264.35 437.53 1265.22 436.99Q1266.09 436.46 1267.27 436.46L1267.27 436.46Q1268.47 436.46 1269.35 436.99Q1270.22 437.53 1270.69 438.50Q1271.16 439.46 1271.16 440.81L1271.16 440.81Q1271.16 442.15 1270.69 443.14Q1270.22 444.12 1269.35 444.66Q1268.47 445.19 1267.27 445.19ZM1267.27 443.54L1267.27 443.54Q1268.09 443.54 1268.55 443.04Q1269.02 442.54 1269.02 441.59L1269.02 441.59L1269.02 440.04Q1269.02 439.10 1268.55 438.60Q1268.09 438.10 1267.27 438.10L1267.27 438.10Q1266.49 438.10 1266.02 438.60Q1265.55 439.10 1265.55 440.04L1265.55 440.04L1265.55 441.59Q1265.55 442.54 1266.02 443.04Q1266.49 443.54 1267.27 443.54ZM1275.02 439.88L1275.02 445L1272.97 445L1272.97 436.65L1275.02 436.65L1275.02 438.38L1275.10 438.38Q1275.21 437.93 1275.47 437.54Q1275.74 437.14 1276.19 436.90Q1276.65 436.65 1277.31 436.65L1277.31 436.65L1277.75 436.65L1277.75 438.58L1277.11 438.58Q1276.43 438.58 1275.95 438.72Q1275.48 438.86 1275.25 439.14Q1275.02 439.42 1275.02 439.88L1275.02 439.88ZM1282.63 445.19L1282.63 445.19Q1281.40 445.19 1280.52 444.66Q1279.64 444.12 1279.17 443.14Q1278.70 442.15 1278.70 440.81L1278.70 440.81Q1278.70 439.50 1279.16 438.51Q1279.63 437.53 1280.49 436.99Q1281.35 436.46 1282.57 436.46L1282.57 436.46Q1283.88 436.46 1284.72 437.03Q1285.56 437.61 1285.97 438.56Q1286.38 439.51 1286.38 440.66L1286.38 440.66L1286.38 441.34L1280.83 441.34L1280.83 441.54Q1280.83 442.44 1281.34 443Q1281.85 443.56 1282.86 443.56L1282.86 443.56Q1283.61 443.56 1284.11 443.23Q1284.60 442.90 1284.99 442.42L1284.99 442.42L1286.09 443.66Q1285.58 444.34 1284.69 444.77Q1283.80 445.19 1282.63 445.19ZM1282.60 437.99L1282.60 437.99Q1282.06 437.99 1281.66 438.24Q1281.26 438.49 1281.04 438.93Q1280.83 439.37 1280.83 439.94L1280.83 439.94L1280.83 440.07L1284.25 440.07L1284.25 439.93Q1284.25 439.34 1284.06 438.91Q1283.87 438.49 1283.50 438.24Q1283.13 437.99 1282.60 437.99Z" fill="#DB4A2B" opacity="0.8"/>
  <path d="M 1293.002 440 l 6 0 l -2 -2 M 1299.002 440 l -2 2" stroke="#DB4A2B" stroke-width="1.5" fill="none" opacity="0.6"/>
</svg>