<?xml version="1.0" encoding="UTF-8"?>
<svg xmlns="http://www.w3.org/2000/svg" viewBox="0 0 1920 1080" width="1920" height="1080">
  <title>askOdin Virtual Background</title>
  <defs>
    <radialGradient id="bgGrad" cx="50%" cy="45%" r="70%">
      <stop offset="0%" stop-color="#1E1E30"/>
      <stop offset="100%" stop-color="#111119"/>
    </radialGradient>
    <radialGradient id="glowGreen" cx="50%" cy="50%" r="50%">
      <stop offset="0%" stop-color="#147B58" stop-opacity="0.18"/>
      <stop offset="100%" stop-color="#147B58" stop-opacity="0"/>
    </radialGradient>
    <radialGradient id="glowOrange" cx="50%" cy="50%" r="50%">
      <stop offset="0%" stop-color="#DB4A2B" stop-opacity="0.12"/>
      <stop offset="100%" stop-color="#DB4A2B" stop-opacity="0"/>
    </radialGradient>
  </defs>
  <rect width="1920" height="1080" fill="url(#bgGrad)"/>
  <rect width="1920" height="4" fill="#DB4A2B"/>
  <rect y="1076" width="1920" height="4" fill="#147B58"/>
  <ellipse cx="480" cy="432" rx="550" ry="450" fill="url(#glowGreen)"/>
  <ellipse cx="1440" cy="648" rx="500" ry="400" fill="url(#glowOrange)"/>
  <line x1="120" y1="0" x2="120" y2="1080" stroke="#147B58" stroke-width="0.8" opacity="0.07"/>
  <line x1="240" y1="0" x2="240" y2="1080" stroke="#147B58" stroke-width="0.8" opacity="0.07"/>
  <line x1="360" y1="0" x2="360" y2="1080" stroke="#147B58" stroke-width="0.8" opacity="0.07"/>
  <line x1="480" y1="0" x2="480" y2="1080" stroke="#147B58" stroke-width="0.8" opacity="0.07"/>
  <line x1="600" y1="0" x2="600" y2="1080" stroke="#147B58" stroke-width="0.8" opacity="0.07"/>
  <line x1="720" y1="0" x2="720" y2="1080" stroke="#147B58" stroke-width="0.8" opacity="0.07"/>
  <line x1="840" y1="0" x2="840" y2="1080" stroke="#147B58" stroke-width="0.8" opacity="0.07"/>
  <line x1="960" y1="0" x2="960" y2="1080" stroke="#147B58" stroke-width="0.8" opacity="0.07"/>
  <line x1="1080" y1="0" x2="1080" y2="1080" stroke="#147B58" stroke-width="0.8" opacity="0.07"/>
  <line x1="1200" y1="0" x2="1200" y2="1080" stroke="#147B58" stroke-width="0.8" opacity="0.07"/>
  <line x1="1320" y1="0" x2="1320" y2="1080" stroke="#147B58" stroke-width="0.8" opacity="0.07"/>
  <line x1="1440" y1="0" x2="1440" y2="1080" stroke="#147B58" stroke-width="0.8" opacity="0.07"/>
  <line x1="1560" y1="0" x2="1560" y2="1080" stroke="#147B58" stroke-width="0.8" opacity="0.07"/>
  <line x1="1680" y1="0" x2="1680" y2="1080" stroke="#147B58" stroke-width="0.8" opacity="0.07"/>
  <line x1="1800" y1="0" x2="1800" y2="1080" stroke="#147B58" stroke-width="0.8" opacity="0.07"/>
  <line x1="0" y1="80" x2="1920" y2="80" stroke="#147B58" stroke-width="0.8" opacity="0.07"/>
  <line x1="0" y1="160" x2="1920" y2="160" stroke="#147B58" stroke-width="0.8" opacity="0.07"/>
  <line x1="0" y1="240" x2="1920" y2="240" stroke="#147B58" stroke-width="0.8" opacity="0.07"/>
  <line x1="0" y1="320" x2="1920" y2="320" stroke="#147B58" stroke-width="0.8" opacity="0.07"/>
  <line x1="0" y1="400" x2="1920" y2="400" stroke="#147B58" stroke-width="0.8" opacity="0.07"/>
  <line x1="0" y1="480" x2="1920" y2="480" stroke="#147B58" stroke-width="0.8" opacity="0.07"/>
  <line x1="0" y1="560" x2="1920" y2="560" stroke="#147B58" stroke-width="0.8" opacity="0.07"/>
  <line x1="0" y1="640" x2="1920" y2="640" stroke="#147B58" stroke-width="0.8" opacity="0.07"/>
  <line x1="0" y1="720" x2="1920" y2="720" stroke="#147B58" stroke-width="0.8" opacity="0.07"/>
  <line x1="0" y1="800" x2="1920" y2="800" stroke="#147B58" stroke-width="0.8" opacity="0.07"/>
  <line x1="0" y1="880" x2="1920" y2="880" stroke="#147B58" stroke-width="0.8" opacity="0.07"/>
  <line x1="0" y1="960" x2="1920" y2="960" stroke="#147B58" stroke-width="0.8" opacity="0.07"/>
  <line x1="0" y1="1040" x2="1920" y2="1040" stroke="#147B58" stroke-width="0.8" opacity="0.07"/>
  <circle cx="120" cy="80" r="2" fill="#147B58" opacity="0.12"/>
  <circle cx="120" cy="160" r="2" fill="#147B58" opacity="0.12"/>
  <circle cx="120" cy="240" r="2" fill="#147B58" opacity="0.12"/>
  <circle cx="120" cy="320" r="2" fill="#147B58" opacity="0.12"/>
  <circle cx="120" cy="400" r="2" fill="#147B58" opacity="0.12"/>
  <circle cx="120" cy="480" r="2" fill="#147B58" opacity="0.12"/>
  <circle cx="120" cy="560" r="2" fill="#147B58" opacity="0.12"/>
  <circle cx="120" cy="640" r="2" fill="#147B58" opacity="0.12"/>
  <circle cx="120" cy="720" r="2" fill="#147B58" opacity="0.12"/>
  <circle cx="120" cy="800" r="2" fill="#147B58" opacity="0.12"/>
  <circle cx="120" cy="880" r="2" fill="#147B58" opacity="0.12"/>
  <circle cx="120" cy="960" r="2" fill="#147B58" opacity="0.12"/>
  <circle cx="120" cy="1040" r="2" fill="#147B58" opacity="0.12"/>
  <circle cx="240" cy="80" r="2" fill="#147B58" opacity="0.12"/>
  <circle cx="240" cy="160" r="2" fill="#147B58" opacity="0.12"/>
  <circle cx="240" cy="240" r="2" fill="#147B58" opacity="0.12"/>
  <circle cx="240" cy="320" r="2" fill="#147B58" opacity="0.12"/>
  <circle cx="240" cy="400" r="2" fill="#147B58" opacity="0.12"/>
  <circle cx="240" cy="480" r="2" fill="#147B58" opacity="0.12"/>
  <circle cx="240" cy="560" r="2" fill="#147B58" opacity="0.12"/>
  <circle cx="240" cy="640" r="2" fill="#147B58" opacity="0.12"/>
  <circle cx="240" cy="720" r="2" fill="#147B58" opacity="0.12"/>
  <circle cx="240" cy="800" r="2" fill="#147B58" opacity="0.12"/>
  <circle cx="240" cy="880" r="2" fill="#147B58" opacity="0.12"/>
  <circle cx="240" cy="960" r="2" fill="#147B58" opacity="0.12"/>
  <circle cx="240" cy="1040" r="2" fill="#147B58" opacity="0.12"/>
  <circle cx="360" cy="80" r="2" fill="#147B58" opacity="0.12"/>
  <circle cx="360" cy="160" r="2" fill="#147B58" opacity="0.12"/>
  <circle cx="360" cy="240" r="2" fill="#147B58" opacity="0.12"/>
  <circle cx="360" cy="320" r="2" fill="#147B58" opacity="0.12"/>
  <circle cx="360" cy="400" r="2" fill="#147B58" opacity="0.12"/>
  <circle cx="360" cy="480" r="2" fill="#147B58" opacity="0.12"/>
  <circle cx="360" cy="560" r="2" fill="#147B58" opacity="0.12"/>
  <circle cx="360" cy="640" r="2" fill="#147B58" opacity="0.12"/>
  <circle cx="360" cy="720" r="2" fill="#147B58" opacity="0.12"/>
  <circle cx="360" cy="800" r="2" fill="#147B58" opacity="0.12"/>
  <circle cx="360" cy="880" r="2" fill="#147B58" opacity="0.12"/>
  <circle cx="360" cy="960" r="2" fill="#147B58" opacity="0.12"/>
  <circle cx="360" cy="1040" r="2" fill="#147B58" opacity="0.12"/>
  <circle cx="480" cy="80" r="2" fill="#147B58" opacity="0.12"/>
  <circle cx="480" cy="160" r="2" fill="#147B58" opacity="0.12"/>
  <circle cx="480" cy="240" r="2" fill="#147B58" opacity="0.12"/>
  <circle cx="480" cy="320" r="2" fill="#147B58" opacity="0.12"/>
  <circle cx="480" cy="400" r="2" fill="#147B58" opacity="0.12"/>
  <circle cx="480" cy="480" r="2" fill="#147B58" opacity="0.12"/>
  <circle cx="480" cy="560" r="2" fill="#147B58" opacity="0.12"/>
  <circle cx="480" cy="640" r="2" fill="#147B58" opacity="0.12"/>
  <circle cx="480" cy="720" r="2" fill="#147B58" opacity="0.12"/>
  <circle cx="480" cy="800" r="2" fill="#147B58" opacity="0.12"/>
  <circle cx="480" cy="880" r="2" fill="#147B58" opacity="0.12"/>
  <circle cx="480" cy="960" r="2" fill="#147B58" opacity="0.12"/>
  <circle cx="480" cy="1040" r="2" fill="#147B58" opacity="0.12"/>
  <circle cx="600" cy="80" r="2" fill="#147B58" opacity="0.12"/>
  <circle cx="600" cy="160" r="2" fill="#147B58" opacity="0.12"/>
  <circle cx="600" cy="240" r="2" fill="#147B58" opacity="0.12"/>
  <circle cx="600" cy="320" r="2" fill="#147B58" opacity="0.12"/>
  <circle cx="600" cy="400" r="2" fill="#147B58" opacity="0.12"/>
  <circle cx="600" cy="480" r="2" fill="#147B58" opacity="0.12"/>
  <circle cx="600" cy="560" r="2" fill="#147B58" opacity="0.12"/>
  <circle cx="600" cy="640" r="2" fill="#147B58" opacity="0.12"/>
  <circle cx="600" cy="720" r="2" fill="#147B58" opacity="0.12"/>
  <circle cx="600" cy="800" r="2" fill="#147B58" opacity="0.12"/>
  <circle cx="600" cy="880" r="2" fill="#147B58" opacity="0.12"/>
  <circle cx="600" cy="960" r="2" fill="#147B58" opacity="0.12"/>
  <circle cx="600" cy="1040" r="2" fill="#147B58" opacity="0.12"/>
  <circle cx="720" cy="80" r="2" fill="#147B58" opacity="0.12"/>
  <circle cx="720" cy="160" r="2" fill="#147B58" opacity="0.12"/>
  <circle cx="720" cy="240" r="2" fill="#147B58" opacity="0.12"/>
  <circle cx="720" cy="320" r="2" fill="#147B58" opacity="0.12"/>
  <circle cx="720" cy="720" r="2" fill="#147B58" opacity="0.12"/>
  <circle cx="720" cy="800" r="2" fill="#147B58" opacity="0.12"/>
  <circle cx="720" cy="880" r="2" fill="#147B58" opacity="0.12"/>
  <circle cx="720" cy="960" r="2" fill="#147B58" opacity="0.12"/>
  <circle cx="720" cy="1040" r="2" fill="#147B58" opacity="0.12"/>
  <circle cx="840" cy="80" r="2" fill="#147B58" opacity="0.12"/>
  <circle cx="840" cy="160" r="2" fill="#147B58" opacity="0.12"/>
  <circle cx="840" cy="240" r="2" fill="#147B58" opacity="0.12"/>
  <circle cx="840" cy="880" r="2" fill="#147B58" opacity="0.12"/>
  <circle cx="840" cy="960" r="2" fill="#147B58" opacity="0.12"/>
  <circle cx="840" cy="1040" r="2" fill="#147B58" opacity="0.12"/>
  <circle cx="960" cy="80" r="2" fill="#147B58" opacity="0.12"/>
  <circle cx="960" cy="160" r="2" fill="#147B58" opacity="0.12"/>
  <circle cx="960" cy="240" r="2" fill="#147B58" opacity="0.12"/>
  <circle cx="960" cy="880" r="2" fill="#147B58" opacity="0.12"/>
  <circle cx="960" cy="960" r="2" fill="#147B58" opacity="0.12"/>
  <circle cx="960" cy="1040" r="2" fill="#147B58" opacity="0.12"/>
  <circle cx="1080" cy="80" r="2" fill="#147B58" opacity="0.12"/>
  <circle cx="1080" cy="160" r="2" fill="#147B58" opacity="0.12"/>
  <circle cx="1080" cy="240" r="2" fill="#147B58" opacity="0.12"/>
  <circle cx="1080" cy="880" r="2" fill="#147B58" opacity="0.12"/>
  <circle cx="1080" cy="960" r="2" fill="#147B58" opacity="0.12"/>
  <circle cx="1080" cy="1040" r="2" fill="#147B58" opacity="0.12"/>
  <circle cx="1200" cy="80" r="2" fill="#147B58" opacity="0.12"/>
  <circle cx="1200" cy="160" r="2" fill="#147B58" opacity="0.12"/>
  <circle cx="1200" cy="240" r="2" fill="#147B58" opacity="0.12"/>
  <circle cx="1200" cy="320" r="2" fill="#147B58" opacity="0.12"/>
  <circle cx="1200" cy="720" r="2" fill="#147B58" opacity="0.12"/>
  <circle cx="1200" cy="800" r="2" fill="#147B58" opacity="0.12"/>
  <circle cx="1200" cy="880" r="2" fill="#147B58" opacity="0.12"/>
  <circle cx="1200" cy="960" r="2" fill="#147B58" opacity="0.12"/>
  <circle cx="1200" cy="1040" r="2" fill="#147B58" opacity="0.12"/>
  <circle cx="1320" cy="80" r="2" fill="#147B58" opacity="0.12"/>
  <circle cx="1320" cy="160" r="2" fill="#147B58" opacity="0.12"/>
  <circle cx="1320" cy="240" r="2" fill="#147B58" opacity="0.12"/>
  <circle cx="1320" cy="320" r="2" fill="#147B58" opacity="0.12"/>
  <circle cx="1320" cy="400" r="2" fill="#147B58" opacity="0.12"/>
  <circle cx="1320" cy="480" r="2" fill="#147B58" opacity="0.12"/>
  <circle cx="1320" cy="560" r="2" fill="#147B58" opacity="0.12"/>
  <circle cx="1320" cy="640" r="2" fill="#147B58" opacity="0.12"/>
  <circle cx="1320" cy="720" r="2" fill="#147B58" opacity="0.12"/>
  <circle cx="1320" cy="800" r="2" fill="#147B58" opacity="0.12"/>
  <circle cx="1320" cy="880" r="2" fill="#147B58" opacity="0.12"/>
  <circle cx="1320" cy="960" r="2" fill="#147B58" opacity="0.12"/>
  <circle cx="1320" cy="1040" r="2" fill="#147B58" opacity="0.12"/>
  <circle cx="1440" cy="80" r="2" fill="#147B58" opacity="0.12"/>
  <circle cx="1440" cy="160" r="2" fill="#147B58" opacity="0.12"/>
  <circle cx="1440" cy="240" r="2" fill="#147B58" opacity="0.12"/>
  <circle cx="1440" cy="320" r="2" fill="#147B58" opacity="0.12"/>
  <circle cx="1440" cy="400" r="2" fill="#147B58" opacity="0.12"/>
  <circle cx="1440" cy="480" r="2" fill="#147B58" opacity="0.12"/>
  <circle cx="1440" cy="560" r="2" fill="#147B58" opacity="0.12"/>
  <circle cx="1440" cy="640" r="2" fill="#147B58" opacity="0.12"/>
  <circle cx="1440" cy="720" r="2" fill="#147B58" opacity="0.12"/>
  <circle cx="1440" cy="800" r="2" fill="#147B58" opacity="0.12"/>
  <circle cx="1440" cy="880" r="2" fill="#147B58" opacity="0.12"/>
  <circle cx="1440" cy="960" r="2" fill="#147B58" opacity="0.12"/>
  <circle cx="1440" cy="1040" r="2" fill="#147B58" opacity="0.12"/>
  <circle cx="1560" cy="80" r="2" fill="#147B58" opacity="0.12"/>
  <circle cx="1560" cy="160" r="2" fill="#147B58" opacity="0.12"/>
  <circle cx="1560" cy="240" r="2" fill="#147B58" opacity="0.12"/>
  <circle cx="1560" cy="320" r="2" fill="#147B58" opacity="0.12"/>
  <circle cx="1560" cy="400" r="2" fill="#147B58" opacity="0.12"/>
  <circle cx="1560" cy="480" r="2" fill="#147B58" opacity="0.12"/>
  <circle cx="1560" cy="560" r="2" fill="#147B58" opacity="0.12"/>
  <circle cx="1560" cy="640" r="2" fill="#147B58" opacity="0.12"/>
  <circle cx="1560" cy="720" r="2" fill="#147B58" opacity="0.12"/>
  <circle cx="1560" cy="800" r="2" fill="#147B58" opacity="0.12"/>
  <circle cx="1560" cy="880" r="2" fill="#147B58" opacity="0.12"/>
  <circle cx="1560" cy="960" r="2" fill="#147B58" opacity="0.12"/>
  <circle cx="1560" cy="1040" r="2" fill="#147B58" opacity="0.12"/>
  <circle cx="1680" cy="80" r="2" fill="#147B58" opacity="0.12"/>
  <circle cx="1680" cy="160" r="2" fill="#147B58" opacity="0.12"/>
  <circle cx="1680" cy="240" r="2" fill="#147B58" opacity="0.12"/>
  <circle cx="1680" cy="320" r="2" fill="#147B58" opacity="0.12"/>
  <circle cx="1680" cy="400" r="2" fill="#147B58" opacity="0.12"/>
  <circle cx="1680" cy="480" r="2" fill="#147B58" opacity="0.12"/>
  <circle cx="1680" cy="560" r="2" fill="#147B58" opacity="0.12"/>
  <circle cx="1680" cy="640" r="2" fill="#147B58" opacity="0.12"/>
  <circle cx="1680" cy="720" r="2" fill="#147B58" opacity="0.12"/>
  <circle cx="1680" cy="800" r="2" fill="#147B58" opacity="0.12"/>
  <circle cx="1680" cy="880" r="2" fill="#147B58" opacity="0.12"/>
  <circle cx="1680" cy="960" r="2" fill="#147B58" opacity="0.12"/>
  <circle cx="1680" cy="1040" r="2" fill="#147B58" opacity="0.12"/>
  <circle cx="1800" cy="80" r="2" fill="#147B58" opacity="0.12"/>
  <circle cx="1800" cy="160" r="2" fill="#147B58" opacity="0.12"/>
  <circle cx="1800" cy="240" r="2" fill="#147B58" opacity="0.12"/>
  <circle cx="1800" cy="320" r="2" fill="#147B58" opacity="0.12"/>
  <circle cx="1800" cy="400" r="2" fill="#147B58" opacity="0.12"/>
  <circle cx="1800" cy="480" r="2" fill="#147B58" opacity="0.12"/>
  <circle cx="1800" cy="560" r="2" fill="#147B58" opacity="0.12"/>
  <circle cx="1800" cy="640" r="2" fill="#147B58" opacity="0.12"/>
  <circle cx="1800" cy="720" r="2" fill="#147B58" opacity="0.12"/>
  <circle cx="1800" cy="800" r="2" fill="#147B58" opacity="0.12"/>
  <circle cx="1800" cy="880" r="2" fill="#147B58" opacity="0.12"/>
  <circle cx="1800" cy="960" r="2" fill="#147B58" opacity="0.12"/>
  <circle cx="1800" cy="1040" r="2" fill="#147B58" opacity="0.12"/>
  <path d="M 120 106 L 134 120 L 120 134 L 106 120 Z" fill="#DB4A2B" opacity="0.35"/>
  <path d="M 1800 106 L 1814 120 L 1800 134 L 1786 120 Z" fill="#DB4A2B" opacity="0.35"/>
  <path d="M 120 946 L 134 960 L 120 974 L 106 960 Z" fill="#DB4A2B" opacity="0.35"/>
  <path d="M 1800 946 L 1814 960 L 1800 974 L 1786 960 Z" fill="#DB4A2B" opacity="0.35"/>
  <path d="M 300 70 L 310 80 L 300 90 L 290 80 Z" fill="#147B58" opacity="0.4"/>
  <path d="M 1620 70 L 1630 80 L 1620 90 L 1610 80 Z" fill="#147B58" opacity="0.4"/>
  <path d="M 300 990 L 310 1000 L 300 1010 L 290 1000 Z" fill="#147B58" opacity="0.4"/>
  <path d="M 1620 990 L 1630 1000 L 1620 1010 L 1610 1000 Z" fill="#147B58" opacity="0.4"/>
  <path d="M 100 530 L 110 540 L 100 550 L 90 540 Z" fill="#147B58" opacity="0.3"/>
  <path d="M 1820 530 L 1830 540 L 1820 550 L 1810 540 Z" fill="#147B58" opacity="0.3"/>
  <path d="M 480 152 L 488 160 L 480 168 L 472 160 Z" fill="#DB4A2B" opacity="0.25"/>
  <path d="M 1440 152 L 1448 160 L 1440 168 L 1432 160 Z" fill="#DB4A2B" opacity="0.25"/>
  <path d="M 480 912 L 488 920 L 480 928 L 472 920 Z" fill="#DB4A2B" opacity="0.25"/>
  <path d="M 1440 912 L 1448 920 L 1440 928 L 1432 920 Z" fill="#DB4A2B" opacity="0.25"/>
  <path d="M 360 294 L 366 300 L 360 306 L 354 300 Z" fill="#147B58" opacity="0.2"/>
  <path d="M 1560 294 L 1566 300 L 1560 306 L 1554 300 Z" fill="#147B58" opacity="0.2"/>
  <path d="M 360 774 L 366 780 L 360 786 L 354 780 Z" fill="#147B58" opacity="0.2"/>
  <path d="M 1560 774 L 1566 780 L 1560 786 L 1554 780 Z" fill="#147B58" opacity="0.2"/>
  <path d="M 200 395 L 205 400 L 200 405 L 195 400 Z" fill="#DB4A2B" opacity="0.2"/>
  <path d="M 1720 395 L 1725 400 L 1720 405 L 1715 400 Z" fill="#DB4A2B" opacity="0.2"/>
  <path d="M 200 675 L 205 680 L 200 685 L 195 680 Z" fill="#DB4A2B" opacity="0.2"/>
  <path d="M 1720 675 L 1725 680 L 1720 685 L 1715 680 Z" fill="#DB4A2B" opacity="0.2"/>
  <path d="M 600 95 L 605 100 L 600 105 L 595 100 Z" fill="#147B58" opacity="0.18"/>
  <path d="M 1320 95 L 1325 100 L 1320 105 L 1315 100 Z" fill="#147B58" opacity="0.18"/>
  <path d="M 600 975 L 605 980 L 600 985 L 595 980 Z" fill="#147B58" opacity="0.18"/>
  <path d="M 1320 975 L 1325 980 L 1320 985 L 1315 980 Z" fill="#147B58" opacity="0.18"/>
  <path d="M 40 100 L 40 40 L 100 40" fill="none" stroke="#DB4A2B" stroke-width="2.5" opacity="0.3" stroke-linecap="round"/>
  <path d="M 1820 40 L 1880 40 L 1880 100" fill="none" stroke="#DB4A2B" stroke-width="2.5" opacity="0.3" stroke-linecap="round"/>
  <path d="M 40 980 L 40 1040 L 100 1040" fill="none" stroke="#147B58" stroke-width="2.5" opacity="0.3" stroke-linecap="round"/>
  <path d="M 1820 1040 L 1880 1040 L 1880 980" fill="none" stroke="#147B58" stroke-width="2.5" opacity="0.3" stroke-linecap="round"/>
  <circle cx="960" cy="540" r="120" fill="none" stroke="#147B58" stroke-width="1.5" opacity="0.065"/>
  <circle cx="960" cy="540" r="190" fill="none" stroke="#147B58" stroke-width="1.5" opacity="0.056"/>
  <circle cx="960" cy="540" r="260" fill="none" stroke="#147B58" stroke-width="1.5" opacity="0.048"/>
  <circle cx="960" cy="540" r="330" fill="none" stroke="#147B58" stroke-width="1.5" opacity="0.039"/>
  <circle cx="960" cy="540" r="400" fill="none" stroke="#147B58" stroke-width="1.5" opacity="0.030"/>
</svg>