<?xml version="1.0" encoding="UTF-8"?>
<svg xmlns="http://www.w3.org/2000/svg" viewBox="0 0 1920 1080" width="1920" height="1080">
  <title>askOdin Virtual Background (Bright)</title>
  <defs>
    <radialGradient id="bgGrad" cx="50%" cy="45%" r="70%">
      <stop offset="0%" stop-color="#252540"/>
      <stop offset="100%" stop-color="#131320"/>
    </radialGradient>
    <radialGradient id="glowGreen" cx="50%" cy="50%" r="50%">
      <stop offset="0%" stop-color="#147B58" stop-opacity="0.30"/>
      <stop offset="100%" stop-color="#147B58" stop-opacity="0"/>
    </radialGradient>
    <radialGradient id="glowOrange" cx="50%" cy="50%" r="50%">
      <stop offset="0%" stop-color="#DB4A2B" stop-opacity="0.20"/>
      <stop offset="100%" stop-color="#DB4A2B" stop-opacity="0"/>
    </radialGradient>
  </defs>
  <rect width="1920" height="1080" fill="url(#bgGrad)"/>
  <rect width="1920" height="5" fill="#DB4A2B"/>
  <rect y="1075" width="1920" height="5" fill="#147B58"/>
  <ellipse cx="480" cy="432" rx="600" ry="500" fill="url(#glowGreen)"/>
  <ellipse cx="1440" cy="648" rx="550" ry="450" fill="url(#glowOrange)"/>
  <line x1="120" y1="0" x2="120" y2="1080" stroke="#147B58" stroke-width="1" opacity="0.12"/>
  <line x1="240" y1="0" x2="240" y2="1080" stroke="#147B58" stroke-width="1" opacity="0.12"/>
  <line x1="360" y1="0" x2="360" y2="1080" stroke="#147B58" stroke-width="1" opacity="0.12"/>
  <line x1="480" y1="0" x2="480" y2="1080" stroke="#147B58" stroke-width="1" opacity="0.12"/>
  <line x1="600" y1="0" x2="600" y2="1080" stroke="#147B58" stroke-width="1" opacity="0.12"/>
  <line x1="720" y1="0" x2="720" y2="1080" stroke="#147B58" stroke-width="1" opacity="0.12"/>
  <line x1="840" y1="0" x2="840" y2="1080" stroke="#147B58" stroke-width="1" opacity="0.12"/>
  <line x1="960" y1="0" x2="960" y2="1080" stroke="#147B58" stroke-width="1" opacity="0.12"/>
  <line x1="1080" y1="0" x2="1080" y2="1080" stroke="#147B58" stroke-width="1" opacity="0.12"/>
  <line x1="1200" y1="0" x2="1200" y2="1080" stroke="#147B58" stroke-width="1" opacity="0.12"/>
  <line x1="1320" y1="0" x2="1320" y2="1080" stroke="#147B58" stroke-width="1" opacity="0.12"/>
  <line x1="1440" y1="0" x2="1440" y2="1080" stroke="#147B58" stroke-width="1" opacity="0.12"/>
  <line x1="1560" y1="0" x2="1560" y2="1080" stroke="#147B58" stroke-width="1" opacity="0.12"/>
  <line x1="1680" y1="0" x2="1680" y2="1080" stroke="#147B58" stroke-width="1" opacity="0.12"/>
  <line x1="1800" y1="0" x2="1800" y2="1080" stroke="#147B58" stroke-width="1" opacity="0.12"/>
  <line x1="0" y1="80" x2="1920" y2="80" stroke="#147B58" stroke-width="1" opacity="0.12"/>
  <line x1="0" y1="160" x2="1920" y2="160" stroke="#147B58" stroke-width="1" opacity="0.12"/>
  <line x1="0" y1="240" x2="1920" y2="240" stroke="#147B58" stroke-width="1" opacity="0.12"/>
  <line x1="0" y1="320" x2="1920" y2="320" stroke="#147B58" stroke-width="1" opacity="0.12"/>
  <line x1="0" y1="400" x2="1920" y2="400" stroke="#147B58" stroke-width="1" opacity="0.12"/>
  <line x1="0" y1="480" x2="1920" y2="480" stroke="#147B58" stroke-width="1" opacity="0.12"/>
  <line x1="0" y1="560" x2="1920" y2="560" stroke="#147B58" stroke-width="1" opacity="0.12"/>
  <line x1="0" y1="640" x2="1920" y2="640" stroke="#147B58" stroke-width="1" opacity="0.12"/>
  <line x1="0" y1="720" x2="1920" y2="720" stroke="#147B58" stroke-width="1" opacity="0.12"/>
  <line x1="0" y1="800" x2="1920" y2="800" stroke="#147B58" stroke-width="1" opacity="0.12"/>
  <line x1="0" y1="880" x2="1920" y2="880" stroke="#147B58" stroke-width="1" opacity="0.12"/>
  <line x1="0" y1="960" x2="1920" y2="960" stroke="#147B58" stroke-width="1" opacity="0.12"/>
  <line x1="0" y1="1040" x2="1920" y2="1040" stroke="#147B58" stroke-width="1" opacity="0.12"/>
  <circle cx="120" cy="80" r="2.5" fill="#147B58" opacity="0.22"/>
  <circle cx="120" cy="160" r="2.5" fill="#147B58" opacity="0.22"/>
  <circle cx="120" cy="240" r="2.5" fill="#147B58" opacity="0.22"/>
  <circle cx="120" cy="320" r="2.5" fill="#147B58" opacity="0.22"/>
  <circle cx="120" cy="400" r="2.5" fill="#147B58" opacity="0.22"/>
  <circle cx="120" cy="480" r="2.5" fill="#147B58" opacity="0.22"/>
  <circle cx="120" cy="560" r="2.5" fill="#147B58" opacity="0.22"/>
  <circle cx="120" cy="640" r="2.5" fill="#147B58" opacity="0.22"/>
  <circle cx="120" cy="720" r="2.5" fill="#147B58" opacity="0.22"/>
  <circle cx="120" cy="800" r="2.5" fill="#147B58" opacity="0.22"/>
  <circle cx="120" cy="880" r="2.5" fill="#147B58" opacity="0.22"/>
  <circle cx="120" cy="960" r="2.5" fill="#147B58" opacity="0.22"/>
  <circle cx="120" cy="1040" r="2.5" fill="#147B58" opacity="0.22"/>
  <circle cx="240" cy="80" r="2.5" fill="#147B58" opacity="0.22"/>
  <circle cx="240" cy="160" r="2.5" fill="#147B58" opacity="0.22"/>
  <circle cx="240" cy="240" r="2.5" fill="#147B58" opacity="0.22"/>
  <circle cx="240" cy="320" r="2.5" fill="#147B58" opacity="0.22"/>
  <circle cx="240" cy="400" r="2.5" fill="#147B58" opacity="0.22"/>
  <circle cx="240" cy="480" r="2.5" fill="#147B58" opacity="0.22"/>
  <circle cx="240" cy="560" r="2.5" fill="#147B58" opacity="0.22"/>
  <circle cx="240" cy="640" r="2.5" fill="#147B58" opacity="0.22"/>
  <circle cx="240" cy="720" r="2.5" fill="#147B58" opacity="0.22"/>
  <circle cx="240" cy="800" r="2.5" fill="#147B58" opacity="0.22"/>
  <circle cx="240" cy="880" r="2.5" fill="#147B58" opacity="0.22"/>
  <circle cx="240" cy="960" r="2.5" fill="#147B58" opacity="0.22"/>
  <circle cx="240" cy="1040" r="2.5" fill="#147B58" opacity="0.22"/>
  <circle cx="360" cy="80" r="2.5" fill="#147B58" opacity="0.22"/>
  <circle cx="360" cy="160" r="2.5" fill="#147B58" opacity="0.22"/>
  <circle cx="360" cy="240" r="2.5" fill="#147B58" opacity="0.22"/>
  <circle cx="360" cy="320" r="2.5" fill="#147B58" opacity="0.22"/>
  <circle cx="360" cy="400" r="2.5" fill="#147B58" opacity="0.22"/>
  <circle cx="360" cy="480" r="2.5" fill="#147B58" opacity="0.22"/>
  <circle cx="360" cy="560" r="2.5" fill="#147B58" opacity="0.22"/>
  <circle cx="360" cy="640" r="2.5" fill="#147B58" opacity="0.22"/>
  <circle cx="360" cy="720" r="2.5" fill="#147B58" opacity="0.22"/>
  <circle cx="360" cy="800" r="2.5" fill="#147B58" opacity="0.22"/>
  <circle cx="360" cy="880" r="2.5" fill="#147B58" opacity="0.22"/>
  <circle cx="360" cy="960" r="2.5" fill="#147B58" opacity="0.22"/>
  <circle cx="360" cy="1040" r="2.5" fill="#147B58" opacity="0.22"/>
  <circle cx="480" cy="80" r="2.5" fill="#147B58" opacity="0.22"/>
  <circle cx="480" cy="160" r="2.5" fill="#147B58" opacity="0.22"/>
  <circle cx="480" cy="240" r="2.5" fill="#147B58" opacity="0.22"/>
  <circle cx="480" cy="320" r="2.5" fill="#147B58" opacity="0.22"/>
  <circle cx="480" cy="400" r="2.5" fill="#147B58" opacity="0.22"/>
  <circle cx="480" cy="480" r="2.5" fill="#147B58" opacity="0.22"/>
  <circle cx="480" cy="560" r="2.5" fill="#147B58" opacity="0.22"/>
  <circle cx="480" cy="640" r="2.5" fill="#147B58" opacity="0.22"/>
  <circle cx="480" cy="720" r="2.5" fill="#147B58" opacity="0.22"/>
  <circle cx="480" cy="800" r="2.5" fill="#147B58" opacity="0.22"/>
  <circle cx="480" cy="880" r="2.5" fill="#147B58" opacity="0.22"/>
  <circle cx="480" cy="960" r="2.5" fill="#147B58" opacity="0.22"/>
  <circle cx="480" cy="1040" r="2.5" fill="#147B58" opacity="0.22"/>
  <circle cx="600" cy="80" r="2.5" fill="#147B58" opacity="0.22"/>
  <circle cx="600" cy="160" r="2.5" fill="#147B58" opacity="0.22"/>
  <circle cx="600" cy="240" r="2.5" fill="#147B58" opacity="0.22"/>
  <circle cx="600" cy="320" r="2.5" fill="#147B58" opacity="0.22"/>
  <circle cx="600" cy="400" r="2.5" fill="#147B58" opacity="0.22"/>
  <circle cx="600" cy="480" r="2.5" fill="#147B58" opacity="0.22"/>
  <circle cx="600" cy="560" r="2.5" fill="#147B58" opacity="0.22"/>
  <circle cx="600" cy="640" r="2.5" fill="#147B58" opacity="0.22"/>
  <circle cx="600" cy="720" r="2.5" fill="#147B58" opacity="0.22"/>
  <circle cx="600" cy="800" r="2.5" fill="#147B58" opacity="0.22"/>
  <circle cx="600" cy="880" r="2.5" fill="#147B58" opacity="0.22"/>
  <circle cx="600" cy="960" r="2.5" fill="#147B58" opacity="0.22"/>
  <circle cx="600" cy="1040" r="2.5" fill="#147B58" opacity="0.22"/>
  <circle cx="720" cy="80" r="2.5" fill="#147B58" opacity="0.22"/>
  <circle cx="720" cy="160" r="2.5" fill="#147B58" opacity="0.22"/>
  <circle cx="720" cy="240" r="2.5" fill="#147B58" opacity="0.22"/>
  <circle cx="720" cy="320" r="2.5" fill="#147B58" opacity="0.22"/>
  <circle cx="720" cy="720" r="2.5" fill="#147B58" opacity="0.22"/>
  <circle cx="720" cy="800" r="2.5" fill="#147B58" opacity="0.22"/>
  <circle cx="720" cy="880" r="2.5" fill="#147B58" opacity="0.22"/>
  <circle cx="720" cy="960" r="2.5" fill="#147B58" opacity="0.22"/>
  <circle cx="720" cy="1040" r="2.5" fill="#147B58" opacity="0.22"/>
  <circle cx="840" cy="80" r="2.5" fill="#147B58" opacity="0.22"/>
  <circle cx="840" cy="160" r="2.5" fill="#147B58" opacity="0.22"/>
  <circle cx="840" cy="240" r="2.5" fill="#147B58" opacity="0.22"/>
  <circle cx="840" cy="880" r="2.5" fill="#147B58" opacity="0.22"/>
  <circle cx="840" cy="960" r="2.5" fill="#147B58" opacity="0.22"/>
  <circle cx="840" cy="1040" r="2.5" fill="#147B58" opacity="0.22"/>
  <circle cx="960" cy="80" r="2.5" fill="#147B58" opacity="0.22"/>
  <circle cx="960" cy="160" r="2.5" fill="#147B58" opacity="0.22"/>
  <circle cx="960" cy="240" r="2.5" fill="#147B58" opacity="0.22"/>
  <circle cx="960" cy="880" r="2.5" fill="#147B58" opacity="0.22"/>
  <circle cx="960" cy="960" r="2.5" fill="#147B58" opacity="0.22"/>
  <circle cx="960" cy="1040" r="2.5" fill="#147B58" opacity="0.22"/>
  <circle cx="1080" cy="80" r="2.5" fill="#147B58" opacity="0.22"/>
  <circle cx="1080" cy="160" r="2.5" fill="#147B58" opacity="0.22"/>
  <circle cx="1080" cy="240" r="2.5" fill="#147B58" opacity="0.22"/>
  <circle cx="1080" cy="880" r="2.5" fill="#147B58" opacity="0.22"/>
  <circle cx="1080" cy="960" r="2.5" fill="#147B58" opacity="0.22"/>
  <circle cx="1080" cy="1040" r="2.5" fill="#147B58" opacity="0.22"/>
  <circle cx="1200" cy="80" r="2.5" fill="#147B58" opacity="0.22"/>
  <circle cx="1200" cy="160" r="2.5" fill="#147B58" opacity="0.22"/>
  <circle cx="1200" cy="240" r="2.5" fill="#147B58" opacity="0.22"/>
  <circle cx="1200" cy="320" r="2.5" fill="#147B58" opacity="0.22"/>
  <circle cx="1200" cy="720" r="2.5" fill="#147B58" opacity="0.22"/>
  <circle cx="1200" cy="800" r="2.5" fill="#147B58" opacity="0.22"/>
  <circle cx="1200" cy="880" r="2.5" fill="#147B58" opacity="0.22"/>
  <circle cx="1200" cy="960" r="2.5" fill="#147B58" opacity="0.22"/>
  <circle cx="1200" cy="1040" r="2.5" fill="#147B58" opacity="0.22"/>
  <circle cx="1320" cy="80" r="2.5" fill="#147B58" opacity="0.22"/>
  <circle cx="1320" cy="160" r="2.5" fill="#147B58" opacity="0.22"/>
  <circle cx="1320" cy="240" r="2.5" fill="#147B58" opacity="0.22"/>
  <circle cx="1320" cy="320" r="2.5" fill="#147B58" opacity="0.22"/>
  <circle cx="1320" cy="400" r="2.5" fill="#147B58" opacity="0.22"/>
  <circle cx="1320" cy="480" r="2.5" fill="#147B58" opacity="0.22"/>
  <circle cx="1320" cy="560" r="2.5" fill="#147B58" opacity="0.22"/>
  <circle cx="1320" cy="640" r="2.5" fill="#147B58" opacity="0.22"/>
  <circle cx="1320" cy="720" r="2.5" fill="#147B58" opacity="0.22"/>
  <circle cx="1320" cy="800" r="2.5" fill="#147B58" opacity="0.22"/>
  <circle cx="1320" cy="880" r="2.5" fill="#147B58" opacity="0.22"/>
  <circle cx="1320" cy="960" r="2.5" fill="#147B58" opacity="0.22"/>
  <circle cx="1320" cy="1040" r="2.5" fill="#147B58" opacity="0.22"/>
  <circle cx="1440" cy="80" r="2.5" fill="#147B58" opacity="0.22"/>
  <circle cx="1440" cy="160" r="2.5" fill="#147B58" opacity="0.22"/>
  <circle cx="1440" cy="240" r="2.5" fill="#147B58" opacity="0.22"/>
  <circle cx="1440" cy="320" r="2.5" fill="#147B58" opacity="0.22"/>
  <circle cx="1440" cy="400" r="2.5" fill="#147B58" opacity="0.22"/>
  <circle cx="1440" cy="480" r="2.5" fill="#147B58" opacity="0.22"/>
  <circle cx="1440" cy="560" r="2.5" fill="#147B58" opacity="0.22"/>
  <circle cx="1440" cy="640" r="2.5" fill="#147B58" opacity="0.22"/>
  <circle cx="1440" cy="720" r="2.5" fill="#147B58" opacity="0.22"/>
  <circle cx="1440" cy="800" r="2.5" fill="#147B58" opacity="0.22"/>
  <circle cx="1440" cy="880" r="2.5" fill="#147B58" opacity="0.22"/>
  <circle cx="1440" cy="960" r="2.5" fill="#147B58" opacity="0.22"/>
  <circle cx="1440" cy="1040" r="2.5" fill="#147B58" opacity="0.22"/>
  <circle cx="1560" cy="80" r="2.5" fill="#147B58" opacity="0.22"/>
  <circle cx="1560" cy="160" r="2.5" fill="#147B58" opacity="0.22"/>
  <circle cx="1560" cy="240" r="2.5" fill="#147B58" opacity="0.22"/>
  <circle cx="1560" cy="320" r="2.5" fill="#147B58" opacity="0.22"/>
  <circle cx="1560" cy="400" r="2.5" fill="#147B58" opacity="0.22"/>
  <circle cx="1560" cy="480" r="2.5" fill="#147B58" opacity="0.22"/>
  <circle cx="1560" cy="560" r="2.5" fill="#147B58" opacity="0.22"/>
  <circle cx="1560" cy="640" r="2.5" fill="#147B58" opacity="0.22"/>
  <circle cx="1560" cy="720" r="2.5" fill="#147B58" opacity="0.22"/>
  <circle cx="1560" cy="800" r="2.5" fill="#147B58" opacity="0.22"/>
  <circle cx="1560" cy="880" r="2.5" fill="#147B58" opacity="0.22"/>
  <circle cx="1560" cy="960" r="2.5" fill="#147B58" opacity="0.22"/>
  <circle cx="1560" cy="1040" r="2.5" fill="#147B58" opacity="0.22"/>
  <circle cx="1680" cy="80" r="2.5" fill="#147B58" opacity="0.22"/>
  <circle cx="1680" cy="160" r="2.5" fill="#147B58" opacity="0.22"/>
  <circle cx="1680" cy="240" r="2.5" fill="#147B58" opacity="0.22"/>
  <circle cx="1680" cy="320" r="2.5" fill="#147B58" opacity="0.22"/>
  <circle cx="1680" cy="400" r="2.5" fill="#147B58" opacity="0.22"/>
  <circle cx="1680" cy="480" r="2.5" fill="#147B58" opacity="0.22"/>
  <circle cx="1680" cy="560" r="2.5" fill="#147B58" opacity="0.22"/>
  <circle cx="1680" cy="640" r="2.5" fill="#147B58" opacity="0.22"/>
  <circle cx="1680" cy="720" r="2.5" fill="#147B58" opacity="0.22"/>
  <circle cx="1680" cy="800" r="2.5" fill="#147B58" opacity="0.22"/>
  <circle cx="1680" cy="880" r="2.5" fill="#147B58" opacity="0.22"/>
  <circle cx="1680" cy="960" r="2.5" fill="#147B58" opacity="0.22"/>
  <circle cx="1680" cy="1040" r="2.5" fill="#147B58" opacity="0.22"/>
  <circle cx="1800" cy="80" r="2.5" fill="#147B58" opacity="0.22"/>
  <circle cx="1800" cy="160" r="2.5" fill="#147B58" opacity="0.22"/>
  <circle cx="1800" cy="240" r="2.5" fill="#147B58" opacity="0.22"/>
  <circle cx="1800" cy="320" r="2.5" fill="#147B58" opacity="0.22"/>
  <circle cx="1800" cy="400" r="2.5" fill="#147B58" opacity="0.22"/>
  <circle cx="1800" cy="480" r="2.5" fill="#147B58" opacity="0.22"/>
  <circle cx="1800" cy="560" r="2.5" fill="#147B58" opacity="0.22"/>
  <circle cx="1800" cy="640" r="2.5" fill="#147B58" opacity="0.22"/>
  <circle cx="1800" cy="720" r="2.5" fill="#147B58" opacity="0.22"/>
  <circle cx="1800" cy="800" r="2.5" fill="#147B58" opacity="0.22"/>
  <circle cx="1800" cy="880" r="2.5" fill="#147B58" opacity="0.22"/>
  <circle cx="1800" cy="960" r="2.5" fill="#147B58" opacity="0.22"/>
  <circle cx="1800" cy="1040" r="2.5" fill="#147B58" opacity="0.22"/>
  <path d="M 120 104 L 136 120 L 120 136 L 104 120 Z" fill="#DB4A2B" opacity="0.5"/>
  <path d="M 1800 104 L 1816 120 L 1800 136 L 1784 120 Z" fill="#DB4A2B" opacity="0.5"/>
  <path d="M 120 944 L 136 960 L 120 976 L 104 960 Z" fill="#DB4A2B" opacity="0.5"/>
  <path d="M 1800 944 L 1816 960 L 1800 976 L 1784 960 Z" fill="#DB4A2B" opacity="0.5"/>
  <path d="M 300 68 L 312 80 L 300 92 L 288 80 Z" fill="#147B58" opacity="0.55"/>
  <path d="M 1620 68 L 1632 80 L 1620 92 L 1608 80 Z" fill="#147B58" opacity="0.55"/>
  <path d="M 300 988 L 312 1000 L 300 1012 L 288 1000 Z" fill="#147B58" opacity="0.55"/>
  <path d="M 1620 988 L 1632 1000 L 1620 1012 L 1608 1000 Z" fill="#147B58" opacity="0.55"/>
  <path d="M 100 528 L 112 540 L 100 552 L 88 540 Z" fill="#147B58" opacity="0.45"/>
  <path d="M 1820 528 L 1832 540 L 1820 552 L 1808 540 Z" fill="#147B58" opacity="0.45"/>
  <path d="M 480 150 L 490 160 L 480 170 L 470 160 Z" fill="#DB4A2B" opacity="0.4"/>
  <path d="M 1440 150 L 1450 160 L 1440 170 L 1430 160 Z" fill="#DB4A2B" opacity="0.4"/>
  <path d="M 480 910 L 490 920 L 480 930 L 470 920 Z" fill="#DB4A2B" opacity="0.4"/>
  <path d="M 1440 910 L 1450 920 L 1440 930 L 1430 920 Z" fill="#DB4A2B" opacity="0.4"/>
  <path d="M 360 292 L 368 300 L 360 308 L 352 300 Z" fill="#147B58" opacity="0.35"/>
  <path d="M 1560 292 L 1568 300 L 1560 308 L 1552 300 Z" fill="#147B58" opacity="0.35"/>
  <path d="M 360 772 L 368 780 L 360 788 L 352 780 Z" fill="#147B58" opacity="0.35"/>
  <path d="M 1560 772 L 1568 780 L 1560 788 L 1552 780 Z" fill="#147B58" opacity="0.35"/>
  <path d="M 200 393 L 207 400 L 200 407 L 193 400 Z" fill="#DB4A2B" opacity="0.35"/>
  <path d="M 1720 393 L 1727 400 L 1720 407 L 1713 400 Z" fill="#DB4A2B" opacity="0.35"/>
  <path d="M 200 673 L 207 680 L 200 687 L 193 680 Z" fill="#DB4A2B" opacity="0.35"/>
  <path d="M 1720 673 L 1727 680 L 1720 687 L 1713 680 Z" fill="#DB4A2B" opacity="0.35"/>
  <path d="M 600 93 L 607 100 L 600 107 L 593 100 Z" fill="#147B58" opacity="0.3"/>
  <path d="M 1320 93 L 1327 100 L 1320 107 L 1313 100 Z" fill="#147B58" opacity="0.3"/>
  <path d="M 600 973 L 607 980 L 600 987 L 593 980 Z" fill="#147B58" opacity="0.3"/>
  <path d="M 1320 973 L 1327 980 L 1320 987 L 1313 980 Z" fill="#147B58" opacity="0.3"/>
  <path d="M 35 105 L 35 35 L 105 35" fill="none" stroke="#DB4A2B" stroke-width="3" opacity="0.45" stroke-linecap="round"/>
  <path d="M 1815 35 L 1885 35 L 1885 105" fill="none" stroke="#DB4A2B" stroke-width="3" opacity="0.45" stroke-linecap="round"/>
  <path d="M 35 975 L 35 1045 L 105 1045" fill="none" stroke="#147B58" stroke-width="3" opacity="0.45" stroke-linecap="round"/>
  <path d="M 1815 1045 L 1885 1045 L 1885 975" fill="none" stroke="#147B58" stroke-width="3" opacity="0.45" stroke-linecap="round"/>
  <circle cx="960" cy="540" r="120" fill="none" stroke="#147B58" stroke-width="1.5" opacity="0.116"/>
  <circle cx="960" cy="540" r="190" fill="none" stroke="#147B58" stroke-width="1.5" opacity="0.102"/>
  <circle cx="960" cy="540" r="260" fill="none" stroke="#147B58" stroke-width="1.5" opacity="0.088"/>
  <circle cx="960" cy="540" r="330" fill="none" stroke="#147B58" stroke-width="1.5" opacity="0.074"/>
  <circle cx="960" cy="540" r="400" fill="none" stroke="#147B58" stroke-width="1.5" opacity="0.060"/>
</svg>