<svg xmlns="http://www.w3.org/2000/svg" viewBox="1.7759999999999998 4.192 193.12 52.384" width="386" height="105">
  <title>askOdin</title>
  <path d="M33.39 43.10L33.39 48L29.98 48Q28.59 48 27.51 47.35Q26.43 46.70 25.83 45.46Q25.23 44.21 25.23 42.53L25.23 42.53L25.23 42L26.77 43.68L25.04 43.68Q24.42 46.08 22.47 47.33Q20.53 48.58 17.74 48.58L17.74 48.58Q13.90 48.58 11.84 46.54Q9.78 44.50 9.78 41.18L9.78 41.18Q9.78 38.59 11.05 36.91Q12.32 35.23 14.72 34.37Q17.12 33.50 20.48 33.50L20.48 33.50L24.75 33.50L24.75 31.68Q24.75 29.62 23.65 28.44Q22.54 27.26 20.10 27.26L20.10 27.26Q17.94 27.26 16.62 28.20Q15.30 29.14 14.38 30.43L14.38 30.43L10.74 27.17Q12.13 25.01 14.43 23.69Q16.74 22.37 20.53 22.37L20.53 22.37Q25.57 22.37 28.23 24.70Q30.90 27.02 30.90 31.30L30.90 31.30L30.90 43.10L33.39 43.10ZM24.75 40.51L24.75 37.20L20.82 37.20Q18.42 37.20 17.22 37.99Q16.02 38.78 16.02 40.27L16.02 40.27L16.02 41.09Q16.02 42.58 17.02 43.34Q18.03 44.11 19.81 44.11L19.81 44.11Q21.20 44.11 22.30 43.70Q23.41 43.30 24.08 42.48Q24.75 41.66 24.75 40.51L24.75 40.51ZM46.59 48.58L46.59 48.58Q42.99 48.58 40.54 47.35Q38.10 46.13 36.22 43.97L36.22 43.97L39.97 40.32Q41.36 41.90 43.02 42.82Q44.67 43.73 46.83 43.73L46.83 43.73Q49.04 43.73 50.02 42.96Q51.01 42.19 51.01 40.85L51.01 40.85Q51.01 39.74 50.31 39.10Q49.62 38.45 47.94 38.21L47.94 38.21L45.44 37.87Q42.75 37.54 40.88 36.62Q39.01 35.71 38.05 34.13Q37.09 32.54 37.09 30.29L37.09 30.29Q37.09 26.64 39.70 24.50Q42.32 22.37 46.59 22.37L46.59 22.37Q49.04 22.37 50.79 22.82Q52.54 23.28 53.89 24.17Q55.23 25.06 56.38 26.30L56.38 26.30L52.78 29.90Q51.68 28.75 50.14 27.98Q48.61 27.22 46.78 27.22L46.78 27.22Q44.86 27.22 43.93 27.91Q42.99 28.61 42.99 29.81L42.99 29.81Q42.99 31.06 43.74 31.70Q44.48 32.35 46.26 32.64L46.26 32.64L48.80 32.98Q52.93 33.55 54.92 35.40Q56.91 37.25 56.91 40.37L56.91 40.37Q56.91 42.77 55.64 44.64Q54.37 46.51 52.04 47.54Q49.71 48.58 46.59 48.58ZM68.48 48L62.34 48L62.34 12.48L68.48 12.48L68.48 28.80L68.48 33.89L68.72 33.89L72.03 29.38L77.65 22.94L84.61 22.94L75.97 32.64L85.52 48L78.22 48L71.79 36.77L68.48 40.37L68.48 48Z" fill="#DB4A2B"/>
  <path d="M102.85 48.58L102.85 48.58Q98.48 48.58 95.17 46.61Q91.86 44.64 90.06 40.78Q88.26 36.91 88.26 31.25L88.26 31.25Q88.26 25.58 90.06 21.72Q91.86 17.86 95.17 15.89Q98.48 13.92 102.85 13.92L102.85 13.92Q107.26 13.92 110.55 15.89Q113.84 17.86 115.64 21.72Q117.44 25.58 117.44 31.25L117.44 31.25Q117.44 36.91 115.64 40.78Q113.84 44.64 110.55 46.61Q107.26 48.58 102.85 48.58ZM102.85 42.96L102.85 42.96Q105.30 42.96 107.05 41.86Q108.80 40.75 109.76 38.71Q110.72 36.67 110.72 33.84L110.72 33.84L110.72 28.66Q110.72 25.78 109.76 23.76Q108.80 21.74 107.05 20.64Q105.30 19.54 102.85 19.54L102.85 19.54Q100.50 19.54 98.72 20.64Q96.94 21.74 95.96 23.76Q94.98 25.78 94.98 28.66L94.98 28.66L94.98 33.84Q94.98 36.67 95.96 38.71Q96.94 40.75 98.72 41.86Q100.50 42.96 102.85 42.96ZM145.18 48L139.04 48L139.04 43.82L138.80 43.82Q138.13 45.98 136.26 47.28Q134.38 48.58 131.89 48.58L131.89 48.58Q128.77 48.58 126.58 47.04Q124.40 45.50 123.25 42.55Q122.10 39.60 122.10 35.42L122.10 35.42Q122.10 31.25 123.25 28.34Q124.40 25.44 126.58 23.90Q128.77 22.37 131.89 22.37L131.89 22.37Q134.38 22.37 136.28 23.64Q138.18 24.91 138.80 27.07L138.80 27.07L139.04 27.07L139.04 12.48L145.18 12.48L145.18 48ZM133.86 43.49L133.86 43.49Q135.34 43.49 136.52 43.01Q137.70 42.53 138.37 41.62Q139.04 40.70 139.04 39.41L139.04 39.41L139.04 31.44Q139.04 30.24 138.37 29.33Q137.70 28.42 136.52 27.91Q135.34 27.41 133.86 27.41L133.86 27.41Q131.50 27.41 130.02 29.02Q128.53 30.62 128.53 33.31L128.53 33.31L128.53 37.63Q128.53 40.27 130.02 41.88Q131.50 43.49 133.86 43.49ZM155.36 19.30L155.36 19.30Q153.49 19.30 152.62 18.41Q151.76 17.52 151.76 16.22L151.76 16.22L151.76 15.26Q151.76 13.92 152.62 13.06Q153.49 12.19 155.36 12.19L155.36 12.19Q157.23 12.19 158.10 13.06Q158.96 13.92 158.96 15.26L158.96 15.26L158.96 16.22Q158.96 17.52 158.10 18.41Q157.23 19.30 155.36 19.30ZM158.43 48L152.29 48L152.29 22.94L158.43 22.94L158.43 48ZM171.63 31.44L171.63 48L165.49 48L165.49 22.94L171.63 22.94L171.63 27.12L171.87 27.12Q172.64 25.10 174.30 23.74Q175.95 22.37 178.88 22.37L178.88 22.37Q182.72 22.37 184.81 24.94Q186.90 27.50 186.90 32.16L186.90 32.16L186.90 48L180.75 48L180.75 32.78Q180.75 30.14 179.79 28.78Q178.83 27.41 176.62 27.41L176.62 27.41Q175.38 27.41 174.22 27.86Q173.07 28.32 172.35 29.21Q171.63 30.10 171.63 31.44L171.63 31.44Z" fill="#147B58"/>
</svg>