<svg xmlns="http://www.w3.org/2000/svg" viewBox="10.399999999999999 22 471 450.4" width="471" height="450.4">
  <title>askOdin</title>
  <path d="M191.30 179.60L191.30 200L177.10 200Q171.30 200 166.80 197.30Q162.30 194.60 159.80 189.40Q157.30 184.20 157.30 177.20L157.30 177.20L157.30 175L163.70 182L156.50 182Q153.90 192 145.80 197.20Q137.70 202.40 126.10 202.40L126.10 202.40Q110.10 202.40 101.50 193.90Q92.90 185.40 92.90 171.60L92.90 171.60Q92.90 160.80 98.20 153.80Q103.50 146.80 113.50 143.20Q123.50 139.60 137.50 139.60L137.50 139.60L155.30 139.60L155.30 132Q155.30 123.40 150.70 118.50Q146.10 113.60 135.90 113.60L135.90 113.60Q126.90 113.60 121.40 117.50Q115.90 121.40 112.10 126.80L112.10 126.80L96.90 113.20Q102.70 104.20 112.30 98.70Q121.90 93.20 137.70 93.20L137.70 93.20Q158.70 93.20 169.80 102.90Q180.90 112.60 180.90 130.40L180.90 130.40L180.90 179.60L191.30 179.60ZM155.30 168.80L155.30 155L138.90 155Q128.90 155 123.90 158.30Q118.90 161.60 118.90 167.80L118.90 167.80L118.90 171.20Q118.90 177.40 123.10 180.60Q127.30 183.80 134.70 183.80L134.70 183.80Q140.50 183.80 145.10 182.10Q149.70 180.40 152.50 177Q155.30 173.60 155.30 168.80L155.30 168.80ZM246.30 202.40L246.30 202.40Q231.30 202.40 221.10 197.30Q210.90 192.20 203.10 183.20L203.10 183.20L218.70 168Q224.50 174.60 231.40 178.40Q238.30 182.20 247.30 182.20L247.30 182.20Q256.50 182.20 260.60 179Q264.70 175.80 264.70 170.20L264.70 170.20Q264.70 165.60 261.80 162.90Q258.90 160.20 251.90 159.20L251.90 159.20L241.50 157.80Q230.30 156.40 222.50 152.60Q214.70 148.80 210.70 142.20Q206.70 135.60 206.70 126.20L206.70 126.20Q206.70 111 217.60 102.10Q228.50 93.20 246.30 93.20L246.30 93.20Q256.50 93.20 263.80 95.10Q271.10 97 276.70 100.70Q282.30 104.40 287.10 109.60L287.10 109.60L272.10 124.60Q267.50 119.80 261.10 116.60Q254.70 113.40 247.10 113.40L247.10 113.40Q239.10 113.40 235.20 116.30Q231.30 119.20 231.30 124.20L231.30 124.20Q231.30 129.40 234.40 132.10Q237.50 134.80 244.90 136L244.90 136L255.50 137.40Q272.70 139.80 281 147.50Q289.30 155.20 289.30 168.20L289.30 168.20Q289.30 178.20 284 186Q278.70 193.80 269 198.10Q259.30 202.40 246.30 202.40ZM337.50 200L311.90 200L311.90 52L337.50 52L337.50 120L337.50 141.20L338.50 141.20L352.30 122.40L375.70 95.60L404.70 95.60L368.70 136L408.50 200L378.10 200L351.30 153.20L337.50 168.20L337.50 200Z" fill="#FFFFFF"/>
  <path d="M101.20 442.40L101.20 442.40Q83 442.40 69.20 434.20Q55.40 426 47.90 409.90Q40.40 393.80 40.40 370.20L40.40 370.20Q40.40 346.60 47.90 330.50Q55.40 314.40 69.20 306.20Q83 298 101.20 298L101.20 298Q119.60 298 133.30 306.20Q147 314.40 154.50 330.50Q162 346.60 162 370.20L162 370.20Q162 393.80 154.50 409.90Q147 426 133.30 434.20Q119.60 442.40 101.20 442.40ZM101.20 419L101.20 419Q111.40 419 118.70 414.40Q126 409.80 130 401.30Q134 392.80 134 381L134 381L134 359.40Q134 347.40 130 339Q126 330.60 118.70 326Q111.40 321.40 101.20 321.40L101.20 321.40Q91.40 321.40 84 326Q76.60 330.60 72.50 339Q68.40 347.40 68.40 359.40L68.40 359.40L68.40 381Q68.40 392.80 72.50 401.30Q76.60 409.80 84 414.40Q91.40 419 101.20 419ZM277.60 440L252 440L252 422.60L251 422.60Q248.20 431.60 240.40 437Q232.60 442.40 222.20 442.40L222.20 442.40Q209.20 442.40 200.10 436Q191 429.60 186.20 417.30Q181.40 405 181.40 387.60L181.40 387.60Q181.40 370.20 186.20 358.10Q191 346 200.10 339.60Q209.20 333.20 222.20 333.20L222.20 333.20Q232.60 333.20 240.50 338.50Q248.40 343.80 251 352.80L251 352.80L252 352.80L252 292L277.60 292L277.60 440ZM230.40 421.20L230.40 421.20Q236.60 421.20 241.50 419.20Q246.40 417.20 249.20 413.40Q252 409.60 252 404.20L252 404.20L252 371Q252 366 249.20 362.20Q246.40 358.40 241.50 356.30Q236.60 354.20 230.40 354.20L230.40 354.20Q220.60 354.20 214.40 360.90Q208.20 367.60 208.20 378.80L208.20 378.80L208.20 396.80Q208.20 407.80 214.40 414.50Q220.60 421.20 230.40 421.20ZM320 320.40L320 320.40Q312.20 320.40 308.60 316.70Q305 313 305 307.60L305 307.60L305 303.60Q305 298 308.60 294.40Q312.20 290.80 320 290.80L320 290.80Q327.80 290.80 331.40 294.40Q335 298 335 303.60L335 303.60L335 307.60Q335 313 331.40 316.70Q327.80 320.40 320 320.40ZM332.80 440L307.20 440L307.20 335.60L332.80 335.60L332.80 440ZM387.80 371L387.80 440L362.20 440L362.20 335.60L387.80 335.60L387.80 353L388.80 353Q392 344.60 398.90 338.90Q405.80 333.20 418 333.20L418 333.20Q434 333.20 442.70 343.90Q451.40 354.60 451.40 374L451.40 374L451.40 440L425.80 440L425.80 376.60Q425.80 365.60 421.80 359.90Q417.80 354.20 408.60 354.20L408.60 354.20Q403.40 354.20 398.60 356.10Q393.80 358 390.80 361.70Q387.80 365.40 387.80 371L387.80 371Z" fill="#FFFFFF"/>
</svg>