<svg xmlns="http://www.w3.org/2000/svg" viewBox="-12.600000000000001 10.799999999999983 818 231.60000000000002" width="818" height="231.60000000000002">
  <title>askOdin</title>
  <rect x="-12.600000000000001" y="10.799999999999983" width="818" height="231.60000000000002" fill="#1A1A2E" rx="8"/>
  <path d="M125.80 179.60L125.80 200L111.60 200Q105.80 200 101.30 197.30Q96.80 194.60 94.30 189.40Q91.80 184.20 91.80 177.20L91.80 177.20L91.80 175L98.20 182L91 182Q88.40 192 80.30 197.20Q72.20 202.40 60.60 202.40L60.60 202.40Q44.60 202.40 36 193.90Q27.40 185.40 27.40 171.60L27.40 171.60Q27.40 160.80 32.70 153.80Q38 146.80 48 143.20Q58 139.60 72 139.60L72 139.60L89.80 139.60L89.80 132Q89.80 123.40 85.20 118.50Q80.60 113.60 70.40 113.60L70.40 113.60Q61.40 113.60 55.90 117.50Q50.40 121.40 46.60 126.80L46.60 126.80L31.40 113.20Q37.20 104.20 46.80 98.70Q56.40 93.20 72.20 93.20L72.20 93.20Q93.20 93.20 104.30 102.90Q115.40 112.60 115.40 130.40L115.40 130.40L115.40 179.60L125.80 179.60ZM89.80 168.80L89.80 155L73.40 155Q63.40 155 58.40 158.30Q53.40 161.60 53.40 167.80L53.40 167.80L53.40 171.20Q53.40 177.40 57.60 180.60Q61.80 183.80 69.20 183.80L69.20 183.80Q75 183.80 79.60 182.10Q84.20 180.40 87 177Q89.80 173.60 89.80 168.80L89.80 168.80ZM180.80 202.40L180.80 202.40Q165.80 202.40 155.60 197.30Q145.40 192.20 137.60 183.20L137.60 183.20L153.20 168Q159 174.60 165.90 178.40Q172.80 182.20 181.80 182.20L181.80 182.20Q191 182.20 195.10 179Q199.20 175.80 199.20 170.20L199.20 170.20Q199.20 165.60 196.30 162.90Q193.40 160.20 186.40 159.20L186.40 159.20L176 157.80Q164.80 156.40 157 152.60Q149.20 148.80 145.20 142.20Q141.20 135.60 141.20 126.20L141.20 126.20Q141.20 111 152.10 102.10Q163 93.20 180.80 93.20L180.80 93.20Q191 93.20 198.30 95.10Q205.60 97 211.20 100.70Q216.80 104.40 221.60 109.60L221.60 109.60L206.60 124.60Q202 119.80 195.60 116.60Q189.20 113.40 181.60 113.40L181.60 113.40Q173.60 113.40 169.70 116.30Q165.80 119.20 165.80 124.20L165.80 124.20Q165.80 129.40 168.90 132.10Q172 134.80 179.40 136L179.40 136L190 137.40Q207.20 139.80 215.50 147.50Q223.80 155.20 223.80 168.20L223.80 168.20Q223.80 178.20 218.50 186Q213.20 193.80 203.50 198.10Q193.80 202.40 180.80 202.40ZM272 200L246.40 200L246.40 52L272 52L272 120L272 141.20L273 141.20L286.80 122.40L310.20 95.60L339.20 95.60L303.20 136L343 200L312.60 200L285.80 153.20L272 168.20L272 200Z" fill="#DB4A2B"/>
  <path d="M415.20 202.40L415.20 202.40Q397 202.40 383.20 194.20Q369.40 186 361.90 169.90Q354.40 153.80 354.40 130.20L354.40 130.20Q354.40 106.60 361.90 90.50Q369.40 74.40 383.20 66.20Q397 58 415.20 58L415.20 58Q433.60 58 447.30 66.20Q461 74.40 468.50 90.50Q476 106.60 476 130.20L476 130.20Q476 153.80 468.50 169.90Q461 186 447.30 194.20Q433.60 202.40 415.20 202.40ZM415.20 179L415.20 179Q425.40 179 432.70 174.40Q440 169.80 444 161.30Q448 152.80 448 141L448 141L448 119.40Q448 107.40 444 99Q440 90.60 432.70 86Q425.40 81.40 415.20 81.40L415.20 81.40Q405.40 81.40 398 86Q390.60 90.60 386.50 99Q382.40 107.40 382.40 119.40L382.40 119.40L382.40 141Q382.40 152.80 386.50 161.30Q390.60 169.80 398 174.40Q405.40 179 415.20 179ZM591.60 200L566 200L566 182.60L565 182.60Q562.20 191.60 554.40 197Q546.60 202.40 536.20 202.40L536.20 202.40Q523.20 202.40 514.10 196Q505 189.60 500.20 177.30Q495.40 165 495.40 147.60L495.40 147.60Q495.40 130.20 500.20 118.10Q505 106 514.10 99.60Q523.20 93.20 536.20 93.20L536.20 93.20Q546.60 93.20 554.50 98.50Q562.40 103.80 565 112.80L565 112.80L566 112.80L566 52L591.60 52L591.60 200ZM544.40 181.20L544.40 181.20Q550.60 181.20 555.50 179.20Q560.40 177.20 563.20 173.40Q566 169.60 566 164.20L566 164.20L566 131Q566 126 563.20 122.20Q560.40 118.40 555.50 116.30Q550.60 114.20 544.40 114.20L544.40 114.20Q534.60 114.20 528.40 120.90Q522.20 127.60 522.20 138.80L522.20 138.80L522.20 156.80Q522.20 167.80 528.40 174.50Q534.60 181.20 544.40 181.20ZM634 80.40L634 80.40Q626.20 80.40 622.60 76.70Q619 73 619 67.60L619 67.60L619 63.60Q619 58 622.60 54.40Q626.20 50.80 634 50.80L634 50.80Q641.80 50.80 645.40 54.40Q649 58 649 63.60L649 63.60L649 67.60Q649 73 645.40 76.70Q641.80 80.40 634 80.40ZM646.80 200L621.20 200L621.20 95.60L646.80 95.60L646.80 200ZM701.80 131L701.80 200L676.20 200L676.20 95.60L701.80 95.60L701.80 113L702.80 113Q706 104.60 712.90 98.90Q719.80 93.20 732 93.20L732 93.20Q748 93.20 756.70 103.90Q765.40 114.60 765.40 134L765.40 134L765.40 200L739.80 200L739.80 136.60Q739.80 125.60 735.80 119.90Q731.80 114.20 722.60 114.20L722.60 114.20Q717.40 114.20 712.60 116.10Q707.80 118 704.80 121.70Q701.80 125.40 701.80 131L701.80 131Z" fill="#147B58"/>
</svg>