<svg xmlns="http://www.w3.org/2000/svg" viewBox="14.8 8.0 504.8 504.8" width="512" height="512">
  <title>aO</title>
  <rect x="14.8" y="8.0" width="504.8" height="504.8" fill="#FFFFFF" rx="60"/>
  <path d="M231.60 359.20L231.60 400L203.20 400Q191.60 400 182.60 394.60Q173.60 389.20 168.60 378.80Q163.60 368.40 163.60 354.40L163.60 354.40L163.60 350L176.40 364L162 364Q156.80 384 140.60 394.40Q124.40 404.80 101.20 404.80L101.20 404.80Q69.20 404.80 52 387.80Q34.80 370.80 34.80 343.20L34.80 343.20Q34.80 321.60 45.40 307.60Q56 293.60 76 286.40Q96 279.20 124 279.20L124 279.20L159.60 279.20L159.60 264Q159.60 246.80 150.40 237Q141.20 227.20 120.80 227.20L120.80 227.20Q102.80 227.20 91.80 235Q80.80 242.80 73.20 253.60L73.20 253.60L42.80 226.40Q54.40 208.40 73.60 197.40Q92.80 186.40 124.40 186.40L124.40 186.40Q166.40 186.40 188.60 205.80Q210.80 225.20 210.80 260.80L210.80 260.80L210.80 359.20L231.60 359.20ZM159.60 337.60L159.60 310L126.80 310Q106.80 310 96.80 316.60Q86.80 323.20 86.80 335.60L86.80 335.60L86.80 342.40Q86.80 354.80 95.20 361.20Q103.60 367.60 118.40 367.60L118.40 367.60Q130 367.60 139.20 364.20Q148.40 360.80 154 354Q159.60 347.20 159.60 337.60L159.60 337.60Z" fill="#DB4A2B"/>
  <path d="M378 404.80L378 404.80Q341.60 404.80 314 388.40Q286.40 372 271.40 339.80Q256.40 307.60 256.40 260.40L256.40 260.40Q256.40 213.20 271.40 181Q286.40 148.80 314 132.40Q341.60 116 378 116L378 116Q414.80 116 442.20 132.40Q469.60 148.80 484.60 181Q499.60 213.20 499.60 260.40L499.60 260.40Q499.60 307.60 484.60 339.80Q469.60 372 442.20 388.40Q414.80 404.80 378 404.80ZM378 358L378 358Q398.40 358 413 348.80Q427.60 339.60 435.60 322.60Q443.60 305.60 443.60 282L443.60 282L443.60 238.80Q443.60 214.80 435.60 198Q427.60 181.20 413 172Q398.40 162.80 378 162.80L378 162.80Q358.40 162.80 343.60 172Q328.80 181.20 320.60 198Q312.40 214.80 312.40 238.80L312.40 238.80L312.40 282Q312.40 305.60 320.60 322.60Q328.80 339.60 343.60 348.80Q358.40 358 378 358Z" fill="#147B58"/>
</svg>