<?xml version="1.0" encoding="UTF-8"?>
<svg xmlns="http://www.w3.org/2000/svg" viewBox="0 0 93 55" width="93mm" height="55mm">
  <title>askOdin Business Card - Front (Light)</title>
  <rect width="93" height="55" fill="#FFFFFF"/>
  <rect width="93" height="1.2" fill="#DB4A2B"/>
  <path d="M6.91 9.44L6.91 10L6.52 10Q6.36 10 6.24 9.93Q6.11 9.85 6.04 9.71Q5.97 9.57 5.97 9.37L5.97 9.37L5.97 9.31L6.15 9.51L5.95 9.51Q5.88 9.78 5.66 9.92Q5.44 10.07 5.12 10.07L5.12 10.07Q4.68 10.07 4.44 9.83Q4.20 9.60 4.20 9.22L4.20 9.22Q4.20 8.92 4.35 8.73Q4.50 8.54 4.77 8.44Q5.04 8.34 5.43 8.34L5.43 8.34L5.92 8.34L5.92 8.13Q5.92 7.89 5.79 7.76Q5.67 7.62 5.39 7.62L5.39 7.62Q5.14 7.62 4.99 7.73Q4.84 7.84 4.73 7.99L4.73 7.99L4.31 7.61Q4.47 7.37 4.74 7.21Q5.00 7.06 5.44 7.06L5.44 7.06Q6.01 7.06 6.32 7.33Q6.62 7.60 6.62 8.09L6.62 8.09L6.62 9.44L6.91 9.44ZM5.92 9.14L5.92 8.76L5.47 8.76Q5.19 8.76 5.06 8.85Q4.92 8.94 4.92 9.11L4.92 9.11L4.92 9.21Q4.92 9.38 5.03 9.47Q5.15 9.55 5.35 9.55L5.35 9.55Q5.51 9.55 5.64 9.51Q5.77 9.46 5.84 9.37Q5.92 9.27 5.92 9.14L5.92 9.14ZM8.42 10.07L8.42 10.07Q8.01 10.07 7.73 9.93Q7.45 9.79 7.23 9.54L7.23 9.54L7.66 9.12Q7.82 9.30 8.01 9.41Q8.20 9.51 8.45 9.51L8.45 9.51Q8.70 9.51 8.82 9.42Q8.93 9.33 8.93 9.18L8.93 9.18Q8.93 9.05 8.85 8.98Q8.77 8.91 8.58 8.88L8.58 8.88L8.29 8.84Q7.98 8.80 7.77 8.70Q7.55 8.59 7.44 8.41Q7.33 8.23 7.33 7.97L7.33 7.97Q7.33 7.55 7.63 7.31Q7.93 7.06 8.42 7.06L8.42 7.06Q8.70 7.06 8.90 7.12Q9.10 7.17 9.26 7.27Q9.41 7.37 9.54 7.51L9.54 7.51L9.13 7.93Q9.01 7.79 8.83 7.71Q8.65 7.62 8.44 7.62L8.44 7.62Q8.22 7.62 8.12 7.70Q8.01 7.78 8.01 7.92L8.01 7.92Q8.01 8.06 8.09 8.13Q8.18 8.21 8.38 8.24L8.38 8.24L8.68 8.28Q9.15 8.34 9.38 8.56Q9.60 8.77 9.60 9.13L9.60 9.13Q9.60 9.40 9.46 9.62Q9.31 9.83 9.05 9.95Q8.78 10.07 8.42 10.07ZM10.93 10L10.23 10L10.23 5.93L10.93 5.93L10.93 7.80L10.93 8.38L10.96 8.38L11.34 7.87L11.98 7.13L12.78 7.13L11.79 8.24L12.88 10L12.05 10L11.31 8.71L10.93 9.13L10.93 10Z" fill="#DB4A2B"/>
  <path d="M14.87 10.07L14.87 10.07Q14.37 10.07 13.99 9.84Q13.61 9.62 13.40 9.17Q13.20 8.73 13.20 8.08L13.20 8.08Q13.20 7.43 13.40 6.99Q13.61 6.55 13.99 6.32Q14.37 6.10 14.87 6.10L14.87 6.10Q15.37 6.10 15.75 6.32Q16.13 6.55 16.33 6.99Q16.54 7.43 16.54 8.08L16.54 8.08Q16.54 8.73 16.33 9.17Q16.13 9.62 15.75 9.84Q15.37 10.07 14.87 10.07ZM14.87 9.42L14.87 9.42Q15.15 9.42 15.35 9.30Q15.55 9.17 15.66 8.94Q15.77 8.70 15.77 8.38L15.77 8.38L15.77 7.78Q15.77 7.45 15.66 7.22Q15.55 6.99 15.35 6.87Q15.15 6.74 14.87 6.74L14.87 6.74Q14.60 6.74 14.39 6.87Q14.19 6.99 14.08 7.22Q13.97 7.45 13.97 7.78L13.97 7.78L13.97 8.38Q13.97 8.70 14.08 8.94Q14.19 9.17 14.39 9.30Q14.60 9.42 14.87 9.42ZM19.72 10L19.02 10L19.02 9.52L18.99 9.52Q18.91 9.77 18.70 9.92Q18.48 10.07 18.20 10.07L18.20 10.07Q17.84 10.07 17.59 9.89Q17.34 9.71 17.21 9.38Q17.07 9.04 17.07 8.56L17.07 8.56Q17.07 8.08 17.21 7.75Q17.34 7.42 17.59 7.24Q17.84 7.06 18.20 7.06L18.20 7.06Q18.48 7.06 18.70 7.21Q18.92 7.35 18.99 7.60L18.99 7.60L19.02 7.60L19.02 5.93L19.72 5.93L19.72 10ZM18.42 9.48L18.42 9.48Q18.59 9.48 18.73 9.43Q18.86 9.37 18.94 9.27Q19.02 9.16 19.02 9.02L19.02 9.02L19.02 8.10Q19.02 7.96 18.94 7.86Q18.86 7.76 18.73 7.70Q18.59 7.64 18.42 7.64L18.42 7.64Q18.15 7.64 17.98 7.82Q17.81 8.01 17.81 8.32L17.81 8.32L17.81 8.81Q17.81 9.11 17.98 9.30Q18.15 9.48 18.42 9.48ZM20.89 6.71L20.89 6.71Q20.67 6.71 20.57 6.61Q20.47 6.51 20.47 6.36L20.47 6.36L20.47 6.25Q20.47 6.10 20.57 6.00Q20.67 5.90 20.89 5.90L20.89 5.90Q21.10 5.90 21.20 6.00Q21.30 6.10 21.30 6.25L21.30 6.25L21.30 6.36Q21.30 6.51 21.20 6.61Q21.10 6.71 20.89 6.71ZM21.24 10L20.53 10L20.53 7.13L21.24 7.13L21.24 10ZM22.75 8.10L22.75 10L22.05 10L22.05 7.13L22.75 7.13L22.75 7.61L22.78 7.61Q22.87 7.38 23.05 7.22Q23.24 7.06 23.58 7.06L23.58 7.06Q24.02 7.06 24.26 7.36Q24.50 7.65 24.50 8.19L24.50 8.19L24.50 10L23.79 10L23.79 8.26Q23.79 7.95 23.68 7.80Q23.57 7.64 23.32 7.64L23.32 7.64Q23.18 7.64 23.05 7.69Q22.91 7.75 22.83 7.85Q22.75 7.95 22.75 8.10L22.75 8.10Z" fill="#147B58"/>
  <line x1="4" y1="13" x2="16" y2="13" stroke="#DB4A2B" stroke-width="0.3"/>
  <path d="M5.91 18.63L5.91 20L5.25 20L5.25 18.63L4.05 16.51L4.79 16.51L5.59 17.98L5.61 17.98L6.39 16.51L7.11 16.51L5.91 18.63ZM8.59 20.06L8.59 20.06Q8.20 20.06 7.92 19.89Q7.65 19.73 7.50 19.42Q7.36 19.11 7.36 18.69L7.36 18.69Q7.36 18.28 7.50 17.97Q7.65 17.66 7.92 17.50Q8.19 17.33 8.56 17.33L8.56 17.33Q8.97 17.33 9.24 17.51Q9.50 17.69 9.63 17.99Q9.76 18.29 9.76 18.64L9.76 18.64L9.76 18.86L8.02 18.86L8.02 18.92Q8.02 19.20 8.18 19.38Q8.34 19.55 8.66 19.55L8.66 19.55Q8.89 19.55 9.04 19.45Q9.20 19.34 9.32 19.20L9.32 19.20L9.66 19.58Q9.51 19.80 9.23 19.93Q8.95 20.06 8.59 20.06ZM8.57 17.81L8.57 17.81Q8.41 17.81 8.28 17.89Q8.15 17.96 8.09 18.10Q8.02 18.24 8.02 18.42L8.02 18.42L8.02 18.46L9.09 18.46L9.09 18.41Q9.09 18.23 9.03 18.10Q8.97 17.96 8.86 17.89Q8.74 17.81 8.57 17.81ZM10.96 20L10.32 20L10.32 16.30L10.96 16.30L10.96 18L10.96 18.53L10.98 18.53L11.33 18.06L11.91 17.39L12.64 17.39L11.74 18.40L12.73 20L11.97 20L11.30 18.83L10.96 19.20L10.96 20ZM14.25 20.06L14.25 20.06Q13.81 20.06 13.49 19.90Q13.18 19.74 12.96 19.48L12.96 19.48L13.40 19.05Q13.58 19.26 13.80 19.37Q14.03 19.48 14.29 19.48L14.29 19.48Q14.60 19.48 14.75 19.34Q14.91 19.21 14.91 18.99L14.91 18.99Q14.91 18.87 14.87 18.78Q14.82 18.70 14.72 18.64Q14.62 18.57 14.44 18.55L14.44 18.55L14.11 18.50Q13.75 18.44 13.52 18.31Q13.29 18.18 13.18 17.97Q13.06 17.76 13.06 17.48L13.06 17.48Q13.06 17.16 13.21 16.93Q13.37 16.70 13.65 16.58Q13.94 16.45 14.32 16.45L14.32 16.45Q14.72 16.45 15.02 16.58Q15.31 16.71 15.52 16.96L15.52 16.96L15.07 17.39Q14.94 17.23 14.75 17.13Q14.57 17.03 14.29 17.03L14.29 17.03Q14.01 17.03 13.87 17.14Q13.72 17.25 13.72 17.44L13.72 17.44Q13.72 17.57 13.77 17.66Q13.82 17.75 13.93 17.79Q14.04 17.84 14.21 17.88L14.21 17.88L14.53 17.93Q14.88 18.00 15.12 18.13Q15.34 18.25 15.46 18.46Q15.56 18.66 15.56 18.95L15.56 18.95Q15.56 19.28 15.41 19.53Q15.26 19.78 14.96 19.92Q14.67 20.06 14.25 20.06ZM17.22 20.06L17.22 20.06Q16.85 20.06 16.58 19.89Q16.30 19.73 16.16 19.42Q16.01 19.11 16.01 18.69L16.01 18.69Q16.01 18.27 16.16 17.97Q16.30 17.66 16.58 17.50Q16.85 17.33 17.22 17.33L17.22 17.33Q17.59 17.33 17.87 17.50Q18.14 17.66 18.29 17.97Q18.43 18.27 18.43 18.69L18.43 18.69Q18.43 19.11 18.29 19.42Q18.14 19.73 17.87 19.89Q17.59 20.06 17.22 20.06ZM17.22 19.55L17.22 19.55Q17.48 19.55 17.62 19.39Q17.77 19.23 17.77 18.93L17.77 18.93L17.77 18.45Q17.77 18.16 17.62 18Q17.48 17.84 17.22 17.84L17.22 17.84Q16.97 17.84 16.83 18Q16.68 18.16 16.68 18.45L16.68 18.45L16.68 18.93Q16.68 19.23 16.83 19.39Q16.97 19.55 17.22 19.55ZM20.04 20.06L20.04 20.06Q19.66 20.06 19.39 19.89Q19.12 19.73 18.97 19.42Q18.82 19.11 18.82 18.69L18.82 18.69Q18.82 18.27 18.97 17.97Q19.12 17.66 19.39 17.50Q19.66 17.33 20.04 17.33L20.04 17.33Q20.41 17.33 20.68 17.50Q20.95 17.66 21.10 17.97Q21.25 18.27 21.25 18.69L21.25 18.69Q21.25 19.11 21.10 19.42Q20.95 19.73 20.68 19.89Q20.41 20.06 20.04 20.06ZM20.04 19.55L20.04 19.55Q20.29 19.55 20.43 19.39Q20.58 19.23 20.58 18.93L20.58 18.93L20.58 18.45Q20.58 18.16 20.43 18Q20.29 17.84 20.04 17.84L20.04 17.84Q19.79 17.84 19.64 18Q19.49 18.16 19.49 18.45L19.49 18.45L19.49 18.93Q19.49 19.23 19.64 19.39Q19.79 19.55 20.04 19.55ZM22.46 18.27L22.46 20L21.82 20L21.82 17.39L22.46 17.39L22.46 17.82L22.48 17.82Q22.56 17.61 22.73 17.47Q22.91 17.33 23.21 17.33L23.21 17.33Q23.61 17.33 23.83 17.60Q24.05 17.86 24.05 18.35L24.05 18.35L24.05 20L23.41 20L23.41 18.41Q23.41 18.14 23.30 18.00Q23.21 17.86 22.98 17.86L22.98 17.86Q22.84 17.86 22.73 17.90Q22.61 17.95 22.53 18.04Q22.46 18.14 22.46 18.27L22.46 18.27ZM28.01 19.41L28.01 20L25.98 20L25.98 16.51L26.64 16.51L26.64 19.41L28.01 19.41ZM29.58 20.06L29.58 20.06Q29.21 20.06 28.93 19.89Q28.66 19.73 28.51 19.42Q28.37 19.11 28.37 18.69L28.37 18.69Q28.37 18.27 28.51 17.97Q28.66 17.66 28.93 17.50Q29.21 17.33 29.58 17.33L29.58 17.33Q29.95 17.33 30.22 17.50Q30.50 17.66 30.64 17.97Q30.79 18.27 30.79 18.69L30.79 18.69Q30.79 19.11 30.64 19.42Q30.50 19.73 30.22 19.89Q29.95 20.06 29.58 20.06ZM29.58 19.55L29.58 19.55Q29.83 19.55 29.98 19.39Q30.12 19.23 30.12 18.93L30.12 18.93L30.12 18.45Q30.12 18.16 29.98 18Q29.83 17.84 29.58 17.84L29.58 17.84Q29.33 17.84 29.18 18Q29.04 18.16 29.04 18.45L29.04 18.45L29.04 18.93Q29.04 19.23 29.18 19.39Q29.33 19.55 29.58 19.55ZM32.00 20L31.36 20L31.36 16.30L32.00 16.30L32.00 18L32.00 18.53L32.02 18.53L32.37 18.06L32.95 17.39L33.68 17.39L32.78 18.40L33.77 20L33.01 20L32.34 18.83L32.00 19.20L32.00 20Z" fill="#1A1A2E"/>
  <path d="M4.53 24.05L4.53 25L4.28 25L4.28 22.91L5.53 22.91L5.53 23.13L4.53 23.13L4.53 23.83L5.44 23.83L5.44 24.05L4.53 24.05ZM6.52 25.04L6.52 25.04Q6.31 25.04 6.15 24.94Q5.99 24.84 5.91 24.65Q5.82 24.47 5.82 24.23L5.82 24.23Q5.82 23.98 5.91 23.80Q5.99 23.62 6.15 23.52Q6.31 23.42 6.52 23.42L6.52 23.42Q6.72 23.42 6.88 23.52Q7.04 23.62 7.13 23.80Q7.22 23.98 7.22 24.23L7.22 24.23Q7.22 24.47 7.13 24.65Q7.04 24.84 6.88 24.94Q6.72 25.04 6.52 25.04ZM6.52 24.82L6.52 24.82Q6.71 24.82 6.83 24.70Q6.96 24.58 6.96 24.34L6.96 24.34L6.96 24.11Q6.96 23.87 6.83 23.75Q6.71 23.63 6.52 23.63L6.52 23.63Q6.32 23.63 6.20 23.75Q6.08 23.87 6.08 24.11L6.08 24.11L6.08 24.34Q6.08 24.58 6.20 24.70Q6.32 24.82 6.52 24.82ZM8.81 25L8.57 25L8.57 24.75L8.55 24.75Q8.51 24.86 8.41 24.95Q8.31 25.04 8.12 25.04L8.12 25.04Q7.88 25.04 7.74 24.88Q7.60 24.73 7.60 24.45L7.60 24.45L7.60 23.45L7.84 23.45L7.84 24.40Q7.84 24.61 7.93 24.71Q8.02 24.82 8.19 24.82L8.19 24.82Q8.29 24.82 8.37 24.79Q8.46 24.76 8.51 24.69Q8.57 24.63 8.57 24.52L8.57 24.52L8.57 23.45L8.81 23.45L8.81 25ZM9.56 23.93L9.56 25L9.32 25L9.32 23.45L9.56 23.45L9.56 23.70L9.57 23.70Q9.63 23.57 9.73 23.49Q9.83 23.42 10.01 23.42L10.01 23.42Q10.25 23.42 10.39 23.57Q10.53 23.73 10.53 24.01L10.53 24.01L10.53 25L10.29 25L10.29 24.05Q10.29 23.84 10.20 23.74Q10.11 23.63 9.93 23.63L9.93 23.63Q9.84 23.63 9.75 23.66Q9.66 23.70 9.61 23.76Q9.56 23.83 9.56 23.93L9.56 23.93ZM12.25 25L12.01 25L12.01 24.75L12.00 24.75Q11.93 24.89 11.82 24.96Q11.70 25.04 11.54 25.04L11.54 25.04Q11.35 25.04 11.21 24.94Q11.07 24.84 10.99 24.66Q10.92 24.47 10.92 24.23L10.92 24.23Q10.92 23.98 10.99 23.80Q11.07 23.61 11.21 23.52Q11.35 23.42 11.54 23.42L11.54 23.42Q11.70 23.42 11.82 23.49Q11.94 23.56 12.00 23.70L12.00 23.70L12.01 23.70L12.01 22.78L12.25 22.78L12.25 25ZM11.61 24.82L11.61 24.82Q11.72 24.82 11.81 24.78Q11.90 24.75 11.96 24.67Q12.01 24.60 12.01 24.50L12.01 24.50L12.01 23.93Q12.01 23.84 11.96 23.78Q11.90 23.71 11.81 23.67Q11.72 23.63 11.61 23.63L11.61 23.63Q11.41 23.63 11.29 23.76Q11.17 23.89 11.17 24.09L11.17 24.09L11.17 24.36Q11.17 24.57 11.29 24.69Q11.41 24.82 11.61 24.82ZM13.34 25.04L13.34 25.04Q13.13 25.04 12.98 24.94Q12.82 24.84 12.73 24.65Q12.65 24.47 12.65 24.23L12.65 24.23Q12.65 23.98 12.73 23.80Q12.82 23.62 12.98 23.52Q13.13 23.42 13.34 23.42L13.34 23.42Q13.55 23.42 13.70 23.51Q13.85 23.61 13.93 23.78Q14.01 23.95 14.01 24.17L14.01 24.17L14.01 24.29L12.90 24.29L12.90 24.36Q12.90 24.56 13.02 24.69Q13.14 24.83 13.36 24.83L13.36 24.83Q13.50 24.83 13.61 24.76Q13.72 24.69 13.78 24.56L13.78 24.56L13.95 24.68Q13.88 24.84 13.72 24.94Q13.56 25.04 13.34 25.04ZM13.34 23.62L13.34 23.62Q13.21 23.62 13.11 23.68Q13.01 23.74 12.96 23.84Q12.90 23.95 12.90 24.09L12.90 24.09L12.90 24.11L13.75 24.11L13.75 24.07Q13.75 23.93 13.70 23.83Q13.65 23.73 13.56 23.67Q13.46 23.62 13.34 23.62ZM14.65 23.95L14.65 25L14.41 25L14.41 23.45L14.65 23.45L14.65 23.74L14.66 23.74Q14.69 23.66 14.75 23.60Q14.80 23.53 14.89 23.49Q14.98 23.45 15.11 23.45L15.11 23.45L15.20 23.45L15.20 23.69L15.06 23.69Q14.93 23.69 14.84 23.73Q14.75 23.76 14.70 23.82Q14.65 23.88 14.65 23.95L14.65 23.95ZM17.96 25L17.65 25L17.43 24.76L17.43 24.76Q17.38 24.81 17.30 24.88Q17.23 24.94 17.11 24.99Q16.99 25.04 16.82 25.04L16.82 25.04Q16.61 25.04 16.47 24.96Q16.32 24.88 16.25 24.75Q16.18 24.62 16.18 24.46L16.18 24.46Q16.18 24.30 16.24 24.19Q16.30 24.08 16.40 24.00Q16.50 23.92 16.61 23.87L16.61 23.87Q16.50 23.75 16.43 23.63Q16.37 23.51 16.37 23.37L16.37 23.37Q16.37 23.23 16.44 23.12Q16.50 23.00 16.63 22.94Q16.75 22.87 16.91 22.87L16.91 22.87Q17.06 22.87 17.17 22.93Q17.29 22.98 17.35 23.08Q17.42 23.18 17.42 23.32L17.42 23.32Q17.42 23.46 17.35 23.56Q17.29 23.66 17.18 23.74Q17.07 23.82 16.94 23.90L16.94 23.90L17.41 24.41Q17.45 24.29 17.48 24.16Q17.50 24.03 17.51 23.90L17.51 23.90L17.91 23.90L17.91 24.10L17.70 24.10Q17.68 24.23 17.64 24.35Q17.61 24.47 17.56 24.57L17.56 24.57L17.96 25ZM16.90 23.07L16.90 23.07Q16.77 23.07 16.69 23.15Q16.61 23.23 16.61 23.35L16.61 23.35L16.61 23.39Q16.61 23.45 16.63 23.51Q16.66 23.57 16.70 23.63Q16.75 23.70 16.81 23.76L16.81 23.76Q16.90 23.71 16.99 23.65Q17.07 23.59 17.13 23.52Q17.18 23.44 17.18 23.36L17.18 23.36L17.18 23.33Q17.18 23.25 17.15 23.19Q17.11 23.13 17.04 23.10Q16.98 23.07 16.90 23.07ZM16.84 24.83L16.84 24.83Q16.94 24.83 17.02 24.80Q17.11 24.77 17.17 24.72Q17.24 24.68 17.29 24.61L17.29 24.61L16.73 24.00Q16.65 24.05 16.58 24.10Q16.51 24.15 16.47 24.23Q16.43 24.31 16.43 24.42L16.43 24.42L16.43 24.47Q16.43 24.63 16.54 24.73Q16.65 24.83 16.84 24.83ZM19.77 25.04L19.77 25.04Q19.50 25.04 19.31 24.91Q19.13 24.79 19.03 24.55Q18.92 24.32 18.92 23.96L18.92 23.96Q18.92 23.61 19.03 23.37Q19.13 23.13 19.31 23.00Q19.50 22.87 19.77 22.87L19.77 22.87Q20.03 22.87 20.21 22.99Q20.39 23.11 20.49 23.33L20.49 23.33L20.28 23.45Q20.22 23.29 20.09 23.19Q19.96 23.09 19.77 23.09L19.77 23.09Q19.50 23.09 19.35 23.29Q19.19 23.49 19.19 23.81L19.19 23.81L19.19 24.12Q19.19 24.44 19.35 24.63Q19.50 24.81 19.77 24.81L19.77 24.81Q19.97 24.81 20.10 24.71Q20.24 24.60 20.30 24.43L20.30 24.43L20.50 24.56Q20.40 24.78 20.22 24.91Q20.03 25.04 19.77 25.04ZM22.17 24.78L22.17 25L20.89 25L20.89 22.91L22.17 22.91L22.17 23.13L21.14 23.13L21.14 23.83L22.11 23.83L22.11 24.05L21.14 24.05L21.14 24.78L22.17 24.78ZM23.42 25.04L23.42 25.04Q23.15 25.04 22.96 24.91Q22.76 24.79 22.65 24.55Q22.54 24.30 22.54 23.95L22.54 23.95Q22.54 23.60 22.65 23.36Q22.76 23.12 22.96 22.99Q23.15 22.87 23.42 22.87L23.42 22.87Q23.69 22.87 23.89 22.99Q24.09 23.12 24.20 23.36Q24.31 23.60 24.31 23.95L24.31 23.95Q24.31 24.30 24.20 24.55Q24.09 24.79 23.89 24.91Q23.69 25.04 23.42 25.04ZM23.42 24.81L23.42 24.81Q23.61 24.81 23.75 24.73Q23.88 24.64 23.96 24.49Q24.04 24.33 24.04 24.13L24.04 24.13L24.04 23.78Q24.04 23.57 23.96 23.42Q23.88 23.26 23.75 23.18Q23.61 23.09 23.42 23.09L23.42 23.09Q23.24 23.09 23.11 23.18Q22.97 23.26 22.89 23.42Q22.81 23.57 22.81 23.78L22.81 23.78L22.81 24.13Q22.81 24.33 22.89 24.49Q22.97 24.64 23.11 24.73Q23.24 24.81 23.42 24.81Z" fill="#4A5568"/>
  <path d="M4.41 48.50L4.21 48.50L4.21 46.65L4.41 46.65L4.41 47.42L4.42 47.42Q4.47 47.31 4.56 47.24Q4.64 47.18 4.79 47.18L4.79 47.18Q4.99 47.18 5.10 47.31Q5.22 47.44 5.22 47.67L5.22 47.67L5.22 48.50L5.02 48.50L5.02 47.71Q5.02 47.53 4.95 47.45Q4.87 47.36 4.73 47.36L4.73 47.36Q4.65 47.36 4.58 47.39Q4.50 47.41 4.46 47.47Q4.41 47.52 4.41 47.60L4.41 47.60L4.41 48.50ZM5.73 46.91L5.73 46.91Q5.67 46.91 5.64 46.88Q5.61 46.84 5.61 46.80L5.61 46.80L5.61 46.76Q5.61 46.71 5.64 46.68Q5.67 46.65 5.73 46.65L5.73 46.65Q5.80 46.65 5.83 46.68Q5.85 46.71 5.85 46.76L5.85 46.76L5.85 46.80Q5.85 46.84 5.83 46.88Q5.80 46.91 5.73 46.91ZM5.83 48.50L5.63 48.50L5.63 47.21L5.83 47.21L5.83 48.50ZM7.17 48.65L7.74 48.65L7.74 48.80L7.16 48.80Q6.88 48.80 6.66 48.67Q6.45 48.55 6.33 48.32Q6.21 48.09 6.21 47.78L6.21 47.78Q6.21 47.47 6.33 47.23Q6.45 47.00 6.67 46.86Q6.89 46.73 7.19 46.73L7.19 46.73Q7.36 46.73 7.53 46.78Q7.69 46.84 7.82 46.95Q7.96 47.07 8.03 47.25Q8.11 47.43 8.11 47.69L8.11 47.69Q8.11 47.87 8.07 48.01Q8.03 48.15 7.93 48.24Q7.83 48.33 7.67 48.33L7.67 48.33Q7.56 48.33 7.50 48.27Q7.44 48.21 7.42 48.11L7.42 48.11L7.41 48.11Q7.37 48.21 7.29 48.27Q7.22 48.33 7.10 48.33L7.10 48.33Q6.99 48.33 6.89 48.27Q6.79 48.21 6.73 48.09Q6.67 47.96 6.67 47.78L6.67 47.78Q6.67 47.59 6.73 47.47Q6.79 47.35 6.89 47.29Q6.99 47.23 7.10 47.23L7.10 47.23Q7.22 47.23 7.29 47.28Q7.36 47.34 7.39 47.42L7.39 47.42L7.40 47.42L7.40 47.25L7.57 47.25L7.57 48.01Q7.57 48.11 7.60 48.14Q7.64 48.17 7.71 48.17L7.71 48.17Q7.83 48.17 7.88 48.05Q7.95 47.93 7.95 47.73L7.95 47.73L7.95 47.61Q7.95 47.39 7.84 47.23Q7.74 47.06 7.57 46.97Q7.40 46.88 7.18 46.88L7.18 46.88Q7.00 46.88 6.86 46.94Q6.71 47.01 6.60 47.12Q6.49 47.23 6.43 47.38Q6.38 47.52 6.38 47.70L6.38 47.70L6.38 47.84Q6.38 48.02 6.43 48.17Q6.49 48.32 6.59 48.42Q6.70 48.53 6.84 48.59Q6.99 48.65 7.17 48.65L7.17 48.65ZM7.14 48.16L7.14 48.16Q7.22 48.16 7.28 48.13Q7.34 48.10 7.37 48.05Q7.40 48.00 7.40 47.92L7.40 47.92L7.40 47.62Q7.40 47.55 7.37 47.50Q7.34 47.45 7.29 47.42Q7.23 47.39 7.14 47.39L7.14 47.39Q7.00 47.39 6.94 47.47Q6.88 47.55 6.88 47.68L6.88 47.68L6.88 47.88Q6.88 48.01 6.94 48.09Q7.00 48.16 7.14 48.16ZM9.54 48.33L9.54 48.50L9.42 48.50Q9.34 48.50 9.29 48.47Q9.24 48.43 9.22 48.37Q9.20 48.31 9.20 48.23L9.20 48.23L9.20 48.22L9.28 48.29L9.19 48.29Q9.15 48.41 9.05 48.47Q8.95 48.53 8.82 48.53L8.82 48.53Q8.61 48.53 8.50 48.42Q8.38 48.32 8.38 48.14L8.38 48.14Q8.38 48.02 8.44 47.93Q8.50 47.85 8.62 47.81Q8.75 47.76 8.93 47.76L8.93 47.76L9.19 47.76L9.19 47.63Q9.19 47.50 9.11 47.42Q9.04 47.35 8.88 47.35L8.88 47.35Q8.77 47.35 8.69 47.41Q8.61 47.46 8.56 47.55L8.56 47.55L8.44 47.43Q8.49 47.33 8.60 47.26Q8.72 47.18 8.89 47.18L8.89 47.18Q9.13 47.18 9.26 47.30Q9.39 47.41 9.39 47.62L9.39 47.62L9.39 48.33L9.54 48.33ZM9.19 48.13L9.19 47.91L8.92 47.91Q8.75 47.91 8.67 47.96Q8.59 48.01 8.59 48.11L8.59 48.11L8.59 48.16Q8.59 48.26 8.66 48.31Q8.73 48.36 8.85 48.36L8.85 48.36Q8.95 48.36 9.02 48.33Q9.10 48.30 9.14 48.24Q9.19 48.19 9.19 48.13L9.19 48.13ZM10.21 48.53L10.21 48.53Q10.03 48.53 9.91 48.46Q9.79 48.39 9.70 48.28L9.70 48.28L9.84 48.16Q9.92 48.26 10.01 48.31Q10.10 48.36 10.22 48.36L10.22 48.36Q10.35 48.36 10.42 48.30Q10.49 48.25 10.49 48.15L10.49 48.15Q10.49 48.08 10.44 48.02Q10.40 47.97 10.27 47.95L10.27 47.95L10.17 47.93Q10.05 47.91 9.95 47.87Q9.86 47.83 9.80 47.76Q9.75 47.68 9.75 47.56L9.75 47.56Q9.75 47.37 9.88 47.27Q10.01 47.18 10.21 47.18L10.21 47.18Q10.32 47.18 10.40 47.20Q10.48 47.23 10.54 47.28Q10.61 47.32 10.66 47.39L10.66 47.39L10.53 47.51Q10.49 47.45 10.40 47.40Q10.32 47.35 10.20 47.35L10.20 47.35Q10.07 47.35 10.01 47.40Q9.94 47.46 9.94 47.55L9.94 47.55Q9.94 47.64 10.01 47.69Q10.07 47.73 10.19 47.75L10.19 47.75L10.29 47.77Q10.51 47.80 10.60 47.89Q10.69 47.98 10.69 48.13L10.69 48.13Q10.69 48.25 10.63 48.34Q10.57 48.43 10.46 48.48Q10.36 48.53 10.21 48.53ZM11.24 48.50L11.04 48.50L11.04 46.65L11.24 46.65L11.24 47.59L11.24 47.82L11.25 47.82L11.45 47.60L11.81 47.21L12.05 47.21L11.58 47.72L12.10 48.50L11.86 48.50L11.43 47.84L11.24 48.04L11.24 48.50ZM12.84 48.53L12.84 48.53Q12.67 48.53 12.54 48.45Q12.41 48.36 12.33 48.21Q12.26 48.06 12.26 47.85L12.26 47.85Q12.26 47.65 12.33 47.50Q12.41 47.35 12.54 47.26Q12.67 47.18 12.84 47.18L12.84 47.18Q13.02 47.18 13.15 47.26Q13.28 47.35 13.35 47.50Q13.43 47.65 13.43 47.85L13.43 47.85Q13.43 48.06 13.35 48.21Q13.28 48.36 13.15 48.45Q13.02 48.53 12.84 48.53ZM12.84 48.35L12.84 48.35Q13.01 48.35 13.11 48.25Q13.21 48.15 13.21 47.95L13.21 47.95L13.21 47.76Q13.21 47.56 13.11 47.46Q13.01 47.36 12.84 47.36L12.84 47.36Q12.68 47.36 12.58 47.46Q12.48 47.56 12.48 47.76L12.48 47.76L12.48 47.95Q12.48 48.15 12.58 48.25Q12.68 48.35 12.84 48.35ZM14.78 48.50L14.58 48.50L14.58 48.29L14.57 48.29Q14.51 48.41 14.42 48.47Q14.33 48.53 14.19 48.53L14.19 48.53Q14.03 48.53 13.91 48.45Q13.80 48.37 13.73 48.21Q13.67 48.06 13.67 47.85L13.67 47.85Q13.67 47.65 13.73 47.50Q13.80 47.34 13.91 47.26Q14.03 47.18 14.19 47.18L14.19 47.18Q14.33 47.18 14.42 47.24Q14.52 47.30 14.57 47.42L14.57 47.42L14.58 47.42L14.58 46.65L14.78 46.65L14.78 48.50ZM14.25 48.35L14.25 48.35Q14.34 48.35 14.42 48.32Q14.49 48.29 14.54 48.23Q14.58 48.17 14.58 48.09L14.58 48.09L14.58 47.61Q14.58 47.53 14.54 47.48Q14.49 47.42 14.42 47.39Q14.34 47.36 14.25 47.36L14.25 47.36Q14.08 47.36 13.98 47.47Q13.88 47.57 13.88 47.74L13.88 47.74L13.88 47.97Q13.88 48.14 13.98 48.24Q14.08 48.35 14.25 48.35ZM15.31 46.91L15.31 46.91Q15.24 46.91 15.21 46.88Q15.18 46.84 15.18 46.80L15.18 46.80L15.18 46.76Q15.18 46.71 15.21 46.68Q15.24 46.65 15.31 46.65L15.31 46.65Q15.37 46.65 15.40 46.68Q15.43 46.71 15.43 46.76L15.43 46.76L15.43 46.80Q15.43 46.84 15.40 46.88Q15.37 46.91 15.31 46.91ZM15.41 48.50L15.21 48.50L15.21 47.21L15.41 47.21L15.41 48.50ZM16.03 47.60L16.03 48.50L15.83 48.50L15.83 47.21L16.03 47.21L16.03 47.42L16.04 47.42Q16.09 47.31 16.17 47.24Q16.26 47.18 16.41 47.18L16.41 47.18Q16.61 47.18 16.72 47.31Q16.84 47.44 16.84 47.67L16.84 47.67L16.84 48.50L16.64 48.50L16.64 47.71Q16.64 47.53 16.56 47.45Q16.49 47.36 16.35 47.36L16.35 47.36Q16.27 47.36 16.19 47.39Q16.12 47.41 16.08 47.47Q16.03 47.52 16.03 47.60L16.03 47.60ZM17.38 48.53L17.38 48.53Q17.30 48.53 17.26 48.49Q17.23 48.45 17.23 48.38L17.23 48.38L17.23 48.35Q17.23 48.29 17.26 48.25Q17.30 48.21 17.38 48.21L17.38 48.21Q17.46 48.21 17.49 48.25Q17.53 48.29 17.53 48.35L17.53 48.35L17.53 48.38Q17.53 48.45 17.49 48.49Q17.46 48.53 17.38 48.53ZM18.98 48.33L18.98 48.50L18.87 48.50Q18.79 48.50 18.74 48.47Q18.69 48.43 18.67 48.37Q18.64 48.31 18.64 48.23L18.64 48.23L18.64 48.22L18.72 48.29L18.63 48.29Q18.59 48.41 18.49 48.47Q18.39 48.53 18.26 48.53L18.26 48.53Q18.05 48.53 17.94 48.42Q17.83 48.32 17.83 48.14L17.83 48.14Q17.83 48.02 17.89 47.93Q17.95 47.85 18.07 47.81Q18.19 47.76 18.38 47.76L18.38 47.76L18.63 47.76L18.63 47.63Q18.63 47.50 18.56 47.42Q18.48 47.35 18.33 47.35L18.33 47.35Q18.21 47.35 18.13 47.41Q18.05 47.46 18 47.55L18 47.55L17.88 47.43Q17.93 47.33 18.05 47.26Q18.16 47.18 18.34 47.18L18.34 47.18Q18.57 47.18 18.70 47.30Q18.83 47.41 18.83 47.62L18.83 47.62L18.83 48.33L18.98 48.33ZM18.63 48.13L18.63 47.91L18.37 47.91Q18.20 47.91 18.12 47.96Q18.04 48.01 18.04 48.11L18.04 48.11L18.04 48.16Q18.04 48.26 18.11 48.31Q18.18 48.36 18.29 48.36L18.29 48.36Q18.39 48.36 18.47 48.33Q18.55 48.30 18.59 48.24Q18.63 48.19 18.63 48.13L18.63 48.13ZM19.47 49L19.27 49L19.27 47.21L19.47 47.21L19.47 47.42L19.48 47.42Q19.53 47.30 19.62 47.24Q19.72 47.18 19.85 47.18L19.85 47.18Q20.02 47.18 20.13 47.26Q20.25 47.34 20.31 47.50Q20.38 47.65 20.38 47.85L20.38 47.85Q20.38 48.06 20.31 48.21Q20.25 48.37 20.13 48.45Q20.02 48.53 19.85 48.53L19.85 48.53Q19.72 48.53 19.63 48.47Q19.53 48.41 19.48 48.29L19.48 48.29L19.47 48.29L19.47 49ZM19.80 48.35L19.80 48.35Q19.97 48.35 20.07 48.24Q20.16 48.14 20.16 47.97L20.16 47.97L20.16 47.74Q20.16 47.57 20.07 47.47Q19.97 47.36 19.80 47.36L19.80 47.36Q19.71 47.36 19.63 47.39Q19.56 47.42 19.51 47.48Q19.47 47.53 19.47 47.61L19.47 47.61L19.47 48.09Q19.47 48.17 19.51 48.23Q19.56 48.29 19.63 48.32Q19.71 48.35 19.80 48.35ZM20.92 49L20.71 49L20.71 47.21L20.92 47.21L20.92 47.42L20.93 47.42Q20.98 47.30 21.07 47.24Q21.17 47.18 21.30 47.18L21.30 47.18Q21.46 47.18 21.58 47.26Q21.70 47.34 21.76 47.50Q21.83 47.65 21.83 47.85L21.83 47.85Q21.83 48.06 21.76 48.21Q21.70 48.37 21.58 48.45Q21.46 48.53 21.30 48.53L21.30 48.53Q21.17 48.53 21.08 48.47Q20.98 48.41 20.93 48.29L20.93 48.29L20.92 48.29L20.92 49ZM21.25 48.35L21.25 48.35Q21.42 48.35 21.52 48.24Q21.61 48.14 21.61 47.97L21.61 47.97L21.61 47.74Q21.61 47.57 21.52 47.47Q21.42 47.36 21.25 47.36L21.25 47.36Q21.16 47.36 21.08 47.39Q21.01 47.42 20.96 47.48Q20.92 47.53 20.92 47.61L20.92 47.61L20.92 48.09Q20.92 48.17 20.96 48.23Q21.01 48.29 21.08 48.32Q21.16 48.35 21.25 48.35Z" fill="#4A5568"/>
  <path d="M4.69 44.53L4.69 44.53Q4.42 44.53 4.27 44.35Q4.12 44.16 4.12 43.85L4.12 43.85Q4.12 43.55 4.27 43.36Q4.42 43.18 4.69 43.18L4.69 43.18Q4.88 43.18 5.00 43.27Q5.12 43.35 5.17 43.48L5.17 43.48L5.01 43.57Q4.97 43.47 4.89 43.41Q4.81 43.36 4.69 43.36L4.69 43.36Q4.51 43.36 4.42 43.47Q4.33 43.58 4.33 43.74L4.33 43.74L4.33 43.97Q4.33 44.13 4.42 44.24Q4.51 44.35 4.69 44.35L4.69 44.35Q4.82 44.35 4.90 44.30Q4.99 44.24 5.04 44.13L5.04 44.13L5.19 44.23Q5.13 44.36 5.00 44.45Q4.88 44.53 4.69 44.53ZM5.67 43.63L5.67 44.50L5.47 44.50L5.47 43.21L5.67 43.21L5.67 43.45L5.68 43.45Q5.71 43.38 5.75 43.33Q5.80 43.28 5.88 43.24Q5.95 43.21 6.06 43.21L6.06 43.21L6.13 43.21L6.13 43.41L6.02 43.41Q5.91 43.41 5.83 43.44Q5.75 43.47 5.71 43.52Q5.67 43.56 5.67 43.63L5.67 43.63ZM7.38 44.50L7.18 44.50L7.18 44.29L7.17 44.29Q7.14 44.38 7.05 44.46Q6.97 44.53 6.81 44.53L6.81 44.53Q6.61 44.53 6.49 44.40Q6.38 44.27 6.38 44.04L6.38 44.04L6.38 43.21L6.58 43.21L6.58 44.00Q6.58 44.17 6.65 44.26Q6.73 44.35 6.87 44.35L6.87 44.35Q6.95 44.35 7.02 44.32Q7.09 44.30 7.14 44.24Q7.18 44.19 7.18 44.10L7.18 44.10L7.18 43.21L7.38 43.21L7.38 44.50ZM8.29 44.53L8.29 44.53Q8.02 44.53 7.86 44.35Q7.71 44.16 7.71 43.85L7.71 43.85Q7.71 43.55 7.86 43.36Q8.02 43.18 8.29 43.18L8.29 43.18Q8.48 43.18 8.60 43.27Q8.71 43.35 8.77 43.48L8.77 43.48L8.60 43.57Q8.57 43.47 8.49 43.41Q8.41 43.36 8.29 43.36L8.29 43.36Q8.11 43.36 8.02 43.47Q7.93 43.58 7.93 43.74L7.93 43.74L7.93 43.97Q7.93 44.13 8.02 44.24Q8.11 44.35 8.29 44.35L8.29 44.35Q8.41 44.35 8.50 44.30Q8.59 44.24 8.64 44.13L8.64 44.13L8.78 44.23Q8.72 44.36 8.60 44.45Q8.47 44.53 8.29 44.53ZM9.17 42.91L9.17 42.91Q9.10 42.91 9.07 42.88Q9.04 42.84 9.04 42.80L9.04 42.80L9.04 42.76Q9.04 42.71 9.07 42.68Q9.10 42.65 9.17 42.65L9.17 42.65Q9.23 42.65 9.26 42.68Q9.29 42.71 9.29 42.76L9.29 42.76L9.29 42.80Q9.29 42.84 9.26 42.88Q9.23 42.91 9.17 42.91ZM9.27 44.50L9.07 44.50L9.07 43.21L9.27 43.21L9.27 44.50ZM9.89 44.50L9.69 44.50L9.69 42.65L9.89 42.65L9.89 43.42L9.90 43.42Q9.95 43.30 10.05 43.24Q10.15 43.18 10.28 43.18L10.28 43.18Q10.44 43.18 10.56 43.26Q10.68 43.34 10.74 43.50Q10.80 43.65 10.80 43.85L10.80 43.85Q10.80 44.06 10.74 44.21Q10.68 44.37 10.56 44.45Q10.44 44.53 10.28 44.53L10.28 44.53Q10.15 44.53 10.05 44.47Q9.96 44.41 9.90 44.29L9.90 44.29L9.89 44.29L9.89 44.50ZM10.22 44.35L10.22 44.35Q10.39 44.35 10.49 44.24Q10.59 44.14 10.59 43.97L10.59 43.97L10.59 43.74Q10.59 43.57 10.49 43.47Q10.39 43.36 10.22 43.36L10.22 43.36Q10.13 43.36 10.06 43.39Q9.98 43.42 9.94 43.48Q9.89 43.53 9.89 43.61L9.89 43.61L9.89 44.09Q9.89 44.17 9.94 44.23Q9.98 44.29 10.06 44.32Q10.13 44.35 10.22 44.35ZM11.53 44.33L11.53 44.50L11.35 44.50Q11.25 44.50 11.20 44.44Q11.14 44.38 11.14 44.29L11.14 44.29L11.14 42.65L11.34 42.65L11.34 44.33L11.53 44.33ZM12.30 44.53L12.30 44.53Q12.13 44.53 12 44.45Q11.87 44.36 11.80 44.21Q11.72 44.06 11.72 43.85L11.72 43.85Q11.72 43.65 11.80 43.50Q11.87 43.35 12 43.26Q12.13 43.18 12.30 43.18L12.30 43.18Q12.48 43.18 12.60 43.26Q12.73 43.34 12.79 43.48Q12.86 43.63 12.86 43.81L12.86 43.81L12.86 43.91L11.94 43.91L11.94 43.97Q11.94 44.13 12.04 44.24Q12.14 44.35 12.32 44.35L12.32 44.35Q12.44 44.35 12.53 44.30Q12.62 44.24 12.67 44.13L12.67 44.13L12.81 44.23Q12.75 44.37 12.62 44.45Q12.49 44.53 12.30 44.53ZM12.30 43.35L12.30 43.35Q12.20 43.35 12.11 43.40Q12.03 43.45 11.98 43.54Q11.94 43.63 11.94 43.74L11.94 43.74L11.94 43.76L12.65 43.76L12.65 43.73Q12.65 43.61 12.61 43.53Q12.56 43.44 12.48 43.40Q12.41 43.35 12.30 43.35ZM13.32 44.53L13.32 44.53Q13.24 44.53 13.21 44.49Q13.17 44.45 13.17 44.38L13.17 44.38L13.17 44.35Q13.17 44.29 13.21 44.25Q13.24 44.21 13.32 44.21L13.32 44.21Q13.40 44.21 13.44 44.25Q13.47 44.29 13.47 44.35L13.47 44.35L13.47 44.38Q13.47 44.45 13.44 44.49Q13.40 44.53 13.32 44.53ZM14.92 44.33L14.92 44.50L14.81 44.50Q14.73 44.50 14.68 44.47Q14.63 44.43 14.61 44.37Q14.59 44.31 14.59 44.23L14.59 44.23L14.59 44.22L14.66 44.29L14.57 44.29Q14.54 44.41 14.44 44.47Q14.34 44.53 14.20 44.53L14.20 44.53Q14.00 44.53 13.88 44.42Q13.77 44.32 13.77 44.14L13.77 44.14Q13.77 44.02 13.83 43.93Q13.89 43.85 14.01 43.81Q14.13 43.76 14.32 43.76L14.32 43.76L14.57 43.76L14.57 43.63Q14.57 43.50 14.50 43.42Q14.43 43.35 14.27 43.35L14.27 43.35Q14.15 43.35 14.07 43.41Q14.00 43.46 13.94 43.55L13.94 43.55L13.82 43.43Q13.88 43.33 13.99 43.26Q14.11 43.18 14.28 43.18L14.28 43.18Q14.51 43.18 14.64 43.30Q14.78 43.41 14.78 43.62L14.78 43.62L14.78 44.33L14.92 44.33ZM14.57 44.13L14.57 43.91L14.31 43.91Q14.14 43.91 14.06 43.96Q13.98 44.01 13.98 44.11L13.98 44.11L13.98 44.16Q13.98 44.26 14.05 44.31Q14.12 44.36 14.23 44.36L14.23 44.36Q14.34 44.36 14.41 44.33Q14.49 44.30 14.53 44.24Q14.57 44.19 14.57 44.13L14.57 44.13ZM15.60 44.53L15.60 44.53Q15.42 44.53 15.30 44.46Q15.17 44.39 15.09 44.28L15.09 44.28L15.23 44.16Q15.30 44.26 15.40 44.31Q15.49 44.36 15.61 44.36L15.61 44.36Q15.74 44.36 15.81 44.30Q15.88 44.25 15.88 44.15L15.88 44.15Q15.88 44.08 15.83 44.02Q15.78 43.97 15.66 43.95L15.66 43.95L15.55 43.93Q15.44 43.91 15.34 43.87Q15.25 43.83 15.19 43.76Q15.14 43.68 15.14 43.56L15.14 43.56Q15.14 43.37 15.27 43.27Q15.40 43.18 15.60 43.18L15.60 43.18Q15.70 43.18 15.78 43.20Q15.87 43.23 15.93 43.28Q16.00 43.32 16.05 43.39L16.05 43.39L15.92 43.51Q15.87 43.45 15.79 43.40Q15.71 43.35 15.58 43.35L15.58 43.35Q15.46 43.35 15.40 43.40Q15.33 43.46 15.33 43.55L15.33 43.55Q15.33 43.64 15.39 43.69Q15.46 43.73 15.58 43.75L15.58 43.75L15.68 43.77Q15.89 43.80 15.98 43.89Q16.07 43.98 16.07 44.13L16.07 44.13Q16.07 44.25 16.02 44.34Q15.96 44.43 15.85 44.48Q15.74 44.53 15.60 44.53ZM16.63 44.50L16.43 44.50L16.43 42.65L16.63 42.65L16.63 43.59L16.63 43.82L16.64 43.82L16.83 43.60L17.20 43.21L17.44 43.21L16.96 43.72L17.49 44.50L17.25 44.50L16.82 43.84L16.63 44.04L16.63 44.50ZM18.23 44.53L18.23 44.53Q18.06 44.53 17.93 44.45Q17.80 44.36 17.72 44.21Q17.65 44.06 17.65 43.85L17.65 43.85Q17.65 43.65 17.72 43.50Q17.80 43.35 17.93 43.26Q18.06 43.18 18.23 43.18L18.23 43.18Q18.40 43.18 18.53 43.26Q18.67 43.35 18.74 43.50Q18.81 43.65 18.81 43.85L18.81 43.85Q18.81 44.06 18.74 44.21Q18.67 44.36 18.53 44.45Q18.40 44.53 18.23 44.53ZM18.23 44.35L18.23 44.35Q18.39 44.35 18.50 44.25Q18.60 44.15 18.60 43.95L18.60 43.95L18.60 43.76Q18.60 43.56 18.50 43.46Q18.39 43.36 18.23 43.36L18.23 43.36Q18.07 43.36 17.97 43.46Q17.86 43.56 17.86 43.76L17.86 43.76L17.86 43.95Q17.86 44.15 17.97 44.25Q18.07 44.35 18.23 44.35ZM20.17 44.50L19.97 44.50L19.97 44.29L19.96 44.29Q19.90 44.41 19.81 44.47Q19.71 44.53 19.58 44.53L19.58 44.53Q19.42 44.53 19.30 44.45Q19.18 44.37 19.12 44.21Q19.05 44.06 19.05 43.85L19.05 43.85Q19.05 43.65 19.12 43.50Q19.18 43.34 19.30 43.26Q19.42 43.18 19.58 43.18L19.58 43.18Q19.71 43.18 19.81 43.24Q19.91 43.30 19.96 43.42L19.96 43.42L19.97 43.42L19.97 42.65L20.17 42.65L20.17 44.50ZM19.63 44.35L19.63 44.35Q19.73 44.35 19.80 44.32Q19.88 44.29 19.92 44.23Q19.97 44.17 19.97 44.09L19.97 44.09L19.97 43.61Q19.97 43.53 19.92 43.48Q19.88 43.42 19.80 43.39Q19.73 43.36 19.63 43.36L19.63 43.36Q19.47 43.36 19.37 43.47Q19.27 43.57 19.27 43.74L19.27 43.74L19.27 43.97Q19.27 44.14 19.37 44.24Q19.47 44.35 19.63 44.35ZM20.69 42.91L20.69 42.91Q20.63 42.91 20.60 42.88Q20.57 42.84 20.57 42.80L20.57 42.80L20.57 42.76Q20.57 42.71 20.60 42.68Q20.63 42.65 20.69 42.65L20.69 42.65Q20.76 42.65 20.79 42.68Q20.81 42.71 20.81 42.76L20.81 42.76L20.81 42.80Q20.81 42.84 20.79 42.88Q20.76 42.91 20.69 42.91ZM20.79 44.50L20.59 44.50L20.59 43.21L20.79 43.21L20.79 44.50ZM21.42 43.60L21.42 44.50L21.22 44.50L21.22 43.21L21.42 43.21L21.42 43.42L21.43 43.42Q21.47 43.31 21.56 43.24Q21.65 43.18 21.79 43.18L21.79 43.18Q21.99 43.18 22.11 43.31Q22.22 43.44 22.22 43.67L22.22 43.67L22.22 44.50L22.02 44.50L22.02 43.71Q22.02 43.53 21.95 43.45Q21.88 43.36 21.73 43.36L21.73 43.36Q21.65 43.36 21.58 43.39Q21.51 43.41 21.46 43.47Q21.42 43.52 21.42 43.60L21.42 43.60ZM22.76 44.53L22.76 44.53Q22.69 44.53 22.65 44.49Q22.61 44.45 22.61 44.38L22.61 44.38L22.61 44.35Q22.61 44.29 22.65 44.25Q22.69 44.21 22.76 44.21L22.76 44.21Q22.84 44.21 22.88 44.25Q22.92 44.29 22.92 44.35L22.92 44.35L22.92 44.38Q22.92 44.45 22.88 44.49Q22.84 44.53 22.76 44.53ZM24.37 44.33L24.37 44.50L24.25 44.50Q24.17 44.50 24.12 44.47Q24.07 44.43 24.05 44.37Q24.03 44.31 24.03 44.23L24.03 44.23L24.03 44.22L24.11 44.29L24.02 44.29Q23.98 44.41 23.88 44.47Q23.78 44.53 23.65 44.53L23.65 44.53Q23.44 44.53 23.33 44.42Q23.21 44.32 23.21 44.14L23.21 44.14Q23.21 44.02 23.27 43.93Q23.33 43.85 23.46 43.81Q23.58 43.76 23.76 43.76L23.76 43.76L24.02 43.76L24.02 43.63Q24.02 43.50 23.94 43.42Q23.87 43.35 23.71 43.35L23.71 43.35Q23.60 43.35 23.52 43.41Q23.44 43.46 23.39 43.55L23.39 43.55L23.27 43.43Q23.32 43.33 23.43 43.26Q23.55 43.18 23.72 43.18L23.72 43.18Q23.96 43.18 24.09 43.30Q24.22 43.41 24.22 43.62L24.22 43.62L24.22 44.33L24.37 44.33ZM24.02 44.13L24.02 43.91L23.75 43.91Q23.58 43.91 23.50 43.96Q23.42 44.01 23.42 44.11L23.42 44.11L23.42 44.16Q23.42 44.26 23.49 44.31Q23.56 44.36 23.68 44.36L23.68 44.36Q23.78 44.36 23.86 44.33Q23.93 44.30 23.98 44.24Q24.02 44.19 24.02 44.13L24.02 44.13ZM24.85 45L24.65 45L24.65 43.21L24.85 43.21L24.85 43.42L24.86 43.42Q24.91 43.30 25.01 43.24Q25.11 43.18 25.24 43.18L25.24 43.18Q25.40 43.18 25.52 43.26Q25.64 43.34 25.70 43.50Q25.76 43.65 25.76 43.85L25.76 43.85Q25.76 44.06 25.70 44.21Q25.64 44.37 25.52 44.45Q25.40 44.53 25.24 44.53L25.24 44.53Q25.11 44.53 25.01 44.47Q24.92 44.41 24.86 44.29L24.86 44.29L24.85 44.29L24.85 45ZM25.18 44.35L25.18 44.35Q25.35 44.35 25.45 44.24Q25.55 44.14 25.55 43.97L25.55 43.97L25.55 43.74Q25.55 43.57 25.45 43.47Q25.35 43.36 25.18 43.36L25.18 43.36Q25.09 43.36 25.02 43.39Q24.94 43.42 24.90 43.48Q24.85 43.53 24.85 43.61L24.85 43.61L24.85 44.09Q24.85 44.17 24.90 44.23Q24.94 44.29 25.02 44.32Q25.09 44.35 25.18 44.35ZM26.30 45L26.10 45L26.10 43.21L26.30 43.21L26.30 43.42L26.31 43.42Q26.36 43.30 26.46 43.24Q26.56 43.18 26.69 43.18L26.69 43.18Q26.85 43.18 26.97 43.26Q27.09 43.34 27.15 43.50Q27.21 43.65 27.21 43.85L27.21 43.85Q27.21 44.06 27.15 44.21Q27.09 44.37 26.97 44.45Q26.85 44.53 26.69 44.53L26.69 44.53Q26.56 44.53 26.46 44.47Q26.37 44.41 26.31 44.29L26.31 44.29L26.30 44.29L26.30 45ZM26.63 44.35L26.63 44.35Q26.80 44.35 26.90 44.24Q27.00 44.14 27.00 43.97L27.00 43.97L27.00 43.74Q27.00 43.57 26.90 43.47Q26.80 43.36 26.63 43.36L26.63 43.36Q26.54 43.36 26.47 43.39Q26.39 43.42 26.35 43.48Q26.30 43.53 26.30 43.61L26.30 43.61L26.30 44.09Q26.30 44.17 26.35 44.23Q26.39 44.29 26.47 44.32Q26.54 44.35 26.63 44.35Z" fill="#4A5568"/>
  <path d="M80.98 50.17L80.98 50.17Q79.71 50.17 78.74 49.59Q77.78 49.02 77.25 47.89Q76.73 46.77 76.73 45.11L76.73 45.11Q76.73 43.46 77.25 42.34Q77.78 41.21 78.74 40.63Q79.71 40.06 80.98 40.06L80.98 40.06Q82.27 40.06 83.23 40.63Q84.19 41.21 84.72 42.34Q85.24 43.46 85.24 45.11L85.24 45.11Q85.24 46.77 84.72 47.89Q84.19 49.02 83.23 49.59Q82.27 50.17 80.98 50.17ZM80.98 48.53L80.98 48.53Q81.70 48.53 82.21 48.21Q82.72 47.89 83 47.29Q83.28 46.70 83.28 45.87L83.28 45.87L83.28 44.36Q83.28 43.52 83 42.93Q82.72 42.34 82.21 42.02Q81.70 41.70 80.98 41.70L80.98 41.70Q80.30 41.70 79.78 42.02Q79.26 42.34 78.97 42.93Q78.69 43.52 78.69 44.36L78.69 44.36L78.69 45.87Q78.69 46.70 78.97 47.29Q79.26 47.89 79.78 48.21Q80.30 48.53 80.98 48.53Z" fill="#147B58" opacity="0.07"/>
  <path d="M 80.984 43.99400000000001 L 82.104 45.114000000000004 L 80.984 46.234 L 79.86399999999999 45.114000000000004 Z" fill="#DB4A2B" opacity="0.12"/>
</svg>