<?xml version="1.0" encoding="UTF-8"?>
<svg xmlns="http://www.w3.org/2000/svg" viewBox="0 0 93 55" width="93mm" height="55mm">
  <title>askOdin Business Card - Back (Dark)</title>
  <rect width="93" height="55" fill="#111119"/>
  <rect y="53.8" width="93" height="1.2" fill="#DB4A2B"/>
  <path d="M46.50 32.00L46.50 32.00Q44.86 32.00 43.62 31.26Q42.38 30.52 41.70 29.07Q41.03 27.62 41.03 25.50L41.03 25.50Q41.03 23.38 41.70 21.93Q42.38 20.48 43.62 19.74Q44.86 19.00 46.50 19.00L46.50 19.00Q48.16 19.00 49.39 19.74Q50.62 20.48 51.30 21.93Q51.97 23.38 51.97 25.50L51.97 25.50Q51.97 27.62 51.30 29.07Q50.62 30.52 49.39 31.26Q48.16 32.00 46.50 32.00ZM46.50 29.89L46.50 29.89Q47.42 29.89 48.08 29.48Q48.73 29.06 49.09 28.30Q49.45 27.53 49.45 26.47L49.45 26.47L49.45 24.53Q49.45 23.45 49.09 22.69Q48.73 21.94 48.08 21.52Q47.42 21.11 46.50 21.11L46.50 21.11Q45.62 21.11 44.95 21.52Q44.29 21.94 43.92 22.69Q43.55 23.45 43.55 24.53L43.55 24.53L43.55 26.47Q43.55 27.53 43.92 28.30Q44.29 29.06 44.95 29.48Q45.62 29.89 46.50 29.89Z" fill="#147B58"/>
  <path d="M 46.5 24.059999999999995 L 47.94 25.499999999999996 L 46.5 26.939999999999998 L 45.06 25.499999999999996 Z" fill="#DB4A2B"/>
  <path d="M23.97 35.63L23.97 35.46L24.68 35.46L24.68 36.60Q24.68 36.73 24.63 36.83Q24.57 36.92 24.47 36.97Q24.37 37.02 24.24 37.02L24.24 37.02Q24.06 37.02 23.95 36.93Q23.85 36.83 23.81 36.67L23.81 36.67L23.98 36.63Q24.00 36.73 24.07 36.80Q24.13 36.86 24.25 36.86L24.25 36.86Q24.36 36.86 24.43 36.79Q24.50 36.71 24.50 36.57L24.50 36.57L24.50 35.63L23.97 35.63ZM25.94 37.00L25.76 37.00L25.76 36.81L25.75 36.81Q25.72 36.89 25.65 36.96Q25.58 37.02 25.43 37.02L25.43 37.02Q25.26 37.02 25.16 36.91Q25.05 36.80 25.05 36.59L25.05 36.59L25.05 35.86L25.23 35.86L25.23 36.56Q25.23 36.71 25.29 36.79Q25.36 36.87 25.49 36.87L25.49 36.87Q25.56 36.87 25.62 36.84Q25.68 36.82 25.72 36.77Q25.76 36.72 25.76 36.65L25.76 36.65L25.76 35.86L25.94 35.86L25.94 37.00ZM27.21 37.00L27.04 37.00L27.04 36.81L27.03 36.81Q26.98 36.92 26.90 36.97Q26.81 37.02 26.70 37.02L26.70 37.02Q26.56 37.02 26.45 36.95Q26.35 36.88 26.29 36.74Q26.23 36.61 26.23 36.43L26.23 36.43Q26.23 36.25 26.29 36.11Q26.35 35.98 26.45 35.91Q26.56 35.84 26.70 35.84L26.70 35.84Q26.81 35.84 26.90 35.89Q26.98 35.94 27.03 36.05L27.03 36.05L27.04 36.05L27.04 35.37L27.21 35.37L27.21 37.00ZM26.75 36.87L26.75 36.87Q26.83 36.87 26.89 36.84Q26.96 36.81 27.00 36.76Q27.04 36.71 27.04 36.63L27.04 36.63L27.04 36.21Q27.04 36.15 27.00 36.10Q26.96 36.05 26.89 36.02Q26.83 35.99 26.75 35.99L26.75 35.99Q26.60 35.99 26.51 36.09Q26.42 36.18 26.42 36.33L26.42 36.33L26.42 36.53Q26.42 36.68 26.51 36.77Q26.60 36.87 26.75 36.87ZM28.54 37.12L28.54 37.12Q28.54 37.24 28.48 37.32Q28.42 37.39 28.30 37.43Q28.18 37.46 27.99 37.46L27.99 37.46Q27.82 37.46 27.71 37.43Q27.60 37.40 27.55 37.34Q27.50 37.27 27.50 37.18L27.50 37.18Q27.50 37.09 27.54 37.04Q27.59 36.99 27.68 36.96L27.68 36.96L27.68 36.94Q27.63 36.92 27.60 36.88Q27.57 36.84 27.57 36.78L27.57 36.78Q27.57 36.70 27.63 36.65Q27.68 36.61 27.77 36.58L27.77 36.58L27.77 36.58Q27.67 36.53 27.61 36.44Q27.56 36.35 27.56 36.23L27.56 36.23Q27.56 36.11 27.61 36.02Q27.66 35.94 27.76 35.89Q27.86 35.84 27.98 35.84L27.98 35.84Q28.05 35.84 28.10 35.85Q28.15 35.86 28.20 35.88L28.20 35.88L28.20 35.86Q28.20 35.79 28.23 35.75Q28.26 35.71 28.33 35.71L28.33 35.71L28.50 35.71L28.50 35.86L28.29 35.86L28.29 35.94Q28.35 35.99 28.38 36.06Q28.41 36.14 28.41 36.23L28.41 36.23Q28.41 36.34 28.36 36.43Q28.31 36.52 28.21 36.57Q28.12 36.62 27.99 36.62L27.99 36.62Q27.96 36.62 27.93 36.62Q27.90 36.61 27.88 36.61L27.88 36.61Q27.82 36.62 27.77 36.65Q27.73 36.68 27.73 36.74L27.73 36.74Q27.73 36.79 27.77 36.80Q27.82 36.82 27.90 36.82L27.90 36.82L28.14 36.82Q28.35 36.82 28.45 36.90Q28.54 36.98 28.54 37.12ZM28.38 37.14L28.38 37.14Q28.38 37.07 28.33 37.03Q28.28 36.99 28.14 36.99L28.14 36.99L27.77 36.99Q27.71 37.01 27.69 37.05Q27.66 37.09 27.66 37.14L27.66 37.14Q27.66 37.22 27.72 37.27Q27.77 37.32 27.91 37.32L27.91 37.32L28.07 37.32Q28.22 37.32 28.30 37.28Q28.38 37.23 28.38 37.14ZM27.99 36.48L27.99 36.48Q28.10 36.48 28.16 36.42Q28.23 36.37 28.23 36.26L28.23 36.26L28.23 36.20Q28.23 36.09 28.16 36.03Q28.10 35.98 27.99 35.98L27.99 35.98Q27.87 35.98 27.81 36.03Q27.74 36.09 27.74 36.20L27.74 36.20L27.74 36.26Q27.74 36.37 27.81 36.42Q27.87 36.48 27.99 36.48ZM28.93 36.21L28.93 37.00L28.75 37.00L28.75 35.86L28.93 35.86L28.93 36.05L28.93 36.05Q28.97 35.96 29.04 35.90Q29.11 35.84 29.24 35.84L29.24 35.84Q29.35 35.84 29.45 35.89Q29.54 35.94 29.59 36.07L29.59 36.07L29.59 36.07Q29.62 35.97 29.71 35.91Q29.79 35.84 29.94 35.84L29.94 35.84Q30.11 35.84 30.21 35.95Q30.31 36.06 30.31 36.27L30.31 36.27L30.31 37.00L30.13 37.00L30.13 36.30Q30.13 36.15 30.07 36.07Q30.01 35.99 29.88 35.99L29.88 35.99Q29.81 35.99 29.75 36.02Q29.69 36.04 29.65 36.09Q29.62 36.14 29.62 36.21L29.62 36.21L29.62 37.00L29.44 37.00L29.44 36.30Q29.44 36.15 29.38 36.07Q29.32 35.99 29.20 35.99L29.20 35.99Q29.13 35.99 29.07 36.02Q29.00 36.04 28.96 36.09Q28.93 36.14 28.93 36.21L28.93 36.21ZM31.10 37.02L31.10 37.02Q30.94 37.02 30.83 36.95Q30.71 36.88 30.65 36.74Q30.59 36.61 30.59 36.43L30.59 36.43Q30.59 36.25 30.65 36.12Q30.71 35.98 30.83 35.91Q30.94 35.84 31.10 35.84L31.10 35.84Q31.25 35.84 31.36 35.91Q31.47 35.98 31.53 36.10Q31.59 36.23 31.59 36.39L31.59 36.39L31.59 36.47L30.77 36.47L30.77 36.53Q30.77 36.67 30.86 36.77Q30.95 36.87 31.11 36.87L31.11 36.87Q31.22 36.87 31.30 36.82Q31.38 36.77 31.42 36.67L31.42 36.67L31.55 36.76Q31.49 36.88 31.37 36.95Q31.26 37.02 31.10 37.02ZM31.10 35.98L31.10 35.98Q31.00 35.98 30.93 36.03Q30.85 36.07 30.81 36.15Q30.77 36.23 30.77 36.33L30.77 36.33L30.77 36.34L31.40 36.34L31.40 36.32Q31.40 36.22 31.36 36.14Q31.32 36.07 31.26 36.03Q31.19 35.98 31.10 35.98ZM32.05 36.21L32.05 37.00L31.88 37.00L31.88 35.86L32.05 35.86L32.05 36.05L32.06 36.05Q32.10 35.95 32.18 35.89Q32.26 35.84 32.38 35.84L32.38 35.84Q32.56 35.84 32.66 35.95Q32.76 36.06 32.76 36.27L32.76 36.27L32.76 37.00L32.59 37.00L32.59 36.30Q32.59 36.15 32.52 36.07Q32.46 35.99 32.33 35.99L32.33 35.99Q32.26 35.99 32.20 36.02Q32.13 36.04 32.09 36.09Q32.05 36.14 32.05 36.21L32.05 36.21ZM33.60 36.84L33.60 37.00L33.38 37.00Q33.29 37.00 33.24 36.95Q33.19 36.89 33.19 36.81L33.19 36.81L33.19 36.02L33.00 36.02L33.00 35.86L33.11 35.86Q33.17 35.86 33.19 35.84Q33.21 35.82 33.21 35.76L33.21 35.76L33.21 35.55L33.37 35.55L33.37 35.86L33.62 35.86L33.62 36.02L33.37 36.02L33.37 36.84L33.60 36.84ZM34.98 36.84L34.98 37.00L34.36 37.00L34.36 36.84L34.58 36.84L34.58 35.62L34.36 35.62L34.36 35.46L34.98 35.46L34.98 35.62L34.76 35.62L34.76 36.84L34.98 36.84ZM35.47 36.21L35.47 37.00L35.30 37.00L35.30 35.86L35.47 35.86L35.47 36.05L35.48 36.05Q35.53 35.95 35.60 35.89Q35.68 35.84 35.80 35.84L35.80 35.84Q35.98 35.84 36.08 35.95Q36.19 36.06 36.19 36.27L36.19 36.27L36.19 37.00L36.01 37.00L36.01 36.30Q36.01 36.15 35.94 36.07Q35.88 35.99 35.75 35.99L35.75 35.99Q35.68 35.99 35.62 36.02Q35.55 36.04 35.51 36.09Q35.47 36.14 35.47 36.21L35.47 36.21ZM36.79 37.00L36.61 37.00L36.61 36.02L36.43 36.02L36.43 35.86L36.61 35.86L36.61 35.63Q36.61 35.52 36.67 35.44Q36.73 35.37 36.86 35.37L36.86 35.37L37.03 35.37L37.03 35.52L36.79 35.52L36.79 35.86L37.03 35.86L37.03 36.02L36.79 36.02L36.79 37.00ZM37.44 36.23L37.44 37.00L37.26 37.00L37.26 35.86L37.44 35.86L37.44 36.07L37.45 36.07Q37.47 36.02 37.51 35.97Q37.55 35.92 37.62 35.89Q37.68 35.86 37.78 35.86L37.78 35.86L37.84 35.86L37.84 36.04L37.74 36.04Q37.65 36.04 37.58 36.06Q37.51 36.09 37.47 36.13Q37.44 36.17 37.44 36.23L37.44 36.23ZM38.99 36.84L38.99 37.00L38.89 37.00Q38.82 37.00 38.78 36.97Q38.74 36.94 38.72 36.89Q38.70 36.83 38.70 36.76L38.70 36.76L38.70 36.75L38.76 36.81L38.69 36.81Q38.65 36.92 38.56 36.97Q38.48 37.02 38.36 37.02L38.36 37.02Q38.18 37.02 38.08 36.93Q37.98 36.84 37.98 36.68L37.98 36.68Q37.98 36.57 38.03 36.50Q38.08 36.43 38.19 36.39Q38.30 36.35 38.46 36.35L38.46 36.35L38.69 36.35L38.69 36.24Q38.69 36.12 38.62 36.05Q38.55 35.99 38.42 35.99L38.42 35.99Q38.32 35.99 38.25 36.03Q38.18 36.08 38.13 36.16L38.13 36.16L38.02 36.06Q38.07 35.97 38.17 35.90Q38.27 35.84 38.43 35.84L38.43 35.84Q38.63 35.84 38.75 35.94Q38.86 36.04 38.86 36.22L38.86 36.22L38.86 36.84L38.99 36.84ZM38.69 36.67L38.69 36.48L38.45 36.48Q38.30 36.48 38.23 36.52Q38.16 36.57 38.16 36.65L38.16 36.65L38.16 36.70Q38.16 36.78 38.22 36.83Q38.29 36.87 38.39 36.87L38.39 36.87Q38.48 36.87 38.54 36.85Q38.61 36.82 38.65 36.77Q38.69 36.73 38.69 36.67L38.69 36.67ZM39.58 37.02L39.58 37.02Q39.43 37.02 39.32 36.96Q39.21 36.90 39.14 36.80L39.14 36.80L39.26 36.70Q39.33 36.78 39.41 36.83Q39.49 36.87 39.60 36.87L39.60 36.87Q39.71 36.87 39.77 36.83Q39.84 36.78 39.84 36.69L39.84 36.69Q39.84 36.62 39.79 36.58Q39.75 36.53 39.64 36.51L39.64 36.51L39.55 36.50Q39.44 36.48 39.36 36.45Q39.28 36.41 39.23 36.34Q39.18 36.28 39.18 36.17L39.18 36.17Q39.18 36.00 39.30 35.92Q39.41 35.84 39.59 35.84L39.59 35.84Q39.68 35.84 39.75 35.86Q39.82 35.88 39.88 35.92Q39.94 35.96 39.98 36.02L39.98 36.02L39.87 36.12Q39.83 36.07 39.76 36.03Q39.68 35.99 39.57 35.99L39.57 35.99Q39.47 35.99 39.41 36.03Q39.35 36.08 39.35 36.16L39.35 36.16Q39.35 36.24 39.41 36.28Q39.46 36.32 39.57 36.34L39.57 36.34L39.66 36.35Q39.85 36.38 39.93 36.46Q40.00 36.54 40.00 36.67L40.00 36.67Q40.00 36.78 39.95 36.86Q39.90 36.94 39.81 36.98Q39.71 37.02 39.58 37.02ZM40.79 36.84L40.79 37.00L40.57 37.00Q40.48 37.00 40.43 36.95Q40.38 36.89 40.38 36.81L40.38 36.81L40.38 36.02L40.19 36.02L40.19 35.86L40.30 35.86Q40.35 35.86 40.38 35.84Q40.40 35.82 40.40 35.76L40.40 35.76L40.40 35.55L40.55 35.55L40.55 35.86L40.80 35.86L40.80 36.02L40.55 36.02L40.55 36.84L40.79 36.84ZM41.26 36.23L41.26 37.00L41.09 37.00L41.09 35.86L41.26 35.86L41.26 36.07L41.27 36.07Q41.29 36.02 41.34 35.97Q41.38 35.92 41.44 35.89Q41.51 35.86 41.60 35.86L41.60 35.86L41.67 35.86L41.67 36.04L41.57 36.04Q41.47 36.04 41.40 36.06Q41.34 36.09 41.30 36.13Q41.26 36.17 41.26 36.23L41.26 36.23ZM42.77 37.00L42.59 37.00L42.59 36.81L42.59 36.81Q42.55 36.89 42.48 36.96Q42.41 37.02 42.27 37.02L42.27 37.02Q42.09 37.02 41.99 36.91Q41.88 36.80 41.88 36.59L41.88 36.59L41.88 35.86L42.06 35.86L42.06 36.56Q42.06 36.71 42.13 36.79Q42.19 36.87 42.32 36.87L42.32 36.87Q42.39 36.87 42.45 36.84Q42.51 36.82 42.55 36.77Q42.59 36.72 42.59 36.65L42.59 36.65L42.59 35.86L42.77 35.86L42.77 37.00ZM43.57 37.02L43.57 37.02Q43.33 37.02 43.19 36.86Q43.06 36.70 43.06 36.43L43.06 36.43Q43.06 36.16 43.19 36.00Q43.33 35.84 43.57 35.84L43.57 35.84Q43.74 35.84 43.84 35.91Q43.94 35.99 43.99 36.10L43.99 36.10L43.84 36.18Q43.81 36.09 43.74 36.04Q43.67 35.99 43.57 35.99L43.57 35.99Q43.41 35.99 43.33 36.09Q43.25 36.18 43.25 36.33L43.25 36.33L43.25 36.53Q43.25 36.67 43.33 36.77Q43.41 36.87 43.57 36.87L43.57 36.87Q43.67 36.87 43.75 36.82Q43.83 36.77 43.87 36.67L43.87 36.67L44.00 36.76Q43.95 36.88 43.84 36.95Q43.73 37.02 43.57 37.02ZM44.72 36.84L44.72 37.00L44.50 37.00Q44.41 37.00 44.36 36.95Q44.31 36.89 44.31 36.81L44.31 36.81L44.31 36.02L44.13 36.02L44.13 35.86L44.23 35.86Q44.29 35.86 44.31 35.84Q44.33 35.82 44.33 35.76L44.33 35.76L44.33 35.55L44.49 35.55L44.49 35.86L44.74 35.86L44.74 36.02L44.49 36.02L44.49 36.84L44.72 36.84ZM45.90 37.00L45.72 37.00L45.72 36.81L45.71 36.81Q45.68 36.89 45.61 36.96Q45.54 37.02 45.39 37.02L45.39 37.02Q45.22 37.02 45.12 36.91Q45.01 36.80 45.01 36.59L45.01 36.59L45.01 35.86L45.19 35.86L45.19 36.56Q45.19 36.71 45.25 36.79Q45.32 36.87 45.45 36.87L45.45 36.87Q45.52 36.87 45.58 36.84Q45.64 36.82 45.68 36.77Q45.72 36.72 45.72 36.65L45.72 36.65L45.72 35.86L45.90 35.86L45.90 37.00ZM46.45 36.23L46.45 37.00L46.27 37.00L46.27 35.86L46.45 35.86L46.45 36.07L46.46 36.07Q46.48 36.02 46.52 35.97Q46.56 35.92 46.63 35.89Q46.69 35.86 46.79 35.86L46.79 35.86L46.86 35.86L46.86 36.04L46.75 36.04Q46.66 36.04 46.59 36.06Q46.52 36.09 46.48 36.13Q46.45 36.17 46.45 36.23L46.45 36.23ZM47.51 37.02L47.51 37.02Q47.35 37.02 47.24 36.95Q47.12 36.88 47.06 36.74Q47.00 36.61 47.00 36.43L47.00 36.43Q47.00 36.25 47.06 36.12Q47.12 35.98 47.24 35.91Q47.35 35.84 47.51 35.84L47.51 35.84Q47.66 35.84 47.77 35.91Q47.88 35.98 47.94 36.10Q48.00 36.23 48.00 36.39L48.00 36.39L48.00 36.47L47.18 36.47L47.18 36.53Q47.18 36.67 47.27 36.77Q47.36 36.87 47.52 36.87L47.52 36.87Q47.63 36.87 47.71 36.82Q47.79 36.77 47.83 36.67L47.83 36.67L47.96 36.76Q47.90 36.88 47.78 36.95Q47.67 37.02 47.51 37.02ZM47.51 35.98L47.51 35.98Q47.41 35.98 47.34 36.03Q47.26 36.07 47.22 36.15Q47.18 36.23 47.18 36.33L47.18 36.33L47.18 36.34L47.81 36.34L47.81 36.32Q47.81 36.22 47.77 36.14Q47.73 36.07 47.66 36.03Q47.60 35.98 47.51 35.98ZM49.04 37.00L48.87 37.00L48.87 36.02L48.68 36.02L48.68 35.86L48.87 35.86L48.87 35.63Q48.87 35.52 48.93 35.44Q48.99 35.37 49.12 35.37L49.12 35.37L49.29 35.37L49.29 35.52L49.04 35.52L49.04 35.86L49.29 35.86L49.29 36.02L49.04 36.02L49.04 37.00ZM49.95 37.02L49.95 37.02Q49.80 37.02 49.68 36.95Q49.57 36.88 49.50 36.74Q49.44 36.61 49.44 36.43L49.44 36.43Q49.44 36.25 49.50 36.12Q49.57 35.98 49.68 35.91Q49.80 35.84 49.95 35.84L49.95 35.84Q50.10 35.84 50.22 35.91Q50.33 35.98 50.40 36.12Q50.46 36.25 50.46 36.43L50.46 36.43Q50.46 36.61 50.40 36.74Q50.33 36.88 50.22 36.95Q50.10 37.02 49.95 37.02ZM49.95 36.87L49.95 36.87Q50.09 36.87 50.18 36.78Q50.27 36.69 50.27 36.51L50.27 36.51L50.27 36.35Q50.27 36.17 50.18 36.08Q50.09 35.99 49.95 35.99L49.95 35.99Q49.81 35.99 49.72 36.08Q49.63 36.17 49.63 36.35L49.63 36.35L49.63 36.51Q49.63 36.69 49.72 36.78Q49.81 36.87 49.95 36.87ZM50.93 36.23L50.93 37.00L50.75 37.00L50.75 35.86L50.93 35.86L50.93 36.07L50.94 36.07Q50.96 36.02 51.00 35.97Q51.04 35.92 51.11 35.89Q51.17 35.86 51.27 35.86L51.27 35.86L51.33 35.86L51.33 36.04L51.23 36.04Q51.14 36.04 51.07 36.06Q51.00 36.09 50.96 36.13Q50.93 36.17 50.93 36.23L50.93 36.23ZM52.64 37.02L52.64 37.02Q52.44 37.02 52.30 36.94Q52.17 36.85 52.09 36.67Q52.02 36.50 52.02 36.24L52.02 36.24Q52.02 35.98 52.09 35.80Q52.17 35.62 52.30 35.53Q52.44 35.44 52.64 35.44L52.64 35.44Q52.83 35.44 52.96 35.52Q53.09 35.61 53.16 35.77L53.16 35.77L53.02 35.86Q52.97 35.74 52.87 35.67Q52.78 35.60 52.64 35.60L52.64 35.60Q52.44 35.60 52.33 35.75Q52.22 35.89 52.22 36.12L52.22 36.12L52.22 36.35Q52.22 36.59 52.33 36.72Q52.44 36.86 52.64 36.86L52.64 36.86Q52.78 36.86 52.88 36.78Q52.98 36.71 53.03 36.58L53.03 36.58L53.18 36.67Q53.10 36.84 52.97 36.93Q52.83 37.02 52.64 37.02ZM54.37 36.84L54.37 37.00L54.27 37.00Q54.20 37.00 54.15 36.97Q54.11 36.94 54.09 36.89Q54.07 36.83 54.07 36.76L54.07 36.76L54.07 36.75L54.14 36.81L54.06 36.81Q54.03 36.92 53.94 36.97Q53.85 37.02 53.73 37.02L53.73 37.02Q53.55 37.02 53.45 36.93Q53.35 36.84 53.35 36.68L53.35 36.68Q53.35 36.57 53.41 36.50Q53.46 36.43 53.57 36.39Q53.67 36.35 53.84 36.35L53.84 36.35L54.06 36.35L54.06 36.24Q54.06 36.12 54.00 36.05Q53.93 35.99 53.79 35.99L53.79 35.99Q53.69 35.99 53.62 36.03Q53.55 36.08 53.51 36.16L53.51 36.16L53.40 36.06Q53.45 35.97 53.55 35.90Q53.65 35.84 53.80 35.84L53.80 35.84Q54.01 35.84 54.12 35.94Q54.24 36.04 54.24 36.22L54.24 36.22L54.24 36.84L54.37 36.84ZM54.06 36.67L54.06 36.48L53.83 36.48Q53.68 36.48 53.61 36.52Q53.54 36.57 53.54 36.65L53.54 36.65L53.54 36.70Q53.54 36.78 53.60 36.83Q53.66 36.87 53.76 36.87L53.76 36.87Q53.85 36.87 53.92 36.85Q53.99 36.82 54.02 36.77Q54.06 36.73 54.06 36.67L54.06 36.67ZM54.80 37.44L54.62 37.44L54.62 35.86L54.80 35.86L54.80 36.05L54.80 36.05Q54.85 35.94 54.93 35.89Q55.02 35.84 55.14 35.84L55.14 35.84Q55.28 35.84 55.38 35.91Q55.49 35.98 55.54 36.11Q55.60 36.25 55.60 36.43L55.60 36.43Q55.60 36.61 55.54 36.74Q55.49 36.88 55.38 36.95Q55.28 37.02 55.14 37.02L55.14 37.02Q55.02 37.02 54.94 36.97Q54.85 36.92 54.80 36.81L54.80 36.81L54.80 36.81L54.80 37.44ZM55.09 36.87L55.09 36.87Q55.24 36.87 55.32 36.77Q55.41 36.68 55.41 36.53L55.41 36.53L55.41 36.33Q55.41 36.18 55.32 36.09Q55.24 35.99 55.09 35.99L55.09 35.99Q55.01 35.99 54.94 36.02Q54.87 36.05 54.83 36.10Q54.80 36.15 54.80 36.21L54.80 36.21L54.80 36.63Q54.80 36.71 54.83 36.76Q54.87 36.81 54.94 36.84Q55.01 36.87 55.09 36.87ZM55.98 35.60L55.98 35.60Q55.93 35.60 55.90 35.57Q55.88 35.54 55.88 35.50L55.88 35.50L55.88 35.47Q55.88 35.42 55.90 35.40Q55.93 35.37 55.98 35.37L55.98 35.37Q56.04 35.37 56.07 35.40Q56.09 35.42 56.09 35.47L56.09 35.47L56.09 35.50Q56.09 35.54 56.07 35.57Q56.04 35.60 55.98 35.60ZM56.07 37.00L55.90 37.00L55.90 35.86L56.07 35.86L56.07 37.00ZM56.92 36.84L56.92 37.00L56.70 37.00Q56.61 37.00 56.56 36.95Q56.51 36.89 56.51 36.81L56.51 36.81L56.51 36.02L56.32 36.02L56.32 35.86L56.43 35.86Q56.48 35.86 56.51 35.84Q56.53 35.82 56.53 35.76L56.53 35.76L56.53 35.55L56.68 35.55L56.68 35.86L56.93 35.86L56.93 36.02L56.68 36.02L56.68 36.84L56.92 36.84ZM58.14 36.84L58.14 37.00L58.04 37.00Q57.97 37.00 57.93 36.97Q57.88 36.94 57.86 36.89Q57.84 36.83 57.84 36.76L57.84 36.76L57.84 36.75L57.91 36.81L57.84 36.81Q57.80 36.92 57.71 36.97Q57.63 37.02 57.51 37.02L57.51 37.02Q57.33 37.02 57.23 36.93Q57.13 36.84 57.13 36.68L57.13 36.68Q57.13 36.57 57.18 36.50Q57.23 36.43 57.34 36.39Q57.45 36.35 57.61 36.35L57.61 36.35L57.84 36.35L57.84 36.24Q57.84 36.12 57.77 36.05Q57.70 35.99 57.57 35.99L57.57 35.99Q57.47 35.99 57.40 36.03Q57.33 36.08 57.28 36.16L57.28 36.16L57.17 36.06Q57.22 35.97 57.32 35.90Q57.42 35.84 57.58 35.84L57.58 35.84Q57.78 35.84 57.90 35.94Q58.01 36.04 58.01 36.22L58.01 36.22L58.01 36.84L58.14 36.84ZM57.84 36.67L57.84 36.48L57.60 36.48Q57.45 36.48 57.38 36.52Q57.31 36.57 57.31 36.65L57.31 36.65L57.31 36.70Q57.31 36.78 57.37 36.83Q57.44 36.87 57.54 36.87L57.54 36.87Q57.62 36.87 57.69 36.85Q57.76 36.82 57.80 36.77Q57.84 36.73 57.84 36.67L57.84 36.67ZM58.74 36.84L58.74 37.00L58.58 37.00Q58.49 37.00 58.44 36.95Q58.39 36.89 58.39 36.82L58.39 36.82L58.39 35.37L58.57 35.37L58.57 36.84L58.74 36.84ZM60.15 35.46L60.68 37.00L60.49 37.00L60.33 36.54L59.71 36.54L59.56 37.00L59.37 37.00L59.91 35.46L60.15 35.46ZM59.76 36.38L60.29 36.38L60.09 35.83L60.03 35.63L60.02 35.63L59.95 35.83L59.76 36.38ZM61.26 36.84L61.26 37.00L61.11 37.00Q61.02 37.00 60.97 36.95Q60.92 36.89 60.92 36.82L60.92 36.82L60.92 35.37L61.10 35.37L61.10 36.84L61.26 36.84ZM61.86 36.84L61.86 37.00L61.71 37.00Q61.62 37.00 61.57 36.95Q61.52 36.89 61.52 36.82L61.52 36.82L61.52 35.37L61.69 35.37L61.69 36.84L61.86 36.84ZM62.55 37.02L62.55 37.02Q62.39 37.02 62.28 36.95Q62.16 36.88 62.10 36.74Q62.03 36.61 62.03 36.43L62.03 36.43Q62.03 36.25 62.10 36.12Q62.16 35.98 62.28 35.91Q62.39 35.84 62.55 35.84L62.55 35.84Q62.70 35.84 62.81 35.91Q62.93 35.98 62.99 36.12Q63.06 36.25 63.06 36.43L63.06 36.43Q63.06 36.61 62.99 36.74Q62.93 36.88 62.81 36.95Q62.70 37.02 62.55 37.02ZM62.55 36.87L62.55 36.87Q62.69 36.87 62.78 36.78Q62.87 36.69 62.87 36.51L62.87 36.51L62.87 36.35Q62.87 36.17 62.78 36.08Q62.69 35.99 62.55 35.99L62.55 35.99Q62.40 35.99 62.31 36.08Q62.22 36.17 62.22 36.35L62.22 36.35L62.22 36.51Q62.22 36.69 62.31 36.78Q62.40 36.87 62.55 36.87ZM63.77 37.02L63.77 37.02Q63.53 37.02 63.40 36.86Q63.27 36.70 63.27 36.43L63.27 36.43Q63.27 36.16 63.40 36.00Q63.53 35.84 63.77 35.84L63.77 35.84Q63.94 35.84 64.04 35.91Q64.15 35.99 64.20 36.10L64.20 36.10L64.05 36.18Q64.02 36.09 63.95 36.04Q63.87 35.99 63.77 35.99L63.77 35.99Q63.61 35.99 63.53 36.09Q63.45 36.18 63.45 36.33L63.45 36.33L63.45 36.53Q63.45 36.67 63.53 36.77Q63.61 36.87 63.77 36.87L63.77 36.87Q63.88 36.87 63.96 36.82Q64.03 36.77 64.08 36.67L64.08 36.67L64.21 36.76Q64.15 36.88 64.04 36.95Q63.93 37.02 63.77 37.02ZM65.38 36.84L65.38 37.00L65.28 37.00Q65.21 37.00 65.17 36.97Q65.12 36.94 65.10 36.89Q65.08 36.83 65.08 36.76L65.08 36.76L65.08 36.75L65.15 36.81L65.07 36.81Q65.04 36.92 64.95 36.97Q64.86 37.02 64.75 37.02L64.75 37.02Q64.57 37.02 64.47 36.93Q64.37 36.84 64.37 36.68L64.37 36.68Q64.37 36.57 64.42 36.50Q64.47 36.43 64.58 36.39Q64.68 36.35 64.85 36.35L64.85 36.35L65.07 36.35L65.07 36.24Q65.07 36.12 65.01 36.05Q64.94 35.99 64.81 35.99L64.81 35.99Q64.70 35.99 64.63 36.03Q64.56 36.08 64.52 36.16L64.52 36.16L64.41 36.06Q64.46 35.97 64.56 35.90Q64.66 35.84 64.81 35.84L64.81 35.84Q65.02 35.84 65.13 35.94Q65.25 36.04 65.25 36.22L65.25 36.22L65.25 36.84L65.38 36.84ZM65.07 36.67L65.07 36.48L64.84 36.48Q64.69 36.48 64.62 36.52Q64.55 36.57 64.55 36.65L64.55 36.65L64.55 36.70Q64.55 36.78 64.61 36.83Q64.67 36.87 64.77 36.87L64.77 36.87Q64.86 36.87 64.93 36.85Q65.00 36.82 65.03 36.77Q65.07 36.73 65.07 36.67L65.07 36.67ZM66.10 36.84L66.10 37.00L65.88 37.00Q65.79 37.00 65.74 36.95Q65.69 36.89 65.69 36.81L65.69 36.81L65.69 36.02L65.51 36.02L65.51 35.86L65.61 35.86Q65.67 35.86 65.69 35.84Q65.71 35.82 65.71 35.76L65.71 35.76L65.71 35.55L65.87 35.55L65.87 35.86L66.12 35.86L66.12 36.02L65.87 36.02L65.87 36.84L66.10 36.84ZM66.49 35.60L66.49 35.60Q66.44 35.60 66.41 35.57Q66.38 35.54 66.38 35.50L66.38 35.50L66.38 35.47Q66.38 35.42 66.41 35.40Q66.44 35.37 66.49 35.37L66.49 35.37Q66.55 35.37 66.57 35.40Q66.60 35.42 66.60 35.47L66.60 35.47L66.60 35.50Q66.60 35.54 66.57 35.57Q66.55 35.60 66.49 35.60ZM66.58 37.00L66.40 37.00L66.40 35.86L66.58 35.86L66.58 37.00ZM67.38 37.02L67.38 37.02Q67.23 37.02 67.11 36.95Q67.00 36.88 66.93 36.74Q66.87 36.61 66.87 36.43L66.87 36.43Q66.87 36.25 66.93 36.12Q67.00 35.98 67.11 35.91Q67.23 35.84 67.38 35.84L67.38 35.84Q67.53 35.84 67.65 35.91Q67.76 35.98 67.83 36.12Q67.89 36.25 67.89 36.43L67.89 36.43Q67.89 36.61 67.83 36.74Q67.76 36.88 67.65 36.95Q67.53 37.02 67.38 37.02ZM67.38 36.87L67.38 36.87Q67.52 36.87 67.61 36.78Q67.70 36.69 67.70 36.51L67.70 36.51L67.70 36.35Q67.70 36.17 67.61 36.08Q67.52 35.99 67.38 35.99L67.38 35.99Q67.24 35.99 67.15 36.08Q67.06 36.17 67.06 36.35L67.06 36.35L67.06 36.51Q67.06 36.69 67.15 36.78Q67.24 36.87 67.38 36.87ZM68.36 36.21L68.36 37.00L68.18 37.00L68.18 35.86L68.36 35.86L68.36 36.05L68.37 36.05Q68.41 35.95 68.49 35.89Q68.56 35.84 68.69 35.84L68.69 35.84Q68.87 35.84 68.97 35.95Q69.07 36.06 69.07 36.27L69.07 36.27L69.07 37.00L68.89 37.00L68.89 36.30Q68.89 36.15 68.83 36.07Q68.77 35.99 68.64 35.99L68.64 35.99Q68.57 35.99 68.50 36.02Q68.44 36.04 68.40 36.09Q68.36 36.14 68.36 36.21L68.36 36.21Z" fill="#6B7A8D"/>
  <path d="M33.56 49.54L33.56 48.88L33.70 48.88L33.70 49.57Q33.70 49.68 33.72 49.75Q33.75 49.83 33.81 49.86Q33.86 49.90 33.96 49.90L33.96 49.90Q34.06 49.90 34.12 49.86Q34.18 49.83 34.20 49.75Q34.23 49.68 34.23 49.57L34.23 49.57L34.23 48.88L34.36 48.88L34.36 49.54Q34.36 49.70 34.33 49.81Q34.29 49.92 34.20 49.97Q34.11 50.02 33.96 50.02L33.96 50.02Q33.81 50.02 33.72 49.97Q33.64 49.92 33.60 49.81Q33.56 49.70 33.56 49.54L33.56 49.54ZM34.72 50.02L34.72 50.02Q34.67 50.02 34.65 49.99Q34.63 49.97 34.63 49.93L34.63 49.93L34.63 49.91Q34.63 49.86 34.65 49.84Q34.67 49.81 34.72 49.81L34.72 49.81Q34.77 49.81 34.80 49.84Q34.82 49.86 34.82 49.91L34.82 49.91L34.82 49.93Q34.82 49.97 34.80 49.99Q34.77 50.02 34.72 50.02ZM35.40 50.02L35.40 50.02Q35.27 50.02 35.17 49.97Q35.08 49.92 35.01 49.82L35.01 49.82L35.11 49.74Q35.17 49.82 35.24 49.86Q35.31 49.90 35.41 49.90L35.41 49.90Q35.53 49.90 35.59 49.84Q35.65 49.79 35.65 49.69L35.65 49.69Q35.65 49.64 35.63 49.60Q35.61 49.56 35.57 49.54Q35.52 49.51 35.45 49.50L35.45 49.50L35.36 49.48Q35.26 49.45 35.19 49.41Q35.12 49.38 35.08 49.32Q35.04 49.25 35.04 49.17L35.04 49.17Q35.04 49.07 35.09 49.00Q35.13 48.93 35.22 48.90Q35.30 48.86 35.41 48.86L35.41 48.86Q35.54 48.86 35.63 48.91Q35.72 48.96 35.78 49.05L35.78 49.05L35.68 49.12Q35.64 49.06 35.57 49.02Q35.50 48.98 35.40 48.98L35.40 48.98Q35.30 48.98 35.24 49.03Q35.17 49.08 35.17 49.16L35.17 49.16Q35.17 49.22 35.20 49.25Q35.22 49.29 35.27 49.31Q35.31 49.33 35.38 49.35L35.38 49.35L35.48 49.37Q35.58 49.40 35.65 49.44Q35.72 49.48 35.75 49.54Q35.79 49.60 35.79 49.68L35.79 49.68Q35.79 49.79 35.74 49.86Q35.69 49.94 35.61 49.98Q35.52 50.02 35.40 50.02ZM36.09 50.02L36.09 50.02Q36.04 50.02 36.01 49.99Q35.99 49.97 35.99 49.93L35.99 49.93L35.99 49.91Q35.99 49.86 36.01 49.84Q36.04 49.81 36.09 49.81L36.09 49.81Q36.14 49.81 36.16 49.84Q36.19 49.86 36.19 49.91L36.19 49.91L36.19 49.93Q36.19 49.97 36.16 49.99Q36.14 50.02 36.09 50.02ZM36.97 49.52L36.97 50L36.83 50L36.83 48.88L37.28 48.88Q37.38 48.88 37.45 48.92Q37.52 48.96 37.55 49.03Q37.59 49.10 37.59 49.20L37.59 49.20Q37.59 49.30 37.55 49.37Q37.52 49.44 37.45 49.48Q37.38 49.52 37.28 49.52L37.28 49.52L36.97 49.52ZM37.28 49.00L36.97 49.00L36.97 49.40L37.28 49.40Q37.33 49.40 37.37 49.39Q37.40 49.37 37.42 49.33Q37.44 49.30 37.44 49.24L37.44 49.24L37.44 49.16Q37.44 49.11 37.42 49.07Q37.40 49.04 37.37 49.02Q37.33 49.00 37.28 49.00L37.28 49.00ZM38.46 49.89L38.46 50L38.39 50Q38.34 50 38.31 49.98Q38.27 49.96 38.26 49.92Q38.24 49.88 38.24 49.83L38.24 49.83L38.24 49.82L38.29 49.87L38.24 49.87Q38.21 49.94 38.15 49.98Q38.09 50.02 38.00 50.02L38.00 50.02Q37.87 50.02 37.80 49.95Q37.72 49.88 37.72 49.77L37.72 49.77Q37.72 49.69 37.76 49.64Q37.80 49.58 37.88 49.56Q37.96 49.53 38.08 49.53L38.08 49.53L38.24 49.53L38.24 49.45Q38.24 49.36 38.19 49.31Q38.14 49.27 38.04 49.27L38.04 49.27Q37.97 49.27 37.92 49.30Q37.87 49.33 37.83 49.39L37.83 49.39L37.76 49.32Q37.79 49.25 37.86 49.20Q37.94 49.16 38.05 49.16L38.05 49.16Q38.20 49.16 38.28 49.23Q38.37 49.30 38.37 49.43L38.37 49.43L38.37 49.89L38.46 49.89ZM38.24 49.76L38.24 49.62L38.07 49.62Q37.96 49.62 37.91 49.66Q37.86 49.69 37.86 49.75L37.86 49.75L37.86 49.78Q37.86 49.84 37.90 49.88Q37.95 49.91 38.02 49.91L38.02 49.91Q38.08 49.91 38.13 49.89Q38.18 49.87 38.21 49.84Q38.24 49.80 38.24 49.76L38.24 49.76ZM38.99 49.89L38.99 50L38.83 50Q38.76 50 38.72 49.96Q38.69 49.92 38.69 49.86L38.69 49.86L38.69 49.29L38.55 49.29L38.55 49.17L38.63 49.17Q38.67 49.17 38.69 49.16Q38.70 49.14 38.70 49.10L38.70 49.10L38.70 48.95L38.82 48.95L38.82 49.17L39.00 49.17L39.00 49.29L38.82 49.29L38.82 49.89L38.99 49.89ZM39.52 50.02L39.52 50.02Q39.40 50.02 39.32 49.97Q39.24 49.91 39.19 49.82Q39.14 49.72 39.14 49.59L39.14 49.59Q39.14 49.46 39.19 49.36Q39.24 49.26 39.32 49.21Q39.40 49.16 39.52 49.16L39.52 49.16Q39.63 49.16 39.71 49.21Q39.79 49.26 39.83 49.35Q39.87 49.44 39.87 49.56L39.87 49.56L39.87 49.62L39.28 49.62L39.28 49.66Q39.28 49.76 39.34 49.84Q39.41 49.91 39.52 49.91L39.52 49.91Q39.60 49.91 39.66 49.87Q39.72 49.83 39.75 49.76L39.75 49.76L39.84 49.83Q39.80 49.91 39.72 49.97Q39.63 50.02 39.52 50.02ZM39.52 49.26L39.52 49.26Q39.45 49.26 39.39 49.29Q39.34 49.33 39.31 49.38Q39.28 49.44 39.28 49.51L39.28 49.51L39.28 49.52L39.73 49.52L39.73 49.51Q39.73 49.43 39.71 49.38Q39.68 49.32 39.63 49.29Q39.58 49.26 39.52 49.26ZM40.21 49.43L40.21 50L40.08 50L40.08 49.17L40.21 49.17L40.21 49.31L40.22 49.31Q40.25 49.24 40.30 49.20Q40.36 49.16 40.45 49.16L40.45 49.16Q40.58 49.16 40.65 49.24Q40.73 49.32 40.73 49.47L40.73 49.47L40.73 50L40.60 50L40.60 49.49Q40.60 49.38 40.55 49.33Q40.51 49.27 40.41 49.27L40.41 49.27Q40.36 49.27 40.32 49.29Q40.27 49.30 40.24 49.34Q40.21 49.37 40.21 49.43L40.21 49.43ZM41.33 49.89L41.33 50L41.17 50Q41.11 50 41.07 49.96Q41.04 49.92 41.04 49.86L41.04 49.86L41.04 49.29L40.90 49.29L40.90 49.17L40.98 49.17Q41.02 49.17 41.04 49.16Q41.05 49.14 41.05 49.10L41.05 49.10L41.05 48.95L41.17 48.95L41.17 49.17L41.35 49.17L41.35 49.29L41.17 49.29L41.17 49.89L41.33 49.89ZM42.08 49.52L42.08 50L41.94 50L41.94 48.88L42.39 48.88Q42.49 48.88 42.56 48.92Q42.63 48.96 42.66 49.03Q42.70 49.10 42.70 49.20L42.70 49.20Q42.70 49.30 42.66 49.37Q42.63 49.44 42.56 49.48Q42.49 49.52 42.39 49.52L42.39 49.52L42.08 49.52ZM42.39 49.00L42.08 49.00L42.08 49.40L42.39 49.40Q42.44 49.40 42.48 49.39Q42.52 49.37 42.54 49.33Q42.56 49.30 42.56 49.24L42.56 49.24L42.56 49.16Q42.56 49.11 42.54 49.07Q42.52 49.04 42.48 49.02Q42.44 49.00 42.39 49.00L42.39 49.00ZM43.21 50.02L43.21 50.02Q43.10 50.02 43.02 49.97Q42.93 49.91 42.89 49.82Q42.84 49.72 42.84 49.59L42.84 49.59Q42.84 49.46 42.89 49.36Q42.93 49.26 43.02 49.21Q43.10 49.16 43.21 49.16L43.21 49.16Q43.32 49.16 43.40 49.21Q43.48 49.26 43.52 49.35Q43.57 49.44 43.57 49.56L43.57 49.56L43.57 49.62L42.97 49.62L42.97 49.66Q42.97 49.76 43.04 49.84Q43.10 49.91 43.22 49.91L43.22 49.91Q43.30 49.91 43.36 49.87Q43.41 49.83 43.45 49.76L43.45 49.76L43.54 49.83Q43.50 49.91 43.41 49.97Q43.33 50.02 43.21 50.02ZM43.21 49.26L43.21 49.26Q43.14 49.26 43.09 49.29Q43.04 49.33 43.00 49.38Q42.97 49.44 42.97 49.51L42.97 49.51L42.97 49.52L43.43 49.52L43.43 49.51Q43.43 49.43 43.40 49.38Q43.38 49.32 43.33 49.29Q43.28 49.26 43.21 49.26ZM43.91 49.43L43.91 50L43.78 50L43.78 49.17L43.91 49.17L43.91 49.31L43.91 49.31Q43.94 49.24 44.00 49.20Q44.05 49.16 44.15 49.16L44.15 49.16Q44.28 49.16 44.35 49.24Q44.42 49.32 44.42 49.47L44.42 49.47L44.42 50L44.30 50L44.30 49.49Q44.30 49.38 44.25 49.33Q44.20 49.27 44.11 49.27L44.11 49.27Q44.06 49.27 44.01 49.29Q43.96 49.30 43.94 49.34Q43.91 49.37 43.91 49.43L43.91 49.43ZM45.34 50L45.22 50L45.22 49.87L45.21 49.87Q45.17 49.94 45.11 49.98Q45.05 50.02 44.97 50.02L44.97 50.02Q44.87 50.02 44.79 49.97Q44.71 49.91 44.67 49.82Q44.63 49.72 44.63 49.59L44.63 49.59Q44.63 49.45 44.67 49.36Q44.71 49.26 44.79 49.21Q44.87 49.16 44.97 49.16L44.97 49.16Q45.05 49.16 45.12 49.19Q45.18 49.23 45.21 49.31L45.21 49.31L45.22 49.31L45.22 48.82L45.34 48.82L45.34 50ZM45.00 49.90L45.00 49.90Q45.06 49.90 45.11 49.88Q45.16 49.86 45.19 49.83Q45.22 49.79 45.22 49.74L45.22 49.74L45.22 49.43Q45.22 49.38 45.19 49.35Q45.16 49.31 45.11 49.29Q45.06 49.27 45.00 49.27L45.00 49.27Q44.90 49.27 44.83 49.34Q44.77 49.41 44.77 49.52L44.77 49.52L44.77 49.66Q44.77 49.77 44.83 49.84Q44.90 49.90 45.00 49.90ZM45.68 48.98L45.68 48.98Q45.64 48.98 45.62 48.96Q45.60 48.94 45.60 48.91L45.60 48.91L45.60 48.89Q45.60 48.86 45.62 48.84Q45.64 48.82 45.68 48.82L45.68 48.82Q45.72 48.82 45.74 48.84Q45.76 48.86 45.76 48.89L45.76 48.89L45.76 48.91Q45.76 48.94 45.74 48.96Q45.72 48.98 45.68 48.98ZM45.74 50L45.62 50L45.62 49.17L45.74 49.17L45.74 50ZM46.14 49.43L46.14 50L46.02 50L46.02 49.17L46.14 49.17L46.14 49.31L46.15 49.31Q46.18 49.24 46.24 49.20Q46.29 49.16 46.38 49.16L46.38 49.16Q46.51 49.16 46.59 49.24Q46.66 49.32 46.66 49.47L46.66 49.47L46.66 50L46.53 50L46.53 49.49Q46.53 49.38 46.49 49.33Q46.44 49.27 46.35 49.27L46.35 49.27Q46.29 49.27 46.25 49.29Q46.20 49.30 46.17 49.34Q46.14 49.37 46.14 49.43L46.14 49.43ZM47.62 50.09L47.62 50.09Q47.62 50.18 47.58 50.23Q47.53 50.29 47.44 50.31Q47.35 50.34 47.22 50.34L47.22 50.34Q47.09 50.34 47.01 50.32Q46.93 50.29 46.89 50.25Q46.86 50.20 46.86 50.14L46.86 50.14Q46.86 50.07 46.89 50.03Q46.93 49.99 46.99 49.98L46.99 49.98L46.99 49.96Q46.95 49.94 46.93 49.91Q46.92 49.88 46.92 49.84L46.92 49.84Q46.92 49.78 46.96 49.75Q47.00 49.72 47.06 49.70L47.06 49.70L47.06 49.69Q46.98 49.66 46.94 49.59Q46.90 49.53 46.90 49.44L46.90 49.44Q46.90 49.36 46.94 49.29Q46.98 49.23 47.05 49.19Q47.12 49.16 47.21 49.16L47.21 49.16Q47.26 49.16 47.30 49.16Q47.34 49.17 47.37 49.19L47.37 49.19L47.37 49.17Q47.37 49.12 47.39 49.09Q47.41 49.06 47.47 49.06L47.47 49.06L47.59 49.06L47.59 49.17L47.43 49.17L47.43 49.23Q47.48 49.27 47.50 49.32Q47.53 49.37 47.53 49.44L47.53 49.44Q47.53 49.52 47.49 49.59Q47.45 49.65 47.38 49.69Q47.31 49.72 47.21 49.72L47.21 49.72Q47.19 49.72 47.17 49.72Q47.15 49.72 47.13 49.72L47.13 49.72Q47.09 49.73 47.06 49.75Q47.03 49.77 47.03 49.81L47.03 49.81Q47.03 49.85 47.06 49.86Q47.10 49.87 47.15 49.87L47.15 49.87L47.33 49.87Q47.48 49.87 47.55 49.93Q47.62 49.99 47.62 50.09ZM47.50 50.10L47.50 50.10Q47.50 50.05 47.46 50.02Q47.43 49.99 47.33 49.99L47.33 49.99L47.05 49.99Q47.01 50.01 47.00 50.04Q46.98 50.07 46.98 50.10L46.98 50.10Q46.98 50.16 47.02 50.20Q47.06 50.24 47.16 50.24L47.16 50.24L47.28 50.24Q47.38 50.24 47.44 50.20Q47.50 50.17 47.50 50.10ZM47.21 49.62L47.21 49.62Q47.30 49.62 47.34 49.58Q47.39 49.54 47.39 49.46L47.39 49.46L47.39 49.42Q47.39 49.34 47.34 49.30Q47.30 49.26 47.21 49.26L47.21 49.26Q47.13 49.26 47.08 49.30Q47.04 49.34 47.04 49.42L47.04 49.42L47.04 49.46Q47.04 49.54 47.08 49.58Q47.13 49.62 47.21 49.62ZM48.99 50L48.84 50L48.43 49.32L48.30 49.07L48.29 49.07L48.29 49.32L48.29 50L48.16 50L48.16 48.88L48.32 48.88L48.72 49.56L48.86 49.81L48.86 49.81L48.86 49.56L48.86 48.88L48.99 48.88L48.99 50ZM49.59 50.02L49.59 50.02Q49.48 50.02 49.40 49.97Q49.31 49.91 49.26 49.82Q49.22 49.72 49.22 49.59L49.22 49.59Q49.22 49.46 49.26 49.36Q49.31 49.26 49.40 49.21Q49.48 49.16 49.59 49.16L49.59 49.16Q49.70 49.16 49.78 49.21Q49.87 49.26 49.92 49.36Q49.96 49.46 49.96 49.59L49.96 49.59Q49.96 49.72 49.92 49.82Q49.87 49.91 49.78 49.97Q49.70 50.02 49.59 50.02ZM49.59 49.91L49.59 49.91Q49.69 49.91 49.76 49.84Q49.83 49.78 49.83 49.65L49.83 49.65L49.83 49.53Q49.83 49.40 49.76 49.33Q49.69 49.27 49.59 49.27L49.59 49.27Q49.49 49.27 49.42 49.33Q49.36 49.40 49.36 49.53L49.36 49.53L49.36 49.65Q49.36 49.78 49.42 49.84Q49.49 49.91 49.59 49.91ZM50.26 50.02L50.26 50.02Q50.21 50.02 50.18 49.99Q50.16 49.97 50.16 49.93L50.16 49.93L50.16 49.91Q50.16 49.86 50.18 49.84Q50.21 49.81 50.26 49.81L50.26 49.81Q50.31 49.81 50.33 49.84Q50.35 49.86 50.35 49.91L50.35 49.91L50.35 49.93Q50.35 49.97 50.33 49.99Q50.31 50.02 50.26 50.02ZM51.33 50.02L51.33 50.02Q51.22 50.02 51.13 49.97Q51.05 49.92 51.00 49.82Q50.96 49.72 50.96 49.59L50.96 49.59Q50.96 49.47 50.99 49.36Q51.03 49.25 51.09 49.16Q51.15 49.07 51.22 49.00Q51.29 48.93 51.36 48.88L51.36 48.88L51.53 48.88Q51.41 48.97 51.33 49.05Q51.24 49.14 51.18 49.24Q51.13 49.33 51.10 49.46L51.10 49.46L51.11 49.47Q51.13 49.42 51.17 49.38Q51.20 49.35 51.26 49.33Q51.31 49.31 51.37 49.31L51.37 49.31Q51.47 49.31 51.54 49.35Q51.62 49.39 51.66 49.47Q51.70 49.54 51.70 49.65L51.70 49.65Q51.70 49.76 51.66 49.84Q51.61 49.93 51.53 49.97Q51.44 50.02 51.33 50.02ZM51.33 49.90L51.33 49.90Q51.40 49.90 51.46 49.88Q51.51 49.85 51.54 49.80Q51.56 49.74 51.56 49.67L51.56 49.67L51.56 49.65Q51.56 49.58 51.54 49.53Q51.51 49.47 51.46 49.45Q51.40 49.42 51.33 49.42L51.33 49.42Q51.26 49.42 51.21 49.45Q51.15 49.47 51.13 49.53Q51.10 49.58 51.10 49.65L51.10 49.65L51.10 49.67Q51.10 49.74 51.13 49.80Q51.15 49.85 51.21 49.88Q51.26 49.90 51.33 49.90ZM52.11 49.47L52.11 49.36L52.23 49.36Q52.34 49.36 52.40 49.30Q52.46 49.25 52.46 49.17L52.46 49.17L52.46 49.16Q52.46 49.07 52.40 49.03Q52.35 48.98 52.26 48.98L52.26 48.98Q52.17 48.98 52.12 49.02Q52.06 49.06 52.03 49.12L52.03 49.12L51.93 49.05Q51.96 49.00 52.00 48.96Q52.04 48.92 52.11 48.89Q52.17 48.86 52.26 48.86L52.26 48.86Q52.35 48.86 52.43 48.90Q52.51 48.93 52.55 48.99Q52.60 49.05 52.60 49.15L52.60 49.15Q52.60 49.25 52.54 49.32Q52.47 49.38 52.38 49.41L52.38 49.41L52.38 49.41Q52.44 49.42 52.50 49.46Q52.55 49.49 52.59 49.55Q52.62 49.61 52.62 49.69L52.62 49.69Q52.62 49.79 52.57 49.86Q52.52 49.94 52.44 49.98Q52.35 50.02 52.24 50.02L52.24 50.02Q52.14 50.02 52.08 49.99Q52.01 49.96 51.96 49.92Q51.91 49.88 51.88 49.83L51.88 49.83L51.98 49.75Q52.02 49.82 52.08 49.86Q52.14 49.90 52.24 49.90L52.24 49.90Q52.36 49.90 52.42 49.84Q52.48 49.79 52.48 49.69L52.48 49.69L52.48 49.68Q52.48 49.58 52.42 49.53Q52.36 49.47 52.24 49.47L52.24 49.47L52.11 49.47ZM53.32 48.82L52.90 50.24L52.79 50.24L53.20 48.82L53.32 48.82ZM54.24 49.29L54.24 49.29Q54.24 49.42 54.20 49.53Q54.16 49.64 54.10 49.73Q54.04 49.82 53.98 49.89Q53.91 49.96 53.84 50L53.84 50L53.67 50Q53.79 49.91 53.87 49.83Q53.96 49.75 54.01 49.65Q54.07 49.55 54.10 49.42L54.10 49.42L54.09 49.42Q54.06 49.46 54.03 49.50Q53.99 49.54 53.94 49.56Q53.89 49.58 53.82 49.58L53.82 49.58Q53.72 49.58 53.65 49.54Q53.58 49.49 53.53 49.42Q53.49 49.34 53.49 49.23L53.49 49.23Q53.49 49.12 53.54 49.04Q53.58 48.96 53.67 48.91Q53.75 48.86 53.86 48.86L53.86 48.86Q53.98 48.86 54.06 48.92Q54.15 48.97 54.19 49.06Q54.24 49.16 54.24 49.29ZM53.86 49.46L53.86 49.46Q53.94 49.46 53.99 49.44Q54.04 49.41 54.07 49.36Q54.10 49.30 54.10 49.23L54.10 49.23L54.10 49.22Q54.10 49.14 54.07 49.09Q54.04 49.04 53.99 49.01Q53.94 48.98 53.86 48.98L53.86 48.98Q53.79 48.98 53.74 49.01Q53.69 49.04 53.66 49.09Q53.63 49.14 53.63 49.22L53.63 49.22L53.63 49.23Q53.63 49.30 53.66 49.36Q53.69 49.41 53.74 49.44Q53.79 49.46 53.86 49.46ZM55.07 49.78L55.07 50L54.94 50L54.94 49.78L54.40 49.78L54.40 49.66L54.87 48.88L55.07 48.88L55.07 49.67L55.23 49.67L55.23 49.78L55.07 49.78ZM54.94 48.99L54.94 48.99L54.53 49.67L54.94 49.67L54.94 48.99ZM55.78 50.02L55.78 50.02Q55.66 50.02 55.57 49.98Q55.48 49.93 55.44 49.86Q55.40 49.79 55.40 49.70L55.40 49.70Q55.40 49.58 55.46 49.51Q55.52 49.45 55.62 49.42L55.62 49.42L55.62 49.41Q55.53 49.38 55.48 49.31Q55.43 49.24 55.43 49.14L55.43 49.14Q55.43 49.02 55.52 48.94Q55.62 48.86 55.78 48.86L55.78 48.86Q55.95 48.86 56.04 48.94Q56.14 49.02 56.14 49.14L56.14 49.14Q56.14 49.24 56.09 49.31Q56.03 49.38 55.95 49.41L55.95 49.41L55.95 49.42Q56.05 49.45 56.11 49.51Q56.17 49.58 56.17 49.70L56.17 49.70Q56.17 49.79 56.13 49.86Q56.08 49.93 56.00 49.98Q55.91 50.02 55.78 50.02ZM55.78 49.90L55.78 49.90Q55.90 49.90 55.96 49.85Q56.03 49.80 56.03 49.70L56.03 49.70L56.03 49.67Q56.03 49.57 55.96 49.52Q55.90 49.47 55.78 49.47L55.78 49.47Q55.67 49.47 55.60 49.52Q55.54 49.57 55.54 49.67L55.54 49.67L55.54 49.70Q55.54 49.80 55.60 49.85Q55.67 49.90 55.78 49.90ZM55.78 49.36L55.78 49.36Q55.89 49.36 55.94 49.31Q56.00 49.27 56.00 49.18L56.00 49.18L56.00 49.16Q56.00 49.07 55.94 49.03Q55.89 48.98 55.78 48.98L55.78 48.98Q55.68 48.98 55.62 49.03Q55.57 49.07 55.57 49.16L55.57 49.16L55.57 49.18Q55.57 49.27 55.62 49.31Q55.68 49.36 55.78 49.36ZM56.48 49.81L56.48 49.81Q56.53 49.81 56.56 49.84Q56.58 49.87 56.58 49.91L56.58 49.91L56.58 49.93Q56.58 49.99 56.54 50.07Q56.50 50.15 56.43 50.21L56.43 50.21L56.33 50.21Q56.37 50.16 56.40 50.12Q56.43 50.07 56.45 50.01L56.45 50.01Q56.41 50.01 56.40 49.98Q56.38 49.96 56.38 49.93L56.38 49.93L56.38 49.91Q56.38 49.87 56.41 49.84Q56.43 49.81 56.48 49.81ZM56.90 48.88L57.50 48.88L57.50 49.00L57.01 49.00L56.97 49.43L56.99 49.43Q57.01 49.39 57.04 49.36Q57.07 49.33 57.12 49.32Q57.16 49.30 57.21 49.30L57.21 49.30Q57.31 49.30 57.39 49.35Q57.46 49.39 57.50 49.46Q57.55 49.54 57.55 49.65L57.55 49.65Q57.55 49.76 57.50 49.84Q57.46 49.92 57.37 49.97Q57.29 50.02 57.17 50.02L57.17 50.02Q57.08 50.02 57.01 49.99Q56.95 49.96 56.90 49.92Q56.86 49.88 56.82 49.83L56.82 49.83L56.92 49.75Q56.97 49.82 57.02 49.86Q57.07 49.90 57.17 49.90L57.17 49.90Q57.28 49.90 57.34 49.84Q57.40 49.78 57.40 49.67L57.40 49.67L57.40 49.65Q57.40 49.54 57.34 49.48Q57.28 49.42 57.17 49.42L57.17 49.42Q57.09 49.42 57.05 49.45Q57.01 49.48 56.97 49.51L56.97 49.51L56.86 49.50L56.90 48.88ZM57.86 48.88L58.46 48.88L58.46 49.00L57.97 49.00L57.93 49.43L57.95 49.43Q57.97 49.39 58.00 49.36Q58.03 49.33 58.08 49.32Q58.12 49.30 58.17 49.30L58.17 49.30Q58.27 49.30 58.35 49.35Q58.42 49.39 58.46 49.46Q58.51 49.54 58.51 49.65L58.51 49.65Q58.51 49.76 58.46 49.84Q58.42 49.92 58.33 49.97Q58.25 50.02 58.13 50.02L58.13 50.02Q58.04 50.02 57.97 49.99Q57.91 49.96 57.86 49.92Q57.82 49.88 57.78 49.83L57.78 49.83L57.88 49.75Q57.93 49.82 57.98 49.86Q58.03 49.90 58.13 49.90L58.13 49.90Q58.24 49.90 58.30 49.84Q58.36 49.78 58.36 49.67L58.36 49.67L58.36 49.65Q58.36 49.54 58.30 49.48Q58.24 49.42 58.13 49.42L58.13 49.42Q58.05 49.42 58.01 49.45Q57.97 49.48 57.93 49.51L57.93 49.51L57.82 49.50L57.86 48.88ZM59.47 49.29L59.47 49.29Q59.47 49.42 59.44 49.53Q59.40 49.64 59.34 49.73Q59.28 49.82 59.21 49.89Q59.14 49.96 59.07 50L59.07 50L58.90 50Q59.02 49.91 59.11 49.83Q59.19 49.75 59.25 49.65Q59.30 49.55 59.33 49.42L59.33 49.42L59.32 49.42Q59.30 49.46 59.26 49.50Q59.23 49.54 59.18 49.56Q59.12 49.58 59.06 49.58L59.06 49.58Q58.96 49.58 58.89 49.54Q58.81 49.49 58.77 49.42Q58.73 49.34 58.73 49.23L58.73 49.23Q58.73 49.12 58.77 49.04Q58.82 48.96 58.90 48.91Q58.99 48.86 59.10 48.86L59.10 48.86Q59.21 48.86 59.30 48.92Q59.38 48.97 59.43 49.06Q59.47 49.16 59.47 49.29ZM59.10 49.46L59.10 49.46Q59.17 49.46 59.22 49.44Q59.28 49.41 59.30 49.36Q59.33 49.30 59.33 49.23L59.33 49.23L59.33 49.22Q59.33 49.14 59.30 49.09Q59.28 49.04 59.22 49.01Q59.17 48.98 59.10 48.98L59.10 48.98Q59.03 48.98 58.97 49.01Q58.92 49.04 58.89 49.09Q58.87 49.14 58.87 49.22L58.87 49.22L58.87 49.23Q58.87 49.30 58.89 49.36Q58.92 49.41 58.97 49.44Q59.03 49.46 59.10 49.46Z" fill="#3A3A4A"/>
</svg>