<svg xmlns="http://www.w3.org/2000/svg" viewBox="0.0 144.4 787.9 184.4" width="788" height="184">
  <title>askOdin</title>
  <!-- Logomark: O with diamond -->
  <path d="M80.80 308.80L80.80 308.80Q62.60 308.80 48.80 300.60Q35 292.40 27.50 276.30Q20 260.20 20 236.60L20 236.60Q20 213.00 27.50 196.90Q35 180.80 48.80 172.60Q62.60 164.40 80.80 164.40L80.80 164.40Q99.20 164.40 112.90 172.60Q126.60 180.80 134.10 196.90Q141.60 213.00 141.60 236.60L141.60 236.60Q141.60 260.20 134.10 276.30Q126.60 292.40 112.90 300.60Q99.20 308.80 80.80 308.80ZM80.80 285.40L80.80 285.40Q91 285.40 98.30 280.80Q105.60 276.20 109.60 267.70Q113.60 259.20 113.60 247.40L113.60 247.40L113.60 225.80Q113.60 213.80 109.60 205.40Q105.60 197.00 98.30 192.40Q91 187.80 80.80 187.80L80.80 187.80Q71 187.80 63.60 192.40Q56.20 197.00 52.10 205.40Q48.00 213.80 48.00 225.80L48.00 225.80L48.00 247.40Q48.00 259.20 52.10 267.70Q56.20 276.20 63.60 280.80Q71 285.40 80.80 285.40Z" fill="#147B58"/>
  <path d="M 80.8 220.71599999999995 L 96.684 236.59999999999997 L 80.8 252.48399999999998 L 64.916 236.59999999999997 Z" fill="#DB4A2B"/>
  <!-- Wordmark -->
  <path d="M256.24 276.28L256.24 292.60L244.88 292.60Q240.24 292.60 236.64 290.44Q233.04 288.28 231.04 284.12Q229.04 279.96 229.04 274.36L229.04 274.36L229.04 272.60L234.16 278.20L228.40 278.20Q226.32 286.20 219.84 290.36Q213.36 294.52 204.08 294.52L204.08 294.52Q191.28 294.52 184.40 287.72Q177.52 280.92 177.52 269.88L177.52 269.88Q177.52 261.24 181.76 255.64Q186 250.04 194 247.16Q202 244.28 213.20 244.28L213.20 244.28L227.44 244.28L227.44 238.20Q227.44 231.32 223.76 227.40Q220.08 223.48 211.92 223.48L211.92 223.48Q204.72 223.48 200.32 226.60Q195.92 229.72 192.88 234.04L192.88 234.04L180.72 223.16Q185.36 215.96 193.04 211.56Q200.72 207.16 213.36 207.16L213.36 207.16Q230.16 207.16 239.04 214.92Q247.92 222.68 247.92 236.92L247.92 236.92L247.92 276.28L256.24 276.28ZM227.44 267.64L227.44 256.60L214.32 256.60Q206.32 256.60 202.32 259.24Q198.32 261.88 198.32 266.84L198.32 266.84L198.32 269.56Q198.32 274.52 201.68 277.08Q205.04 279.64 210.96 279.64L210.96 279.64Q215.60 279.64 219.28 278.28Q222.96 276.92 225.20 274.20Q227.44 271.48 227.44 267.64L227.44 267.64ZM300.24 294.52L300.24 294.52Q288.24 294.52 280.08 290.44Q271.92 286.36 265.68 279.16L265.68 279.16L278.16 267.00Q282.80 272.28 288.32 275.32Q293.84 278.36 301.04 278.36L301.04 278.36Q308.40 278.36 311.68 275.80Q314.96 273.24 314.96 268.76L314.96 268.76Q314.96 265.08 312.64 262.92Q310.32 260.76 304.72 259.96L304.72 259.96L296.40 258.84Q287.44 257.72 281.20 254.68Q274.96 251.64 271.76 246.36Q268.56 241.08 268.56 233.56L268.56 233.56Q268.56 221.40 277.28 214.28Q286.00 207.16 300.24 207.16L300.24 207.16Q308.40 207.16 314.24 208.68Q320.08 210.20 324.56 213.16Q329.04 216.12 332.88 220.28L332.88 220.28L320.88 232.28Q317.20 228.44 312.08 225.88Q306.96 223.32 300.88 223.32L300.88 223.32Q294.48 223.32 291.36 225.64Q288.24 227.96 288.24 231.96L288.24 231.96Q288.24 236.12 290.72 238.28Q293.20 240.44 299.12 241.40L299.12 241.40L307.60 242.52Q321.36 244.44 328 250.60Q334.64 256.76 334.64 267.16L334.64 267.16Q334.64 275.16 330.40 281.40Q326.16 287.64 318.40 291.08Q310.64 294.52 300.24 294.52ZM373.20 292.60L352.72 292.60L352.72 174.20L373.20 174.20L373.20 228.60L373.20 245.56L374 245.56L385.04 230.52L403.76 209.08L426.96 209.08L398.16 241.40L430 292.60L405.68 292.60L384.24 255.16L373.20 267.16L373.20 292.60Z" fill="#DB4A2B"/>
  <path d="M487.76 294.52L487.76 294.52Q473.20 294.52 462.16 287.96Q451.12 281.40 445.12 268.52Q439.12 255.64 439.12 236.76L439.12 236.76Q439.12 217.88 445.12 205.00Q451.12 192.12 462.16 185.56Q473.20 179.00 487.76 179.00L487.76 179.00Q502.48 179.00 513.44 185.56Q524.40 192.12 530.40 205.00Q536.40 217.88 536.40 236.76L536.40 236.76Q536.40 255.64 530.40 268.52Q524.40 281.40 513.44 287.96Q502.48 294.52 487.76 294.52ZM487.76 275.80L487.76 275.80Q495.92 275.80 501.76 272.12Q507.60 268.44 510.80 261.64Q514 254.84 514 245.40L514 245.40L514 228.12Q514 218.52 510.80 211.80Q507.60 205.08 501.76 201.40Q495.92 197.72 487.76 197.72L487.76 197.72Q479.92 197.72 474.00 201.40Q468.08 205.08 464.80 211.80Q461.52 218.52 461.52 228.12L461.52 228.12L461.52 245.40Q461.52 254.84 464.80 261.64Q468.08 268.44 474.00 272.12Q479.92 275.80 487.76 275.80ZM628.88 292.60L608.40 292.60L608.40 278.68L607.60 278.68Q605.36 285.88 599.12 290.20Q592.88 294.52 584.56 294.52L584.56 294.52Q574.16 294.52 566.88 289.40Q559.60 284.28 555.76 274.44Q551.92 264.60 551.92 250.68L551.92 250.68Q551.92 236.76 555.76 227.08Q559.60 217.40 566.88 212.28Q574.16 207.16 584.56 207.16L584.56 207.16Q592.88 207.16 599.20 211.40Q605.52 215.64 607.60 222.84L607.60 222.84L608.40 222.84L608.40 174.20L628.88 174.20L628.88 292.60ZM591.12 277.56L591.12 277.56Q596.08 277.56 600.00 275.96Q603.92 274.36 606.16 271.32Q608.40 268.28 608.40 263.96L608.40 263.96L608.40 237.40Q608.40 233.40 606.16 230.36Q603.92 227.32 600.00 225.64Q596.08 223.96 591.12 223.96L591.12 223.96Q583.28 223.96 578.32 229.32Q573.36 234.68 573.36 243.64L573.36 243.64L573.36 258.04Q573.36 266.84 578.32 272.20Q583.28 277.56 591.12 277.56ZM662.80 196.92L662.80 196.92Q656.56 196.92 653.68 193.96Q650.80 191.00 650.80 186.68L650.80 186.68L650.80 183.48Q650.80 179.00 653.68 176.12Q656.56 173.24 662.80 173.24L662.80 173.24Q669.04 173.24 671.92 176.12Q674.80 179.00 674.80 183.48L674.80 183.48L674.80 186.68Q674.80 191.00 671.92 193.96Q669.04 196.92 662.80 196.92ZM673.04 292.60L652.56 292.60L652.56 209.08L673.04 209.08L673.04 292.60ZM717.04 237.40L717.04 292.60L696.56 292.60L696.56 209.08L717.04 209.08L717.04 223.00L717.84 223.00Q720.40 216.28 725.92 211.72Q731.44 207.16 741.20 207.16L741.20 207.16Q754.00 207.16 760.96 215.72Q767.92 224.28 767.92 239.80L767.92 239.80L767.92 292.60L747.44 292.60L747.44 241.88Q747.44 233.08 744.24 228.52Q741.04 223.96 733.68 223.96L733.68 223.96Q729.52 223.96 725.68 225.48Q721.84 227.00 719.44 229.96Q717.04 232.92 717.04 237.40L717.04 237.40Z" fill="#147B58"/>
</svg>